<svg width="174" height="174" viewBox="0 0 174 174" fill="none" xmlns="http://www.w3.org/2000/svg">
<path d="M173.804 87.0017C173.804 110.256 164.642 131.37 149.732 146.933C133.961 163.395 111.758 173.644 87.1617 173.644C62.5653 173.644 40.362 163.395 24.5917 146.933C9.68131 131.37 0.519653 110.256 0.519653 87.0017C0.519653 39.1511 39.3112 0.359619 87.1617 0.359619C135.012 0.359619 173.804 39.1511 173.804 87.0017Z" fill="#E7E7E7"/>
<path d="M87.1617 91.6512C106.71 91.6512 122.557 75.8041 122.557 56.2557C122.557 36.7072 106.71 20.8601 87.1617 20.8601C67.6133 20.8601 51.7661 36.7072 51.7661 56.2557C51.7661 75.8041 67.6133 91.6512 87.1617 91.6512Z" fill="#B0B6B7"/>
<path d="M146.797 139.769C146.103 140.554 145.392 141.326 144.667 142.081C130.174 157.21 109.767 166.63 87.1617 166.63C64.5563 166.63 44.1495 157.21 29.6568 142.081C28.9313 141.326 28.2206 140.554 27.5269 139.769C27.5269 120.845 36 100.786 60.7572 96.2686C68.7155 102.196 76.13 104.687 87.1617 104.687C98.2098 104.687 106.607 102.153 113.468 96.3763C139.171 101.283 146.797 122.345 146.797 139.769Z" fill="#B0B6B7"/>
</svg>
