<svg width="169" height="256" viewBox="0 0 169 256" fill="none" xmlns="http://www.w3.org/2000/svg">
<g clip-path="url(#clip0_258_13030)">
<rect width="169" height="256" fill="#FFC8FB"/>
<g filter="url(#filter0_f_258_13030)">
<ellipse cx="122.5" cy="197" rx="60.5" ry="3" fill="#141414"/>
</g>
<g filter="url(#filter1_f_258_13030)">
<ellipse cx="122" cy="178.5" rx="12" ry="3.5" fill="#141414"/>
</g>
<path d="M47.172 220.804C47.076 220.972 46.972 221.096 46.86 221.176C46.756 221.248 46.624 221.284 46.464 221.284C46.296 221.284 46.112 221.224 45.912 221.104C45.72 220.976 45.488 220.836 45.216 220.684C44.944 220.532 44.624 220.396 44.256 220.276C43.896 220.148 43.468 220.084 42.972 220.084C42.524 220.084 42.132 220.14 41.796 220.252C41.46 220.356 41.176 220.504 40.944 220.696C40.72 220.888 40.552 221.12 40.44 221.392C40.328 221.656 40.272 221.948 40.272 222.268C40.272 222.676 40.384 223.016 40.608 223.288C40.84 223.56 41.144 223.792 41.52 223.984C41.896 224.176 42.324 224.348 42.804 224.5C43.284 224.652 43.776 224.816 44.28 224.992C44.784 225.16 45.276 225.36 45.756 225.592C46.236 225.816 46.664 226.104 47.04 226.456C47.416 226.8 47.716 227.224 47.94 227.728C48.172 228.232 48.288 228.844 48.288 229.564C48.288 230.348 48.152 231.084 47.88 231.772C47.616 232.452 47.224 233.048 46.704 233.56C46.192 234.064 45.564 234.464 44.82 234.76C44.076 235.048 43.224 235.192 42.264 235.192C41.712 235.192 41.168 235.136 40.632 235.024C40.096 234.92 39.58 234.768 39.084 234.568C38.596 234.368 38.136 234.128 37.704 233.848C37.272 233.568 36.888 233.256 36.552 232.912L37.5 231.364C37.58 231.252 37.684 231.16 37.812 231.088C37.94 231.008 38.076 230.968 38.22 230.968C38.42 230.968 38.636 231.052 38.868 231.22C39.1 231.38 39.376 231.56 39.696 231.76C40.016 231.96 40.388 232.144 40.812 232.312C41.244 232.472 41.76 232.552 42.36 232.552C43.28 232.552 43.992 232.336 44.496 231.904C45 231.464 45.252 230.836 45.252 230.02C45.252 229.564 45.136 229.192 44.904 228.904C44.68 228.616 44.38 228.376 44.004 228.184C43.628 227.984 43.2 227.816 42.72 227.68C42.24 227.544 41.752 227.396 41.256 227.236C40.76 227.076 40.272 226.884 39.792 226.66C39.312 226.436 38.884 226.144 38.508 225.784C38.132 225.424 37.828 224.976 37.596 224.44C37.372 223.896 37.26 223.228 37.26 222.436C37.26 221.804 37.384 221.188 37.632 220.588C37.888 219.988 38.256 219.456 38.736 218.992C39.216 218.528 39.808 218.156 40.512 217.876C41.216 217.596 42.024 217.456 42.936 217.456C43.96 217.456 44.904 217.616 45.768 217.936C46.632 218.256 47.368 218.704 47.976 219.28L47.172 220.804ZM54.3439 220.216V225.028H60.4159V227.512H54.3439V232.42H62.0479V235H51.1039V217.648H62.0479V220.216H54.3439ZM70.1526 225.904C70.7606 225.904 71.2886 225.828 71.7366 225.676C72.1926 225.524 72.5646 225.316 72.8526 225.052C73.1486 224.78 73.3686 224.46 73.5126 224.092C73.6566 223.724 73.7286 223.32 73.7286 222.88C73.7286 222 73.4366 221.324 72.8526 220.852C72.2766 220.38 71.3926 220.144 70.2006 220.144H68.1366V225.904H70.1526ZM78.4566 235H75.5406C74.9886 235 74.5886 234.784 74.3406 234.352L70.6926 228.796C70.5566 228.588 70.4046 228.44 70.2366 228.352C70.0766 228.264 69.8366 228.22 69.5166 228.22H68.1366V235H64.9086V217.648H70.2006C71.3766 217.648 72.3846 217.772 73.2246 218.02C74.0726 218.26 74.7646 218.6 75.3006 219.04C75.8446 219.48 76.2446 220.008 76.5006 220.624C76.7566 221.232 76.8846 221.904 76.8846 222.64C76.8846 223.224 76.7966 223.776 76.6206 224.296C76.4526 224.816 76.2046 225.288 75.8766 225.712C75.5566 226.136 75.1566 226.508 74.6766 226.828C74.2046 227.148 73.6646 227.4 73.0566 227.584C73.2646 227.704 73.4566 227.848 73.6326 228.016C73.8086 228.176 73.9686 228.368 74.1126 228.592L78.4566 235ZM94.6594 217.648L87.6514 235H84.7354L77.7274 217.648H80.3194C80.5994 217.648 80.8274 217.716 81.0034 217.852C81.1794 217.988 81.3114 218.164 81.3994 218.38L85.4914 228.964C85.6274 229.308 85.7554 229.688 85.8754 230.104C86.0034 230.512 86.1234 230.94 86.2354 231.388C86.3314 230.94 86.4354 230.512 86.5474 230.104C86.6594 229.688 86.7834 229.308 86.9194 228.964L90.9874 218.38C91.0514 218.196 91.1754 218.028 91.3594 217.876C91.5514 217.724 91.7834 217.648 92.0554 217.648H94.6594ZM99.6954 235H96.4554V217.648H99.6954V235ZM115.496 230.908C115.672 230.908 115.828 230.976 115.964 231.112L117.236 232.492C116.532 233.364 115.664 234.032 114.632 234.496C113.608 234.96 112.376 235.192 110.936 235.192C109.648 235.192 108.488 234.972 107.456 234.532C106.432 234.092 105.556 233.48 104.828 232.696C104.1 231.912 103.54 230.976 103.148 229.888C102.764 228.8 102.572 227.612 102.572 226.324C102.572 225.02 102.78 223.828 103.196 222.748C103.612 221.66 104.196 220.724 104.948 219.94C105.708 219.156 106.612 218.548 107.66 218.116C108.708 217.676 109.868 217.456 111.14 217.456C112.404 217.456 113.524 217.664 114.5 218.08C115.484 218.496 116.32 219.04 117.008 219.712L115.928 221.212C115.864 221.308 115.78 221.392 115.676 221.464C115.58 221.536 115.444 221.572 115.268 221.572C115.148 221.572 115.024 221.54 114.896 221.476C114.768 221.404 114.628 221.32 114.476 221.224C114.324 221.12 114.148 221.008 113.948 220.888C113.748 220.768 113.516 220.66 113.252 220.564C112.988 220.46 112.68 220.376 112.328 220.312C111.984 220.24 111.584 220.204 111.128 220.204C110.352 220.204 109.64 220.344 108.992 220.624C108.352 220.896 107.8 221.296 107.336 221.824C106.872 222.344 106.512 222.984 106.256 223.744C106 224.496 105.872 225.356 105.872 226.324C105.872 227.3 106.008 228.168 106.28 228.928C106.56 229.688 106.936 230.328 107.408 230.848C107.88 231.368 108.436 231.768 109.076 232.048C109.716 232.32 110.404 232.456 111.14 232.456C111.58 232.456 111.976 232.432 112.328 232.384C112.688 232.336 113.016 232.26 113.312 232.156C113.616 232.052 113.9 231.92 114.164 231.76C114.436 231.592 114.704 231.388 114.968 231.148C115.048 231.076 115.132 231.02 115.22 230.98C115.308 230.932 115.4 230.908 115.496 230.908ZM122.688 220.216V225.028H128.76V227.512H122.688V232.42H130.392V235H119.448V217.648H130.392V220.216H122.688Z" fill="black"/>
</g>
<path d="M86.1624 82.0195C86.1624 82.0195 64.9466 83.5188 64.0405 88.4175C63.8048 89.6922 64.183 91.0281 64.7928 92.2747C65.6528 93.5626 66.5741 94.7136 67.2408 95.5017C67.8122 96.1771 68.1961 96.586 68.1961 96.586L57.4414 105.684C57.2487 105.847 57.0103 105.922 56.7749 105.914C56.5407 105.904 56.3087 105.809 56.1296 105.632C55.6316 105.135 54.1293 103.694 52.4575 102.077C52.0771 101.719 51.6872 101.357 51.2944 100.997C50.2054 100.001 48.6297 99.7448 47.2744 100.333C42.6883 102.324 41.0589 104.635 39.5235 107.862C39.4973 107.917 39.4627 107.968 39.4327 108.022L33.5865 112.968L32.5688 113.276L24.4144 103.637L24.8874 102.685L30.7336 97.7394C30.7922 97.7188 30.8485 97.6893 30.9062 97.6766C33.6671 97.0961 37.4955 96.2396 40.5939 89.7249C41.6266 87.557 42.3655 87.0458 42.3655 87.0458C50.4635 80.6487 57.7897 79.0207 57.7897 79.0207L57.7916 79.0209C64.6911 76.9585 73.6279 76.5869 86.1624 82.0195Z" fill="#263E53"/>
<path d="M126.886 166.158C126.685 166.535 121.277 171.56 121.032 171.768C121.032 171.768 116.222 176.34 114.257 175.728C112.622 175.22 111.134 169.261 107.303 163.666C105.072 160.408 99.1781 154.701 94.4937 149.497C89.8108 144.294 83.025 135.071 83.025 135.071L57.682 105.211L57.3473 104.818L62.2035 100.741L66.6759 96.9849L66.6794 96.9886C66.7864 97.1104 66.901 97.2383 67.0201 97.3748C71.8111 102.788 86.5392 119.448 88.7494 122.106C89.1728 122.615 102.536 136.779 104.308 138.569C106.535 140.817 119.057 156.938 121.411 159.337C123.764 161.738 127.367 165.244 126.886 166.158Z" fill="#DC961C"/>
<path d="M24.8876 102.684L33.5865 112.967L32.569 113.275L24.415 103.637L24.8876 102.684Z" fill="#3C5B75"/>
<path d="M40.5946 89.725C37.4955 96.2392 33.6682 97.0958 30.9068 97.6765C30.8481 97.6889 30.7918 97.7186 30.7332 97.7392C30.7332 97.7392 31.0928 98.9811 32.4829 99.8074C32.5415 99.7868 32.5994 99.7655 32.6565 99.7447C36.6741 98.2736 40.6435 94.2825 42.8199 90.5207L42.3659 87.0457C42.3659 87.0457 41.6263 87.5563 40.5946 89.725Z" fill="#32526E"/>
<path d="M30.7332 97.7389L24.8876 102.684L33.5865 112.967L39.4323 108.022C37.3295 106.542 36.6319 104.712 36.6319 104.712C33.2595 102.532 32.4831 99.8074 32.4831 99.8074C31.0931 98.9809 30.7332 97.7389 30.7332 97.7389Z" fill="#3C5B75"/>
<path d="M36.6321 104.711L30.7865 109.656L26.6375 104.752L32.4831 99.8068C32.4831 99.8068 33.2595 102.532 36.6321 104.711Z" fill="#32526E"/>
<path d="M39.4329 108.022L33.5873 112.967L30.7867 109.657L36.6323 104.711C36.6323 104.711 37.3289 106.542 39.4329 108.022Z" fill="#263E53"/>
<path d="M86.1622 82.0197C86.1622 82.0197 86.1601 82.0196 86.159 82.0205C85.8899 81.9653 72.5962 76.0202 54.4363 82.2324C53.861 81.7927 52.693 81.2669 51.9141 81.1647C55.4327 79.5437 57.7903 79.0198 57.7903 79.0198L57.7924 79.02C64.6906 76.958 73.6276 76.587 86.1622 82.0197Z" fill="#32526E"/>
<path d="M83.8649 124.74L122.501 170.41C121.711 171.147 121.111 171.701 121.032 171.768C121.032 171.768 116.223 176.34 114.257 175.729C112.622 175.22 111.134 169.262 107.304 163.667C105.073 160.407 99.1784 154.701 94.4934 149.497C89.8105 144.294 83.0251 135.072 83.0251 135.072L66.5052 115.607C73.238 116.261 79.4706 119.545 83.8649 124.74Z" fill="#E74B3C"/>
<path opacity="0.12" d="M109.814 162.983C110.71 163.282 113.568 164.534 113.239 167.639C113.089 169.062 112.001 169.646 110.768 169.832C109.857 167.933 108.747 165.775 107.303 163.666C105.072 160.407 99.1778 154.7 94.4935 149.497C93.601 148.506 92.6325 147.368 91.6499 146.176L93.416 146.334C97.5956 146.869 99.0045 149.359 99.8089 151.208C99.9725 151.582 99.9732 151.985 99.8683 152.363C99.7633 152.741 99.5518 153.094 99.289 153.368L99.9891 154.108C99.9891 154.108 100.025 154.11 100.045 154.112C102.338 154.276 104.648 154.994 106.871 157.378C108.528 159.153 107.849 160.819 107.061 161.771L107.639 162.475C107.639 162.475 107.664 162.479 107.676 162.483C108.411 162.626 109.328 162.821 109.814 162.983Z" fill="black"/>
<path opacity="0.12" d="M91.6515 146.176L92.811 146.278C93.3718 145.797 93.7561 144.927 93.4302 144.176C92.8433 142.829 91.902 141.106 89.5921 140.226C91.1325 141.165 91.8599 142.535 92.3445 143.646C92.6821 144.426 92.2555 145.336 91.658 145.805C91.5941 145.854 91.5303 145.903 91.4617 145.949C91.5245 146.026 91.5873 146.102 91.6515 146.176Z" fill="black"/>
<path d="M60.9126 86.3038C60.9246 86.3126 60.9364 86.3211 60.9481 86.3299C62.2589 87.2991 63.1297 88.7657 63.3222 90.3844C63.4215 91.2177 63.7165 92.0539 64.1076 92.8535C64.9677 94.1414 66.8095 96.3781 66.9193 96.5042L57.4548 104.511C57.0921 104.818 56.5556 104.797 56.2173 104.464C54.8106 103.076 52.4156 100.759 50.2464 98.8734C49.9854 98.6456 49.3757 98.1413 48.7291 97.633C48.7199 97.6257 48.7106 97.6186 48.7015 97.6114C47.5379 96.7026 45.9449 96.5785 44.6407 97.2705C43.9092 97.6587 43.1351 98.0917 42.6171 98.442C40.1273 100.127 38.035 102.244 36.7227 104.551C36.6929 104.603 36.6621 104.656 36.6321 104.711C36.6321 104.711 37.3289 106.542 39.4327 108.021C39.4625 107.967 39.4975 107.916 39.5233 107.861C41.0584 104.634 42.6885 102.323 47.2744 100.332C48.6293 99.7443 50.205 99.9995 51.2944 100.997C53.2738 102.809 55.1793 104.683 56.1306 105.63C56.4875 105.986 57.0565 106.009 57.441 105.683L68.1957 96.5855L68.1953 96.5851L68.1955 96.585C68.1955 96.585 67.6635 96.0012 67.2405 95.5011C66.5737 94.7131 65.6524 93.5619 64.7924 92.274C64.5155 91.7082 64.2865 91.1238 64.1408 90.5351C64.1404 90.5334 64.14 90.5315 64.1396 90.53C64.1405 90.5317 64.1413 90.5332 64.1421 90.5347C63.9666 89.8269 63.9109 89.1133 64.0398 88.4172C64.9401 83.5515 85.8675 82.0402 86.1589 82.0201C85.8899 81.9651 71.9431 80.5182 60.9126 86.3038Z" fill="#1C2F3E"/>
<path opacity="0.12" d="M86.1621 82.019C86.1621 82.019 64.9462 83.5184 64.0399 88.4171C63.8042 89.6918 64.1824 91.0276 64.7922 92.2743C66.3876 94.6643 68.1955 96.5856 68.1955 96.5856L67.124 97.492C72.0205 103.026 86.5546 119.467 88.7493 122.106C89.1728 122.615 102.536 136.779 104.307 138.568C106.535 140.817 119.057 156.938 121.412 159.337C123.764 161.738 127.367 165.243 126.887 166.158C126.749 166.415 122.973 169.863 121.281 171.442L47.0922 83.7462C53.1085 80.0592 57.7906 79.0193 57.7906 79.0193L57.7916 79.0204C64.6907 76.9581 73.6275 76.5865 86.1621 82.019Z" fill="black"/>
<path d="M147.909 140.687L138.709 164.994C136.952 164.205 135.519 163.674 134.664 163.562C134.664 163.562 131.168 165.441 125.816 164.017C124.803 162.768 123.271 161.223 121.965 159.902L120.315 159.58L120.313 159.58C119.695 159.369 113.181 157.095 109.176 153.375C104.971 149.463 101.889 146.09 101.889 146.09C101.889 146.09 94.6113 140.761 91.5384 139.25C88.4712 137.737 82.2836 133.321 81.7049 132.789C80.9599 132.111 77.3391 129.498 79.1186 126.064C80.2255 123.932 82.2302 123.306 84.4434 123.54C86.2231 123.727 93.4677 127.152 93.4677 127.152C93.032 126.678 93.5123 127.199 91.9991 125.588C91.9991 125.588 100.086 124.438 103.61 123.513C107.133 122.588 110.266 124.694 113.059 126.25C115.854 127.807 121.485 131.878 130.414 134.687C133.804 135.752 140.681 138.139 147.909 140.687Z" fill="#EABC94"/>
<path d="M140.801 159.468L138.709 164.994C136.952 164.205 135.519 163.674 134.664 163.562C134.664 163.562 131.168 165.442 125.816 164.018C124.914 162.908 123.603 161.56 122.405 160.347C125.789 160.808 129.052 159.641 129.192 159.599C129.192 159.599 135.037 157.587 140.801 159.468Z" fill="#DC9964"/>
<path opacity="0.61" d="M147.909 140.687L147.129 142.747C137.574 139.335 127.985 135.807 122.363 133.353C116.751 130.901 106.197 123.245 107.41 123.561C109.434 124.09 111.312 125.276 113.059 126.25C115.854 127.807 121.485 131.878 130.414 134.687C133.804 135.752 140.681 138.139 147.909 140.687Z" fill="#DC9964"/>
<path d="M93.4693 127.15C93.4693 127.15 99.434 131.13 101.494 131.9C103.812 132.766 111.132 132.657 111.132 132.657C111.132 132.657 102.338 131.657 101.701 131.36C101.065 131.063 92.5688 126.193 92.5688 126.193L93.4693 127.15Z" fill="#DC9964"/>
<path d="M101.114 131.311L102.207 128.008L101.501 131.465L101.114 131.311Z" fill="#DC9964"/>
<path d="M84.8773 131.437C84.562 132.054 83.7108 132.249 82.9765 131.873L81.9696 131.358C79.8922 130.296 78.9314 128.021 79.8234 126.277C80.7154 124.533 83.1223 123.981 85.1994 125.043L86.2064 125.558C86.9407 125.934 87.2806 126.738 86.9651 127.355L84.8773 131.437Z" fill="#F6E2CA"/>
<path opacity="0.5" d="M87.0309 127.195C87.0135 127.249 86.9917 127.303 86.9655 127.355L84.878 131.436C84.3344 131.144 84.3701 129.974 84.9603 128.812C85.5505 127.649 86.4739 126.929 87.0309 127.195Z" fill="white"/>
<path d="M129.191 159.599C129.056 159.654 125.796 160.93 122.399 160.346L121.967 159.902C122.015 159.916 125.149 160.818 129.191 159.599Z" fill="#DC9964"/>
<path d="M112.463 144.726C112.463 144.726 108.181 148.508 103.278 147.564C102.394 146.644 101.888 146.089 101.888 146.089C101.888 146.089 106.154 148.778 112.463 144.726Z" fill="#DC9964"/>
<path opacity="0.12" d="M124.528 162.549C124.523 162.547 122.263 161.882 122.26 161.88C121.642 161.669 115.128 159.395 111.123 155.674C106.916 151.765 103.835 148.39 103.835 148.39C103.835 148.39 96.5559 143.063 93.4856 141.551C90.4163 140.039 84.2306 135.622 83.6512 135.091C83.2314 134.707 81.8978 133.708 81.1328 132.294C81.3776 132.51 81.5811 132.677 81.7045 132.789C82.284 133.321 88.4697 137.737 91.5389 139.25C94.6093 140.762 101.888 146.089 101.888 146.089C101.888 146.089 104.97 149.463 109.177 153.373C113.312 157.215 120.03 159.457 120.315 159.58L121.967 159.902C122.682 160.625 123.817 161.778 124.528 162.549Z" fill="black"/>
<path d="M99.5418 162.041C99.5418 162.041 100.204 165.787 101.6 167.208C102.996 168.63 104.799 169.129 105.8 169.439C106.801 169.749 111.601 170.637 111.93 167.531C112.258 164.425 109.4 163.173 108.504 162.874C108.018 162.712 107.102 162.517 106.366 162.374C106.354 162.371 106.33 162.367 106.33 162.367L105.751 161.663L99.5418 162.041Z" fill="#EABC94"/>
<path d="M105.255 162.168C105.077 162.32 104.919 162.422 104.815 162.464C104.041 162.782 97.7358 162.682 97.1582 162.578C96.5916 162.477 95.8489 162.106 94.5275 161.014C91.8571 158.807 91.0537 154.249 91.0537 154.249L95.8167 151.269L97.9788 153.259L98.6793 153.999C98.6793 153.999 98.7159 154.001 98.7342 154.003C101.028 154.167 103.337 154.885 105.562 157.269C107.57 159.421 106.145 161.414 105.255 162.168Z" fill="#EABC94"/>
<path opacity="0.12" d="M106.435 162.387C106.257 162.608 106.071 162.794 105.904 162.935C105.726 163.086 105.567 163.189 105.464 163.23C104.946 163.444 101.957 163.47 99.8591 163.432C99.7831 163.145 99.7202 162.886 99.672 162.672C101.722 162.698 104.334 162.661 104.815 162.463C104.918 162.422 105.077 162.319 105.255 162.168C105.41 162.037 105.582 161.867 105.75 161.664L105.751 161.663L106.329 162.367C106.329 162.367 106.353 162.371 106.366 162.373C106.388 162.378 106.412 162.383 106.435 162.387Z" fill="black"/>
<path opacity="0.79" d="M101.69 158.039C101.69 158.039 98.4644 158.693 98.8721 160.68C99.2798 162.666 104.552 162.152 104.552 162.152C104.552 162.152 104.908 160.619 101.69 158.039Z" fill="#F6E2CA"/>
<path opacity="0.79" d="M109.733 169.132C109.653 169.266 109.429 169.067 109.28 169.033C107.308 168.574 105.857 167.866 105.881 166.8C105.907 165.653 108.072 164.946 108.072 164.946C108.072 164.946 111.077 166.903 109.733 169.132Z" fill="#F6E2CA"/>
<path d="M98.4994 151.098C98.8716 151.953 98.4012 152.955 97.746 153.471C96.8212 154.199 95.3879 154.596 94.8787 154.676C94.0081 154.812 87.6607 156.669 85.9418 151.954C84.2191 147.225 86.7453 142.044 87.3945 140.839L91.6688 146.2L92.1059 146.225C96.2856 146.759 97.6949 149.251 98.4994 151.098Z" fill="#EABC94"/>
<path opacity="0.79" d="M92.6068 150.653C92.6068 150.653 90.5247 151.819 91.0465 152.873C91.5683 153.926 93.7535 154.403 95.159 154.278C96.5645 154.152 96.5952 153.962 96.5952 153.962C96.5952 153.962 95.5799 151.319 92.6068 150.653Z" fill="#F6E2CA"/>
<path d="M91.6687 146.201C91.4041 146.201 89.3509 146.213 87.6769 146.826C87.8001 146.76 89.671 145.806 91.1646 145.568L91.6687 146.201Z" fill="#DC9964"/>
<path opacity="0.5" d="M91.1398 151.952C91.5196 152.461 91.946 153.107 92.3318 153.867C91.7402 153.63 91.2573 153.298 91.0469 152.873C90.8943 152.564 90.9635 152.248 91.1398 151.952Z" fill="white"/>
<path d="M89.0517 146.899C89.5153 146.828 90.8175 146.467 91.658 145.805C92.2555 145.336 92.6821 144.426 92.3445 143.647C91.6129 141.969 90.3306 139.702 86.5305 139.216L86.1325 139.194L86.1303 139.198C84.3019 136.809 83.0249 135.071 83.0249 135.071L82.2886 134.206C81.6479 135.414 79.3875 140.202 80.925 144.426C82.4884 148.713 88.2611 147.025 89.0517 146.899Z" fill="#EABC94"/>
<path opacity="0.12" d="M85.3716 147.726C87.4353 148.132 89.6693 147.503 90.1376 147.428C90.6011 147.357 91.9033 146.997 92.7438 146.334C92.7472 146.333 92.7494 146.328 92.753 146.327C92.5446 146.286 92.3294 146.252 92.1061 146.223L91.6691 146.199L91.4665 145.946C90.6297 146.519 89.4812 146.834 89.052 146.899C88.6676 146.96 87.095 147.394 85.4024 147.324C85.3895 147.455 85.3783 147.589 85.3716 147.726Z" fill="black"/>
<path opacity="0.79" d="M86.9867 143.243C86.9867 143.243 85.0934 144.303 85.5679 145.261C86.0424 146.219 88.0292 146.653 89.3072 146.539C90.5852 146.424 90.613 146.252 90.613 146.252C90.613 146.252 89.6899 143.849 86.9867 143.243Z" fill="#F6E2CA"/>
<path opacity="0.5" d="M85.6525 144.424C85.9979 144.887 86.3857 145.475 86.7363 146.165C86.1985 145.95 85.7593 145.648 85.5681 145.261C85.4294 144.981 85.4924 144.693 85.6525 144.424Z" fill="white"/>
<path opacity="0.5" d="M98.9987 159.663C99.5107 160.287 99.9591 161.023 100.188 161.844C99.5086 161.615 98.9892 161.25 98.872 160.679C98.7921 160.292 98.8513 159.953 98.9987 159.663Z" fill="white"/>
<path opacity="0.5" d="M106.206 166.059C106.529 166.667 106.839 167.412 106.989 168.235C106.288 167.85 105.867 167.377 105.88 166.8C105.886 166.527 106.015 166.278 106.206 166.059Z" fill="white"/>
<path opacity="0.12" d="M98.6947 153.999C98.6073 154.096 98.5127 154.185 98.4152 154.262C97.49 154.991 96.0571 155.387 95.5477 155.467C95.1189 155.534 93.3639 156.019 91.4875 155.93C91.3966 155.641 91.3216 155.378 91.2612 155.149C92.9647 155.152 94.484 154.737 94.8784 154.676C95.3878 154.596 96.8207 154.2 97.7459 153.471C97.827 153.408 97.9052 153.337 97.9775 153.259L97.9783 153.26L98.6793 153.999C98.6793 153.999 98.6858 153.999 98.6947 153.999Z" fill="black"/>
<path d="M82.5038 139.763C84.0156 139.208 85.8694 139.194 86.1267 139.194C85.9753 138.994 85.8263 138.802 85.6841 138.612C84.3347 138.841 82.6159 139.704 82.5038 139.763Z" fill="#DC9964"/>
<path d="M167.157 145.843L156.054 141.528L156.754 139.719L146.703 137.017L135.176 166.824L144.429 171.588L145.119 169.806L167.693 178.579L167.157 145.843Z" fill="#B105A5"/>
<path opacity="0.09" d="M167.425 162.198L167.693 178.563L145.124 169.788L144.429 171.587L135.177 166.821L140.938 151.919L150.591 155.654L156.059 141.517L158.383 142.414L152.918 156.556L167.425 162.198Z" fill="black"/>
<defs>
<filter id="filter0_f_258_13030" x="42" y="174" width="161" height="46" filterUnits="userSpaceOnUse" color-interpolation-filters="sRGB">
<feFlood flood-opacity="0" result="BackgroundImageFix"/>
<feBlend mode="normal" in="SourceGraphic" in2="BackgroundImageFix" result="shape"/>
<feGaussianBlur stdDeviation="10" result="effect1_foregroundBlur_258_13030"/>
</filter>
<filter id="filter1_f_258_13030" x="90" y="155" width="64" height="47" filterUnits="userSpaceOnUse" color-interpolation-filters="sRGB">
<feFlood flood-opacity="0" result="BackgroundImageFix"/>
<feBlend mode="normal" in="SourceGraphic" in2="BackgroundImageFix" result="shape"/>
<feGaussianBlur stdDeviation="10" result="effect1_foregroundBlur_258_13030"/>
</filter>
<clipPath id="clip0_258_13030">
<rect width="169" height="256" fill="white"/>
</clipPath>
</defs>
</svg>
