<?xml version="1.0" encoding="utf-8"?>
<!-- Generator: Adobe Illustrator 27.5.0, SVG Export Plug-In . SVG Version: 6.00 Build 0)  -->
<svg version="1.1" id="Ñëîé_1" xmlns="http://www.w3.org/2000/svg" xmlns:xlink="http://www.w3.org/1999/xlink" x="0px" y="0px"
	 viewBox="0 0 2590.877 2499.391" style="enable-background:new 0 0 2590.877 2499.391;" xml:space="preserve">
<g>
	<rect y="0" style="fill:#FFFFFF;" width="2590.877" height="2499.391"/>
</g>
<g>
	<g>
		<path style="fill:#313E67;" d="M841.706,281.858c-9.118,0-17.511-1.605-25.168-4.815c-7.657-3.21-14.22-7.628-19.678-13.262
			c-5.464-5.63-9.742-12.272-12.84-19.931s-4.646-15.934-4.646-24.834c0-8.893,1.549-17.171,4.646-24.831
			c3.098-7.657,7.376-14.301,12.84-19.935c5.458-5.63,12.022-10.052,19.678-13.262c7.657-3.207,16.05-4.812,25.168-4.812
			c9.124,0,17.512,1.605,25.174,4.812c7.656,3.21,14.214,7.632,19.679,13.262c5.458,5.633,9.742,12.278,12.84,19.935
			c3.091,7.66,4.646,15.938,4.646,24.831c0,8.899-1.555,17.174-4.646,24.834c-3.098,7.66-7.382,14.301-12.84,19.931
			c-5.465,5.633-12.022,10.052-19.679,13.262C859.218,280.253,850.831,281.858,841.706,281.858z M841.706,266.654
			c6.87,0,13.065-1.268,18.586-3.8c5.514-2.536,10.248-5.939,14.189-10.22c3.941-4.278,6.982-9.318,9.124-15.119
			c2.136-5.799,3.21-11.966,3.21-18.498c0-6.529-1.074-12.697-3.21-18.498c-2.142-5.799-5.183-10.835-9.124-15.116
			c-3.941-4.281-8.674-7.688-14.189-10.22c-5.521-2.536-11.716-3.803-18.586-3.803c-6.87,0-13.065,1.268-18.579,3.803
			c-5.521,2.532-10.248,5.939-14.189,10.22c-3.947,4.281-6.982,9.318-9.124,15.116c-2.142,5.802-3.21,11.969-3.21,18.498
			c0,6.532,1.068,12.7,3.21,18.498c2.142,5.802,5.177,10.842,9.124,15.119c3.941,4.281,8.668,7.685,14.189,10.22
			C828.642,265.386,834.837,266.654,841.706,266.654z"/>
		<path style="fill:#313E67;" d="M923.462,198.744h15.207v12.334h0.337c1.911-4.281,5.233-7.744,9.967-10.389
			c4.728-2.645,10.192-3.972,16.387-3.972c3.822,0,7.513,0.593,11.06,1.774c3.547,1.184,6.645,3.016,9.293,5.49
			c2.642,2.479,4.759,5.661,6.333,9.546c1.58,3.884,2.367,8.475,2.367,13.767v51.522h-15.201v-47.301
			c0-3.716-0.512-6.895-1.524-9.543c-1.012-2.645-2.367-4.787-4.053-6.42c-1.693-1.63-3.635-2.813-5.827-3.547
			c-2.198-0.731-4.478-1.099-6.845-1.099c-3.154,0-6.083,0.509-8.781,1.521c-2.704,1.015-5.071,2.62-7.094,4.815
			c-2.03,2.195-3.61,4.984-4.734,8.362c-1.124,3.379-1.686,7.379-1.686,11.994v41.218h-15.207V198.744z"/>
		<path style="fill:#313E67;" d="M1018.576,151.109h15.201v127.707h-15.201V151.109z"/>
		<path style="fill:#313E67;" d="M1055.566,170.029c0-3.041,1.093-5.661,3.291-7.856c2.198-2.195,4.815-3.294,7.856-3.294
			c3.041,0,5.658,1.099,7.856,3.294c2.192,2.195,3.291,4.815,3.291,7.856c0,3.038-1.099,5.658-3.291,7.853
			c-2.198,2.198-4.815,3.294-7.856,3.294c-3.042,0-5.658-1.096-7.856-3.294C1056.658,175.687,1055.566,173.067,1055.566,170.029z
			 M1059.113,198.744h15.201v80.072h-15.201V198.744z"/>
		<path style="fill:#313E67;" d="M1098.47,198.744h15.207v12.334h0.337c1.911-4.281,5.233-7.744,9.967-10.389
			c4.728-2.645,10.192-3.972,16.387-3.972c3.822,0,7.513,0.593,11.06,1.774c3.547,1.184,6.645,3.016,9.293,5.49
			c2.642,2.479,4.759,5.661,6.333,9.546c1.58,3.884,2.367,8.475,2.367,13.767v51.522h-15.201v-47.301
			c0-3.716-0.512-6.895-1.524-9.543c-1.012-2.645-2.367-4.787-4.053-6.42c-1.693-1.63-3.635-2.813-5.827-3.547
			c-2.198-0.731-4.478-1.099-6.845-1.099c-3.154,0-6.083,0.509-8.781,1.521c-2.704,1.015-5.071,2.62-7.094,4.815
			c-2.03,2.195-3.61,4.984-4.734,8.362s-1.686,7.379-1.686,11.994v41.218h-15.207V198.744z"/>
		<path style="fill:#313E67;" d="M1203.882,244.356c0,3.491,0.756,6.673,2.279,9.546c1.518,2.87,3.516,5.321,5.995,7.347
			c2.479,2.027,5.346,3.603,8.618,4.731c3.26,1.124,6.639,1.689,10.136,1.689c4.728,0,8.837-1.099,12.328-3.294
			c3.491-2.198,6.701-5.096,9.63-8.7l11.485,8.784c-8.443,10.923-20.272,16.384-35.473,16.384c-6.308,0-12.022-1.071-17.149-3.21
			c-5.121-2.136-9.455-5.093-13.002-8.868c-3.547-3.772-6.283-8.219-8.194-13.346c-1.917-5.121-2.873-10.667-2.873-16.637
			c0-5.967,1.037-11.513,3.123-16.64c2.086-5.124,4.959-9.571,8.618-13.346c3.66-3.772,8.025-6.726,13.09-8.868
			c5.071-2.139,10.586-3.21,16.556-3.21c7.094,0,13.09,1.243,17.992,3.716c4.896,2.479,8.924,5.717,12.078,9.714
			c3.147,4,5.433,8.506,6.838,13.514c1.411,5.012,2.111,10.108,2.111,15.288v5.405H1203.882z M1251.857,232.193
			c-0.119-3.379-0.649-6.476-1.605-9.293c-0.962-2.813-2.398-5.261-4.309-7.347c-1.917-2.083-4.309-3.716-7.182-4.899
			c-2.873-1.18-6.22-1.774-10.048-1.774c-3.716,0-7.126,0.706-10.223,2.114c-3.098,1.408-5.714,3.238-7.85,5.49
			c-2.142,2.255-3.803,4.759-4.984,7.516c-1.187,2.76-1.774,5.49-1.774,8.194H1251.857z"/>
		<path style="fill:#313E67;" d="M1337.16,159.216h75.173v15.204h-58.954v37.502h54.901v15.204h-54.901v51.691h-16.219V159.216z"/>
		<path style="fill:#313E67;" d="M1426.353,238.782c0-5.855,1.099-11.319,3.297-16.387c2.192-5.068,5.208-9.514,9.037-13.346
			c3.828-3.825,8.331-6.842,13.515-9.037c5.177-2.195,10.754-3.294,16.724-3.294c5.964,0,11.541,1.099,16.718,3.294
			c5.183,2.195,9.686,5.212,13.515,9.037c3.828,3.831,6.845,8.278,9.043,13.346c2.192,5.068,3.291,10.532,3.291,16.387
			c0,5.855-1.099,11.347-3.291,16.468c-2.198,5.127-5.215,9.574-9.043,13.346c-3.828,3.775-8.331,6.757-13.515,8.952
			c-5.177,2.198-10.754,3.294-16.718,3.294c-5.97,0-11.547-1.096-16.724-3.294c-5.183-2.195-9.686-5.177-13.515-8.952
			c-3.828-3.772-6.845-8.219-9.037-13.346C1427.452,250.129,1426.353,244.637,1426.353,238.782z M1442.572,238.782
			c0,4.053,0.618,7.8,1.855,11.232c1.243,3.438,2.985,6.364,5.24,8.784c2.255,2.423,5.009,4.337,8.275,5.746
			c3.266,1.408,6.926,2.111,10.985,2.111c4.053,0,7.713-0.703,10.979-2.111c3.266-1.408,6.02-3.322,8.275-5.746
			c2.254-2.42,3.997-5.346,5.24-8.784c1.237-3.432,1.855-7.179,1.855-11.232c0-4.056-0.618-7.797-1.855-11.235
			c-1.243-3.435-2.985-6.361-5.24-8.784c-2.255-2.42-5.009-4.334-8.275-5.742c-3.266-1.408-6.926-2.114-10.979-2.114
			c-4.059,0-7.719,0.706-10.985,2.114c-3.266,1.408-6.02,3.322-8.275,5.742c-2.255,2.423-3.997,5.349-5.24,8.784
			C1443.19,230.985,1442.572,234.726,1442.572,238.782z"/>
		<path style="fill:#313E67;" d="M1530.578,198.744h15.207v12.334h0.337c1.012-2.139,2.367-4.081,4.053-5.83
			c1.692-1.745,3.572-3.235,5.658-4.475c2.086-1.24,4.365-2.223,6.845-2.957c2.473-0.731,4.953-1.099,7.432-1.099
			c2.473,0,4.728,0.337,6.757,1.015l-0.674,16.384c-1.243-0.337-2.479-0.615-3.716-0.843c-1.243-0.225-2.479-0.337-3.722-0.337
			c-7.432,0-13.121,2.083-17.062,6.248c-3.941,4.169-5.908,10.642-5.908,19.429v40.203h-15.207V198.744z"/>
		<path style="fill:#313E67;" d="M1664.031,278.816h-15.201v-12.331h-0.344c-1.911,4.281-5.234,7.744-9.961,10.389
			c-4.734,2.645-10.198,3.969-16.387,3.969c-3.947,0-7.663-0.59-11.148-1.774c-3.497-1.184-6.564-3.01-9.212-5.49
			c-2.648-2.476-4.759-5.658-6.333-9.546c-1.58-3.884-2.367-8.472-2.367-13.768v-51.523h15.207v47.301
			c0,3.716,0.506,6.901,1.518,9.543c1.018,2.648,2.367,4.79,4.053,6.42c1.692,1.633,3.635,2.817,5.833,3.547
			c2.192,0.734,4.471,1.099,6.838,1.099c3.154,0,6.083-0.506,8.787-1.521c2.698-1.015,5.065-2.617,7.094-4.815
			c2.023-2.195,3.603-4.984,4.728-8.362c1.124-3.379,1.693-7.372,1.693-11.994v-41.218h15.201V278.816z"/>
		<path style="fill:#313E67;" d="M1687.001,198.744h14.189v12.503h0.343c0.337-1.124,1.205-2.536,2.617-4.225
			c1.405-1.689,3.21-3.294,5.402-4.815c2.198-1.518,4.79-2.813,7.775-3.885c2.979-1.068,6.276-1.605,9.88-1.605
			c5.97,0,10.979,1.243,15.032,3.716c4.059,2.479,7.375,6.195,9.967,11.151c2.592-4.956,6.251-8.671,10.985-11.151
			c4.728-2.473,9.511-3.716,14.358-3.716c6.189,0,11.26,1.015,15.201,3.041c3.941,2.027,7.038,4.703,9.293,8.025
			c2.248,3.322,3.797,7.094,4.646,11.316c0.843,4.225,1.268,8.59,1.268,13.093v46.623h-15.207V234.22c0-3.041-0.2-5.967-0.593-8.784
			c-0.393-2.813-1.212-5.293-2.448-7.432c-1.237-2.139-2.985-3.856-5.233-5.152c-2.255-1.296-5.24-1.945-8.956-1.945
			c-7.319,0-12.559,2.255-15.707,6.757c-3.16,4.506-4.734,10.305-4.734,17.402v43.75h-15.201v-41.893
			c0-3.828-0.2-7.319-0.593-10.473c-0.393-3.154-1.18-5.886-2.367-8.194c-1.18-2.308-2.867-4.109-5.065-5.405
			c-2.198-1.296-5.152-1.945-8.868-1.945c-2.704,0-5.321,0.537-7.856,1.605c-2.536,1.074-4.759,2.679-6.67,4.815
			c-1.917,2.142-3.441,4.874-4.565,8.194c-1.124,3.322-1.686,7.238-1.686,11.741v41.555h-15.207V198.744z"/>
	</g>
	<g>
		<g>
			<g>
				<path style="fill:#E5F4FB;" d="M2374.714,1117.316C2198.028,471.401,1375.069,344.303,692.797,678.85
					S-3.056,2286.329,1144.168,2324.186S2491.161,1543.017,2374.714,1117.316z"/>
			</g>
			<g>
				<g>
					<path style="fill:#B8DBF2;" d="M764.119,2348.282c-127.721,0-246.243-40.942-356.858-163.708
						c-53.67-59.565-88.492-121.696-106.462-189.948c-16.043-60.937-18.185-125.444-6.547-197.207
						c21.591-133.138,86.212-266.953,154.627-408.626c23.794-49.275,48.401-100.228,70.73-150.612
						c40.788-92.032,70.548-193.687,99.33-291.994c75.566-258.111,146.941-501.907,402.253-558.094
						c302.567-66.595,412.689,65.249,552.106,232.163c73.413,87.894,156.621,187.514,281.177,275.19
						c248.732,175.087,402.165,327.634,482.864,480.077c98.625,186.304,89.713,375.659-27.247,578.882
						c-64.363,111.829-147.377,179.506-261.251,212.979c-101.342,29.791-214.566,28.796-334.426,27.753
						c-118.442-1.043-240.908-2.105-364.165,25.973c-70.486,16.057-138.457,35.1-204.19,53.517
						C1010.145,2312.7,883.135,2348.282,764.119,2348.282z M1021.897,391.3l0.706,3.209
						c-251.511,55.352-322.355,297.333-397.357,553.523c-28.841,98.513-58.665,200.381-99.63,292.811
						c-22.373,50.482-47.001,101.483-70.82,150.806c-135.146,279.861-262.794,544.2-42.654,788.524
						c210.963,234.137,452.484,166.47,732.143,88.12c65.81-18.437,133.86-37.502,204.503-53.596
						c124.006-28.249,246.869-27.178,365.683-26.137c241.986,2.112,451,3.941,589.923-237.439
						c115.743-201.105,124.618-388.381,27.135-572.528c-80.195-151.491-232.986-303.308-480.839-477.776
						c-125.263-88.175-208.765-188.148-282.438-276.352c-137.986-165.201-246.975-295.693-545.649-229.958L1021.897,391.3z"/>
				</g>
			</g>
			<g>
				<path style="fill:#F2FBFF;" d="M1165.411,918.361c172.586-83.043,314.273-214.416,455.109-138.079
					s20.227,308.954,151.512,412.687s411.662,282.302,266.742,590.513s-570.835,127.978-688.927,59.57
					c-118.092-68.408-220.444,323.397-548.033,200.842s-90.377-410.34-90.68-524.347c-0.304-114.007-212.795-301.14-67.232-426.566
					S919.697,1036.59,1165.411,918.361z"/>
			</g>
		</g>
		<g>
			<path style="fill:#53C177;" d="M2120.596,1202.456c-42.259-232.14,17.519-391.855,87.26-340.226
				c69.741,51.629-75.813,370.389-75.813,370.389L2120.596,1202.456z"/>
		</g>
		<g>
			<path style="fill:#94D49E;" d="M2120.596,1391.949c34.124-325.324,230.928-551.574,359.581-453.736
				c128.653,97.838-497.398,804.476-497.398,804.476L2120.596,1391.949z"/>
		</g>
		<g>
			<path style="fill:#94D49E;" d="M1853.061,1844.685c341.511-7.591,690.215-190.245,666.968-316.443
				c-23.247-126.198-557.012,134.35-580.54,185.975S1853.061,1844.685,1853.061,1844.685z"/>
		</g>
		<g>
			<g>
				<g>
					<path style="fill:#E6FFE9;" d="M2104.655,1480.028c-0.706,0-1.417-0.162-2.087-0.503c-2.273-1.155-3.177-3.932-2.021-6.203
						c1.673-3.29,168.65-330.33,282.185-450.395c1.751-1.853,4.67-1.931,6.52-0.182c1.853,1.751,1.934,4.669,0.183,6.521
						c-112.622,119.097-278.998,444.961-280.665,448.239C2107.955,1479.106,2106.334,1480.028,2104.655,1480.028z"/>
				</g>
			</g>
			<g>
				<g>
					<path style="fill:#E6FFE9;" d="M2275.765,1179.694c-1.694,0-3.327-0.938-4.132-2.56c-1.135-2.281-0.204-5.049,2.075-6.185
						c3.192-1.587,78.623-38.913,122.159-37.065c2.547,0.104,4.525,2.252,4.42,4.797c-0.105,2.544-2.27,4.498-4.799,4.419
						c-41.137-1.668-116.913,35.73-117.672,36.11C2277.155,1179.538,2276.455,1179.694,2275.765,1179.694z"/>
				</g>
			</g>
			<g>
				<g>
					<path style="fill:#E6FFE9;" d="M1875.106,1776.656c-1.727,0-3.384-0.974-4.171-2.64c-1.09-2.302-0.108-5.052,2.192-6.142
						c3.886-1.841,390.148-184.189,541.162-203.248c2.52-0.306,4.835,1.473,5.153,3.998c0.318,2.528-1.471,4.835-4,5.154
						c-149.56,18.875-534.496,200.598-538.364,202.432C1876.439,1776.511,1875.766,1776.656,1875.106,1776.656z"/>
				</g>
			</g>
			<g>
				<g>
					<path style="fill:#E6FFE9;" d="M2359.513,1651.527c-0.757,0-1.52-0.186-2.228-0.577
						c-31.447-17.367-106.958-31.696-107.718-31.838c-2.501-0.47-4.15-2.881-3.682-5.384c0.471-2.504,2.88-4.155,5.387-3.682
						c3.156,0.593,77.728,14.746,110.475,32.829c2.228,1.231,3.039,4.037,1.808,6.267
						C2362.714,1650.665,2361.138,1651.527,2359.513,1651.527z"/>
				</g>
			</g>
			<g>
				<g>
					<path style="fill:#E6FFE9;" d="M2296.043,1692.821c-0.628,0-1.267-0.129-1.88-0.402
						c-44.266-19.779-121.546-44.392-122.321-44.638c-2.429-0.772-3.772-3.365-3-5.793c0.775-2.426,3.363-3.767,5.793-3
						c0.781,0.248,78.556,25.02,123.294,45.008c2.324,1.039,3.366,3.767,2.327,6.093
						C2299.491,1691.803,2297.809,1692.821,2296.043,1692.821z"/>
				</g>
			</g>
			<g>
				<g>
					<path style="fill:#E6FFE9;" d="M2120.594,1246.143c-2.45,0-4.489-1.928-4.603-4.399
						c-4.949-107.213,52.209-325.508,52.788-327.7c0.646-2.464,3.159-3.94,5.636-3.285c2.462,0.65,3.931,3.173,3.282,5.636
						c-0.574,2.179-57.377,219.117-52.494,324.922c0.117,2.545-1.85,4.704-4.393,4.821
						C2120.739,1246.141,2120.667,1246.143,2120.594,1246.143z"/>
				</g>
			</g>
		</g>
		<g>
			<path style="fill:#94D49E;" d="M471.614,1534.734c-165.628-215.646-260.326-346.538-352.886-285.238
				s257.021,543.672,413.693,477.737C689.094,1661.298,471.614,1534.734,471.614,1534.734z"/>
		</g>
		<g>
			<path style="fill:#94D49E;" d="M613.66,1864.167c-104.391-28.406-169.161,111.483-257.286,80.618s-59.473-166.113,225.822-146.23
				S613.66,1864.167,613.66,1864.167z"/>
		</g>
		<g>
			<path style="fill:#53C177;" d="M608.042,1227.907c42.997-110.71,14.031-253.632-59.68-221.617
				c-73.711,32.015-42.714,237.094-42.714,237.094s-34.986-439.828-164.23-378.712s18.366,696.664,185.911,700.797
				C694.872,1569.601,608.042,1227.907,608.042,1227.907z"/>
		</g>
		<g>
			<g>
				<path style="fill:#FFD194;" d="M570.021,1409.416c-0.244,0.037-0.497,0.047-0.753,0.028c-1.857-0.135-3.252-1.751-3.117-3.607
					c0.194-2.659,19.131-266.881-5.748-357.024c-0.495-1.795,0.558-3.651,2.352-4.147c1.797-0.503,3.651,0.558,4.147,2.352
					c25.189,91.267,6.77,348.408,5.974,359.309C572.759,1407.928,571.543,1409.186,570.021,1409.416z"/>
			</g>
		</g>
		<g>
			<g>
				<g>
					<path style="fill:#E6FFE9;" d="M370.328,1894.536c-1.031,0.156-2.119-0.167-2.907-0.966c-1.308-1.326-1.292-3.46,0.033-4.767
						c48.446-47.768,108.906-61.842,151.107-65.235c45.623-3.671,79.322,3.797,80.734,4.117c1.815,0.41,2.954,2.215,2.543,4.03
						c-0.41,1.817-2.222,2.955-4.03,2.546c-1.346-0.303-135.656-29.356-225.62,59.342
						C371.661,1894.123,371.008,1894.434,370.328,1894.536z"/>
				</g>
			</g>
			<g>
				<g>
					<g>
						<path style="fill:#E6FFE9;" d="M528.631,1535.987c-1.786,0.27-3.479-0.921-3.815-2.711
							c-0.711-3.777-71.978-380.174-154.843-597.065c-0.664-1.738,0.206-3.687,1.946-4.352c1.732-0.669,3.687,0.206,4.352,1.946
							c83.083,217.458,154.46,594.443,155.172,598.225c0.344,1.829-0.86,3.591-2.69,3.936
							C528.712,1535.973,528.672,1535.981,528.631,1535.987z"/>
					</g>
				</g>
				<g>
					<g>
						<path style="fill:#E6FFE9;" d="M553.418,1699.943c-1.111,0.168-2.281-0.222-3.066-1.139
							c-2.631-3.068-264.446-307.986-381.995-402.127c-1.453-1.164-1.687-3.285-0.524-4.738c1.167-1.452,3.288-1.687,4.738-0.524
							c118.039,94.533,380.264,399.928,382.899,403.002c1.211,1.413,1.048,3.542-0.366,4.753
							C554.608,1699.596,554.022,1699.852,553.418,1699.943z"/>
					</g>
				</g>
				<g>
					<g>
						<path style="fill:#E6FFE9;" d="M427.375,1103.559c-0.794,0.12-1.634-0.042-2.358-0.519l-84.671-55.81
							c-1.554-1.024-1.983-3.115-0.959-4.669c1.021-1.554,3.114-1.985,4.669-0.959l84.671,55.81
							c1.554,1.024,1.983,3.115,0.959,4.669C429.14,1102.912,428.288,1103.421,427.375,1103.559z"/>
					</g>
				</g>
				<g>
					<g>
						<path style="fill:#E6FFE9;" d="M446.078,1171.688c-0.794,0.12-1.634-0.042-2.358-0.519l-94.005-61.962
							c-1.554-1.024-1.984-3.115-0.959-4.669c1.022-1.554,3.114-1.984,4.669-0.959l94.005,61.963
							c1.554,1.024,1.984,3.115,0.959,4.669C447.842,1171.041,446.99,1171.551,446.078,1171.688z"/>
					</g>
				</g>
				<g>
					<g>
						<path style="fill:#E6FFE9;" d="M462.425,1235.457c-0.773,0.117-1.589-0.033-2.3-0.481l-100.97-63.654
							c-1.575-0.993-2.047-3.074-1.055-4.649c0.994-1.575,3.077-2.047,4.649-1.055l100.97,63.654
							c1.575,0.993,2.047,3.074,1.055,4.649C464.23,1234.784,463.359,1235.316,462.425,1235.457z"/>
					</g>
				</g>
				<g>
					<g>
						<path style="fill:#E6FFE9;" d="M277.659,1397.147l-79.165,11.966c-1.841,0.278-3.559-0.988-3.837-2.829
							c-0.278-1.841,0.988-3.559,2.829-3.837l79.165-11.966c1.841-0.278,3.559,0.988,3.837,2.829
							C280.766,1395.151,279.5,1396.869,277.659,1397.147z"/>
					</g>
				</g>
				<g>
					<g>
						<path style="fill:#E6FFE9;" d="M337.399,1459.304l-88.803,13.422c-1.841,0.278-3.559-0.988-3.837-2.829
							c-0.278-1.841,0.988-3.559,2.829-3.837l88.803-13.422c1.841-0.278,3.559,0.988,3.837,2.829
							C340.506,1457.308,339.24,1459.025,337.399,1459.304z"/>
					</g>
				</g>
			</g>
		</g>
		<g>
			<path style="fill:#94D49E;" d="M1347.908,1996.493c195.815-62.599,315.95-12.062,277.518,41.145
				c-38.432,53.207-291.953,4.712-350.109,36.45C1217.16,2105.827,1347.908,1996.493,1347.908,1996.493z"/>
		</g>
		<g>
			<path style="fill:#53C177;" d="M1377.514,1962.347c60.284-75.519,144.34-63.057,141.343-37.321
				c-2.997,25.736-164.119,64.025-164.119,64.025L1377.514,1962.347z"/>
		</g>
		<g>
			<g>
				<path style="fill:#E6FFE9;" d="M1261.704,2031.22c0.393,0.058,0.803,0.048,1.214-0.042
					c2.059-0.449,207.171-44.569,320.607-14.225c1.802,0.478,3.648-0.588,4.129-2.386c0.481-1.8-0.588-3.648-2.386-4.129
					c-115.022-30.75-321.712,13.699-323.787,14.151c-1.819,0.397-2.973,2.194-2.575,4.014
					C1259.211,2030.011,1260.358,2031.021,1261.704,2031.22z"/>
			</g>
		</g>
		<g>
			<path style="fill:#FFAB3B;" d="M2304.123,1089.538"/>
		</g>
		<g>
			<rect x="1214.131" y="1832.85" style="fill:#003545;" width="209.13" height="259.203"/>
		</g>
		<g>
			<path style="fill:#054659;" d="M2070.025,1877.47H567.975c-34.658,0-62.754-28.096-62.754-62.754V904.624
				c0-34.658,28.096-62.754,62.754-62.754h1502.051c34.658,0,62.754,28.096,62.754,62.754v910.092
				C2132.78,1849.374,2104.684,1877.47,2070.025,1877.47z"/>
		</g>
		<g>
			<path style="fill:#FFFFFF;" d="M2063.803,1811.801H574.197c-14.245,0-25.792-11.548-25.792-25.792V912.282
				c0-14.245,11.548-25.792,25.792-25.792h1489.605c14.245,0,25.792,11.548,25.792,25.792v873.727
				C2089.595,1800.253,2078.047,1811.801,2063.803,1811.801z"/>
		</g>
		<g>
			<path style="fill:#054659;" d="M1765.835,2113.67H871.557l0,0c0-36.267,29.4-65.667,65.667-65.667h762.943
				C1736.434,2048.003,1765.835,2077.403,1765.835,2113.67L1765.835,2113.67z"/>
		</g>
		<g>
			<rect x="591.845" y="929.004" style="fill:#E5F4FB;" width="1454.311" height="840.283"/>
		</g>
		<g>
			<rect x="591.845" y="929.004" style="fill:#81CAEB;" width="1454.311" height="140.702"/>
		</g>
		<g>
			<rect x="669.221" y="986.618" style="fill:#FFFFFF;" width="1299.557" height="25.472"/>
		</g>
		<g>
			<g>
				<g>
					<g>
						<rect x="1835.89" y="1225.898" style="fill:#F2FBFF;" width="173.695" height="18.23"/>
					</g>
					<g>
						<rect x="1835.89" y="1263.743" style="fill:#F2FBFF;" width="173.695" height="18.23"/>
					</g>
					<g>
						<rect x="1835.89" y="1301.588" style="fill:#F2FBFF;" width="92.316" height="18.23"/>
					</g>
				</g>
				<g>
					<rect x="1652.485" y="1199.793" style="fill:#F2FBFF;" width="146.131" height="146.131"/>
				</g>
				<g>
					<g>
						<rect x="1835.89" y="1475.163" style="fill:#F2FBFF;" width="173.695" height="18.23"/>
					</g>
					<g>
						<rect x="1835.89" y="1513.008" style="fill:#F2FBFF;" width="173.695" height="18.23"/>
					</g>
					<g>
						<rect x="1835.89" y="1550.853" style="fill:#F2FBFF;" width="92.316" height="18.23"/>
					</g>
				</g>
				<g>
					<rect x="1652.485" y="1449.058" style="fill:#F2FBFF;" width="146.131" height="146.131"/>
				</g>
			</g>
			<g>
				<g>
					<g>
						<rect x="811.82" y="1225.898" style="fill:#F2FBFF;" width="173.695" height="18.23"/>
					</g>
					<g>
						<rect x="811.82" y="1263.743" style="fill:#F2FBFF;" width="173.695" height="18.23"/>
					</g>
					<g>
						<rect x="811.82" y="1301.588" style="fill:#F2FBFF;" width="92.316" height="18.23"/>
					</g>
				</g>
				<g>
					<rect x="628.416" y="1199.793" style="fill:#F2FBFF;" width="146.131" height="146.131"/>
				</g>
				<g>
					<g>
						<rect x="811.82" y="1475.163" style="fill:#F2FBFF;" width="173.695" height="18.23"/>
					</g>
					<g>
						<rect x="811.82" y="1513.008" style="fill:#F2FBFF;" width="173.695" height="18.23"/>
					</g>
					<g>
						<rect x="811.82" y="1550.853" style="fill:#F2FBFF;" width="92.316" height="18.23"/>
					</g>
				</g>
				<g>
					<rect x="628.416" y="1449.058" style="fill:#F2FBFF;" width="146.131" height="146.131"/>
				</g>
			</g>
		</g>
		<g>
			<g>
				<path style="fill:#ABDEF0;" d="M161.624,1538.594c10.565,31.399-5.149,49.214-5.149,49.214l109.328,136.608
					c0,0,43.913-10.049,59.398,20.54c10.783,21.274,7.789,40.104,4.973,49.59c-0.684,2.324-3.872,2.489-4.825,0.276
					c-4.165-9.536-14.006-27.426-31.81-34.86c-19.349-8.08-43.093,13.574-37.844,36.515c3.392,14.815,19.405,25.32,28.26,30.1
					c2.131,1.145,1.686,4.268-0.661,4.784c-11.387,2.501-34.82,4.203-48.925-18.49c-19.147-30.813-0.792-58.536-0.792-58.536
					l-36.993-47.749l-72.162-93.082c0,0-16.462,12.824-41.494-2.752c-11.876-7.378-18.509-18.549-22.169-29.37
					c-2.758-8.026-3.884-15.847-4.329-21.793c-0.194-2.659,3.274-3.725,4.729-1.494c14.911,22.743,40.539,27.749,60.061,2.263
					c15.822-20.666-2.81-40.444-14.264-49.746c-2.048-1.651-0.613-4.934,1.994-4.546
					C124.458,1508.404,153.934,1515.78,161.624,1538.594z"/>
			</g>
			<g>
				<g>
					<path style="fill:#89CAE0;" d="M252.52,1742.871c-0.191,0.457-0.501,0.871-0.921,1.194c-1.286,0.989-3.13,0.746-4.116-0.54
						l-110.515-143.947c-0.986-1.286-0.745-3.128,0.541-4.117c1.286-0.989,3.13-0.746,4.116,0.539l110.515,143.947
						C252.804,1740.815,252.912,1741.932,252.52,1742.871z"/>
				</g>
			</g>
			<g>
				<path style="fill:#89CAE0;" d="M129.32,1577.497c4.118,0.264,7.243,3.816,6.979,7.935c-0.264,4.118-3.816,7.243-7.935,6.979
					c-4.118-0.264-7.243-3.816-6.979-7.935C121.649,1580.358,125.202,1577.233,129.32,1577.497z"/>
			</g>
			<g>
				<path style="fill:#89CAE0;" d="M257.55,1746.84c4.118,0.264,7.243,3.816,6.979,7.935c-0.264,4.118-3.816,7.243-7.935,6.979
					s-7.243-3.817-6.979-7.935C249.879,1749.7,253.432,1746.576,257.55,1746.84z"/>
			</g>
		</g>
		<g>
			<g>
				<path style="fill:#89CAE0;" d="M2492.006,1257.789c-8.35,4.092-18.861,6.895-18.861,6.895s-1.072-1.763-2.822-4.202
					c-2.372-3.313-6.011-7.896-9.901-10.984c-1.159-0.922-2.319-1.714-3.497-2.301c-2.683-1.348-1.279-4.54,1.798-8.198
					c6.115-7.311,18.884-16.483,18.884-16.483s1.08,1.973,3.504,5.036c2.234,2.854,5.637,6.646,10.414,10.649
					c2.109,1.786,4.497,3.606,7.162,5.406C2506.148,1248.647,2500.095,1253.824,2492.006,1257.789z"/>
			</g>
			<g>
				<path style="fill:#ABDEF0;" d="M2481.112,1227.552c-3.8,4.859-9.485,10.999-14.972,16.451c-1.962,1.954-3.891,3.811-5.718,5.495
					c-5.18,4.801-9.393,8.167-10.441,8.011c-3.162-0.499-16.82-11.197-17.265-17.773c-0.174-2.627,3.81-8.97,9.041-15.674
					c7.831-10.073,18.466-20.971,22.085-21.469c6.021-0.836,21.884,15.443,21.766,17.293
					C2485.521,1221.351,2483.774,1224.131,2481.112,1227.552z"/>
			</g>
			<g>
				<path style="fill:#89CAE0;" d="M2468.479,1267.915c-3.16,9.407-14.178,26.056-28.362,32.196
					c-14.185,6.139,17.406,24.064,17.552,18.94s21.384-31.328,29.733-34.249S2468.479,1267.915,2468.479,1267.915z"/>
			</g>
			<g>
				<path style="fill:#ABDEF0;" d="M2522.835,1343.292c-3.542,0.501-2.947-15.618-19.896-38.883
					c-9.959-13.664-34.26-30.048-36.964-34.993c-0.722-1.324,1.153-4.716,4.349-8.934c2.185-2.883,4.985-6.157,7.988-9.402
					c4.418-4.767,9.256-9.485,13.214-12.879c4.115-3.517,7.275-5.595,7.993-4.806c11.488,12.53,19.501,24.377,24.906,35.321
					C2546.492,1313.278,2525.679,1342.891,2522.835,1343.292z"/>
			</g>
			<g>
				<path style="fill:#7FBFD4;" d="M2434.016,1291.426c6.804,0.839,29.926,23.476,31.505,33.608
					c1.579,10.132-147.896,162.687-156.12,164.18s-36.124-20.56-33.416-33.372
					C2278.694,1443.029,2426.762,1290.532,2434.016,1291.426z"/>
			</g>
		</g>
		<g>
			<ellipse style="fill:#B8DBF2;" cx="1851.098" cy="2162.95" rx="190.32" ry="38.322"/>
		</g>
		<g>
			<ellipse style="fill:#B8DBF2;" cx="772.894" cy="2162.95" rx="190.32" ry="38.322"/>
		</g>
		<g>
			<g>
				<g>
					<path style="fill:#89CAE0;" d="M1268.793,692.841l-6.099-2.931c14.198-29.539,59.189-18.223,98.882-8.239
						c15.986,4.021,31.081,7.815,42.209,8.38c8.622,0.437,16.539-2.928,23.536-10.001c16.346-16.528,22.616-47.315,22.993-53.236
						c-4.309-3.678-29.3-15.599-52.086-25.489l2.694-6.207c54.963,23.859,55.718,27.959,56.08,29.929
						c0.726,3.94-5.415,37.712-22.588,57.305c-8.924,10.18-19.344,15.044-30.97,14.457c-11.792-0.597-27.201-4.471-43.517-8.577
						C1322.747,678.88,1280.596,668.274,1268.793,692.841z M1450.747,627.231c0,0.002,0,0.002,0,0.002L1450.747,627.231z"/>
				</g>
			</g>
			<g>
				<path style="fill:#ABDEF0;" d="M1268.498,492.37c17.686-13.833,175.852,68.482,178.707,78.993
					c2.855,10.511-26.994,84.829-43.556,88.951c-16.562,4.122-167.733-67.678-173.932-78.033
					C1223.52,571.927,1256.708,501.592,1268.498,492.37z"/>
			</g>
			<g>
				<path style="fill:#7FBFD4;" d="M1244.387,676.109c3.426-1.407,47.742,18.916,49.05,24.768
					c1.307,5.852-34.218,65.159-36.368,66.59s-32.826-9.706-36.878-17.352C1216.138,742.469,1240.325,677.776,1244.387,676.109z"/>
			</g>
			<g>
				<path style="fill:#333333;" d="M1402.658,562.473c-2.524,5.629-32.574-2.362-67.12-17.849
					c-34.546-15.487-60.505-32.605-57.981-38.234c2.524-5.629,32.574,2.362,67.12,17.849
					C1379.222,539.726,1405.182,556.844,1402.658,562.473z"/>
			</g>
		</g>
		<g>
			<g>
				<path style="fill:#89CAE0;" d="M1857.577,745.326c4.881,1.642,10.311,0.323,13.881-3.398l0.838-0.891l2.342-2.421l8.753-9.185
					l2.312-2.385l8.786-9.188l2.308-2.418l8.756-9.151l2.308-2.418l8.786-9.188l2.279-2.381l8.786-9.188l2.312-2.385l8.786-9.188
					l2.276-2.414l8.819-9.192l2.279-2.381l8.786-9.188l2.308-2.418l8.789-9.155l2.276-2.414l8.786-9.188l2.279-2.381l8.786-9.188
					l2.312-2.384l8.782-9.221l2.279-2.381l8.819-9.192l2.279-2.381l8.786-9.188l2.309-2.418l8.786-9.188l2.279-2.381l8.786-9.188
					l2.312-2.385l5.455-5.726c3.897-4.09,4.778-10.157,2.233-15.188c-2.5-4.936-7.777-7.77-13.252-7.18l-0.363,0.039
					c-69.627,9.339-183.239,23.853-199.571,24.011c-1.402-0.316-2.878-0.39-4.362-0.23c-7.289,0.786-12.556,7.326-11.771,14.615
					l18.378,170.517C1849.223,739.319,1852.692,743.65,1857.577,745.326z M1948.745,564.671c22.616-2.838,45.254-5.778,63.348-8.163
					l-140.097,146.458l-13.778-127.838C1873.371,573.929,1900.054,570.753,1948.745,564.671z M1855.394,556.348
					c-0.466-0.917-1.024-1.758-1.644-2.559C1854.367,554.557,1854.957,555.394,1855.394,556.348z"/>
			</g>
			<g>
				<g>
					<g>
						<path style="fill:#ABDEF0;" d="M1864.92,731.722c0.301-0.299,0.65-0.47,1.046-0.513c0.462-0.05,0.945,0.098,1.317,0.458
							l7.355,6.948l-2.342,2.421l-7.322-6.951C1864.339,733.453,1864.291,732.391,1864.92,731.722z"/>
					</g>
				</g>
				<g>
					<g>
						<path style="fill:#ABDEF0;" d="M1875.944,720.091c0.268-0.296,0.65-0.471,1.013-0.51c0.495-0.053,0.978,0.095,1.35,0.455
							l7.395,7.01l-2.312,2.385l-7.395-7.01C1875.327,721.792,1875.316,720.759,1875.944,720.091z"/>
					</g>
				</g>
				<g>
					<g>
						<path style="fill:#ABDEF0;" d="M1886.969,708.459c0.269-0.296,0.65-0.47,1.013-0.509c0.495-0.053,0.978,0.095,1.347,0.422
							l7.468,7.069l-2.308,2.418l-7.468-7.069C1886.352,710.16,1886.34,709.128,1886.969,708.459z"/>
					</g>
				</g>
				<g>
					<g>
						<path style="fill:#ABDEF0;" d="M1897.994,696.828c0.269-0.296,0.65-0.471,1.013-0.51c0.462-0.05,0.978,0.095,1.314,0.426
							l7.541,7.128l-2.308,2.418l-7.509-7.132C1897.376,698.529,1897.365,697.496,1897.994,696.828z"/>
					</g>
				</g>
				<g>
					<g>
						<path style="fill:#ABDEF0;" d="M1909.015,685.163c0.269-0.295,0.65-0.47,1.013-0.509c0.462-0.05,0.945,0.098,1.317,0.458
							l7.581,7.191l-2.279,2.381l-7.578-7.158C1908.401,686.898,1908.386,685.832,1909.015,685.163z"/>
					</g>
				</g>
				<g>
					<g>
						<path style="fill:#ABDEF0;" d="M1920.04,673.532c0.268-0.296,0.65-0.471,1.013-0.51c0.462-0.05,0.945,0.099,1.317,0.459
							l7.655,7.25l-2.312,2.385l-7.618-7.22C1919.426,675.266,1919.411,674.2,1920.04,673.532z"/>
					</g>
				</g>
				<g>
					<g>
						<path style="fill:#ABDEF0;" d="M1931.064,661.901c0.268-0.296,0.65-0.47,1.013-0.51c0.462-0.05,0.945,0.098,1.317,0.458
							l7.691,7.279l-2.276,2.414l-7.691-7.279C1930.45,663.635,1930.436,662.569,1931.064,661.901z"/>
					</g>
				</g>
				<g>
					<g>
						<path style="fill:#ABDEF0;" d="M1942.089,650.269c0.268-0.296,0.65-0.47,1.013-0.51c0.462-0.05,0.945,0.098,1.317,0.459
							l7.764,7.337l-2.279,2.381l-7.764-7.338C1941.472,651.971,1941.46,650.937,1942.089,650.269z"/>
					</g>
				</g>
				<g>
					<g>
						<path style="fill:#ABDEF0;" d="M1953.114,638.638c0.268-0.296,0.65-0.47,1.013-0.509c0.462-0.05,0.945,0.099,1.313,0.425
							l7.837,7.396l-2.308,2.418l-7.804-7.4C1952.496,640.339,1952.485,639.306,1953.114,638.638z"/>
					</g>
				</g>
				<g>
					<g>
						<path style="fill:#ABDEF0;" d="M1964.135,626.973c0.268-0.296,0.653-0.437,1.016-0.477c0.462-0.05,0.941,0.065,1.314,0.426
							l7.877,7.459l-2.276,2.414l-7.877-7.459C1963.521,628.708,1963.506,627.641,1964.135,626.973z"/>
					</g>
				</g>
				<g>
					<g>
						<path style="fill:#ABDEF0;" d="M1975.16,615.342c0.268-0.296,0.617-0.467,1.013-0.51c0.462-0.05,0.945,0.099,1.317,0.458
							l7.917,7.521l-2.279,2.381l-7.914-7.488C1974.546,617.076,1974.531,616.01,1975.16,615.342z"/>
					</g>
				</g>
				<g>
					<g>
						<path style="fill:#ABDEF0;" d="M1986.151,603.714c0.302-0.3,0.65-0.471,1.046-0.513c0.462-0.05,0.945,0.098,1.318,0.459
							l7.99,7.58l-2.312,2.384l-7.954-7.551C1985.571,605.445,1985.523,604.382,1986.151,603.714z"/>
					</g>
				</g>
				<g>
					<g>
						<path style="fill:#ABDEF0;" d="M1997.176,592.082c0.302-0.299,0.65-0.47,1.046-0.513c0.462-0.05,0.945,0.099,1.317,0.458
							l8.027,7.61l-2.279,2.381l-8.027-7.609C1996.592,593.78,1996.548,592.751,1997.176,592.082z"/>
					</g>
				</g>
				<g>
					<g>
						<path style="fill:#ABDEF0;" d="M2008.201,580.451c0.302-0.299,0.65-0.47,1.046-0.513c0.462-0.05,0.945,0.098,1.314,0.426
							l8.104,7.701l-2.279,2.381l-8.1-7.669C2007.616,582.149,2007.572,581.119,2008.201,580.451z"/>
					</g>
				</g>
				<g>
					<g>
						<path style="fill:#ABDEF0;" d="M2019.226,568.819c0.301-0.299,0.65-0.47,1.046-0.513c0.462-0.05,0.945,0.099,1.314,0.426
							l8.173,7.727l-2.309,2.418l-8.14-7.731C2018.641,570.517,2018.594,569.455,2019.226,568.819z"/>
					</g>
				</g>
				<g>
					<g>
						<path style="fill:#ABDEF0;" d="M2030.247,557.155c0.301-0.299,0.65-0.47,1.046-0.513c0.462-0.05,0.945,0.099,1.317,0.459
							l8.213,7.79l-2.279,2.381l-8.21-7.757C2029.666,558.886,2029.618,557.823,2030.247,557.155z"/>
					</g>
				</g>
				<g>
					<g>
						<path style="fill:#ABDEF0;" d="M2041.272,545.524c0.301-0.3,0.65-0.471,1.046-0.513c0.462-0.05,0.945,0.099,1.317,0.459
							l8.286,7.849l-2.312,2.385l-8.25-7.819C2040.691,547.255,2040.643,546.192,2041.272,545.524z"/>
					</g>
				</g>
			</g>
		</g>
		<g>
			<g>
				<path style="fill:#89CAE0;" d="M689.914,538.333c-62.283-27.336-135.86,2.892-164.763,67.558l-0.373,0.85
					c-7.956,18.126-11.579,37.018-11.311,55.437l49.178,21.584c-5.825-18.493-5.148-39.416,3.407-58.906
					c0.124-0.283,0.249-0.566,0.398-0.838c18.436-40.886,65.073-59.969,104.57-42.634c39.497,17.335,57.023,64.579,39.411,105.827
					c-0.099,0.294-0.223,0.578-0.347,0.861c-8.555,19.491-23.495,34.153-41.05,42.385l49.178,21.584
					c13.738-12.272,25.19-27.728,33.145-45.854l0.373-0.849C779.757,640.285,752.197,565.669,689.914,538.333z"/>
			</g>
			<g>
				<path style="fill:#89CAE0;" d="M507.127,597.98l-22.601,51.495l262.625,115.266l22.601-51.495L507.127,597.98z"/>
			</g>
			<g>
				<g>
					<g>
						<path style="fill:#ABDEF0;" d="M705.955,746.66l10.736-24.46c0.316-0.721,1.131-1.039,1.852-0.722
							c0.721,0.316,1.039,1.131,0.722,1.852l-10.736,24.46L705.955,746.66z"/>
					</g>
				</g>
				<g>
					<g>
						<path style="fill:#ABDEF0;" d="M664.759,728.579l10.735-24.46c0.317-0.721,1.131-1.039,1.852-0.722
							c0.721,0.316,1.039,1.131,0.722,1.852l-10.736,24.46L664.759,728.579z"/>
					</g>
				</g>
				<g>
					<g>
						<path style="fill:#ABDEF0;" d="M623.563,710.498l10.735-24.46c0.316-0.721,1.131-1.039,1.852-0.722
							c0.721,0.316,1.039,1.131,0.722,1.852l-10.735,24.46L623.563,710.498z"/>
					</g>
				</g>
				<g>
					<g>
						<path style="fill:#ABDEF0;" d="M582.367,692.417l10.735-24.46c0.316-0.721,1.131-1.039,1.852-0.722
							c0.721,0.316,1.039,1.131,0.722,1.852l-10.735,24.46L582.367,692.417z"/>
					</g>
				</g>
				<g>
					<g>
						<path style="fill:#ABDEF0;" d="M541.17,674.337l10.735-24.46c0.316-0.721,1.131-1.039,1.852-0.722
							c0.721,0.316,1.039,1.131,0.722,1.852l-10.735,24.46L541.17,674.337z"/>
					</g>
				</g>
				<g>
					<g>
						<path style="fill:#ABDEF0;" d="M499.974,656.256l10.736-24.46c0.316-0.721,1.131-1.039,1.852-0.722
							c0.721,0.316,1.039,1.131,0.722,1.852l-10.736,24.46L499.974,656.256z"/>
					</g>
				</g>
				<g>
					<g>
						<path style="fill:#ABDEF0;" d="M726.553,755.701l6.215-14.161c0.316-0.721,1.131-1.039,1.852-0.722
							c0.721,0.316,1.039,1.131,0.722,1.852l-6.215,14.161L726.553,755.701z"/>
					</g>
				</g>
				<g>
					<g>
						<path style="fill:#ABDEF0;" d="M685.357,737.62l6.215-14.161c0.316-0.721,1.131-1.039,1.852-0.722
							c0.721,0.316,1.039,1.131,0.722,1.852l-6.215,14.161L685.357,737.62z"/>
					</g>
				</g>
				<g>
					<g>
						<path style="fill:#ABDEF0;" d="M644.161,719.539l6.215-14.161c0.317-0.721,1.131-1.039,1.852-0.722
							c0.721,0.316,1.039,1.131,0.722,1.852l-6.215,14.161L644.161,719.539z"/>
					</g>
				</g>
				<g>
					<g>
						<path style="fill:#ABDEF0;" d="M602.965,701.458l6.215-14.161c0.316-0.721,1.131-1.039,1.852-0.722
							c0.721,0.316,1.039,1.131,0.722,1.852l-6.215,14.161L602.965,701.458z"/>
					</g>
				</g>
				<g>
					<g>
						<path style="fill:#ABDEF0;" d="M561.768,683.377l6.215-14.161c0.316-0.721,1.131-1.039,1.852-0.722
							c0.721,0.316,1.039,1.131,0.722,1.852l-6.215,14.161L561.768,683.377z"/>
					</g>
				</g>
				<g>
					<g>
						<path style="fill:#ABDEF0;" d="M520.572,665.296l6.215-14.161c0.316-0.721,1.131-1.039,1.852-0.722
							c0.721,0.316,1.039,1.131,0.722,1.852l-6.215,14.161L520.572,665.296z"/>
					</g>
				</g>
			</g>
		</g>
		<g>
			<g>
				<path style="fill:#F2FBFF;" d="M1246.974,1198.606c72.819-35.038,132.6-90.468,192.023-58.259
					c59.422,32.208,8.534,130.356,63.927,174.124c55.393,43.768,173.691,119.111,112.546,249.153s-240.85,53.997-290.676,25.134
					s-93.011,136.45-231.229,84.74s-38.132-173.133-38.26-221.236c-0.128-48.102-89.784-127.059-28.367-179.979
					C1088.353,1219.363,1143.301,1248.49,1246.974,1198.606z"/>
			</g>
			<g>
				<g>
					<g>
						<path style="fill:#14469C;" d="M1469.801,1629.202c0,0-8.481,47.35-7.774,51.591s16.255,3.534,19.788,0
							c3.534-3.534,28.976-51.591,28.976-51.591H1469.801z"/>
					</g>
					<g>
						<path style="fill:#14469C;" d="M1152.012,1629.202c0,0,8.481,47.35,7.774,51.591c-0.707,4.24-16.255,3.534-19.788,0
							c-3.534-3.534-28.976-51.591-28.976-51.591H1152.012z"/>
					</g>
				</g>
				<g>
					<g>
						<path style="fill:#FFA72B;" d="M1548.618,1477.853l-5.876-0.406c1.823-26.356,19.284-38.707,34.689-49.604
							c13.839-9.79,26.91-19.036,27.899-37.17c1.862-34.208-27.159-46.721-46.363-55c-8.854-3.818-14.704-6.34-16.077-10.417
							l5.581-1.881c0.596,1.616,7.667,4.664,12.828,6.89c19.447,8.384,51.998,22.418,49.911,60.728
							c-1.142,20.978-16.004,31.49-30.378,41.658C1565.796,1443.286,1550.247,1454.285,1548.618,1477.853z"/>
					</g>
				</g>
				<g>
					<g>
						<path style="fill:#FB503A;" d="M1545.84,1542.266l-5.859-0.608c2.618-25.234,21.672-43.656,40.099-61.473
							c17.062-16.498,33.179-32.081,31.898-50.387c-1.631-23.326-25.926-38.227-45.447-50.199
							c-12.418-7.617-22.226-13.632-23.73-20.586l5.757-1.244c0.971,4.494,10.725,10.476,21.052,16.81
							c19.581,12.01,46.4,28.458,48.244,54.809c1.472,21.043-15.603,37.552-33.681,55.031
							C1566.505,1501.501,1548.236,1519.166,1545.84,1542.266z"/>
					</g>
				</g>
				<g>
					<path style="fill:#81CAEB;" d="M1552.333,1637.133c-4.554,5.556-475.86,13.192-485.283,0
						c-3.789-5.32-5.634-87.869-5.693-172.794c-0.059-90.225,1.904-183.159,5.693-189.048c5.811-9.05,228.88-9.835,370.538-6.576
						c64.861,1.472,112.663,3.808,114.744,6.576C1566.468,1294.137,1559.283,1628.653,1552.333,1637.133z"/>
				</g>
				<g>
					<path style="fill:#3B6BBF;" d="M1412.815,1449.224c-0.02,1.865-0.039,3.73-0.039,5.595c0,0.569-0.02,1.158-0.02,1.728
						c-0.02,1.845-0.02,3.691-0.039,5.536c-0.196,22.183-0.55,44.15-1.001,63.86c-0.059,1.708-0.098,3.377-0.137,5.045
						c0,0.216,0,0.452-0.02,0.667c-0.039,1.61-0.078,3.2-0.118,4.77c-0.962,36.141-2.297,62.564-3.612,64.645
						c-0.098,0.157-0.55,0.314-1.355,0.471c-1.04,0.216-2.709,0.432-4.888,0.648c-10.699,1.06-34.217,2.12-63.546,2.984
						c-1.139,0.019-2.297,0.059-3.455,0.098c-0.746,0.02-1.492,0.039-2.258,0.059c-1.041,0.02-2.081,0.059-3.141,0.079
						c-21.084,0.569-44.602,1.001-68.277,1.256c-0.177,0.02-0.353,0.02-0.53,0.02c-1.688,0.02-3.396,0.039-5.084,0.059
						c-0.137-0.02-0.275,0-0.412,0c-24.127,0.236-48.155,0.255-69.651,0h-0.412c-1.708-0.02-3.396-0.039-5.065-0.079h-0.569
						c-30.33-0.451-54.869-1.492-66.157-3.357c-1.884-0.334-3.416-0.667-4.515-1.021c-1.158-0.373-1.885-0.785-2.12-1.217
						c-1.453-2.611-2.434-28.465-2.984-63.762c-0.039-1.806-0.059-3.632-0.079-5.477v-0.019c-0.02-0.354-0.02-0.667-0.02-1.021
						c-0.039-1.865-0.059-3.73-0.078-5.634c-0.236-19.474-0.373-41.088-0.373-62.918v-7.519c0-1.845,0-3.691,0.02-5.536
						c0.02-21.889,0.177-43.581,0.451-63.055c0.02-1.904,0.039-3.769,0.059-5.615c0.02-0.295,0.02-0.569,0.02-0.864
						c0.02-1.845,0.059-3.671,0.098-5.477c0.569-34.845,1.551-60.346,2.886-63.036c0.255-0.51,1.178-0.981,2.709-1.433
						c1.178-0.334,2.709-0.667,4.574-0.982c11.523-1.885,35.572-3.082,65.215-3.71c0.373,0,0.766-0.02,1.139-0.02
						c1.492-0.039,3.004-0.059,4.535-0.098c0.295,0,0.589,0,0.884-0.02c21.476-0.373,45.505-0.491,69.573-0.353h0.157
						c1.786,0,3.573,0.02,5.359,0.02h0.216c23.852,0.157,47.547,0.55,68.748,1.119c0.844,0.02,1.688,0.059,2.513,0.078
						c0.962,0.02,1.924,0.039,2.866,0.078c0.962,0.02,1.904,0.059,2.846,0.079c29.211,0.883,52.71,2.12,63.585,3.573
						c2.022,0.275,3.612,0.569,4.711,0.844c1.041,0.275,1.649,0.55,1.806,0.824c2.493,4.319,3.926,29.251,4.594,62.839
						c0.039,1.806,0.059,3.632,0.098,5.477c0,0.412,0.02,0.825,0.02,1.256c0.039,1.845,0.059,3.73,0.079,5.634
						C1412.893,1405.8,1412.932,1427.413,1412.815,1449.224z"/>
				</g>
				<g>
					<circle style="fill:#FEFEF1;" cx="1257.866" cy="1455.694" r="121.085"/>
				</g>
				<g>
					<path style="fill:#F5B3A2;" d="M1340.434,1480.045c-36.612,24.951-65.372-3.455-65.018-16.176
						c0.078-2.964,4.967-5.654,11.052-9.659c7.303-4.79,16.313-11.484,20.75-22.87c8.127-20.829-1.414-43.09,23.675-40.263
						c8.402,0.942,16.863,8.049,22.87,18.159C1365.719,1429.337,1367.958,1461.277,1340.434,1480.045z"/>
				</g>
				<g>
					<path style="fill:#F5B3A2;" d="M1261.498,1565.106c-1.885,1.433-4.123,2.513-6.596,3.239
						c-23.95,7.165-71.143-16.981-61.505-61.289c9.423-43.306,49.844-42.443,58.344-32.961c2.277,2.532-0.353,9.207-2.14,17.963
						l-0.02,0.039c-1.629,7.951-2.591,17.629,1.413,27.484C1259.417,1540.293,1281.659,1549.892,1261.498,1565.106z"/>
				</g>
				<g>
					<path style="fill:#F5B3A2;" d="M1245.302,1442.215c-3.73,0.864-9.03-6.145-17.275-12.623
						c-5.791-4.555-13.055-8.834-22.222-9.914c-22.223-2.611-41.343,12.25-44.955-12.741c-1.237-8.559,3.769-18.826,12.387-27.327
						h0.02c16.569-16.294,46.467-25.992,71.261-4.397C1277.929,1404.327,1257.709,1439.349,1245.302,1442.215z"/>
				</g>
				<g>
					
						<ellipse transform="matrix(0.7071 -0.7071 0.7071 0.7071 -660.9109 1315.8083)" style="fill:#EA917A;" cx="1257.866" cy="1455.694" rx="24.347" ry="24.347"/>
				</g>
				<g>
					<g>
						<g>
							<path style="fill:#81CAEB;" d="M1184.563,1304.895l-2.316,2.317l-35.042,35.042l-2.768,2.788l-35.042,35.022l-2.788,2.788
								l-3.278,3.278c0.02-1.904,0.039-3.769,0.059-5.615l0.452-0.452l2.768-2.768l35.042-35.042l2.768-2.768l34.472-34.472
								c0.373,0,0.766-0.02,1.139-0.02C1181.52,1304.954,1183.032,1304.935,1184.563,1304.895z"/>
						</g>
						<g>
							<path style="fill:#81CAEB;" d="M1260.536,1304.542l-75.521,75.521l-2.768,2.788l-21.575,21.555l-13.467,13.467l-2.788,2.788
								l-3.475,3.475l-31.547,31.567l-2.768,2.768l-3.769,3.769v-5.575l0.982-0.962l2.768-2.788l35.042-35.022l1.747-1.728
								l1.04-1.06l17.158-17.177l17.865-17.865l2.493-2.493l0.294-0.275l10.542-10.542l24.5-24.5l1.021-1.021l36.789-36.789
								l0.079,0.078C1256.963,1304.522,1258.749,1304.542,1260.536,1304.542z"/>
						</g>
						<g>
							<path style="fill:#81CAEB;" d="M1334.879,1305.818l-1.394,1.394l-34.551,34.551l-3.259,3.259l-35.042,35.042l-2.768,2.768
								l-33.393,33.393l-1.649,1.649l-2.768,2.788l-2.415,2.415l-32.627,32.627l-2.768,2.768l-35.042,35.042l-2.768,2.768
								l-0.51,0.51l-34.531,34.531l-2.788,2.768l-3.2,3.219c-0.039-1.806-0.059-3.632-0.079-5.477v-0.019l0.51-0.491l2.768-2.788
								l35.905-35.905l1.904-1.904l35.042-35.022l2.788-2.788l31.41-31.43l3.612-3.612l2.788-2.768l32.077-32.078l2.964-2.964
								l2.768-2.768l71.634-71.634c0.844,0.02,1.688,0.059,2.513,0.078C1332.975,1305.759,1333.937,1305.779,1334.879,1305.818z"/>
						</g>
						<g>
							<path style="fill:#81CAEB;" d="M1406.022,1310.313l-31.94,31.94l-2.768,2.788l-35.042,35.022l-116.217,116.217
								l-35.042,35.042l-2.768,2.768l-35.042,35.042l-2.768,2.788l-31.41,31.39c-1.884-0.334-3.416-0.667-4.515-1.021l33.137-33.157
								l2.788-2.768l35.042-35.042l2.768-2.768l35.042-35.042l2.768-2.768l35.042-35.042l2.768-2.788l35.042-35.042l2.768-2.768
								l35.042-35.042l2.768-2.768l35.042-35.042l2.788-2.768l29.996-30.016C1403.333,1309.744,1404.923,1310.039,1406.022,1310.313
								z"/>
						</g>
						<g>
							<path style="fill:#81CAEB;" d="M1412.52,1379.454l-0.628,0.609l-2.768,2.788l-35.905,35.905l-1.904,1.904l-9.855,9.855
								l-25.187,25.187l-2.788,2.768l-30.605,30.605l-45.014,45.014l-21.3,21.3l-13.742,13.742l-1.904,1.904l-0.864,0.864
								l-34.826,34.845l-0.216,0.196l-0.196-0.196c-1.708-0.02-3.396-0.039-5.065-0.079l2.493-2.493l40.303-40.303l12.289-12.289
								l20.259-20.259l40.578-40.578l2.846-2.847l32.195-32.195l2.768-2.788l72.851-72.851l2.788-2.768l3.298-3.318
								C1412.461,1375.783,1412.481,1377.609,1412.52,1379.454z"/>
						</g>
						<g>
							<path style="fill:#81CAEB;" d="M1412.815,1449.224c-0.02,1.865-0.039,3.73-0.039,5.595l-0.883,0.883l-2.788,2.768
								l-35.022,35.022l-1.728,1.728l-1.06,1.06l-35.042,35.042l-2.768,2.768l-35.042,35.042l-1.06,1.06l-1.708,1.708
								l-34.767,34.767l-0.275,0.275l-0.255-0.255c-1.688,0.02-3.396,0.039-5.084,0.059l34.119-34.119l3.494-3.494l2.768-2.768
								l35.042-35.042l2.768-2.768l35.042-35.042l2.788-2.788l3.475-3.475L1412.815,1449.224z"/>
						</g>
						<g>
							<path style="fill:#81CAEB;" d="M1411.892,1531.321l-37.809,37.81l-2.768,2.788l-33.275,33.255
								c-1.139,0.019-2.297,0.059-3.455,0.098c-0.746,0.02-1.492,0.039-2.258,0.059l38.968-38.968l35.042-35.042l2.788-2.788
								l2.591-2.591c-0.059,1.708-0.098,3.377-0.137,5.045L1411.892,1531.321z"/>
						</g>
					</g>
					<g>
						<g>
							<path style="fill:#81CAEB;" d="M1412.618,1386.345l-3.494-3.494l-2.788-2.788l-35.022-35.022l-39.302-39.302
								c0.962,0.02,1.924,0.039,2.866,0.078c0.962,0.02,1.904,0.059,2.846,0.079l74.814,74.814
								C1412.579,1382.556,1412.599,1384.441,1412.618,1386.345z"/>
						</g>
						<g>
							<path style="fill:#81CAEB;" d="M1412.756,1456.546c-0.02,1.845-0.02,3.691-0.039,5.536l-6.38-6.38l-31.547-31.567
								l-6.262-6.262l-35.042-35.022l-2.768-2.788l-35.042-35.042l-2.768-2.768l-3.475-3.475l-34.256-34.256
								c1.786,0,3.573,0.02,5.359,0.02l0.098-0.098l0.098,0.098h0.02l34.924,34.943l1.747,1.747l36.063,36.063l2.788,2.768
								l35.022,35.042l1.06,1.06l1.728,1.728l35.042,35.022l2.768,2.788L1412.756,1456.546z"/>
						</g>
						<g>
							<path style="fill:#81CAEB;" d="M1411.892,1531.321l-0.334,0.334c-0.039,1.61-0.078,3.2-0.118,4.77l-2.316-2.336l-2.788-2.768
								l-37.81-37.81l-20.083-20.083l-14.959-14.959l-8.932-8.932l-17.589-17.59l-11.288-11.288l-2.768-2.788l-112.879-112.879
								c1.492-0.039,3.004-0.059,4.535-0.098c0.295,0,0.589,0,0.884-0.02l35.493,35.493l1.885,1.885l35.042,35.042l37.81,37.81
								l2.788,2.768l9.953,9.953l19.513,19.533l5.556,5.556l2.788,2.788l14.822,14.822l20.22,20.2l40.264,40.264L1411.892,1531.321z
								"/>
						</g>
						<g>
							<path style="fill:#81CAEB;" d="M1406.474,1601.542c-1.04,0.216-2.709,0.432-4.888,0.648l-30.271-30.271l-2.788-2.788
								l-35.042-35.042l-2.768-2.768l-35.042-35.042l-2.768-2.768l-35.042-35.042l-2.768-2.768l-35.042-35.042l-2.788-2.788
								l-35.022-35.022l-2.788-2.788l-35.022-35.022l-35.336-35.336c1.178-0.334,2.709-0.667,4.574-0.982l30.742,30.762l2.788,2.768
								l35.042,35.042l2.768,2.768l35.042,35.042l37.81,37.81l2.768,2.788l35.042,35.042l2.768,2.768l72.851,72.851l2.788,2.768
								L1406.474,1601.542z"/>
						</g>
						<g>
							<path style="fill:#81CAEB;" d="M1334.584,1605.272c-0.746,0.02-1.492,0.039-2.258,0.059c-1.041,0.02-2.081,0.059-3.141,0.079
								l-71.32-71.32l-2.768-2.768l-18.591-18.591l-54.261-54.261l-2.788-2.768l-72.851-72.851l-2.768-2.788l-0.432-0.412
								c0.02-1.845,0.059-3.671,0.098-5.477l3.102,3.121l2.788,2.768l34.531,34.531l0.51,0.51l2.768,2.768l35.042,35.042
								l2.768,2.788l35.042,35.042l2.768,2.768l15.312,15.312l14.645,14.645l5.085,5.084l2.768,2.768l35.042,35.042l3.278,3.278
								l34.531,34.531L1334.584,1605.272z"/>
						</g>
						<g>
							<path style="fill:#81CAEB;" d="M1260.379,1606.685c-1.688,0.02-3.396,0.039-5.084,0.059l-0.196,0.196l-0.216-0.196
								l-34.826-34.845l-1.708-1.708l-1.06-1.06l-35.042-35.042l-75.619-75.62l-2.788-2.768l-0.982-0.982
								c0-1.845,0-3.691,0.02-5.536L1260.379,1606.685z"/>
						</g>
						<g>
							<path style="fill:#81CAEB;" d="M1184.818,1606.744c-1.708-0.02-3.396-0.039-5.065-0.079l-0.294,0.275l-0.275-0.275
								l-34.747-34.747l-2.788-2.788l-35.042-35.042l-2.768-2.768l-0.53-0.53c-0.039-1.865-0.059-3.73-0.078-5.634l3.377,3.376
								l2.788,2.788l35.042,35.042l2.768,2.768l35.042,35.042L1184.818,1606.744z"/>
						</g>
					</g>
				</g>
				<g>
					<path style="fill:#FEFEF1;" d="M1448.563,1309.469c1.541-1.813,61.131-0.373,62.898,2.101s0.353,25.442,0,27.209
						c-0.353,1.767-62.192,1.414-62.898,0C1447.856,1337.365,1446.443,1311.963,1448.563,1309.469z"/>
				</g>
				<g>
					<circle style="fill:#FB503A;" cx="1456.572" cy="1357.768" r="9.128"/>
				</g>
			</g>
		</g>
		<g>
			<g>
				<g>
					<path style="fill:#EA917A;" d="M1189.694,2141.169l105.793-15.447c3.388-0.495,6.535,1.851,7.03,5.238l2.893,19.814
						c0.495,3.388-1.851,6.535-5.239,7.03l-105.793,15.447c-2.259,0.33-4.4-0.603-5.729-2.257l-0.002-0.013
						c-0.67-0.82-1.134-1.84-1.298-2.969l-2.893-19.814C1183.961,2144.811,1186.306,2141.663,1189.694,2141.169z"/>
				</g>
				<g>
					<path style="fill:#F5B3A2;" d="M1188.573,2122.538l10.058,68.886c0.379,2.594-1.417,5.004-4.011,5.382l-25.255,3.688
						c-2.594,0.379-5.004-1.417-5.383-4.011l-10.058-68.886c-0.379-2.594,1.417-5.004,4.011-5.383l25.255-3.688
						C1185.784,2118.148,1188.194,2119.944,1188.573,2122.538z"/>
				</g>
				<g>
					<g>
						<g>
							<path style="fill:#F5B3A2;" d="M1235.686,2168.969c0.12,0.82-0.207,1.684-0.94,2.255c-1.114,0.866-2.745,0.728-3.643-0.31
								l-27.892-32.198c-0.898-1.037-0.724-2.58,0.39-3.446c1.114-0.866,2.745-0.727,3.643,0.31l27.892,32.198
								C1235.443,2168.132,1235.624,2168.544,1235.686,2168.969z"/>
						</g>
					</g>
					<g>
						<g>
							<path style="fill:#F5B3A2;" d="M1259.309,2165.52c0.12,0.82-0.207,1.684-0.94,2.255c-1.114,0.866-2.745,0.728-3.643-0.31
								l-27.892-32.198c-0.898-1.037-0.724-2.58,0.39-3.446c1.114-0.866,2.745-0.727,3.643,0.31l27.892,32.198
								C1259.066,2164.682,1259.247,2165.095,1259.309,2165.52z"/>
						</g>
					</g>
					<g>
						<g>
							<path style="fill:#F5B3A2;" d="M1282.932,2162.071c0.12,0.82-0.207,1.684-0.94,2.255c-1.114,0.866-2.745,0.728-3.643-0.31
								l-27.892-32.198c-0.898-1.037-0.724-2.58,0.39-3.446c1.114-0.866,2.745-0.728,3.643,0.31l27.892,32.198
								C1282.688,2161.233,1282.87,2161.646,1282.932,2162.071z"/>
						</g>
					</g>
					<g>
						<g>
							<path style="fill:#F5B3A2;" d="M1306.555,2158.621c0.12,0.82-0.207,1.684-0.94,2.255c-1.114,0.866-2.745,0.728-3.643-0.31
								l-27.892-32.198c-0.898-1.037-0.724-2.58,0.39-3.446c1.114-0.866,2.745-0.728,3.643,0.31l27.892,32.198
								C1306.311,2157.784,1306.493,2158.197,1306.555,2158.621z"/>
						</g>
					</g>
				</g>
			</g>
			<g>
				<g>
					<path style="fill:#E0795E;" d="M1276.821,2198.365v21.598c0,0,16.975-3.637,16.309-10.799
						C1292.465,2202.001,1276.821,2198.365,1276.821,2198.365z"/>
				</g>
				<g>
					<g>
						<path style="fill:#E0795E;" d="M1376.6,2209.163l-13.425-14.485l-2.626-2.823l-1.381-1.492h-11.021
							c2.774,2.194,4.426,4.98,4.426,8c0,1.972-0.703,3.846-1.973,5.523c-0.197,0.259-0.394,0.505-0.616,0.752
							c-1.615,1.824-3.92,3.365-6.681,4.524c2.774,1.146,5.067,2.712,6.681,4.524c0.222,0.247,0.432,0.493,0.616,0.752
							c1.27,1.677,1.973,3.55,1.973,5.523c0,3.02-1.652,5.806-4.438,8c-3.822,3.032-9.751,4.98-16.42,4.98
							c-6.657,0-12.586-1.948-16.408-4.98c-2.786-2.194-4.45-4.98-4.45-8c0-1.972,0.715-3.846,1.973-5.523
							c0.197-0.259,0.394-0.505,0.616-0.752c1.615-1.812,3.908-3.378,6.681-4.524c-2.774-1.159-5.067-2.712-6.669-4.537
							c-0.234-0.247-0.431-0.493-0.629-0.74c-1.257-1.677-1.973-3.55-1.973-5.523c0-3.02,1.664-5.806,4.438-8h-11.021l-1.381,1.492
							l-2.626,2.823l-13.425,14.485l-10.022,10.799l27.453,29.598h54.894l27.441-29.598L1376.6,2209.163z"/>
					</g>
				</g>
				<g>
					<path style="fill:#E0795E;" d="M1386.61,2198.365v21.598c0,0-17.148-7.754-17.148-11.97S1386.61,2198.365,1386.61,2198.365z"/>
				</g>
				<g>
					<ellipse style="fill:#00509F;" cx="1331.851" cy="2228.295" rx="22.966" ry="7.433"/>
				</g>
				<g>
					<path style="fill:#EA917A;" d="M1354.817,2198.352c0,3.02-1.837,5.794-4.906,7.988c-4.228-3.045-10.799-4.993-18.183-4.993
						c-7.396,0-13.967,1.948-18.195,4.993c-3.07-2.194-4.906-4.968-4.906-7.988c0-7.163,10.343-12.981,23.102-12.981
						C1344.474,2185.371,1354.817,2191.19,1354.817,2198.352z"/>
				</g>
				<g>
					<path style="fill:#21619E;" d="M1354.817,2214.329c0,7.175-10.343,12.993-23.089,12.993c-12.759,0-23.102-5.819-23.102-12.993
						c0-3.008,1.837-5.794,4.906-7.988c4.228,3.057,10.799,5.005,18.195,5.005c7.384,0,13.955-1.948,18.183-5.005
						C1352.98,2208.535,1354.817,2211.321,1354.817,2214.329z"/>
				</g>
				<g>
					<g>
						<path style="fill:#F5B3A2;" d="M1359.169,2168.766h-54.894l-27.453,29.598l10.022,10.799l13.425,14.485l2.626,2.823
							l1.381,1.491h54.894l1.381-1.491l2.626-2.823l13.425-14.485l10.01-10.799L1359.169,2168.766z M1352.574,2198.365
							c0,1.972-0.703,3.846-1.973,5.523c-0.197,0.259-0.394,0.505-0.616,0.752c-1.615,1.824-3.92,3.365-6.681,4.524
							c-3.316,1.381-7.298,2.182-11.588,2.182c-4.29,0-8.272-0.801-11.588-2.182c-2.774-1.159-5.067-2.712-6.669-4.537
							c-0.234-0.247-0.431-0.493-0.629-0.74c-1.257-1.677-1.973-3.55-1.973-5.523c0-3.02,1.664-5.806,4.438-8
							c3.809-3.045,9.751-4.993,16.42-4.993c6.669,0,12.611,1.948,16.432,4.993
							C1350.922,2192.558,1352.574,2195.344,1352.574,2198.365z"/>
					</g>
				</g>
				<g>
					<g>
						<path style="fill:#EA917A;" d="M1363.175,2194.678c-2.786-9.233-15.828-16.248-31.46-16.248
							c-15.619,0-28.661,7.014-31.447,16.248c-0.37,1.196-0.555,2.429-0.555,3.686c0,3.982,1.886,7.692,5.128,10.799
							c0.259,0.271,0.53,0.518,0.814,0.752c1.997,1.738,4.413,3.267,7.175,4.524c5.301,2.416,11.822,3.859,18.886,3.859
							c7.064,0,13.585-1.43,18.885-3.859c2.761-1.258,5.19-2.786,7.187-4.524c0.284-0.234,0.555-0.481,0.814-0.752
							c3.242-3.106,5.128-6.817,5.128-10.799C1363.73,2197.107,1363.545,2195.874,1363.175,2194.678z M1357.788,2208.411
							c-0.259,0.259-0.53,0.505-0.801,0.752c-1.923,1.738-4.29,3.267-7.002,4.524c-5.103,2.367-11.427,3.772-18.269,3.772
							c-6.842,0-13.166-1.405-18.269-3.772c-2.712-1.257-5.067-2.786-6.99-4.524c-0.284-0.234-0.542-0.493-0.801-0.752
							c-2.909-2.922-4.598-6.361-4.598-10.047c0-2.281,0.653-4.475,1.837-6.509c4.278-7.335,15.594-12.586,28.822-12.586
							c13.24,0,24.556,5.251,28.834,12.586c1.183,2.034,1.837,4.228,1.837,6.509
							C1362.386,2202.05,1360.697,2205.49,1357.788,2208.411z"/>
					</g>
				</g>
				<g>
					<rect x="1304.275" y="2227.963" style="fill:#EA917A;" width="54.894" height="21.598"/>
				</g>
			</g>
		</g>
		<g>
			<g>
				<path style="fill:#40312A;" d="M1934.744,1457.684c29.255,76.063,151.062,61.169,143.615,128.721
					c-7.447,67.552-104.254,64.361-124.466,23.404c-20.212-40.957-65.392-69.132-71.259-93.874s-43.799-69.848-43.799-69.848
					s-0.897-21.914,25.698-18.723S1934.744,1457.684,1934.744,1457.684z"/>
			</g>
			<g>
				<g>
					<path style="fill:#FEC6AB;" d="M1850.891,1509.917c9.308,4.344,18.084,1.093,20.124,0.207c0.296-0.118,0.443-0.207,0.443-0.207
						s-0.473,5.851-3.192,12.323c-2.098,4.905-5.496,10.195-10.993,13.564c-12.766,7.801,0.355,23.758,20.213,23.049
						c19.858-0.709,41.843-24.468,41.843-24.468s-11.347-9.22-14.184-21.631c-2.837-12.411-1.773-26.95-1.773-26.95
						s12.766-2.482,15.957-10.993c3.192-8.51-0.354-17.021-6.028-16.312c-5.674,0.709-3.901,7.092-10.284,7.092
						c-5.319,0-8.185-10.372-8.983-13.8c-0.798,0.473-3.665,0.739-12.293-0.384c-16.312-2.128-20.922-15.958-20.922-15.958
						s-1.773,5.674-8.865,9.929c-7.092,4.255-13.12,0.709-13.12,0.709C1834.224,1490.414,1840.252,1504.952,1850.891,1509.917z"/>
				</g>
				<g>
					<path style="fill:#FD9B73;" d="M1868.266,1522.24c23.256-3.575,23.936-26.329,23.936-26.329s-5.851,9.042-20.744,14.007
						C1871.458,1509.917,1870.985,1515.768,1868.266,1522.24z"/>
				</g>
				<g>
					<path style="fill:#FD9B73;" d="M1855.855,1454.776c-5.674,9.929-8.156,21.808-7.624,23.049s8.333,1.773,9.752,0
						C1859.401,1476.052,1855.855,1454.776,1855.855,1454.776z"/>
				</g>
			</g>
			<g>
				<g>
					<path style="fill:#FB503A;" d="M1774.524,2164.779l101.062-0.16c0,0,1.322-4.907,1.724-12.089
						c0.519-8.541-0.268-20.301-6.047-30.989l-46.749,0.074c0,0-21.333,1.098-40.99,16.554c-4.013,3.139-6.757,6.128-8.585,8.849
						C1767.775,2157.698,1774.524,2164.779,1774.524,2164.779z"/>
				</g>
				<g>
					<path style="fill:#DE331E;" d="M1774.524,2164.779l101.062-0.16c0,0,1.322-4.907,1.724-12.089
						c-25.77-1.85-74.593-5.112-102.371-5.511C1767.775,2157.698,1774.524,2164.779,1774.524,2164.779z"/>
				</g>
			</g>
			<g>
				<g>
					<path style="fill:#FB503A;" d="M2131.525,2077.441l38.97-93.247c0,0-4.013-3.118-10.479-6.269
						c-7.674-3.784-18.822-7.611-30.914-6.419l-18.026,43.134c0,0-7.245,20.096-0.602,44.203c1.341,4.916,3.035,8.602,4.836,11.341
						C2122.384,2080.923,2131.525,2077.441,2131.525,2077.441z"/>
				</g>
				<g>
					<path style="fill:#DE331E;" d="M2131.525,2077.441l38.97-93.247c0,0-4.013-3.118-10.479-6.269
						c-11.681,23.045-33.585,66.8-44.706,92.258C2122.384,2080.923,2131.525,2077.441,2131.525,2077.441z"/>
				</g>
			</g>
			<g>
				<path style="fill:#FEC6AB;" d="M1720.031,1609.809c-3.191-7.624-13.12-14.539-13.12-14.539s8.688-10.816-1.064-17.376
					c-9.752-6.56-40.602,16.844-30.673,38.652c9.929,21.808,36.17,14.539,36.17,14.539L1720.031,1609.809z"/>
			</g>
			<g>
				<path style="fill:#FFFFFF;" d="M2012.402,1661.936c-3.221,5.703-9.958,11.318-18.469,16.607
					c-14.687-8.688-28.9-18.469-40.927-31.116c5.674-3.369,9.693-5.88,10.461-6.767c3.192-3.723-22.783-37.234-22.783-37.234
					l-105.938,31.383c0,0-0.709,1.093-2.068,2.866c-4.373,5.733-15.484,18.765-30.939,25.679
					c-20.213,9.042-89.863-17.375-97.841-29.609c-3.251-4.994,11.17-28.191,16.489-29.255c5.319-1.064,55.85,17.287,66.488,13.032
					c10.638-4.255,17.553-57.712,37.766-76.329c9.308-8.54,18.883-12.441,26.507-14.155c4.905-1.123,9.042-1.33,11.732-1.271
					c2.039,0.03,3.28,0.207,3.516,0.236c0.03,0,0.03,0,0.03,0c4.758,23.699,45.123,0,45.123,0s0,0,0.03,0
					c0.325,0.059,3.073,0.414,7.27,1.152c5.437,1.005,13.298,2.689,21.306,5.201l0.089,0.03c8.717,2.748,17.583,6.501,23.758,11.465
					C1980.488,1557.15,2026.232,1637.469,2012.402,1661.936z"/>
			</g>
			<g>
				<path style="fill:#1A6185;" d="M2111.337,2012.581c-15.957,2.541-163.828-75.176-175.529-93.084
					c-11.702-17.878-32.446-115.04-32.446-115.04s-22.34,313.973-30.319,319.085c-7.979,5.112-44.148,6.146-49.999-3.576
					c-5.851-9.722-4.669-142.669,0-235.044c3.96-78.604,24.29-210.694,24.29-210.694s-8.865-19.622-14.657-40.868
					c-2.778-10.254-4.846-20.892-4.846-29.875c0-22.724,17.198-62.972,23.315-76.506c4.905-1.064,9.042-1.271,11.732-1.212
					l-1.655,6.738l-4.639,18.499v0.029l-7.476,29.964l49.468,3.073l16.282-45.774l2.216-6.206l1.773-4.994
					c5.437,0.975,13.298,2.837,21.306,5.26c-1.123,3.014-12.47,33.806-10.195,48.374c2.394,15.337,10.727,22.695,10.727,22.695
					l-13.386,66.548c0,0,14.361,22.606,28.546,52.747c5.112,10.786,10.165,22.547,14.539,34.574c1.3,3.605,2.571,7.21,3.723,10.845
					c15.957,49.615,19.149,102.806,23.404,107.918s131.913,84.366,134.572,92.552
					C2134.741,1976.796,2127.294,2010.01,2111.337,2012.581z"/>
			</g>
			<g>
				<path style="fill:#0B4063;" d="M1970.382,1757.295c-32.89,28.014-57.801-22.665-57.801-22.665s28.516-3.191,43.262-11.909
					C1960.955,1733.507,1966.008,1745.268,1970.382,1757.295z"/>
			</g>
			<g>
				<path style="fill:#0B4063;" d="M1846.979,1606.352c0,0,52.148,2.925,52.403,5.053c0.255,2.128-0.542,33.51-30.063,32.712
					C1839.798,1643.319,1844.32,1607.682,1846.979,1606.352z"/>
			</g>
			<g>
				<g>
					<path style="fill:#F5B3A2;" d="M1736.618,1402.875c31.637,63.993,3.233,106.577,3.233,106.577l272.949,260.099
						c0,0,90.864-34.154,132.775,26.688c29.176,42.311,28.226,83.386,24.956,104.454c-0.789,5.16-7.548,6.433-10.224,1.985
						c-11.65-19.159-37.837-54.514-78.003-65.243c-43.652-11.66-88.095,41.443-70.253,88.913
						c11.527,30.654,48.756,48.458,69.048,56.104c4.882,1.828,4.835,8.627-0.029,10.407c-23.593,8.632-73.139,19.042-109.819-25.338
						c-49.794-60.262-18.613-124.767-18.613-124.767l-92.798-91.267l-181.003-177.902c0,0-31.445,32.144-89.401,6.119
						c-27.493-12.321-44.885-34.258-55.829-56.307c-8.21-16.34-12.876-32.717-15.544-45.284c-1.184-5.622,5.915-8.9,9.667-4.557
						c38.416,44.255,94.588,47.535,128.906-12.53c27.812-48.703-17.692-85.55-44.841-102.102
						c-4.849-2.933-2.735-10.359,2.943-10.283C1648.529,1349.151,1713.602,1356.38,1736.618,1402.875z"/>
				</g>
				<g>
					<g>
						<path style="fill:#EA917A;" d="M1989.772,1812.802c-0.275,1.03-0.817,2.005-1.622,2.816c-2.461,2.483-6.468,2.497-8.946,0.038
							l-277.606-275.429c-2.476-2.462-2.495-6.465-0.034-8.948c2.461-2.483,6.468-2.497,8.946-0.038l277.606,275.428
							C1989.784,1808.327,1990.338,1810.682,1989.772,1812.802z"/>
					</g>
				</g>
				<g>
					
						<ellipse transform="matrix(0.6555 -0.7552 0.7552 0.6555 -562.5856 1789.4742)" style="fill:#EA917A;" cx="1680.022" cy="1511.347" rx="16.102" ry="16.102"/>
				</g>
				<g>
					<path style="fill:#EA917A;" d="M2001.661,1819.821c8.871-0.627,16.57,6.055,17.197,14.926
						c0.627,8.871-6.055,16.57-14.926,17.197c-8.871,0.627-16.57-6.055-17.197-14.926
						C1986.108,1828.147,1992.791,1820.448,2001.661,1819.821z"/>
				</g>
			</g>
			<g>
				<path style="fill:#FEC6AB;" d="M1901.056,1684.808c-17.73,0.886-48.403,13.475-48.049,17.553
					c0.355,4.078,17.908,2.305,17.908,2.305s-34.574,22.34-28.191,35.106c6.383,12.766,67.552-20.39,71.276-32.978
					C1917.723,1694.205,1901.056,1684.808,1901.056,1684.808z"/>
			</g>
			<g>
				<path style="fill:#FFFFFF;" d="M1953,1647.42c-17.755,10.531-51.749,29.615-53.362,35.26
					c-2.128,7.447,9.574,26.064,14.893,26.595c4.082,0.408,51.364-13.283,79.402-30.729
					C1979.258,1669.853,1965.025,1660.061,1953,1647.42z"/>
			</g>
			<g>
				<g>
					<path style="fill:#FB503A;" d="M1935.188,1458.675c0,0-127.374-5.11-127.781-23.193c-0.388-17.58,32.002-12.545,33.787-12.257
						c0.06,0.027,0.09,0.026,0.09,0.026s3.069-31.991,45.06-33.553C1928.365,1388.136,1940.558,1430.531,1935.188,1458.675z"/>
				</g>
				<g>
					<path style="fill:#DE331E;" d="M1935.188,1458.675c0,0-127.374-5.11-127.781-23.193c-0.388-17.58,32.002-12.545,33.787-12.257
						c0.06,0.027,0.09,0.026,0.09,0.026C1834.916,1442.55,1935.188,1458.675,1935.188,1458.675z"/>
				</g>
			</g>
		</g>
		<g>
			<g>
				<path style="fill:#DE331E;" d="M1417.443,1899.818c0,0-16.898-42.895-7.583-49.755c9.315-6.86,118.379-4.376,124.258,3.958
					s-5.653,53.182-5.653,53.182l-20.341-2.947c0,0,9.799-35.535,6.866-37.496c-2.933-1.962-83.812-2.721-86.018-1.006
					s4.819,32.055,4.819,32.055L1417.443,1899.818z"/>
			</g>
			<g>
				<g>
					<path style="fill:#FB503A;" d="M1603.74,1961.881l-264.692-9.392c0,0,4.588-9.179,10.667-20.196
						c8.235-14.948,19.208-33.265,25.132-36.653c6.414-3.664,58.383-4.649,109.31-2.959c30.748,1.01,61.128,3,80.877,5.957
						C1578.504,1900.653,1603.74,1961.881,1603.74,1961.881z"/>
				</g>
				<g>
					<path style="fill:#FB503A;" d="M1339.037,1989.252c0,0,25.445,148.04,31.815,153.924s197.566,5.451,203.94,0.061
						c6.374-5.39,28.942-163.71,28.942-163.71L1339.037,1989.252z"/>
				</g>
			</g>
			<g>
				<g>
					<path style="fill:#DE331E;" d="M1511.918,1954.746c0,0-10.034-61.404-6.124-61.196s21.81,59.485,21.81,59.485
						L1511.918,1954.746z"/>
				</g>
				<g>
					<path style="fill:#DE331E;" d="M1430.871,1954.722c0,0,10.055-63.03,6.145-62.818c-3.91,0.212-21.83,61.047-21.83,61.047
						L1430.871,1954.722z"/>
				</g>
			</g>
			<g>
				<path style="fill:#DE331E;" d="M1331.249,1951.016c7.103-1.626,278.421-4.818,280.87,0.084
					c2.449,4.902,1.457,46.567-0.015,49.508c-1.471,2.941-278.911,5.799-280.87-0.084
					C1329.275,1994.641,1327.794,1951.807,1331.249,1951.016z"/>
			</g>
			<g>
				<g>
					<g>
						<path style="fill:#DE331E;" d="M1529.175,2123.085c0,0,9.588-98.155,12.897-100.359s32.72-3.299,35.292,0.01
							c2.573,3.31-26.131,98.517-27.97,100.355S1530.644,2125.659,1529.175,2123.085z"/>
					</g>
					<g>
						<path style="fill:#DE331E;" d="M1425.298,2123.054c0,0-9.529-98.16-12.837-100.367c-3.308-2.207-32.718-3.318-35.293-0.01
							c-2.574,3.308,26.072,98.533,27.91,100.372C1406.916,2124.887,1423.827,2125.627,1425.298,2123.054z"/>
					</g>
				</g>
				<g>
					<path style="fill:#DE331E;" d="M1464.919,2123.475c-1.978-1.696-6.838-80.636-3.406-84.066
						c1.716-1.715,28.676-0.791,32.106,1.97c2.982,2.401-6.371,80.361-9.338,82.102
						C1481.094,2125.35,1466.634,2124.946,1464.919,2123.475z"/>
				</g>
			</g>
			<g>
				<path style="fill:#F8EA42;" d="M1445.303,1941.676c1.875-2.915,49.754-3.171,51.958,0.016c2.205,3.187,1.695,68.87-0.021,70.34
					c-1.716,1.47-48.773,1.211-50.978-0.015C1444.057,2010.79,1443.096,1945.107,1445.303,1941.676z"/>
			</g>
			<g>
				<g>
					<path style="fill:#FFA72B;" d="M1454.525,1949.791c0.316-1.264,32.72-1.216,33.577,0.01c0.857,1.226,0.243,8.823-0.003,9.313
						c-0.245,0.49-33.209-0.99-33.577-1.481C1454.155,1957.144,1454.157,1951.262,1454.525,1949.791z"/>
				</g>
				<g>
					<path style="fill:#FFA72B;" d="M1454.518,1971.972c0.316-1.264,32.719-1.216,33.577,0.01c0.857,1.226,0.242,8.823-0.003,9.313
						s-33.209-0.99-33.577-1.481C1454.148,1979.324,1454.15,1973.442,1454.518,1971.972z"/>
				</g>
				<g>
					<path style="fill:#FFA72B;" d="M1454.512,1994.152c0.316-1.264,32.719-1.216,33.577,0.01c0.858,1.226,0.243,8.823-0.003,9.313
						c-0.245,0.49-33.209-0.99-33.577-1.481C1454.142,2001.505,1454.144,1995.622,1454.512,1994.152z"/>
				</g>
			</g>
			<g>
				<path style="fill:#333333;" d="M1484.158,1892.68c-8.206,19.543-78.87,42.836-134.442,39.613
					c8.235-14.948,19.208-33.265,25.132-36.653C1381.262,1891.975,1433.231,1890.99,1484.158,1892.68z"/>
			</g>
		</g>
		<g>
			<g>
				<g>
					<path style="fill:#40312A;" d="M741.256,1521.616c-28.326-3.085-45.153-25.614-35.057-56.277
						c10.096-30.663,97.161-42.442,102.147-31.224c4.986,11.218,2.368,21.595-1.651,26.363
						C802.676,1465.245,741.256,1521.616,741.256,1521.616z"/>
				</g>
				<g>
					<g>
						<path style="fill:#FEC6AB;" d="M793.981,1527.786c-9.816,4.581-19.07,1.153-21.221,0.218
							c-0.311-0.124-0.467-0.218-0.467-0.218s0.499,6.17,3.366,12.995c2.212,5.173,5.796,10.751,11.592,14.303
							c13.462,8.227-0.374,25.054-21.315,24.306c-20.94-0.748-44.124-25.801-44.124-25.801s11.966-9.722,14.958-22.81
							c2.991-13.088,1.869-28.42,1.869-28.42s-13.462-2.618-16.827-11.592c-3.366-8.975,0.374-17.949,6.357-17.201
							c5.983,0.748,4.113,7.479,10.844,7.479c5.609,0,8.632-10.938,9.473-14.553c0.841,0.499,3.864,0.779,12.963-0.405
							c17.201-2.244,22.063-16.828,22.063-16.828s1.869,5.983,9.348,10.471c7.479,4.487,13.836,0.748,13.836,0.748
							C811.557,1507.219,805.2,1522.551,793.981,1527.786z"/>
					</g>
					<g>
						<path style="fill:#FD9B73;" d="M775.659,1540.78c-24.524-3.77-25.241-27.765-25.241-27.765s6.17,9.535,21.875,14.77
							C772.293,1527.786,772.792,1533.956,775.659,1540.78z"/>
					</g>
					<g>
						<path style="fill:#FD9B73;" d="M788.746,1469.638c5.983,10.47,8.601,22.997,8.04,24.306c-0.561,1.309-8.788,1.87-10.283,0
							C785.007,1492.075,788.746,1469.638,788.746,1469.638z"/>
					</g>
				</g>
				<g>
					<path style="fill:#FEC6AB;" d="M661.607,1833.48c0,0,7.853,33.094,5.048,37.581c-2.805,4.487-9.816,0-9.816,0
						s-6.17,33.374-24.119,33.654c-17.949,0.28-1.963-74.32-1.963-74.32L661.607,1833.48z"/>
				</g>
				<g>
					<path style="fill:#FEC6AB;" d="M962.176,1607.414c0,0,17.188-29.35,22.316-30.657s7.096,6.782,7.096,6.782
						s27.519-19.864,40.689-7.666c13.17,12.198-49.93,55.085-49.93,55.085L962.176,1607.414z"/>
				</g>
				<g>
					<path style="fill:#F8EA42;" d="M984.129,1630.204c0,7.853-55.53,87.168-95.915,83.803
						c-22.592-1.87-42.192-19.912-55.125-35.431v-0.031c-10.128-12.215-16.11-22.873-16.11-22.873l-135.74,21.875
						c0,0-15.145,53.286-15.705,90.306c-0.561,37.02-1.683,61.7-3.926,65.626c-2.243,3.926-25.241,6.731-33.094,0
						c-7.852-6.731-27.515-65.626-17.98-132.374c9.535-66.748,35.929-121.717,72.388-136.3c0.966-0.374,1.9-0.748,2.804-1.122
						c16.111-6.388,25.989-9.878,31.909-11.81c6.638-2.15,8.383-2.337,8.383-2.337c46.804,29.448,61.232,5.547,61.232,5.547
						s3.365-0.187,8.787,0.405c7.448,0.841,18.79,3.178,30.538,9.629c7.386,4.051,14.927,9.722,21.813,17.638
						c25.802,29.728,37.581,63.943,45.434,65.626c7.853,1.682,60.201-42.656,69.175-40.973
						C971.973,1609.09,984.129,1622.351,984.129,1630.204z"/>
				</g>
				<g>
					<path style="fill:#1A6185;" d="M631.573,2164.779l107.186-0.17c0,0,1.402-5.205,1.828-12.821
						c0.55-9.059-0.284-21.531-6.414-32.867L684.592,2119c0,0-22.626,1.164-43.474,17.557c-4.257,3.329-7.166,6.499-9.105,9.385
						C624.416,2157.269,631.573,2164.779,631.573,2164.779z"/>
				</g>
				<g>
					<path style="fill:#0B4063;" d="M631.573,2164.779l107.186-0.17c0,0,1.402-5.205,1.828-12.821
						c-27.332-1.962-79.113-5.421-108.575-5.845C624.416,2157.269,631.573,2164.779,631.573,2164.779z"/>
				</g>
				<g>
					<path style="fill:#1A6185;" d="M900.147,2164.779l-107.186-0.17c0,0-1.402-5.205-1.828-12.821
						c-0.55-9.059,0.284-21.531,6.414-32.867l49.582,0.079c0,0,22.626,1.164,43.474,17.557c4.257,3.329,7.166,6.499,9.105,9.385
						C907.305,2157.269,900.147,2164.779,900.147,2164.779z"/>
				</g>
				<g>
					<path style="fill:#0B4063;" d="M900.147,2164.779l-107.186-0.17c0,0-1.402-5.205-1.828-12.821
						c27.332-1.962,79.113-5.421,108.575-5.845C907.305,2157.269,900.147,2164.779,900.147,2164.779z"/>
				</g>
				<g>
					<path style="fill:#FB503A;" d="M855.191,2118.921l-60.897,5.996l-23.87-260.587l-33.356,260.008l-59.519-5.025
						c0,0-1.949-184.62,10.079-277.513c2.337-18.105,5.204-34.464,8.756-47.77c0.872-3.272,1.901-6.326,3.054-9.099
						c22.561-54.533,95.915-16.298,121.312-0.966c5.516,3.334,8.756,5.578,8.756,5.578l2.867,49.89L855.191,2118.921z"/>
				</g>
				<g>
					<path style="fill:#DE331E;" d="M832.373,1839.432c-10.439-4.456-21.408-20.006-23.06-39.793c0,0,4.737-9.317,11.436-15.674
						c5.516,3.334,8.756,5.578,8.756,5.578L832.373,1839.432z"/>
				</g>
				<g>
					<path style="fill:#DE331E;" d="M730.038,1798.517c-2.96,22.094-26.923,49.36-42.41,43.283
						c2.337-18.105,5.204-34.464,8.756-47.77c0.872-3.272,1.901-6.326,3.054-9.099
						C715.236,1788.016,730.038,1798.517,730.038,1798.517z"/>
				</g>
				<g>
					<path style="fill:#FB503A;" d="M834.024,1744.483c-0.125,6.388-0.343,12.403-0.685,17.856
						c-0.686,12.06-1.932,21.595-3.833,27.204c-11.966,35.15-124.147,15.705-133.122,4.487c-2.461-3.085-4.737-13.275-6.7-26.425
						c-0.748-5.048-1.465-10.564-2.15-16.267c-1.839-15.612-3.335-32.782-4.394-46.617c-0.499-6.202-0.873-11.748-1.184-16.173
						c-0.468-6.793-0.717-11-0.717-11s7.292-17.949,10.096-57.212c1.652-23.247-2.181-43.751-5.609-56.652
						c16.111-6.388,25.989-9.878,31.909-11.81c6.046,50.7,40.416,74.32,63.975,65.346c23.558-8.975,14.428-61.731,14.428-61.731
						c7.448,0.841,18.79,3.178,30.538,9.629c0,0,4.425,56.465,6.513,113.428v0.031c0.062,1.652,0.125,3.303,0.156,4.923
						c0.218,5.765,0.405,11.499,0.529,17.17C834.149,1716.188,834.273,1731.177,834.024,1744.483z"/>
				</g>
				<g>
					<g>
						<path style="fill:#FB503A;" d="M706.339,1463.738c0,0,135.093-5.42,135.524-24.598c0.411-18.646-33.942-13.306-35.835-13
							c-0.064,0.029-0.095,0.028-0.095,0.028s-3.254-33.93-47.791-35.586C713.574,1388.925,700.643,1433.889,706.339,1463.738z"/>
					</g>
					<g>
						<path style="fill:#DE331E;" d="M706.339,1463.738c0,0,135.093-5.42,135.524-24.598c0.411-18.646-33.942-13.306-35.835-13
							c-0.064,0.029-0.095,0.028-0.095,0.028C812.687,1446.636,706.339,1463.738,706.339,1463.738z"/>
					</g>
				</g>
				<g>
					<path style="fill:#DE331E;" d="M742.551,1655.872c0,0,65.44-4.795,66.004-2.256c0.564,2.539,3.385,49.644-31.592,49.926
						C741.987,1703.824,736.628,1658.975,742.551,1655.872z"/>
				</g>
			</g>
			<g>
				<g>
					<path style="fill:#FFA72B;" d="M939.036,1828.26c0,0-28.203,339.347,106.132,336.501
						c129.028-2.734,19.279-338.581,19.279-338.581L939.036,1828.26z"/>
				</g>
				<g>
					
						<ellipse transform="matrix(0.9999 -0.0166 0.0166 0.9999 -30.1602 16.8615)" style="fill:#F5801A;" cx="1001.742" cy="1827.22" rx="62.714" ry="29.166"/>
				</g>
				<g>
					<path style="fill:#FFFFFF;" d="M985.293,1816.633c0,0-5.745-370.964,12.318-372.222c9.843-0.685,26.898,359.8,23.247,373.001
						C1015.314,1837.457,991.496,1834.61,985.293,1816.633z"/>
				</g>
				<g>
					
						<ellipse transform="matrix(0.9979 -0.0649 0.0649 0.9979 -129.4592 72.7046)" style="fill:#333333;" cx="1053.62" cy="2027.707" rx="12.861" ry="93.953"/>
				</g>
				<g>
					<path style="fill:#FFFFFF;" d="M1009.331,1500.527c-1.445,1.795-2.786,3.367-3.936,4.645c-2.241,2.569-3.763,4.069-3.763,4.069
						l-14.758,0.089c-28.469-21.913-40.677-34.521-40.157-58.436c0.52-23.915,10.29-82.064,15.343-85.481
						c1.512-1.001,5.921-1.467,11.525-1.422c13.213,0.076,33.115,2.92,37.917,7.752c6.869,6.891,15.414,86.456,13.448,98.657
						C1023.173,1481.431,1015.384,1492.947,1009.331,1500.527z"/>
				</g>
			</g>
		</g>
	</g>
</g>
</svg>
