<svg width="500" height="500" viewBox="0 0 500 500" fill="none" xmlns="http://www.w3.org/2000/svg">
<g clip-path="url(#clip0_280_4021)">
<path d="M72.5943 317.977H46.1133V329.167H72.5943V317.977Z" fill="#EBEBEB"/>
<path d="M57.8218 332.087H31.3408V343.277H57.8218V332.087Z" fill="#EBEBEB"/>
<path d="M311.35 246.706H284.869V257.896H311.35V246.706Z" fill="#EBEBEB"/>
<path d="M296.579 260.815H270.098V272.005H296.579V260.815Z" fill="#EBEBEB"/>
<path d="M468.659 332.087H442.178V343.277H468.659V332.087Z" fill="#EBEBEB"/>
<path d="M453.888 113.621H427.407V124.811H453.888V113.621Z" fill="#EBEBEB"/>
<path d="M468.659 127.731H442.178V138.921H468.659V127.731Z" fill="#EBEBEB"/>
<path d="M281.807 246.706H255.326V257.896H281.807V246.706Z" fill="#EBEBEB"/>
<path d="M72.5943 113.621H46.1133V124.811H72.5943V113.621Z" fill="#EBEBEB"/>
<path d="M427.191 104.618H295.497V46.3621H427.19V104.618H427.191ZM299.497 100.618H423.19V50.3621H299.497V100.618Z" fill="#EBEBEB"/>
<path d="M361.785 49.884H357.785V101.096H361.785V49.884Z" fill="#EBEBEB"/>
<path d="M262.245 469.961C358.713 469.961 436.915 462.428 436.915 453.135C436.915 443.842 358.713 436.309 262.245 436.309C165.778 436.309 87.5752 443.842 87.5752 453.135C87.5752 462.428 165.778 469.961 262.245 469.961Z" fill="#EBEBEB"/>
<path d="M46.9854 430.127L97.7393 429.884L148.493 429.796L250 429.628L351.507 429.795L402.261 429.883L453.015 430.127L402.261 430.372L351.507 430.46L250 430.626L148.493 430.459L97.7393 430.37L46.9854 430.127Z" fill="#263238"/>
<path d="M104.157 71.301H72.293V246.06H104.157V71.301Z" fill="#A6A6A6"/>
<path d="M186.34 71.301H104.156V246.06H186.34V71.301Z" fill="#DBDBDB"/>
<path d="M183.761 74.1091H106.736V243.309H183.761V74.1091Z" fill="#C7C7C7"/>
<path d="M183.761 74.1091H159.26V243.309H183.761V74.1091Z" fill="#A6A6A6"/>
<path d="M230.845 251.103L186.341 246.06V71.3011L230.845 66.2571V251.103Z" fill="#C7C7C7"/>
<path d="M160.821 125.971H119.677V174.31H160.821V125.971Z" fill="#DBDBDB"/>
<path d="M124.373 125.971H119.677V174.31H124.373V125.971Z" fill="#A6A6A6"/>
<path d="M129.889 129.974C129.889 130.767 129.246 131.41 128.453 131.41C127.66 131.41 127.017 130.767 127.017 129.974C127.017 129.181 127.66 128.538 128.453 128.538C129.246 128.538 129.889 129.181 129.889 129.974Z" fill="#C7C7C7"/>
<path d="M128.453 171.743C129.246 171.743 129.889 171.1 129.889 170.307C129.889 169.514 129.246 168.871 128.453 168.871C127.66 168.871 127.017 169.514 127.017 170.307C127.017 171.1 127.66 171.743 128.453 171.743Z" fill="#C7C7C7"/>
<path d="M158.359 129.974C158.359 130.767 157.716 131.41 156.923 131.41C156.13 131.41 155.487 130.767 155.487 129.974C155.487 129.181 156.13 128.538 156.923 128.538C157.716 128.538 158.359 129.181 158.359 129.974Z" fill="#C7C7C7"/>
<path d="M158.359 170.307C158.359 171.1 157.716 171.743 156.923 171.743C156.13 171.743 155.487 171.1 155.487 170.307C155.487 169.514 156.13 168.871 156.923 168.871C157.716 168.871 158.359 169.514 158.359 170.307Z" fill="#C7C7C7"/>
<path d="M131.713 137.71C131.713 139.007 130.662 140.058 129.365 140.058C128.068 140.058 127.017 139.007 127.017 137.71C127.017 136.413 128.068 135.362 129.365 135.362C130.662 135.362 131.713 136.413 131.713 137.71Z" fill="#263238"/>
<path d="M131.713 145.816C131.713 147.113 130.662 148.164 129.365 148.164C128.068 148.164 127.017 147.113 127.017 145.816C127.017 144.519 128.068 143.468 129.365 143.468C130.662 143.468 131.713 144.519 131.713 145.816Z" fill="#263238"/>
<path d="M124.939 239.17C124.144 224.408 128.641 194.558 131.616 174.805C132.981 165.748 134.058 158.594 134.162 156.006C134.46 148.545 129.292 146.841 129.072 146.772L129.653 144.858C129.722 144.879 136.522 147.031 136.16 156.086C136.052 158.784 134.968 165.986 133.594 175.103C130.631 194.775 126.152 224.504 126.936 239.063L124.939 239.17Z" fill="#DD6A57"/>
<path d="M128.894 239.213C127.815 228.126 130.637 209.927 133.365 192.328C136.277 173.541 139.288 154.115 136.887 146.103C134.893 139.449 129.481 138.731 129.252 138.704L129.475 136.716C129.757 136.747 136.417 137.569 138.803 145.529C141.334 153.974 138.423 172.753 135.341 192.635C132.632 210.112 129.831 228.183 130.885 239.02L128.894 239.213Z" fill="#455A64"/>
<path d="M154.862 174.31H150.318V243.31H154.862V174.31Z" fill="#FFC727"/>
<path d="M149.815 74.1091H145.272V125.97H149.815V74.1091Z" fill="white"/>
<path d="M141.183 239.117H118.04V243.31H141.183V239.117Z" fill="#DBDBDB"/>
<path d="M134.655 0H124.568V71.301H134.655V0Z" fill="#263238"/>
<path d="M144.708 71.3007H148.047V-0.000343323H144.708V71.3007Z" fill="#263238"/>
<path d="M152.591 71.3007H155.93V-0.000343323H152.591V71.3007Z" fill="#263238"/>
<path d="M139.131 325.679C139.131 327.331 138.155 328.67 136.951 328.67C135.747 328.67 134.771 327.331 134.771 325.679C134.771 324.027 135.747 322.688 136.951 322.688C138.155 322.688 139.131 324.027 139.131 325.679Z" fill="#A6A6A6"/>
<path d="M144.709 317.36H148.048V246.059H144.709V317.36Z" fill="#263238"/>
<path d="M144.709 317.36H148.048L136.56 327.021V324.31L144.709 317.36Z" fill="#263238"/>
<path d="M132.134 246.06H127.09V327.447H132.134V246.06Z" fill="#C7C7C7"/>
<path d="M119.965 337.499C121.169 337.499 122.145 336.16 122.145 334.508C122.145 332.856 121.169 331.517 119.965 331.517C118.761 331.517 117.785 332.856 117.785 334.508C117.785 336.16 118.761 337.499 119.965 337.499Z" fill="#A6A6A6"/>
<path d="M127.09 327.447H132.133L119.574 336.454V332.775L127.09 327.447Z" fill="#C7C7C7"/>
<path d="M146.621 325.679C146.621 327.331 145.645 328.67 144.441 328.67C143.237 328.67 142.261 327.331 142.261 325.679C142.261 324.027 143.237 322.688 144.441 322.688C145.645 322.688 146.621 324.027 146.621 325.679Z" fill="#A6A6A6"/>
<path d="M152.59 317.36H155.929V246.059H152.59V317.36Z" fill="#263238"/>
<path d="M152.589 317.36H155.928L144.44 327.021V324.31L152.589 317.36Z" fill="#263238"/>
<path d="M280.434 322.788C277.038 319.461 272.649 315.44 267.458 316.875C262.574 318.225 260.704 323.556 259.829 327.998C258.702 333.723 257.825 339.504 256.916 345.267C255.998 351.088 255.136 356.917 254.298 362.75C253.825 366.041 253.357 369.332 252.897 372.625C252.667 374.271 252.439 375.918 252.211 377.565C251.987 379.18 251.717 380.794 251.628 382.423C251.6 382.942 252.414 383.017 252.528 382.522C253.157 379.776 253.417 376.92 253.821 374.133C254.227 371.33 254.632 368.527 255.042 365.724C255.856 360.156 256.698 354.592 257.537 349.027C258.376 343.46 259.245 337.898 260.133 332.339C260.886 327.625 261.241 321.767 265.421 318.658C267.714 316.953 270.639 316.933 273.237 317.925C275.987 318.974 278.184 320.944 280.335 322.892C280.403 322.953 280.499 322.853 280.434 322.788Z" fill="#263238"/>
<path d="M275.785 319.388C275.785 319.388 268.843 316.89 265.418 321.956C261.993 327.022 266.087 339.907 297.692 347.176C297.692 347.176 296.863 333.382 290.088 318.606C283.313 303.831 271.241 309.426 275.785 319.388Z" fill="#FFC727"/>
<path d="M295.876 345.067C295.441 344.171 294.827 343.338 294.286 342.504C293.758 341.689 293.224 340.878 292.683 340.071C292.277 339.465 291.862 338.863 291.446 338.261C291.476 338.115 291.485 337.962 291.505 337.809C291.541 337.535 291.578 337.262 291.613 336.988C291.69 336.396 291.777 335.805 291.864 335.214C291.951 334.624 292.049 334.036 292.162 333.451C292.277 332.852 292.336 332.148 292.576 331.589C292.615 331.497 292.45 331.451 292.438 331.56C292.399 331.912 292.25 332.267 292.156 332.607C292.082 332.872 292.013 333.139 291.944 333.405C291.79 334.004 291.645 334.606 291.509 335.21C291.384 335.766 291.279 336.326 291.184 336.888C291.138 337.158 291.098 337.428 291.062 337.699C290.499 336.895 289.925 336.099 289.332 335.318C287.654 333.107 285.879 330.98 284.042 328.905C284.05 328.885 284.069 328.872 284.07 328.848C284.234 325.527 284.154 322.241 284.891 318.973C284.911 318.884 284.777 318.835 284.757 318.925C284.066 321.99 283.377 325.207 283.576 328.373C282.917 327.637 282.251 326.906 281.577 326.182C280.038 324.527 278.47 322.897 276.868 321.303C276.803 321.239 276.701 321.333 276.764 321.4C279.427 324.267 281.956 327.253 284.42 330.293C282.501 330.23 280.551 330.365 278.643 330.507C276.5 330.666 274.371 330.94 272.243 331.234C272.152 331.247 272.18 331.388 272.27 331.374C274.386 331.057 276.523 330.89 278.66 330.801C280.722 330.715 282.773 330.808 284.833 330.802C286.164 332.453 287.481 334.114 288.778 335.792C288.685 335.789 288.589 335.789 288.485 335.787C288.001 335.778 287.516 335.77 287.032 335.778C286.072 335.795 285.11 335.862 284.153 335.944C282.191 336.112 280.239 336.386 278.317 336.817C278.227 336.837 278.254 336.967 278.345 336.957C280.287 336.738 282.233 336.556 284.186 336.487C285.118 336.454 286.049 336.454 286.982 336.454C287.467 336.454 287.951 336.45 288.435 336.458C288.726 336.463 288.989 336.495 289.233 336.385C290.083 337.489 290.934 338.592 291.776 339.701C292.447 340.584 293.109 341.474 293.758 342.373C294.421 343.291 295.022 344.294 295.761 345.152C295.815 345.213 295.911 345.138 295.876 345.067Z" fill="#263238"/>
<path d="M278.808 326.567C277.699 326.386 276.549 326.404 275.428 326.403C274.3 326.402 273.171 326.436 272.044 326.475C271.941 326.478 271.948 326.624 272.053 326.616C273.196 326.534 274.339 326.514 275.485 326.531C276.59 326.547 277.699 326.653 278.804 326.623C278.841 326.623 278.845 326.573 278.808 326.567Z" fill="#263238"/>
<path d="M288.728 329.114C288.858 328.035 288.993 326.95 289.223 325.887C289.245 325.786 289.1 325.755 289.085 325.858C288.923 326.921 288.716 327.975 288.559 329.039C288.48 329.571 288.408 330.104 288.343 330.637C288.283 331.124 288.17 331.654 288.214 332.144C288.222 332.238 288.375 332.247 288.399 332.158C288.528 331.68 288.515 331.145 288.563 330.653C288.611 330.14 288.666 329.627 288.728 329.114Z" fill="#263238"/>
<path d="M286.649 317.155C286.373 318.206 286.098 319.269 285.904 320.338C285.806 320.88 285.723 321.426 285.649 321.972C285.579 322.494 285.484 323.042 285.543 323.569C285.548 323.611 285.613 323.614 285.625 323.575C285.778 323.088 285.807 322.557 285.875 322.053C285.945 321.527 286.025 321.004 286.116 320.481C286.308 319.379 286.503 318.288 286.782 317.203C286.806 317.115 286.673 317.066 286.649 317.155Z" fill="#263238"/>
<path d="M245.494 381.255C245.32 379.265 245.126 377.277 244.917 375.291C244.502 371.353 244.021 367.425 243.493 363.501C242.967 359.589 242.464 355.669 241.835 351.772C241.547 349.985 241.249 348.154 240.63 346.447C240.097 344.978 239.218 343.649 237.68 343.118C233.961 341.834 231.453 345.69 229.951 348.418C229.906 348.5 230.025 348.561 230.076 348.487C230.975 347.195 233.46 343.567 236.28 343.736C238.178 343.85 239.697 345.194 240.608 349.927C242.878 361.72 244.925 385.65 245.163 387.216C245.29 388.046 245.876 388.01 245.881 387.12C245.892 385.164 245.664 383.204 245.494 381.255Z" fill="#263238"/>
<path d="M230.954 346.951C230.954 346.951 234.204 335.475 227.019 341.213C215.059 350.766 214.634 371.544 214.634 371.544C214.634 371.544 235.895 359.195 238.538 351.05C242.477 338.917 230.954 346.951 230.954 346.951Z" fill="#FFC727"/>
<path d="M234.977 352.585C233.308 352.923 231.617 353.145 229.932 353.387C229.135 353.502 228.337 353.614 227.539 353.723C227.001 353.797 226.455 353.849 225.913 353.915C227.497 351.733 229.093 349.56 230.612 347.334C230.67 347.248 230.538 347.159 230.469 347.23C229.207 348.515 228.038 349.903 226.917 351.33C226.605 350.441 226.287 349.554 225.974 348.666C225.612 347.638 225.224 346.616 224.963 345.557C224.941 345.468 224.802 345.509 224.826 345.598C225.116 346.65 225.322 347.723 225.603 348.778C225.875 349.797 226.184 350.803 226.545 351.793C225.766 352.804 225.02 353.84 224.293 354.886C223.928 353.849 223.473 352.845 223.153 351.792C223.126 351.704 222.988 351.746 223.016 351.833C223.397 352.998 223.602 354.209 223.96 355.38C223.472 356.093 222.984 356.806 222.518 357.526C221.659 358.853 220.85 360.204 220.058 361.564C219.934 361.634 219.855 361.735 219.872 361.885C218.529 364.208 217.251 366.566 215.99 368.945C215.947 369.026 216.071 369.095 216.115 369.014C217.377 366.664 218.781 364.377 220.241 362.13C220.246 362.128 220.252 362.13 220.257 362.128C220.411 362.043 220.761 362.033 220.952 361.994C221.197 361.944 221.442 361.888 221.686 361.835C222.236 361.715 222.78 361.573 223.326 361.438C224.404 361.17 225.472 360.916 226.567 360.727C226.657 360.711 226.616 360.573 226.526 360.59C225.239 360.835 223.948 360.981 222.647 361.132C222.033 361.203 221.421 361.282 220.81 361.379C220.784 361.383 220.752 361.387 220.722 361.392C221.487 360.231 222.261 359.077 223.046 357.938C223.819 356.817 224.612 355.711 225.41 354.607C226.147 354.504 226.879 354.31 227.609 354.17C228.432 354.013 229.255 353.852 230.077 353.69C231.723 353.364 233.361 352.996 235.017 352.721C235.108 352.706 235.068 352.566 234.977 352.585Z" fill="#263238"/>
<path d="M222.2 353.716C222.101 353.413 222.01 353.107 221.913 352.803C221.711 352.169 221.557 351.53 221.425 350.878C221.407 350.788 221.269 350.83 221.288 350.919C221.427 351.567 221.578 352.213 221.727 352.859C221.873 353.493 222.034 354.164 222.281 354.767C222.342 354.917 222.572 354.855 222.527 354.693C222.437 354.363 222.307 354.042 222.2 353.716Z" fill="#263238"/>
<path d="M237.152 349.927C236.183 350.073 235.204 350.141 234.228 350.226C233.246 350.312 232.28 350.448 231.306 350.594C231.253 350.602 231.252 350.683 231.308 350.68C232.288 350.613 233.258 350.537 234.232 350.41C235.205 350.283 236.176 350.138 237.155 350.071C237.249 350.064 237.241 349.914 237.152 349.927Z" fill="#263238"/>
<path d="M261.141 366.726C260.764 358.276 260.228 349.841 259.378 341.425C258.955 337.234 258.482 333.045 257.892 328.874C257.314 324.787 256.608 320.7 255.471 316.727C254.601 313.686 253.459 310.632 251.427 308.162C249.422 305.725 246.466 304.199 243.257 304.596C239.559 305.053 236.581 307.383 234.006 309.914C231.117 312.754 228.471 315.854 225.794 318.892C225.117 319.66 224.446 320.434 223.779 321.212C223.719 321.282 223.822 321.38 223.882 321.311C226.499 318.305 229.218 315.384 232.062 312.592C234.691 310.011 237.398 307.191 241.04 306.125C242.727 305.631 244.556 305.494 246.256 306.002C247.63 306.413 248.831 307.231 249.82 308.259C251.87 310.391 253.021 313.279 253.839 316.073C256.112 323.84 256.925 331.984 257.769 340.005C258.627 348.154 259.205 356.325 259.615 364.508C260.027 372.734 260.348 380.971 261.14 389.172C261.238 390.184 261.369 391.193 261.498 392.202C261.584 392.881 262.638 392.882 262.582 392.175C261.911 383.699 261.52 375.218 261.141 366.726Z" fill="#263238"/>
<path d="M233.541 310.828C233.541 310.828 238.366 301.898 232.664 299.034C226.962 296.17 207.88 317.47 202.306 348.616C202.306 348.616 233.126 334.98 243.592 321.392C254.057 307.804 242.193 304.813 233.541 310.828Z" fill="#FFC727"/>
<path d="M238.072 318.091C234.608 318.099 231.154 317.829 227.689 317.853C228.338 317.108 228.985 316.362 229.641 315.623C230.547 314.601 231.582 313.608 232.349 312.477C232.398 312.405 232.294 312.303 232.224 312.358C231.262 313.112 230.44 314.098 229.603 314.987C228.735 315.908 227.872 316.834 227.013 317.763C225.689 319.196 224.392 320.652 223.098 322.111C223.095 321.969 223.092 321.828 223.093 321.691C223.097 321.084 223.092 320.478 223.096 319.871C223.104 318.696 223.122 317.522 223.133 316.347C223.156 313.966 223.15 311.571 223.315 309.195C223.321 309.103 223.179 309.108 223.172 309.199C223.006 311.588 222.76 313.966 222.642 316.359C222.584 317.534 222.556 318.709 222.542 319.885C222.535 320.491 222.525 321.098 222.53 321.705C222.532 322.035 222.52 322.385 222.545 322.725C222.343 322.954 222.134 323.175 221.933 323.405C219.169 326.564 216.54 329.831 213.981 333.155C213.978 332.972 213.953 332.783 213.935 332.603C213.9 332.236 213.856 331.87 213.814 331.504C213.725 330.709 213.615 329.918 213.496 329.126C213.384 328.383 213.267 327.641 213.142 326.9C213.002 326.069 212.798 325.224 212.735 324.382C212.727 324.28 212.573 324.302 212.595 324.404C212.772 325.229 212.805 326.102 212.885 326.941C212.957 327.703 213.028 328.465 213.096 329.227C213.164 329.99 213.233 330.753 213.312 331.515C213.35 331.881 213.383 332.248 213.422 332.614C213.442 332.798 213.464 332.98 213.489 333.163C213.522 333.405 213.559 333.436 213.638 333.599C213.198 334.172 212.756 334.743 212.32 335.32C210.572 337.633 208.857 339.972 207.141 342.308C207.088 342.38 207.188 342.48 207.244 342.406C208.869 340.287 210.541 338.206 212.236 336.144C213.504 336.198 214.798 336.105 216.065 336.084C217.402 336.062 218.738 336.055 220.075 336.051C220.167 336.051 220.164 335.907 220.071 335.909C218.734 335.932 217.398 335.953 216.061 335.958C214.843 335.962 213.6 335.903 212.381 335.969C213.871 334.158 215.377 332.359 216.887 330.563C217.438 329.908 217.991 329.256 218.543 328.601C219.044 328.705 219.583 328.654 220.09 328.653C220.698 328.652 221.305 328.652 221.912 328.65C223.051 328.646 224.189 328.62 225.328 328.602C227.68 328.566 230.034 328.487 232.386 328.482C232.478 328.482 232.474 328.341 232.382 328.339C230.027 328.31 227.671 328.208 225.316 328.149C224.177 328.12 223.037 328.082 221.897 328.067C221.289 328.059 220.682 328.053 220.074 328.046C219.728 328.042 219.372 328.018 219.021 328.031C220.314 326.496 221.605 324.96 222.903 323.43C222.934 323.412 222.959 323.384 222.975 323.346C224.238 321.856 225.501 320.366 226.778 318.889C226.953 318.687 227.131 318.487 227.306 318.286C230.898 318.398 234.483 318.162 238.073 318.232C238.167 318.235 238.164 318.09 238.072 318.091Z" fill="#263238"/>
<path d="M236.3 324.215C236.02 324.217 235.74 324.22 235.461 324.222C235.378 324.223 235.381 324.35 235.464 324.351C235.744 324.353 236.024 324.356 236.303 324.358C236.396 324.358 236.392 324.214 236.3 324.215Z" fill="#263238"/>
<path d="M234.435 324.225C233.325 324.209 232.216 324.186 231.106 324.155C230.551 324.139 229.996 324.121 229.442 324.102C228.946 324.085 228.379 324.008 227.894 324.12C227.84 324.133 227.85 324.209 227.897 324.223C228.377 324.368 228.95 324.323 229.448 324.333C230.002 324.343 230.557 324.351 231.111 324.357C232.22 324.369 233.329 324.372 234.439 324.368C234.53 324.367 234.527 324.226 234.435 324.225Z" fill="#263238"/>
<path d="M224.746 334.626C222.491 334.31 220.212 333.99 217.93 334.011C217.897 334.011 217.9 334.058 217.931 334.061C220.195 334.277 222.463 334.399 224.711 334.764C224.802 334.779 224.836 334.639 224.746 334.626Z" fill="#263238"/>
<path d="M215.481 324.71C215.458 324.512 215.436 324.314 215.41 324.116C215.352 323.67 215.281 323.225 215.211 322.781C215.078 321.935 214.93 321.091 214.769 320.249C214.754 320.171 214.619 320.192 214.629 320.271C214.736 321.142 214.829 322.014 214.91 322.887C214.95 323.316 214.982 323.745 215.02 324.174C215.055 324.562 215.021 325.042 215.193 325.395C215.258 325.528 215.458 325.474 215.492 325.348C215.552 325.138 215.506 324.925 215.481 324.71Z" fill="#263238"/>
<path d="M260.837 299.359C259.733 297.306 258.33 294.593 255.576 294.765C253.303 294.907 252.278 297.227 251.793 299.145C250.292 305.076 250.186 311.333 249.893 317.411C249.275 330.257 248.719 343.117 248.638 355.98C248.615 359.545 248.628 363.111 248.661 366.676C248.694 370.312 248.685 373.969 248.916 377.599C248.938 377.942 249.449 377.931 249.451 377.586C249.472 374.476 249.361 371.364 249.348 368.253C249.336 365.217 249.36 362.182 249.409 359.147C249.507 353 249.673 346.853 249.901 340.709C250.127 334.602 250.396 328.497 250.654 322.391C250.783 319.34 250.912 316.289 251.05 313.238C251.184 310.282 251.311 307.324 251.649 304.383C251.838 302.736 252.082 301.089 252.425 299.467C252.67 298.31 253.023 297.06 253.847 296.172C254.934 295 256.577 295.084 257.866 295.881C259.201 296.706 260.012 298.077 260.715 299.436C260.758 299.516 260.881 299.44 260.837 299.359Z" fill="#263238"/>
<path d="M260.092 298.379C260.092 298.379 257.828 290.385 262.833 294.382C271.164 301.036 271.46 315.51 271.46 315.51C271.46 315.51 256.65 306.908 254.809 301.235C252.065 292.783 260.092 298.379 260.092 298.379Z" fill="#FFC727"/>
<path d="M268.344 309.576C268.208 309.355 268.063 309.14 267.924 308.921C267.96 308.7 267.924 308.453 267.923 308.239C267.921 307.895 267.918 307.551 267.926 307.207C267.942 306.532 267.967 305.857 268 305.182C268.004 305.09 267.862 305.094 267.857 305.185C267.822 305.847 267.795 306.509 267.777 307.172C267.768 307.503 267.752 307.835 267.742 308.166C267.738 308.296 267.721 308.444 267.714 308.593C267.133 307.69 266.536 306.796 265.918 305.919C265.739 305.664 265.551 305.416 265.369 305.164C265.233 304.309 265.314 303.413 265.324 302.553C265.335 301.624 265.348 300.695 265.381 299.767C265.384 299.675 265.241 299.679 265.238 299.77C265.211 300.737 265.163 301.701 265.114 302.667C265.079 303.351 265.016 304.048 265.057 304.735C263.626 302.79 262.11 300.915 260.573 299.05C260.522 298.988 260.413 299.075 260.463 299.139C261.414 300.342 262.326 301.578 263.219 302.827C261.476 302.42 259.704 302.187 257.933 301.931C257.843 301.918 257.808 302.056 257.898 302.07C259.773 302.353 261.613 302.824 263.463 303.232C263.478 303.235 263.486 303.225 263.499 303.225C264.209 304.224 264.91 305.229 265.607 306.235C265.891 306.645 266.167 307.06 266.447 307.473C266.421 307.47 266.393 307.467 266.368 307.463C266.176 307.436 265.984 307.407 265.792 307.384C265.383 307.335 264.971 307.302 264.56 307.27C263.706 307.203 262.85 307.158 261.996 307.112C261.905 307.107 261.907 307.253 261.999 307.255C262.842 307.275 263.678 307.338 264.516 307.428C264.958 307.476 265.399 307.536 265.84 307.588C266.033 307.611 266.226 307.633 266.419 307.657C266.476 307.664 266.532 307.673 266.589 307.681C267.063 308.381 267.539 309.079 268.013 309.779C268.849 311.015 269.596 312.34 270.488 313.535C270.541 313.606 270.64 313.542 270.603 313.464C269.982 312.117 269.121 310.839 268.344 309.576Z" fill="#263238"/>
<path d="M264.656 300.546C264.655 300.235 264.663 299.924 264.662 299.612C264.661 298.962 264.652 298.299 264.741 297.654C264.755 297.551 264.601 297.535 264.6 297.638C264.598 298.285 264.529 298.932 264.498 299.578C264.482 299.901 264.482 300.226 264.481 300.549C264.481 300.698 264.481 300.848 264.482 300.997C264.483 301.149 264.462 301.319 264.516 301.462C264.539 301.523 264.62 301.52 264.64 301.459C264.684 301.324 264.661 301.171 264.659 301.031C264.657 300.87 264.656 300.708 264.656 300.546Z" fill="#263238"/>
<path d="M262.825 303.857C262.274 303.763 261.71 303.735 261.154 303.687C260.543 303.635 259.934 303.581 259.325 303.503C259.223 303.49 259.205 303.637 259.309 303.644C260.478 303.72 261.642 303.928 262.812 303.97C262.876 303.972 262.889 303.868 262.825 303.857Z" fill="#263238"/>
<path d="M267.478 303.906C267.521 303.966 267.492 304.142 267.492 304.214V304.472C267.492 304.658 267.49 304.845 267.489 305.031C267.488 305.217 267.486 305.404 267.484 305.59C267.483 305.738 267.444 305.943 267.511 306.078C267.522 306.1 267.556 306.097 267.566 306.077C267.602 306.004 267.595 305.925 267.594 305.845C267.593 305.759 267.593 305.673 267.592 305.587C267.591 305.401 267.589 305.214 267.588 305.028C267.586 304.842 267.584 304.655 267.584 304.469V304.211C267.584 304.132 267.554 303.968 267.6 303.903C267.692 303.775 267.382 303.772 267.478 303.906Z" fill="#263238"/>
<path d="M261.182 342.016C258.067 339.678 255.269 336.318 251.08 336.153C247.622 336.017 245.199 338.62 243.814 341.519C243.083 343.048 242.583 344.67 242.119 346.295C241.494 348.483 240.906 350.682 240.354 352.889C239.269 357.232 238.336 361.616 237.581 366.028C237.16 368.488 236.768 370.956 236.456 373.433C236.142 375.929 235.733 378.495 235.729 381.014C235.728 381.452 236.413 381.537 236.502 381.099C236.924 379.028 237.1 376.889 237.406 374.797C237.713 372.692 238.032 370.589 238.388 368.492C239.1 364.297 239.922 360.116 240.868 355.967C241.762 352.049 242.639 348.071 243.904 344.253C244.81 341.518 246.264 338.325 249.218 337.342C253.713 335.846 257.795 339.65 261.084 342.12C261.156 342.174 261.255 342.071 261.182 342.016Z" fill="#263238"/>
<path d="M257.957 339.779C257.957 339.779 255.087 331.581 259.239 329.973C265.462 327.564 281.751 345.91 278.563 374.019C278.563 374.019 265.977 367.087 256.684 359.287C247.391 351.487 245.012 341.301 249.106 338.667C253.199 336.034 257.957 339.779 257.957 339.779Z" fill="#FFC727"/>
<path d="M276.682 367.995C276.317 367.006 275.678 366.081 275.169 365.16C274.637 364.198 274.099 363.239 273.543 362.29C272.461 360.441 271.387 358.586 270.279 356.752C270.1 356.455 269.913 356.161 269.733 355.864C269.758 355.755 269.777 355.644 269.801 355.535C269.863 355.264 269.924 354.993 269.986 354.722C270.125 354.113 270.231 353.496 270.345 352.882C270.57 351.679 270.779 350.46 271.104 349.279C271.128 349.191 270.983 349.163 270.963 349.254C270.706 350.456 270.327 351.639 269.971 352.816C269.796 353.395 269.61 353.973 269.456 354.558C269.404 354.759 269.351 354.959 269.299 355.16C267.961 352.967 266.6 350.784 265.133 348.675C265.256 348.4 265.245 348.089 265.279 347.774C265.323 347.363 265.373 346.952 265.421 346.542C265.531 345.617 265.637 344.693 265.773 343.771C266.04 341.96 266.309 340.162 266.759 338.386C266.781 338.297 266.641 338.273 266.618 338.361C266.17 340.131 265.682 341.901 265.346 343.696C265.181 344.576 265.025 345.459 264.908 346.347C264.849 346.791 264.802 347.237 264.756 347.683C264.742 347.814 264.722 347.95 264.705 348.086C264.253 347.449 263.802 346.811 263.329 346.19C261.891 344.299 260.402 342.452 258.899 340.614C258.841 340.543 258.724 340.625 258.782 340.696C261.421 343.924 263.653 347.501 265.859 351.032C266.271 351.692 266.674 352.357 267.083 353.019C266.946 353.001 266.81 352.985 266.679 352.969C266.153 352.902 265.62 352.869 265.092 352.82C264.033 352.721 262.974 352.629 261.914 352.544C259.794 352.375 257.668 352.245 255.553 352.019C255.462 352.009 255.437 352.149 255.528 352.16C257.671 352.405 259.804 352.749 261.94 353.053C262.99 353.202 264.04 353.342 265.092 353.477C265.818 353.57 266.728 353.786 267.519 353.726C268.352 355.079 269.188 356.43 270.018 357.784C269.834 357.758 269.64 357.766 269.456 357.763C269.103 357.757 268.749 357.76 268.396 357.76C267.739 357.76 267.083 357.759 266.426 357.759C265.06 357.76 263.696 357.787 262.33 357.786C262.238 357.786 262.253 357.927 262.344 357.928C263.728 357.944 265.107 358.015 266.489 358.087C267.145 358.121 267.799 358.16 268.454 358.206C268.781 358.229 269.108 358.256 269.436 358.276C269.723 358.294 270.03 358.349 270.301 358.242C271.007 359.394 271.722 360.542 272.427 361.694C273.078 362.758 273.736 363.817 274.409 364.867C275.086 365.922 275.712 367.134 276.544 368.071C276.599 368.13 276.715 368.085 276.682 367.995Z" fill="#263238"/>
<path d="M270.685 345.275C270.585 346.174 270.345 347.072 270.122 347.948C269.89 348.859 269.625 349.761 269.33 350.653C269.29 350.775 269.459 350.831 269.498 350.707C269.777 349.822 270.027 348.928 270.245 348.025C270.463 347.122 270.604 346.201 270.824 345.3C270.847 345.211 270.695 345.184 270.685 345.275Z" fill="#263238"/>
<path d="M261.439 350.766C261.243 350.568 261.022 350.548 260.753 350.51C260.357 350.454 259.961 350.402 259.565 350.347C258.829 350.246 258.09 350.165 257.352 350.079C255.818 349.899 254.283 349.75 252.75 349.557C252.659 349.546 252.634 349.686 252.725 349.698C254.171 349.874 255.61 350.093 257.055 350.283C257.763 350.376 258.47 350.476 259.179 350.559C259.52 350.599 259.861 350.635 260.202 350.673C260.579 350.715 261.024 350.705 261.369 350.873C261.439 350.907 261.488 350.816 261.439 350.766Z" fill="#263238"/>
<path d="M270.663 363.128C269.94 363.066 269.21 363.043 268.484 363.021C268.118 363.01 267.751 362.998 267.385 362.987C267.209 362.981 267.033 362.976 266.858 362.971C266.636 362.964 266.387 362.986 266.172 362.931C266.071 362.905 266.061 363.089 266.166 363.072C266.37 363.039 266.603 363.08 266.809 363.092C266.999 363.103 267.189 363.115 267.38 363.126C267.746 363.148 268.112 363.17 268.478 363.192C269.202 363.235 269.932 363.279 270.658 363.283C270.744 363.284 270.751 363.135 270.663 363.128Z" fill="#263238"/>
<path d="M275.1 359.983C275.183 359.572 275.261 359.159 275.337 358.746C275.486 357.936 275.634 357.126 275.783 356.315C275.8 356.224 275.663 356.201 275.642 356.29C275.464 357.079 275.286 357.868 275.108 358.658C275.019 359.053 274.931 359.447 274.849 359.843C274.811 360.026 274.773 360.208 274.735 360.391C274.695 360.583 274.634 360.775 274.67 360.972C274.682 361.038 274.78 361.092 274.827 361.021C275.018 360.733 275.032 360.317 275.1 359.983Z" fill="#263238"/>
<path d="M273.426 384.21L272.727 395.828L270.658 430.127H228.246L226.177 395.828L225.479 384.21H273.426Z" fill="#455A64"/>
<path d="M273.426 384.21L272.727 395.828H226.177L225.479 384.21H273.426Z" fill="#263238"/>
<path d="M276.67 375.99H222.232V387.616H276.67V375.99Z" fill="#455A64"/>
<path d="M337.797 385.13C337.797 385.13 337.789 429.893 337.79 429.924C337.833 438.484 337.719 445.99 337.297 449.867C337.298 449.888 337.299 449.909 337.289 449.93C337.131 451.393 336.931 452.327 336.671 452.577C336.651 452.599 336.641 452.62 336.621 452.631C334.082 454.37 265.682 456.712 263.27 455.99C260.847 455.279 262.723 448.335 265.305 446.126C267.908 443.916 293.684 431.308 293.684 431.308L294.117 386.565L337.797 385.13Z" fill="#EB9481"/>
<path d="M337.791 420.733C337.791 420.733 337.789 429.892 337.79 429.923C337.833 438.483 337.719 445.989 337.297 449.866C337.298 449.887 337.299 449.908 337.289 449.929C337.047 451.375 336.827 452.331 336.671 452.576C336.651 452.598 336.641 452.619 336.621 452.63C334.082 454.369 265.682 456.711 263.27 455.989C260.847 455.278 262.723 448.334 265.305 446.125C267.908 443.915 293.684 431.307 293.684 431.307L293.558 421.981L337.791 420.733Z" fill="white"/>
<path d="M263.269 455.991C265.685 456.715 334.079 454.374 336.624 452.629C337.603 451.983 337.843 441.997 337.786 429.924C337.784 429.798 337.782 429.672 337.781 429.546L293.64 430.563L293.683 431.311C293.683 431.311 267.905 443.916 265.306 446.129C262.728 448.334 260.852 455.278 263.269 455.991Z" fill="#FFC727"/>
<path d="M263.952 453.313C275.471 452.635 321.997 450.989 333.435 451.194C333.528 451.196 333.53 451.259 333.437 451.267C322.034 452.188 275.497 453.457 263.957 453.502C263.715 453.503 263.709 453.327 263.952 453.313Z" fill="#263238"/>
<path d="M289.979 431.571C294.487 430.569 300.059 431.076 303.637 434.189C303.776 434.31 303.602 434.505 303.453 434.464C298.929 433.206 294.718 432.444 290.016 432.144C289.686 432.123 289.656 431.643 289.979 431.571Z" fill="#263238"/>
<path d="M286.772 433.657C291.28 432.655 296.853 433.161 300.43 436.275C300.569 436.395 300.395 436.591 300.247 436.55C295.723 435.292 291.512 434.53 286.81 434.23C286.479 434.208 286.449 433.729 286.772 433.657Z" fill="#263238"/>
<path d="M283.565 435.743C288.073 434.741 293.646 435.247 297.223 438.361C297.362 438.482 297.188 438.677 297.039 438.635C292.515 437.377 288.304 436.615 283.603 436.315C283.271 436.294 283.242 435.814 283.565 435.743Z" fill="#263238"/>
<path d="M340.005 352.946L339.995 353.445L339.007 431.81L291.13 430.853L300.963 191.945H341.398L340.005 352.946Z" fill="#455A64"/>
<path d="M293.131 422.867C300.606 422.802 298.46 422.715 305.935 422.734C309.593 422.743 333.632 422.825 337.042 423.433C337.117 423.446 337.116 423.574 337.04 423.585C333.615 424.11 309.582 423.609 305.925 423.529C298.451 423.366 300.599 423.332 293.128 423.085C292.988 423.081 292.991 422.868 293.131 422.867Z" fill="#263238"/>
<path d="M330.884 396.296C330.977 389.136 331.097 381.976 331.233 374.816C331.505 360.497 331.761 346.178 332.026 331.86C332.554 303.37 332.975 274.878 333.404 246.386C333.646 230.316 333.638 214.237 334.052 198.171C334.053 198.129 334.116 198.131 334.117 198.172C334.383 212.491 334.222 226.822 334.197 241.143C334.172 255.466 334.114 269.788 333.974 284.109C333.696 312.604 333.3 341.099 332.626 369.587C332.436 377.622 332.241 385.658 331.966 393.69C331.69 401.72 331.507 409.768 330.943 417.784C330.934 417.909 330.751 417.905 330.748 417.779C330.616 410.622 330.791 403.454 330.884 396.296Z" fill="#263238"/>
<path d="M341.4 192.43L340.34 314.42L307.92 191.95H341.39L341.4 192.43Z" fill="#263238"/>
<path d="M413.585 362.737C413.585 362.737 436.68 400.275 436.695 400.303C440.446 407.998 443.597 414.811 444.899 418.487C444.909 418.505 444.919 418.524 444.919 418.547C445.411 419.934 445.636 420.862 445.51 421.201C445.501 421.229 445.502 421.252 445.488 421.271C443.954 423.939 383.336 455.71 380.849 456.105C378.358 456.515 377.037 449.444 378.405 446.334C379.792 443.214 397.552 420.676 397.552 420.676L374.847 382.971L413.585 362.737Z" fill="#EB9481"/>
<path d="M445.505 421.206C445.505 421.228 445.505 421.25 445.494 421.272C443.955 423.94 383.339 455.709 380.848 456.108C378.357 456.517 377.04 449.444 378.402 446.333C379.797 443.211 397.552 420.674 397.552 420.674L393.5 413.944C403.407 408.664 421.417 399.387 432.598 393.642C435.033 397.594 436.694 400.295 436.694 400.306C440.447 407.999 443.601 414.807 444.897 418.482C444.908 418.504 444.919 418.526 444.919 418.548C445.417 419.933 445.638 420.863 445.505 421.206Z" fill="white"/>
<path d="M380.849 456.107C383.34 455.711 443.953 423.944 445.49 421.268C446.092 420.261 441.978 411.16 436.691 400.305C436.635 400.192 436.578 400.079 436.522 399.966L397.188 420.024L397.551 420.68C397.551 420.68 379.789 443.217 378.407 446.338C377.042 449.442 378.362 456.513 380.849 456.107Z" fill="#FFC727"/>
<path d="M380.304 453.397C390.39 447.791 431.6 426.133 441.996 421.358C442.081 421.319 442.11 421.375 442.03 421.422C432.155 427.197 390.771 448.52 380.392 453.565C380.172 453.671 380.091 453.516 380.304 453.397Z" fill="#263238"/>
<path d="M394.329 422.52C397.956 419.662 403.197 417.702 407.771 418.957C407.948 419.006 407.877 419.257 407.725 419.284C403.103 420.113 398.978 421.251 394.611 423.02C394.304 423.144 394.069 422.725 394.329 422.52Z" fill="#263238"/>
<path d="M392.343 425.79C395.97 422.932 401.212 420.972 405.785 422.227C405.962 422.275 405.89 422.527 405.739 422.554C401.117 423.383 396.992 424.521 392.625 426.29C392.317 426.414 392.083 425.995 392.343 425.79Z" fill="#263238"/>
<path d="M390.357 429.06C393.984 426.202 399.226 424.242 403.799 425.497C403.977 425.545 403.905 425.796 403.753 425.824C399.131 426.653 395.006 427.791 390.639 429.56C390.332 429.685 390.097 429.265 390.357 429.06Z" fill="#263238"/>
<path d="M307.636 191.907C307.636 191.907 307.636 191.917 307.646 191.949C307.823 192.781 310.65 205.898 313.581 217.166C315.712 225.398 317.905 232.633 319.163 233.381C320.587 234.223 327.531 237.3 329.859 238.266C329.859 238.266 345.475 316.22 353.719 340.393C361.326 362.699 392.805 422.321 392.805 422.321L438.477 399.245C438.477 399.245 402.81 338.736 399.059 327.877C393.246 311.046 371.464 228.867 371.464 228.867C371.464 228.867 371.63 203.139 362.966 191.906L307.636 191.907Z" fill="#455A64"/>
<path d="M393.478 413.417C400.004 409.771 398.08 410.725 404.646 407.153C407.859 405.404 428.985 393.935 432.269 392.831C432.341 392.807 432.401 392.919 432.341 392.965C429.589 395.069 408.267 406.169 405.02 407.855C398.386 411.301 400.253 410.239 393.581 413.61C393.456 413.673 393.356 413.486 393.478 413.417Z" fill="#263238"/>
<path d="M359.746 221.712C358.496 221.391 357.158 221.289 355.883 221.088C354.853 220.925 353.826 220.743 352.807 220.518C350.889 220.095 348.948 219.455 347.38 218.233C345.613 216.858 344.715 214.771 343.861 212.766C343.354 211.575 342.831 210.393 342.3 209.212C342.043 208.639 341.784 208.069 341.518 207.5C341.208 206.835 340.781 206.141 340.554 205.445C340.521 205.344 340.358 205.398 340.398 205.492C340.6 205.956 340.685 206.484 340.832 206.971C341.006 207.545 341.169 208.121 341.347 208.694C341.664 209.716 341.973 210.742 342.311 211.758C342.917 213.582 343.456 215.496 344.486 217.136C346.371 220.138 349.743 221.347 353.113 221.773C354.079 221.895 355.053 221.964 356.025 222.019C357.228 222.087 358.508 222.195 359.707 222.047C359.892 222.025 359.944 221.763 359.746 221.712Z" fill="#263238"/>
<path d="M315.468 231.541C320.424 233.247 325.208 235.669 329.782 238.207C329.961 238.307 329.843 238.585 329.649 238.502C324.827 236.431 319.91 234.45 315.208 232.116C314.839 231.933 315.088 231.41 315.468 231.541Z" fill="#263238"/>
<path d="M314.017 198.514C314.03 198.347 314.323 198.31 314.321 198.49C314.282 204.214 314.647 209.251 315.13 214.601C315.354 217.085 317.352 230.811 321.659 229.81C322.38 229.642 322.748 228.933 322.861 227.846C322.997 226.539 322.505 224.936 322.289 223.636C321.811 220.763 321.427 217.88 321.181 214.977C320.72 209.559 320.698 204.141 321.356 198.739C321.377 198.562 321.634 198.575 321.633 198.755C321.627 206.255 321.823 213.742 322.944 221.17C323.483 224.74 325.281 230.115 321.547 230.664C317.743 231.224 315.284 222.22 314.819 219.758C313.525 212.887 313.473 205.467 314.017 198.514Z" fill="#263238"/>
<path d="M321.544 230.18C321.933 231.102 322.246 232.061 322.513 233.025C322.719 233.774 323.001 234.583 322.915 235.364C322.898 235.516 322.698 235.53 322.617 235.428C322.112 234.788 321.899 233.912 321.616 233.152C321.289 232.272 320.942 231.398 320.639 230.51C320.439 229.919 321.304 229.611 321.544 230.18Z" fill="#263238"/>
<path d="M426.149 391.67C419.648 379.431 412.947 367.304 406.22 355.188C402.904 349.216 399.444 343.311 396.278 337.257C393.151 331.276 391.03 324.993 389.052 318.56C385.031 305.489 381.221 292.352 377.626 279.157C374.031 265.962 370.672 252.703 367.497 239.401C366.703 236.074 365.834 232.748 365.193 229.388C364.527 225.897 364.727 222.634 365.209 219.137C365.649 215.94 365.774 212.793 365.283 209.592C364.798 206.428 364.007 203.317 363.051 200.265C362.547 198.657 362 197.063 361.448 195.471C361.386 195.293 361.111 195.374 361.167 195.556C363.136 201.999 365.149 208.513 364.726 215.336C364.522 218.617 363.654 221.837 363.711 225.138C363.767 228.422 364.631 231.643 365.368 234.823C368.472 248.209 371.822 261.535 375.374 274.809C378.926 288.082 382.694 301.298 386.68 314.447C388.618 320.84 390.43 327.336 393.181 333.44C395.936 339.555 399.426 345.332 402.708 351.171C409.493 363.24 416.334 375.278 423.328 387.226C424.214 388.74 425.109 390.249 426.002 391.759C426.058 391.858 426.2 391.768 426.149 391.67Z" fill="#263238"/>
<path d="M327.87 130.328C321.449 136.604 289.561 163.037 271.227 161.973C254.069 160.977 234.922 124.129 229.637 117.056C227.319 113.954 253.252 95.4419 256.384 98.1489C259.548 100.885 273.224 130.434 276.175 131.368C279.126 132.302 303.191 126.692 317.745 123.048C330.917 119.749 336.704 121.691 327.87 130.328Z" fill="#EB9481"/>
<path d="M288.496 129.258L299.097 153.44C299.097 153.44 319.732 141.348 327.509 132.77C335.286 124.192 334.773 119.814 318.936 121.969C303.098 124.124 288.496 129.258 288.496 129.258Z" fill="#FFC727"/>
<path d="M285.234 129.516L291.13 127.36L301.944 152.883L296.388 155.741L285.234 129.516Z" fill="#FFC727"/>
<path opacity="0.1" d="M285.234 129.516L291.13 127.36L301.944 152.883L296.388 155.741L285.234 129.516Z" fill="black"/>
<path d="M262.754 112.002C259.33 95.104 246.844 80.605 244.208 78.624C241.968 76.93 240.797 76.078 240.797 76.078C236.837 72.961 233.895 73.487 233.895 73.487C233.895 73.487 230.377 68.535 227.031 70.164C223.273 71.98 228.949 78.579 229.851 84.117C231.918 96.805 231.307 115.419 231.54 119.138L262.754 112.002Z" fill="#EB9481"/>
<path d="M241.363 95.893C240.68 92.171 240.107 88.497 238.924 84.887C237.626 80.926 235.712 77.332 233.855 73.625C233.797 73.509 233.952 73.417 234.027 73.522C238.451 79.701 241.348 88.271 241.687 95.847C241.696 96.03 241.397 96.08 241.363 95.893Z" fill="#263238"/>
<path d="M249.201 95.758C248.336 92.173 246.775 85.883 240.691 76.143C240.671 76.111 240.719 76.067 240.745 76.099C245.536 81.898 248.421 88.288 249.558 95.659C249.594 95.888 249.259 95.997 249.201 95.758Z" fill="#263238"/>
<path d="M231.374 99.565C230.989 101.324 230.063 101.134 228.669 98.252C227.252 95.34 224.202 82.782 219.901 84.226C215.583 85.666 220.192 103.367 222.881 107.987C225.56 112.615 231.54 119.139 231.54 119.139C231.336 115.515 231.681 106.679 231.374 99.565Z" fill="#EB9481"/>
<path d="M301.025 202.592C302.149 203.706 366.204 200.355 366.537 199.907C367.443 198.689 346.959 131.549 330.767 119.919C327.285 117.418 317.12 119.74 314.719 122.15C313.212 123.661 310.154 133.294 308.008 141.195C303.713 157.013 300.046 201.613 301.025 202.592Z" fill="#FFC727"/>
<path d="M300.749 203.14C300.749 203.14 300.383 170.341 306.452 144.403C310.805 125.796 313 122.871 313 122.871L314.718 122.15L311.591 137.432L324.622 136.81C324.622 136.81 330.134 120.48 330.991 120.084C331.531 119.835 333.715 122.012 333.715 122.012C333.715 122.012 328.732 139.332 329.398 146.398C330.064 153.464 335.051 164.522 339.208 167.847C343.365 171.172 357.556 168.167 357.888 168.251C358.221 168.334 367.907 201.507 368.048 201.962C368.188 202.416 300.749 203.14 300.749 203.14Z" fill="#455A64"/>
<path d="M309.288 153.661C310.735 154.914 315.472 156.905 317.1 157.028C318.638 157.144 325.777 154.721 326.826 154.081C327.358 153.757 326.615 142.944 326.357 142.273C326.144 141.719 309.972 141.781 309.529 142.325C308.547 143.543 308.778 153.219 309.288 153.661ZM309.908 142.943C310.426 142.47 324.769 141.986 325.931 142.8C326.091 145.035 326.45 153.342 326.215 153.624C325.945 153.952 318.545 156.516 317.177 156.349C315.157 156.111 310.594 153.885 309.808 153.307C309.273 152.893 309.549 143.274 309.908 142.943Z" fill="#263238"/>
<path d="M367.504 202.12C367.879 202.494 370.323 225.29 368.865 226.199C367.407 227.108 347.814 230.202 346.385 229.443C344.957 228.684 343.45 205.893 343.578 205.592C343.707 205.291 366.797 201.416 367.504 202.12Z" fill="#FFC727"/>
<path opacity="0.1" d="M344.26 215.75C344.809 222.055 345.606 229.035 346.389 229.446C347.817 230.199 367.412 227.111 368.87 226.199C369.67 225.697 369.293 218.687 368.734 212.36C368.261 207.089 367.666 202.298 367.499 202.121C366.8 201.412 343.709 205.295 343.582 205.592C343.524 205.73 343.808 210.501 344.26 215.75Z" fill="black"/>
<path d="M369.921 201.423C370.255 201.116 368.094 192.611 366.8 190.47C366.8 190.47 345.741 194.162 327.8 195.51C314.379 196.519 299.077 195.778 299.004 196.156C298.932 196.534 298.306 205.661 298.622 206.414C298.938 207.167 319.249 207.403 330.808 206.803C342.368 206.203 368.817 202.439 369.921 201.423Z" fill="#FFC727"/>
<path d="M309.03 207.405C309.45 207.719 324.043 207.907 324.321 207.593C324.6 207.268 324.719 195.995 323.578 195.337C322.902 194.951 310.031 195.051 309.214 195.424C308.385 195.808 308.599 207.091 309.03 207.405ZM310.603 196.768C311.268 196.477 321.708 196.42 322.258 196.716C323.178 197.228 323.094 205.943 322.871 206.184C322.648 206.435 310.807 206.266 310.471 206.02C310.123 205.783 309.938 197.059 310.603 196.768Z" fill="#DBDBDB"/>
<path d="M309.529 202.174L313.616 202.19L313.622 200.627L309.535 200.611L309.529 202.174Z" fill="#DBDBDB"/>
<path d="M328.1 201.279C328.09 201.608 328.348 201.882 328.677 201.892C329.006 201.902 329.28 201.644 329.29 201.315C329.3 200.986 329.042 200.712 328.713 200.702C328.385 200.691 328.11 200.95 328.1 201.279Z" fill="#263238"/>
<path d="M334.307 200.872C334.297 201.201 334.555 201.476 334.884 201.486C335.213 201.496 335.487 201.238 335.497 200.909C335.507 200.58 335.249 200.306 334.92 200.296C334.591 200.286 334.317 200.544 334.307 200.872Z" fill="#263238"/>
<path d="M358.918 198.97L366.136 198.154L364.05 179.704C363.895 178.331 362.656 177.344 361.284 177.5L359.037 177.754C357.664 177.909 356.677 179.148 356.833 180.52L358.918 198.97Z" fill="#37474F"/>
<path d="M360.305 200.76L365.169 200.21L364.951 198.279L360.087 198.829L360.305 200.76Z" fill="#37474F"/>
<path d="M364.308 221.352L365.853 221.178L363.505 200.407L361.961 200.581L364.308 221.352Z" fill="#EBEBEB"/>
<path d="M363.742 223.264C363.742 223.264 365.051 226.352 365.153 226.34L365.664 226.282C365.673 226.281 365.673 226.281 365.673 226.281L366.184 226.223C366.286 226.211 366.872 222.909 366.872 222.909L365.867 221.179L364.334 221.352L363.742 223.264Z" fill="#EBEBEB"/>
<path d="M363.951 196.322L365.212 196.18L363.383 179.998L362.122 180.141L363.951 196.322Z" fill="#263238"/>
<path d="M361.612 196.587L362.873 196.445L361.044 180.262L359.783 180.405L361.612 196.587Z" fill="#263238"/>
<path d="M359.278 196.845L360.539 196.702L358.712 180.521L357.451 180.663L359.278 196.845Z" fill="#263238"/>
<path d="M356.415 191.173L360.575 190.632L359.731 184.14L355.571 184.681L356.415 191.173Z" fill="#EBEBEB"/>
<path d="M355.81 186.601C355.81 186.601 353.424 186.911 352.995 186.967C352.566 187.023 350.663 185.301 349.343 185.473C348.023 185.645 349.148 185.498 347.893 185.662C346.638 185.825 341.522 187.788 341.947 191.057C342.372 194.325 342.2 193.005 342.2 193.005C342.2 193.005 342.703 191.194 343.849 190.715C345.171 190.163 346.37 190.993 346.753 191.879C347.233 192.989 347.646 194.748 347.646 194.748L352.813 194.076C352.813 194.076 353.046 191.478 353.402 190.6C353.758 189.723 356.2 189.608 356.2 189.608L355.81 186.601Z" fill="#EBEBEB"/>
<path d="M350.176 206.205L353.384 205.788L351.878 194.21L348.67 194.627L350.176 206.205Z" fill="#EBEBEB"/>
<path d="M352.044 226.674L356.819 226.053L353.466 200.277L348.691 200.898L352.044 226.674Z" fill="#263238"/>
<path d="M344.26 215.75C344.809 222.055 345.606 229.035 346.389 229.446C347.817 230.199 367.412 227.111 368.87 226.199C369.67 225.697 369.293 218.687 368.734 212.36L344.26 215.75Z" fill="#FFC727"/>
<path d="M318.848 131.074C322.732 131.573 328.63 125.099 330.707 120.135C330.847 119.794 329.998 116.454 329.159 112.347C328.659 109.853 328.161 107.063 327.891 104.485L312.134 110.109C312.134 110.109 314.291 115.346 314.735 119.844C314.768 120.221 314.767 120.574 314.735 120.914C314.735 120.963 314.727 121.024 314.73 121.092C314.611 123.136 315.094 130.589 318.848 131.074Z" fill="#EB9481"/>
<path d="M327.144 104.752C326.978 108.024 325.737 119.815 316.396 121.008C315.795 121.079 315.242 121.111 314.729 121.095C314.721 121.024 314.729 120.961 314.737 120.913C314.769 120.573 314.769 120.217 314.737 119.846C314.287 115.349 312.129 110.11 312.129 110.11L327.144 104.752Z" fill="#263238"/>
<path d="M326.859 85.9359C329.338 91.4299 328.439 108.335 324.845 112.54C319.634 118.636 310.047 120.385 304.601 113.881C299.322 107.576 300.884 85.565 304.997 81.635C311.055 75.847 323.197 77.8209 326.859 85.9359Z" fill="#EB9481"/>
<path d="M312.747 98.0679C312.758 98.0249 312.834 98.1259 312.83 98.1729C312.739 99.3099 312.826 100.628 313.838 101.056C313.869 101.069 313.863 101.126 313.825 101.119C312.576 100.882 312.478 99.1309 312.747 98.0679Z" fill="#263238"/>
<path d="M313.823 96.9279C315.661 96.8769 315.628 100.558 313.924 100.605C312.247 100.651 312.281 96.9699 313.823 96.9279Z" fill="#263238"/>
<path d="M306.187 98.0429C306.179 97.9989 306.097 98.0959 306.098 98.1429C306.124 99.2829 305.961 100.594 304.926 100.963C304.894 100.974 304.896 101.032 304.935 101.027C306.196 100.862 306.394 99.1199 306.187 98.0429Z" fill="#263238"/>
<path d="M305.18 96.843C303.347 96.687 303.17 100.364 304.868 100.508C306.539 100.651 306.716 96.974 305.18 96.843Z" fill="#263238"/>
<path d="M315.291 95.2579C314.791 95.1269 314.351 94.9229 313.87 94.7429C313.327 94.5389 312.874 94.4329 312.521 93.9409C312.332 93.6769 312.416 93.2079 312.655 92.9999C313.212 92.5159 313.939 92.6009 314.602 92.8189C315.322 93.0559 315.817 93.4229 316.225 94.0609C316.62 94.6789 315.95 95.4299 315.291 95.2579Z" fill="#263238"/>
<path d="M303.773 94.9769C304.284 94.8989 304.742 94.7409 305.239 94.6109C305.8 94.4639 306.262 94.4059 306.663 93.9529C306.878 93.7099 306.843 93.2349 306.627 93.0029C306.123 92.4649 305.391 92.4729 304.709 92.6219C303.968 92.7839 303.438 93.0979 302.967 93.6899C302.51 94.2629 303.099 95.0799 303.773 94.9769Z" fill="#263238"/>
<path d="M313.793 108.681C313.517 108.945 313.242 109.311 312.828 109.341C312.431 109.371 311.967 109.187 311.605 109.043C311.569 109.029 311.532 109.067 311.555 109.101C311.847 109.541 312.467 109.821 312.997 109.733C313.514 109.648 313.774 109.204 313.903 108.733C313.92 108.667 313.833 108.642 313.793 108.681Z" fill="#263238"/>
<path d="M312.626 105.256C311.979 106.24 311.035 106.772 310.019 106.96C309.565 107.047 309.088 107.058 308.622 107.011C308.53 107.008 308.438 106.997 308.356 106.978C308.273 106.967 308.198 106.957 308.106 106.937C307.973 106.916 307.901 106.806 307.88 106.68V106.672C307.881 106.63 307.882 106.597 307.892 106.555C307.892 106.555 307.892 106.555 307.892 106.547L307.895 106.447C307.879 105.569 307.977 104.235 307.977 104.235C307.655 104.393 306.012 105.113 306.042 104.655C306.304 100.86 306.595 96.64 307.657 92.919C307.686 92.795 307.877 92.825 307.865 92.95C307.758 96.607 307.008 100.221 306.842 103.893C307.366 103.699 308.22 103.34 308.679 103.354C308.803 103.391 308.445 105.929 308.483 106.323C308.483 106.323 308.482 106.34 308.49 106.365C309.963 106.567 311.079 106.132 312.52 105.154C312.606 105.088 312.695 105.166 312.626 105.256Z" fill="#263238"/>
<path d="M309.268 106.771C309.268 106.771 310.119 107.748 311.201 108.04C311.6 108.149 312.022 108.171 312.451 108.02C313.332 107.713 313.29 106.886 313.069 106.192C312.889 105.621 312.581 105.142 312.581 105.142C312.581 105.142 311.364 106.475 309.268 106.771Z" fill="#263238"/>
<path d="M311.201 108.04C311.6 108.149 312.022 108.171 312.451 108.02C313.332 107.713 313.29 106.886 313.069 106.192C312.112 106.366 311.209 107.096 311.201 108.04Z" fill="#F291B8"/>
<path d="M302.255 88.306C302.265 88.283 302.265 88.261 302.275 88.25C302.265 88.295 302.255 88.328 302.255 88.328C302.255 88.317 302.255 88.317 302.255 88.306Z" fill="#263238"/>
<path d="M326.586 98.7209C323.275 99.6699 319.898 85.3879 319.898 85.3879C319.898 85.3879 316.975 87.9459 314.25 88.9419C311.525 89.9379 308.16 90.4719 307.661 90.4719C307.162 90.4719 312.279 86.5679 312.279 86.5679C312.279 86.5679 306.778 90.2049 302.03 89.5269C300.56 89.3169 302.942 77.0199 313.3 76.0249C320.291 75.3539 324.268 80.9429 324.268 80.9429C324.268 80.9429 329.027 84.1599 329.526 86.5259C330.195 89.6979 330.096 97.7149 326.586 98.7209Z" fill="#263238"/>
<path d="M323.926 99.4429C323.926 99.4429 327.092 93.6839 329.665 94.7569C332.239 95.8299 330.262 103.895 327.524 105.265C324.786 106.635 323.469 104.125 323.469 104.125L323.926 99.4429Z" fill="#EB9481"/>
<path d="M329.04 97.055C329.085 97.046 329.101 97.1089 329.063 97.1299C327.15 98.1559 326.298 100.124 325.768 102.127C326.283 101.323 327.049 100.83 328.117 101.43C328.173 101.462 328.132 101.549 328.074 101.543C327.236 101.456 326.66 101.662 326.178 102.378C325.836 102.885 325.632 103.501 325.409 104.068C325.335 104.257 325.001 104.196 325.047 103.983C325.051 103.967 325.055 103.951 325.058 103.935C324.733 101.39 326.33 97.607 329.04 97.055Z" fill="#263238"/>
<path d="M300.646 87.5579C300.646 87.5579 303.562 70.4169 318.867 72.8969C334.172 75.3769 331.526 92.5619 331.526 92.5619L300.646 87.5579Z" fill="#FFC727"/>
<path d="M332.868 91.516L299.69 86.1416L299.296 88.5738L332.474 93.9482L332.868 91.516Z" fill="#FFC727"/>
<path d="M316.038 88.8039L309.13 87.6839L313.481 71.1219L320.39 72.2419L316.038 88.8039Z" fill="#FFC727"/>
<path opacity="0.1" d="M316.038 88.8039L309.13 87.6839L313.481 71.1219L320.39 72.2419L316.038 88.8039Z" fill="black"/>
<path d="M314.721 120.379L318.643 129.823L330.293 117.679L333.679 121.492C333.679 121.492 322.369 140.701 322.286 139.84L318.279 131.707L312.701 137.463L312.992 123.172L314.721 120.379Z" fill="#FFC727"/>
<path d="M312.446 130.392C312.573 128.034 312.635 125.656 312.871 123.307C312.879 123.223 313.009 123.185 313.031 123.283C313.53 125.553 312.996 134.567 313.031 136.727C313.039 136.719 313.048 136.71 313.056 136.702C313.289 136.453 318.23 131.634 318.28 131.709C319.143 132.998 322.083 138.92 322.285 139.46C324.073 136.409 330.935 125.313 333.061 122.422C333.122 122.339 333.25 122.405 333.203 122.502C331.629 125.72 322.552 140.661 322.409 140.621C322.313 140.697 318.661 133.403 318.218 132.022C317.385 133.069 312.404 138.5 312.383 138.15C312.24 135.786 312.319 132.753 312.446 130.392Z" fill="#263238"/>
<path d="M248.059 198.444C247.065 203.251 243.433 206.838 238.994 208.009L241.069 197.976L236.011 194.909L230.151 195.718L228.075 205.757C224.459 202.914 222.554 198.182 223.548 193.375C224.947 186.611 231.567 182.254 238.338 183.654C245.102 185.053 249.458 191.68 248.059 198.444Z" fill="#37474F"/>
<path d="M237.813 127.324C238.807 122.517 242.439 118.93 246.878 117.76L244.803 127.793L249.861 130.86L255.721 130.051L257.797 120.011C261.413 122.854 263.318 127.586 262.324 132.393C260.925 139.157 254.305 143.514 247.534 142.114C240.77 140.715 236.414 134.088 237.813 127.324Z" fill="#37474F"/>
<path d="M253.162 135.467L242.183 133.528L232.395 188.956L243.374 190.895L253.162 135.467Z" fill="#37474F"/>
<path d="M338.684 142.326C335.874 150.854 326.391 182.681 309.745 190.442C294.168 197.704 266.126 188.67 257.486 186.597C253.721 185.694 258.248 160.314 261.89 158.347C265.532 156.38 295.08 164.72 298.121 164.141C301.162 163.563 315.968 148.323 325.988 137.156C335.452 126.606 343.93 126.403 338.684 142.326Z" fill="#EB9481"/>
<path d="M306.23 191.76C305.8 183.92 304.3 176.38 301.77 170.76C300.84 168.69 299.77 166.88 298.55 165.42C298.19 164.96 297.8 164.54 297.39 164.15C297.25 164.02 297.1 163.88 296.95 163.76C296.75 163.57 296.53 163.4 296.32 163.25C295.16 162.36 293.89 161.76 292.52 161.5C292.33 161.46 292.13 161.43 291.93 161.41C291.77 161.39 291.61 161.38 291.44 161.37C291.34 161.36 291.25 161.36 291.15 161.36H290.98C290.91 161.36 290.84 161.36 290.78 161.37C290.67 161.36 290.57 161.37 290.47 161.38C290.38 161.37 290.29 161.37 290.2 161.39C289 161.46 287.85 161.71 286.77 162.15C287.35 162.28 287.92 162.4 288.47 162.52C288.48 162.52 288.49 162.53 288.5 162.53C288.52 162.53 288.54 162.54 288.56 162.54C288.59 162.55 288.61 162.55 288.64 162.56C288.68 162.57 288.72 162.58 288.76 162.59C289.22 162.49 289.7 162.42 290.2 162.39C290.21 162.38 290.22 162.38 290.24 162.39C290.25 162.38 290.26 162.37 290.28 162.38C290.37 162.38 290.46 162.37 290.55 162.37C290.66 162.36 290.78 162.36 290.9 162.36H291.04C291.06 162.36 291.08 162.36 291.1 162.37C291.28 162.37 291.46 162.38 291.64 162.39H291.65C292.93 162.53 294.2 163.03 295.43 163.92C300.37 167.44 304.56 176.93 305.26 192.02C305.33 193.46 305.36 194.96 305.36 196.51C305.36 204.96 304.13 212.75 301.91 218.44C300.24 222.69 297.23 227.74 292.21 228.05C292.16 228.06 292.12 228.06 292.07 228.06C292.04 228.06 292.01 228.07 291.98 228.07C291.98 228.07 291.97 228.07 291.96 228.07C291.94 228.07 291.92 228.06 291.9 228.06L291.89 228.07L291.88 228.06C291.86 228.07 291.84 228.07 291.81 228.07H291.8C291.66 228.07 291.52 228.07 291.38 228.06C291.3 228.05 291.22 228.05 291.14 228.04C291.14 228.04 291.13 228.04 291.12 228.04C291.1 228.04 291.08 228.04 291.07 228.03C291.06 228.03 291.06 228.03 291.05 228.03H290.96C290.95 228.03 290.93 228.03 290.92 228.02C290.9 228.02 290.88 228.02 290.87 228.01C290.84 228 290.81 228 290.78 228C290.75 228 290.71 227.99 290.68 227.99C290.64 227.98 290.6 227.98 290.57 227.96C283.11 226.74 275.76 213.58 275.76 192.27C275.76 191.87 275.76 191.46 275.78 191.07C275.44 191 275.11 190.93 274.78 190.86C274.76 191.33 274.76 191.8 274.76 192.27C274.76 202.87 276.94 213.68 280.88 220.82C281.67 222.25 282.53 223.53 283.45 224.63C283.46 224.65 283.47 224.65 283.47 224.65C283.82 225.07 284.19 225.46 284.56 225.82C284.73 225.99 284.91 226.16 285.08 226.31C286.72 227.78 288.53 228.71 290.51 228.99C290.59 229 290.66 229.01 290.74 229.02C290.84 229.03 290.95 229.04 291.05 229.05C291.16 229.05 291.27 229.06 291.39 229.06H291.54C291.6 229.06 291.66 229.07 291.72 229.07H291.92C291.92 229.07 291.93 229.07 291.94 229.07C291.94 229.07 291.94 229.07 291.95 229.07C292.02 229.07 292.08 229.06 292.15 229.06C292.16 229.06 292.18 229.07 292.19 229.07C292.2 229.07 292.21 229.06 292.22 229.06C293.91 228.96 295.49 228.39 296.93 227.36C297.12 227.23 297.3 227.09 297.49 226.94C297.88 226.61 298.27 226.25 298.65 225.85C299.97 224.46 301.15 222.62 302.18 220.36C302.41 219.86 302.63 219.35 302.84 218.81C305.11 213 306.36 205.08 306.36 196.51C306.36 194.92 306.32 193.33 306.23 191.76Z" fill="#263238"/>
<path d="M307.769 191.25C307.229 183.24 305.449 175.58 302.479 170.01C302.479 169.99 302.469 169.98 302.469 169.98C301.369 167.94 300.119 166.18 298.709 164.8C298.479 164.57 298.249 164.35 298.009 164.15C297.839 164 297.669 163.87 297.509 163.74C295.999 162.56 294.339 161.78 292.519 161.5C292.329 161.46 292.129 161.43 291.929 161.41C291.769 161.39 291.609 161.38 291.439 161.37C291.339 161.36 291.249 161.36 291.149 161.36H290.979C290.909 161.36 290.839 161.36 290.779 161.37C290.669 161.36 290.569 161.37 290.469 161.38C290.379 161.37 290.289 161.37 290.199 161.39C290.069 161.38 289.949 161.39 289.819 161.4C289.779 161.4 289.739 161.4 289.699 161.41C288.579 161.5 287.489 161.72 286.459 162.09C286.569 162.11 286.669 162.13 286.769 162.15C287.349 162.28 287.919 162.4 288.469 162.52C288.479 162.52 288.489 162.53 288.499 162.53C288.519 162.53 288.539 162.54 288.559 162.54C288.589 162.55 288.609 162.55 288.639 162.56C289.009 162.49 289.389 162.44 289.779 162.41C289.809 162.4 289.839 162.4 289.869 162.4H289.899C289.999 162.39 290.099 162.38 290.199 162.39C290.209 162.38 290.219 162.38 290.239 162.39C290.249 162.38 290.259 162.37 290.279 162.38C290.369 162.38 290.459 162.37 290.549 162.37C290.659 162.36 290.779 162.36 290.899 162.36H291.039C291.059 162.36 291.079 162.36 291.099 162.37C291.279 162.37 291.459 162.38 291.639 162.39H291.649C293.129 162.53 294.609 163.07 296.019 164.01C298.119 165.39 300.099 167.65 301.769 170.76C304.399 175.63 306.299 182.6 306.809 191.58C306.899 193.16 306.949 194.8 306.949 196.51C306.949 204.95 305.589 212.73 303.109 218.42C302.839 219.06 302.529 219.71 302.179 220.36C300.249 223.99 297.219 227.6 292.659 228.02C292.509 228.04 292.359 228.05 292.209 228.05C292.159 228.06 292.119 228.06 292.069 228.06C292.039 228.06 292.009 228.07 291.979 228.07C291.979 228.07 291.969 228.07 291.959 228.07C291.939 228.07 291.919 228.06 291.899 228.06L291.889 228.07L291.879 228.06L291.869 228.07H291.799C291.659 228.07 291.519 228.07 291.379 228.06C291.299 228.05 291.219 228.05 291.139 228.04C291.139 228.04 291.129 228.04 291.119 228.04C291.099 228.04 291.079 228.04 291.069 228.03C291.059 228.03 291.059 228.03 291.049 228.03H290.959C290.889 228.03 290.829 228.02 290.759 228.01H290.689C290.199 227.97 289.719 227.88 289.249 227.76C289.229 227.76 289.199 227.76 289.169 227.74C288.889 227.66 288.619 227.58 288.349 227.48C288.159 227.42 287.979 227.35 287.789 227.27C284.889 226.03 282.609 223.54 280.879 220.82C280.029 219.5 279.319 218.12 278.719 216.81C275.679 210.14 273.939 201.2 273.939 192.27C273.939 191.74 273.949 191.21 273.959 190.69L272.969 190.48C272.949 191.07 272.939 191.67 272.939 192.27C272.939 201.99 274.969 211.89 278.679 218.97C279.629 220.78 280.689 222.41 281.849 223.8C282.259 224.3 282.689 224.77 283.139 225.2C285.149 227.19 287.439 228.51 289.969 228.93H290.009C290.039 228.94 290.069 228.94 290.089 228.95H290.119C290.159 228.95 290.189 228.95 290.219 228.96C290.289 228.97 290.369 228.98 290.439 228.99C290.519 229 290.599 229.01 290.669 229.02C290.799 229.03 290.919 229.04 291.049 229.05C291.159 229.05 291.269 229.06 291.389 229.06H291.539C291.599 229.06 291.659 229.07 291.719 229.07H291.919C291.919 229.07 291.929 229.07 291.939 229.07C291.939 229.07 291.939 229.07 291.949 229.07C292.019 229.07 292.079 229.06 292.149 229.06C292.159 229.06 292.179 229.07 292.189 229.07C292.199 229.07 292.209 229.06 292.219 229.06C294.359 228.97 296.339 228.24 298.129 226.92C298.499 226.65 298.859 226.35 299.209 226.01C300.479 224.85 301.649 223.35 302.679 221.53C303.159 220.69 303.609 219.79 304.029 218.82C306.559 213.01 307.949 205.08 307.949 196.51C307.949 194.75 307.889 192.99 307.769 191.25Z" fill="#263238"/>
<path d="M309.419 190.59C308.759 182.75 306.799 175.29 303.579 169.86C302.429 167.94 301.129 166.27 299.669 164.94C299.309 164.6 298.939 164.29 298.549 163.99C296.599 162.51 294.389 161.59 291.929 161.41C291.809 161.39 291.689 161.38 291.559 161.37H291.439C291.339 161.36 291.249 161.36 291.149 161.36H290.979C290.909 161.36 290.839 161.36 290.779 161.37C290.669 161.36 290.569 161.37 290.469 161.38C290.379 161.37 290.289 161.37 290.199 161.39C290.069 161.38 289.949 161.39 289.819 161.4H289.749C289.739 161.4 289.719 161.4 289.699 161.41C289.399 161.43 289.099 161.46 288.809 161.49C288.789 161.49 288.759 161.5 288.739 161.5C288.719 161.5 288.689 161.5 288.669 161.51C287.829 161.62 287.019 161.79 286.229 162.04C286.309 162.05 286.389 162.07 286.459 162.09C286.569 162.11 286.669 162.13 286.769 162.15C287.349 162.28 287.919 162.4 288.469 162.52C288.479 162.52 288.489 162.53 288.499 162.53C288.519 162.53 288.539 162.54 288.559 162.54C288.729 162.51 288.899 162.48 289.069 162.46C289.239 162.44 289.409 162.43 289.579 162.42C289.629 162.41 289.669 162.41 289.719 162.41H289.779C289.789 162.4 289.809 162.4 289.819 162.4H289.899C289.999 162.39 290.099 162.38 290.199 162.39C290.209 162.38 290.219 162.38 290.239 162.39C290.249 162.38 290.259 162.37 290.279 162.38C290.369 162.38 290.459 162.37 290.549 162.37C290.659 162.36 290.779 162.36 290.899 162.36H291.039C291.059 162.36 291.079 162.36 291.099 162.37C291.279 162.36 291.459 162.37 291.639 162.39H291.649C293.369 162.51 295.089 163.08 296.739 164.1H296.749C297.359 164.48 297.959 164.91 298.549 165.42C299.949 166.59 301.269 168.12 302.469 169.98C302.469 169.98 302.479 169.99 302.479 170.01C305.559 174.8 307.829 181.82 308.469 190.98C308.599 192.74 308.669 194.59 308.669 196.51C308.669 204.94 307.169 212.72 304.449 218.41C303.959 219.43 303.379 220.49 302.679 221.53C301.609 223.14 300.279 224.67 298.649 225.85C296.989 227.06 294.999 227.9 292.659 228.02C292.509 228.04 292.359 228.05 292.209 228.05C292.159 228.06 292.119 228.06 292.069 228.06C292.039 228.06 292.009 228.07 291.979 228.07C291.979 228.07 291.969 228.07 291.959 228.07H291.799C291.659 228.07 291.519 228.07 291.379 228.06C291.299 228.05 291.219 228.05 291.139 228.04C291.139 228.04 291.129 228.04 291.119 228.04C291.099 228.04 291.079 228.04 291.069 228.03C291.059 228.03 291.059 228.03 291.049 228.03H290.959C290.949 228.03 290.929 228.03 290.919 228.02C290.869 228.02 290.819 228.02 290.759 228.01H290.689C290.639 228 290.579 227.99 290.529 227.98C290.469 227.97 290.409 227.96 290.349 227.95C290.259 227.94 290.179 227.93 290.099 227.91C290.009 227.91 289.919 227.89 289.829 227.86C289.339 227.78 288.839 227.65 288.349 227.48C288.159 227.42 287.979 227.35 287.789 227.27C286.309 226.71 284.859 225.83 283.469 224.65C283.469 224.65 283.459 224.65 283.449 224.63C281.729 223.19 280.119 221.29 278.679 218.97C274.839 212.81 272.229 203.72 272.229 192.27C272.229 191.61 272.239 190.96 272.259 190.32C271.929 190.24 271.599 190.17 271.269 190.09C271.239 190.81 271.229 191.54 271.229 192.27C271.229 201.44 273.219 210.77 276.859 217.74C277.889 219.72 279.049 221.51 280.349 223.05C282.919 226.12 285.999 228.21 289.509 228.86C289.569 228.87 289.629 228.88 289.699 228.89C289.789 228.9 289.879 228.91 289.969 228.93C290.009 228.94 290.049 228.94 290.089 228.95H290.119C290.159 228.95 290.189 228.95 290.219 228.96C290.289 228.97 290.369 228.98 290.439 228.99C290.519 229 290.599 229.01 290.669 229.02H290.739C290.839 229.03 290.949 229.04 291.049 229.05C291.159 229.05 291.269 229.06 291.389 229.06H291.539C291.599 229.06 291.659 229.07 291.719 229.07H291.919C291.919 229.07 291.929 229.07 291.939 229.07C291.939 229.07 291.939 229.07 291.949 229.07H292.129C292.139 229.07 292.149 229.06 292.149 229.06C292.159 229.06 292.179 229.07 292.189 229.07C292.199 229.07 292.209 229.06 292.219 229.06H292.389C295.329 228.94 297.999 227.84 300.329 225.8C300.339 225.8 300.349 225.8 300.349 225.78C301.709 224.58 302.939 223.06 304.059 221.24C304.069 221.23 304.079 221.22 304.079 221.2C304.519 220.46 304.949 219.68 305.349 218.84C308.129 213.02 309.669 205.09 309.669 196.51C309.669 194.53 309.589 192.55 309.419 190.59Z" fill="#263238"/>
<path d="M311.03 189.78C310.27 182.44 308.25 175.49 305.04 170.3C305.02 170.27 305.01 170.25 304.99 170.23C303.32 167.54 301.31 165.32 298.98 163.77C296.81 162.34 294.37 161.49 291.65 161.37H291.44C291.34 161.36 291.25 161.36 291.15 161.36H290.98C290.91 161.36 290.84 161.36 290.78 161.37C290.67 161.36 290.57 161.37 290.47 161.38C290.38 161.37 290.29 161.37 290.2 161.39C290.07 161.38 289.95 161.39 289.82 161.4H289.75C289.66 161.4 289.56 161.41 289.47 161.42C289.25 161.44 289.03 161.46 288.81 161.49C288.79 161.49 288.76 161.5 288.74 161.5C288.72 161.5 288.69 161.5 288.67 161.51C287.77 161.61 286.9 161.77 286.05 162C286.11 162.01 286.17 162.02 286.23 162.04C286.31 162.05 286.39 162.07 286.46 162.09C286.57 162.11 286.67 162.13 286.77 162.15C287.35 162.28 287.92 162.4 288.47 162.52C288.48 162.52 288.49 162.53 288.5 162.53C288.67 162.51 288.85 162.48 289.02 162.46H289.07C289.24 162.44 289.41 162.43 289.58 162.42C289.63 162.41 289.67 162.41 289.72 162.41C289.75 162.4 289.79 162.4 289.82 162.4H289.9C290 162.39 290.1 162.38 290.2 162.39C290.21 162.38 290.22 162.38 290.24 162.39C290.25 162.38 290.26 162.37 290.28 162.38C290.37 162.38 290.46 162.37 290.55 162.37C290.66 162.36 290.78 162.36 290.9 162.36H291.15C291.31 162.36 291.46 162.36 291.62 162.37C293.54 162.45 295.32 162.93 296.95 163.76C297.21 163.88 297.47 164.02 297.72 164.17C298.06 164.36 298.39 164.57 298.71 164.8C300.55 166.07 302.17 167.79 303.58 169.86C307.14 175.07 309.32 182.47 310.08 190.28C310.28 192.34 310.38 194.42 310.38 196.51C310.38 204.94 308.75 212.71 305.79 218.39C305.31 219.31 304.75 220.27 304.08 221.2C304.08 221.22 304.07 221.23 304.06 221.24C302.81 223.03 301.21 224.75 299.21 226.01C298.67 226.36 298.09 226.67 297.49 226.94C296.25 227.49 294.87 227.87 293.37 228.01C293.15 228.04 292.93 228.05 292.71 228.05C292.56 228.07 292.4 228.07 292.24 228.07H291.98C291.98 228.07 291.97 228.07 291.96 228.07C291.94 228.07 291.92 228.06 291.9 228.06L291.89 228.07L291.88 228.06C291.64 228.06 291.41 228.05 291.17 228.03C291.16 228.04 291.15 228.04 291.14 228.04C291.14 228.04 291.13 228.04 291.12 228.04C291.1 228.04 291.08 228.04 291.07 228.03C291.06 228.03 291.06 228.03 291.05 228.03H291.02C290.98 228.02 290.95 228.02 290.92 228.02C290.9 228.02 290.88 228.02 290.87 228.01C290.84 228 290.81 228 290.78 228C290.75 228 290.71 227.99 290.68 227.99C290.63 227.99 290.58 227.98 290.53 227.98C290.47 227.97 290.41 227.96 290.35 227.95C290.26 227.94 290.18 227.93 290.1 227.91C290.01 227.91 289.92 227.89 289.83 227.86C289.76 227.86 289.69 227.85 289.62 227.83C289.5 227.81 289.38 227.79 289.25 227.76C289.23 227.76 289.2 227.76 289.17 227.74C287.6 227.38 286.06 226.74 284.56 225.82C283.63 225.26 282.73 224.58 281.85 223.8C280.03 222.21 278.33 220.18 276.86 217.74C273.09 211.63 270.6 202.98 270.6 192.27C270.6 191.49 270.62 190.72 270.65 189.95C270.32 189.87 269.99 189.8 269.66 189.72C269.62 190.56 269.6 191.41 269.6 192.27C269.6 200.96 271.54 209.79 275.12 216.63C278.36 222.87 282.99 227.43 288.73 228.72C288.93 228.77 289.14 228.81 289.35 228.84C289.39 228.84 289.43 228.85 289.48 228.86H289.51C289.57 228.87 289.63 228.88 289.7 228.89C289.79 228.9 289.88 228.91 289.97 228.93C290.01 228.94 290.05 228.94 290.09 228.95H290.12C290.16 228.95 290.19 228.95 290.22 228.96C290.29 228.97 290.37 228.98 290.44 228.99H290.51C290.59 229 290.66 229.01 290.74 229.02C290.95 229.03 291.17 229.05 291.39 229.06H291.54C291.6 229.06 291.66 229.07 291.72 229.07H291.92C291.92 229.07 291.93 229.07 291.94 229.07C291.94 229.07 291.94 229.07 291.95 229.07H292.24C292.29 229.07 292.34 229.07 292.39 229.06H292.61C297.77 228.87 302.16 226.09 305.44 220.98C305.87 220.31 306.28 219.61 306.67 218.86C309.71 213.03 311.38 205.1 311.38 196.51C311.38 194.26 311.26 192 311.03 189.78Z" fill="#263238"/>
<path d="M312.579 188.85C311.169 177.84 306.699 167.84 299.339 163.56C297.049 162.23 294.489 161.45 291.649 161.37H291.439C291.339 161.36 291.249 161.36 291.149 161.36H290.979C290.909 161.36 290.839 161.36 290.779 161.37C290.669 161.36 290.569 161.37 290.469 161.38C290.379 161.37 290.289 161.37 290.199 161.39C290.069 161.38 289.949 161.39 289.819 161.4H289.749C289.739 161.4 289.719 161.4 289.699 161.41C289.629 161.41 289.549 161.41 289.469 161.42C289.249 161.44 289.029 161.46 288.809 161.49C288.789 161.49 288.759 161.5 288.739 161.5C288.719 161.5 288.689 161.5 288.669 161.51C287.719 161.61 286.809 161.75 285.909 161.96C285.959 161.97 286.009 161.98 286.049 162C286.109 162.01 286.169 162.02 286.229 162.04C286.309 162.05 286.389 162.07 286.459 162.09C286.569 162.11 286.669 162.13 286.769 162.15C287.349 162.28 287.919 162.4 288.469 162.52C288.659 162.5 288.839 162.48 289.019 162.46H289.069C289.239 162.44 289.409 162.43 289.579 162.42C289.629 162.41 289.669 162.41 289.719 162.41H289.779C289.789 162.4 289.809 162.4 289.819 162.4H289.899C289.999 162.39 290.099 162.38 290.199 162.39C290.209 162.38 290.219 162.38 290.239 162.39C290.339 162.38 290.439 162.37 290.549 162.37C290.659 162.36 290.779 162.36 290.899 162.36H291.149C291.309 162.36 291.459 162.36 291.619 162.37C293.289 162.41 294.849 162.72 296.319 163.25C296.719 163.39 297.119 163.55 297.509 163.74C297.759 163.85 298.009 163.97 298.259 164.1C298.269 164.1 298.269 164.1 298.269 164.1C298.749 164.36 299.219 164.63 299.669 164.94C301.689 166.27 303.459 168.07 304.989 170.23C305.009 170.25 305.019 170.27 305.039 170.3C308.559 175.29 310.779 182.14 311.649 189.42C311.929 191.75 312.069 194.13 312.069 196.51C312.069 204.93 310.309 212.7 307.119 218.38C306.599 219.31 306.039 220.18 305.439 220.98C303.939 223.02 302.239 224.63 300.349 225.78C300.349 225.8 300.339 225.8 300.329 225.8C299.619 226.24 298.889 226.62 298.129 226.92C297.739 227.09 297.339 227.24 296.929 227.36C295.789 227.72 294.609 227.95 293.369 228.01C293.149 228.04 292.929 228.05 292.709 228.05C292.559 228.07 292.399 228.07 292.239 228.07H292.149C292.119 228.07 292.099 228.07 292.069 228.06C292.039 228.06 292.009 228.07 291.979 228.07C291.979 228.07 291.969 228.07 291.959 228.07C291.939 228.07 291.919 228.06 291.899 228.06L291.889 228.07L291.879 228.06C291.639 228.06 291.409 228.05 291.169 228.03C291.069 228.02 290.969 228.02 290.869 228.01C290.839 228 290.809 228 290.779 228C290.709 227.99 290.639 227.97 290.569 227.96C290.489 227.96 290.419 227.96 290.349 227.95C290.259 227.94 290.179 227.93 290.099 227.91C290.009 227.9 289.919 227.89 289.829 227.86C289.759 227.86 289.689 227.85 289.619 227.83C289.499 227.81 289.379 227.79 289.249 227.76C289.229 227.76 289.199 227.76 289.169 227.74C287.789 227.46 286.419 226.98 285.079 226.31C284.429 225.99 283.779 225.62 283.139 225.2C282.179 224.59 281.249 223.87 280.349 223.05C278.429 221.33 276.659 219.18 275.119 216.63C271.459 210.6 269.069 202.34 269.069 192.27C269.069 191.37 269.089 190.47 269.139 189.59C268.799 189.51 268.479 189.43 268.149 189.35C268.099 190.31 268.069 191.29 268.069 192.27C268.069 208.91 275.719 226.07 288.729 228.72C288.929 228.77 289.139 228.81 289.349 228.84C289.389 228.84 289.429 228.85 289.479 228.86H289.509C289.569 228.87 289.629 228.88 289.699 228.89C289.789 228.9 289.879 228.91 289.969 228.93H290.009C290.039 228.94 290.069 228.94 290.089 228.95H290.119C290.159 228.95 290.189 228.95 290.219 228.96C290.319 228.97 290.409 228.98 290.509 228.99C290.849 229.02 291.189 229.04 291.539 229.06C291.659 229.06 291.789 229.06 291.919 229.07C291.919 229.07 291.929 229.07 291.939 229.07C291.939 229.07 291.939 229.07 291.949 229.07H292.239C292.359 229.07 292.489 229.07 292.609 229.06C298.999 228.94 304.309 225.41 307.989 218.87C311.269 213.04 313.069 205.1 313.069 196.51C313.069 193.94 312.909 191.37 312.579 188.85Z" fill="#263238"/>
<path d="M301.01 156.86C295.5 157.08 290.61 158.26 286.39 160.4C286.36 160.41 286.33 160.42 286.31 160.43C285.6 160.79 284.91 161.18 284.24 161.6C284.17 161.58 284.09 161.56 284.01 161.55C283.65 161.47 283.29 161.39 282.93 161.31C287.41 158.33 293.29 156.17 300.97 155.86L301.01 156.86Z" fill="#263238"/>
<path d="M297.1 158.91C292.54 159.24 288.73 160.33 285.56 161.89C285.13 161.79 284.69 161.7 284.24 161.6C284.17 161.58 284.09 161.56 284.01 161.55C284.74 161.15 285.51 160.78 286.31 160.43C286.33 160.42 286.36 160.41 286.39 160.4C289.4 159.11 292.92 158.21 297.03 157.91L297.1 158.91Z" fill="#263238"/>
<path d="M296.489 155.74C290.749 156.71 286.239 158.74 282.709 161.26C282.269 161.17 281.839 161.07 281.399 160.98C285.149 158.14 290.019 155.83 296.329 154.76L296.489 155.74Z" fill="#263238"/>
<path d="M232.211 143.391C229.907 145.749 231.52 148.758 231.52 148.758C231.52 148.758 228.945 149.306 227.54 151.408C225.931 153.816 229.001 157.395 229.001 157.395C229.001 157.395 226.51 158.489 225.249 160.86C223.941 163.32 226.524 167.373 226.524 167.373C226.524 167.373 224.764 169.667 225.144 172.497C225.793 177.336 232.586 180.412 236.884 182.411C241.182 184.41 255.246 186.055 257.894 186.64L270.963 159.164C270.963 159.164 254.239 144.715 248.852 143.083C244.313 141.707 234.797 140.743 232.211 143.391Z" fill="#EB9481"/>
<path d="M231.918 148.406C237.094 148.711 241.898 150.53 246.797 152.073C246.906 152.107 246.851 152.278 246.742 152.242C241.888 150.651 236.781 150.044 231.874 148.649C231.739 148.61 231.779 148.397 231.918 148.406Z" fill="#263238"/>
<path d="M229.26 157.077C230.429 157.181 231.56 157.671 232.651 158.075C233.826 158.511 234.992 158.967 236.152 159.441C238.474 160.39 240.774 161.392 243.043 162.461C243.143 162.508 243.096 162.674 242.988 162.63C240.672 161.688 238.343 160.781 235.99 159.938C234.813 159.516 233.631 159.104 232.447 158.7C231.346 158.324 230.153 158.019 229.155 157.404C229.008 157.313 229.084 157.061 229.26 157.077Z" fill="#263238"/>
<path d="M226.623 167.409C227.642 167.459 228.704 168.07 229.628 168.471C230.677 168.925 231.728 169.374 232.782 169.817C234.889 170.702 236.997 171.586 239.134 172.398C239.24 172.438 239.187 172.607 239.079 172.567C236.904 171.754 234.718 170.97 232.55 170.138C231.485 169.729 230.423 169.315 229.363 168.894C228.462 168.537 227.294 168.192 226.576 167.514C226.534 167.475 226.572 167.407 226.623 167.409Z" fill="#263238"/>
<path d="M280.245 160.635C275.34 159.159 270.366 158.529 270.309 158.469C267.522 155.525 264.324 152.91 261.092 150.474C257.858 148.037 254.464 145.934 250.907 144.01C250.817 143.962 250.748 144.092 250.831 144.147C254.2 146.364 257.483 148.772 260.675 151.238C263.845 153.687 266.805 156.352 269.824 158.979C269.935 159.076 277.959 160.262 280.202 160.811C280.29 160.832 280.335 160.662 280.245 160.635Z" fill="#263238"/>
<path d="M309.18 152.388L331.209 166.943C331.209 166.943 337.988 151.349 339.863 139.923C341.738 128.497 338.931 125.099 326.8 135.506C314.669 145.912 309.18 152.388 309.18 152.388Z" fill="#FFC727"/>
<path d="M306.65 154.36L310.521 149.417L333.174 165.391L329.962 170.751L306.65 154.36Z" fill="#FFC727"/>
<path opacity="0.1" d="M306.65 154.36L310.521 149.417L333.174 165.391L329.962 170.751L306.65 154.36Z" fill="black"/>
<path d="M339.39 148.824C339.428 148.73 339.307 148.655 339.255 148.746C337.803 151.296 336.512 153.941 335.365 156.655C334.804 157.982 334.261 159.315 333.743 160.661C333.221 162.018 332.791 163.409 332.281 164.77C332.254 164.843 332.375 164.894 332.405 164.821C332.946 163.494 333.587 162.214 334.166 160.904C334.62 159.876 335.076 158.85 335.533 157.823C336.522 156.575 337.469 155.217 338.05 153.713C338.068 153.667 338.012 153.634 337.985 153.676C337.526 154.384 337.119 155.129 336.667 155.843C336.404 156.257 336.137 156.668 335.865 157.075C335.895 157.007 335.925 156.939 335.956 156.871C337.148 154.212 338.301 151.532 339.39 148.824Z" fill="#263238"/>
<path d="M204.778 410.559H98.4639V453.681H204.778V410.559Z" fill="#FFC727"/>
<path d="M209.465 398.87H93.7783V410.559H209.465V398.87Z" fill="#FFC727"/>
<path opacity="0.1" d="M204.78 410.565H98.46V418.8H204.78V410.565Z" fill="black"/>
<path d="M163.979 406.107H140.737V415.022H163.979V406.107Z" fill="#263238"/>
<path d="M172.339 398.87H166.833V391.889H136.409V398.87H130.902V386.382H172.339V398.87Z" fill="#263238"/>
</g>
<defs>
<clipPath id="clip0_280_4021">
<rect width="500" height="500" fill="white"/>
</clipPath>
</defs>
</svg>
