<svg width="2479" height="1978" viewBox="0 0 2479 1978" fill="none" xmlns="http://www.w3.org/2000/svg">
<path d="M2318.29 746.85C2141.61 100.935 1318.65 -26.1633 636.375 308.384C-45.8968 642.931 -59.4778 1915.86 1087.75 1953.72C2234.97 1991.58 2434.74 1172.55 2318.29 746.85Z" fill="#E5F4FB"/>
<path d="M707.697 1977.82C579.976 1977.82 461.454 1936.87 350.839 1814.11C297.169 1754.54 262.347 1692.41 244.377 1624.16C228.334 1563.22 226.192 1498.72 237.83 1426.95C259.421 1293.81 324.042 1160 392.457 1018.33C416.251 969.052 440.858 918.099 463.187 867.715C503.975 775.683 533.735 674.028 562.517 575.721C638.083 317.61 709.458 73.8137 964.77 17.6267C1267.34 -48.9683 1377.46 82.8757 1516.88 249.79C1590.29 337.684 1673.5 437.304 1798.05 524.98C2046.79 700.067 2200.22 852.614 2280.92 1005.06C2379.54 1191.36 2370.63 1380.72 2253.67 1583.94C2189.31 1695.77 2106.29 1763.44 1992.42 1796.92C1891.08 1826.71 1777.85 1825.71 1657.99 1824.67C1539.55 1823.63 1417.09 1822.57 1293.83 1850.64C1223.34 1866.7 1155.37 1885.74 1089.64 1904.16C953.723 1942.23 826.713 1977.82 707.697 1977.82ZM965.475 20.8337L966.181 24.0427C714.67 79.3947 643.826 321.376 568.824 577.566C539.983 676.079 510.159 777.947 469.194 870.377C446.821 920.859 422.193 971.86 398.374 1021.18C263.228 1301.04 135.58 1565.38 355.72 1809.71C566.683 2043.84 808.204 1976.18 1087.86 1897.83C1153.67 1879.39 1221.72 1860.32 1292.37 1844.23C1416.37 1815.98 1539.24 1817.05 1658.05 1818.09C1900.04 1820.21 2109.05 1822.03 2247.97 1580.65C2363.72 1379.55 2372.59 1192.27 2275.11 1008.13C2194.91 856.636 2042.12 704.819 1794.27 530.351C1669.01 442.176 1585.5 342.203 1511.83 253.999C1373.84 88.7977 1264.86 -41.6943 966.181 24.0407L965.475 20.8337Z" fill="#B8DBF2"/>
<path d="M1108.99 547.895C1281.58 464.852 1423.26 333.479 1564.1 409.816C1704.93 486.153 1584.33 718.77 1715.61 822.503C1846.9 926.236 2127.27 1104.8 1982.35 1413.02C1837.43 1721.23 1411.52 1540.99 1293.43 1472.59C1175.33 1404.18 1072.98 1795.98 745.392 1673.43C417.803 1550.87 655.015 1263.09 654.712 1149.08C654.408 1035.07 441.917 847.941 587.48 722.515C733.043 597.089 863.275 666.124 1108.99 547.895Z" fill="#F2FBFF"/>
<path d="M2064.17 831.99C2021.91 599.85 2081.69 440.135 2151.43 491.764C2221.17 543.393 2075.62 862.153 2075.62 862.153L2064.17 831.99Z" fill="#53C177"/>
<path d="M2064.17 1021.48C2098.3 696.159 2295.1 469.909 2423.75 567.747C2552.41 665.585 1926.36 1372.22 1926.36 1372.22L2064.17 1021.48Z" fill="#94D49E"/>
<path d="M1796.64 1474.22C2138.15 1466.63 2486.85 1283.97 2463.61 1157.78C2440.36 1031.58 1906.59 1292.13 1883.07 1343.75C1859.54 1395.38 1796.64 1474.22 1796.64 1474.22Z" fill="#94D49E"/>
<path d="M2048.23 1109.56C2047.53 1109.56 2046.82 1109.4 2046.15 1109.06C2043.87 1107.9 2042.97 1105.13 2044.13 1102.86C2045.8 1099.57 2212.77 772.526 2326.31 652.461C2328.06 650.608 2330.98 650.53 2332.83 652.279C2334.68 654.03 2334.76 656.948 2333.01 658.8C2220.39 777.897 2054.01 1103.76 2052.35 1107.04C2051.53 1108.64 2049.91 1109.56 2048.23 1109.56Z" fill="#E6FFE9"/>
<path d="M2219.34 809.228C2217.65 809.228 2216.02 808.29 2215.21 806.668C2214.08 804.387 2215.01 801.619 2217.29 800.483C2220.48 798.896 2295.91 761.57 2339.44 763.418C2341.99 763.522 2343.97 765.67 2343.86 768.215C2343.76 770.759 2341.59 772.713 2339.07 772.634C2297.93 770.966 2222.15 808.364 2221.39 808.744C2220.73 809.072 2220.03 809.228 2219.34 809.228Z" fill="#E6FFE9"/>
<path d="M1818.68 1406.19C1816.96 1406.19 1815.3 1405.22 1814.51 1403.55C1813.42 1401.25 1814.4 1398.5 1816.7 1397.41C1820.59 1395.57 2206.85 1213.22 2357.87 1194.16C2360.39 1193.85 2362.7 1195.63 2363.02 1198.16C2363.34 1200.69 2361.55 1202.99 2359.02 1203.31C2209.46 1222.19 1824.52 1403.91 1820.66 1405.74C1820.02 1406.04 1819.34 1406.19 1818.68 1406.19Z" fill="#E6FFE9"/>
<path d="M2303.09 1281.06C2302.33 1281.06 2301.57 1280.87 2300.86 1280.48C2269.42 1263.12 2193.9 1248.79 2193.14 1248.65C2190.64 1248.18 2188.99 1245.76 2189.46 1243.26C2189.93 1240.76 2192.34 1239.11 2194.85 1239.58C2198.01 1240.17 2272.58 1254.33 2305.32 1272.41C2307.55 1273.64 2308.36 1276.45 2307.13 1278.68C2306.29 1280.2 2304.72 1281.06 2303.09 1281.06Z" fill="#E6FFE9"/>
<path d="M2239.62 1322.35C2238.99 1322.35 2238.35 1322.23 2237.74 1321.95C2193.47 1302.17 2116.19 1277.56 2115.42 1277.31C2112.99 1276.54 2111.65 1273.95 2112.42 1271.52C2113.19 1269.1 2115.78 1267.75 2118.21 1268.52C2118.99 1268.77 2196.77 1293.54 2241.51 1313.53C2243.83 1314.57 2244.87 1317.3 2243.83 1319.62C2243.07 1321.34 2241.39 1322.35 2239.62 1322.35Z" fill="#E6FFE9"/>
<path d="M2064.17 875.677C2061.72 875.677 2059.68 873.749 2059.57 871.278C2054.62 764.065 2111.78 545.77 2112.36 543.578C2113 541.114 2115.52 539.638 2117.99 540.293C2120.45 540.943 2121.92 543.466 2121.27 545.929C2120.7 548.108 2063.9 765.046 2068.78 870.851C2068.9 873.396 2066.93 875.555 2064.39 875.672C2064.32 875.675 2064.24 875.677 2064.17 875.677Z" fill="#E6FFE9"/>
<path d="M415.191 1164.27C249.563 948.622 154.865 817.73 62.3054 879.03C-30.2546 940.33 319.326 1422.7 475.998 1356.77C632.671 1290.83 415.191 1164.27 415.191 1164.27Z" fill="#94D49E"/>
<path d="M557.238 1493.7C452.847 1465.29 388.077 1605.18 299.952 1574.32C211.827 1543.45 240.479 1408.21 525.774 1428.09C811.069 1447.97 557.238 1493.7 557.238 1493.7Z" fill="#94D49E"/>
<path d="M551.62 857.441C594.617 746.731 565.651 603.809 491.94 635.824C418.229 667.839 449.226 872.918 449.226 872.918C449.226 872.918 414.24 433.09 284.996 494.206C155.752 555.322 303.362 1190.87 470.907 1195C638.45 1199.13 551.62 857.441 551.62 857.441Z" fill="#53C177"/>
<path d="M513.599 1038.95C513.355 1038.99 513.102 1039 512.846 1038.98C510.989 1038.84 509.594 1037.23 509.729 1035.37C509.923 1032.71 528.86 768.49 503.981 678.347C503.486 676.552 504.539 674.696 506.333 674.2C508.13 673.697 509.984 674.758 510.48 676.552C535.669 767.819 517.25 1024.96 516.454 1035.86C516.337 1037.46 515.121 1038.72 513.599 1038.95Z" fill="#FFD194"/>
<path d="M313.905 1524.07C312.874 1524.23 311.786 1523.9 310.998 1523.1C309.69 1521.78 309.706 1519.64 311.031 1518.34C359.477 1470.57 419.937 1456.49 462.138 1453.1C507.761 1449.43 541.46 1456.9 542.872 1457.22C544.687 1457.63 545.826 1459.43 545.415 1461.25C545.005 1463.07 543.193 1464.2 541.385 1463.79C540.039 1463.49 405.729 1434.44 315.765 1523.14C315.238 1523.66 314.585 1523.97 313.905 1524.07Z" fill="#E6FFE9"/>
<path d="M472.208 1165.52C470.422 1165.79 468.729 1164.6 468.393 1162.81C467.682 1159.03 396.415 782.636 313.55 565.745C312.886 564.007 313.756 562.058 315.496 561.393C317.228 560.724 319.183 561.599 319.848 563.339C402.931 780.797 474.308 1157.78 475.02 1161.56C475.364 1163.39 474.16 1165.15 472.33 1165.5C472.289 1165.51 472.249 1165.51 472.208 1165.52Z" fill="#E6FFE9"/>
<path d="M496.995 1329.48C495.884 1329.64 494.714 1329.25 493.929 1328.34C491.298 1325.27 229.483 1020.35 111.934 926.211C110.481 925.047 110.247 922.926 111.41 921.473C112.577 920.021 114.698 919.786 116.148 920.949C234.187 1015.48 496.412 1320.88 499.047 1323.95C500.258 1325.36 500.095 1327.49 498.681 1328.7C498.185 1329.13 497.599 1329.39 496.995 1329.48Z" fill="#E6FFE9"/>
<path d="M370.953 733.093C370.159 733.213 369.319 733.051 368.595 732.574L283.924 676.764C282.37 675.74 281.941 673.649 282.965 672.095C283.986 670.541 286.079 670.11 287.634 671.136L372.305 726.946C373.859 727.97 374.288 730.061 373.264 731.615C372.718 732.446 371.866 732.955 370.953 733.093Z" fill="#E6FFE9"/>
<path d="M389.655 801.222C388.861 801.342 388.021 801.18 387.297 800.703L293.292 738.741C291.738 737.717 291.308 735.626 292.333 734.072C293.355 732.518 295.447 732.088 297.002 733.113L391.007 795.076C392.561 796.1 392.991 798.191 391.966 799.745C391.419 800.575 390.567 801.085 389.655 801.222Z" fill="#E6FFE9"/>
<path d="M406.002 864.991C405.229 865.108 404.413 864.958 403.702 864.51L302.732 800.856C301.157 799.863 300.685 797.782 301.677 796.207C302.671 794.632 304.754 794.16 306.326 795.152L407.296 858.806C408.871 859.799 409.343 861.88 408.351 863.455C407.807 864.318 406.936 864.85 406.002 864.991Z" fill="#E6FFE9"/>
<path d="M221.237 1026.68L142.072 1038.65C140.231 1038.92 138.513 1037.66 138.235 1035.82C137.957 1033.98 139.223 1032.26 141.064 1031.98L220.229 1020.01C222.07 1019.74 223.788 1021 224.066 1022.84C224.344 1024.68 223.078 1026.4 221.237 1026.68Z" fill="#E6FFE9"/>
<path d="M280.976 1088.84L192.173 1102.26C190.332 1102.54 188.614 1101.27 188.336 1099.43C188.058 1097.59 189.324 1095.87 191.165 1095.59L279.968 1082.17C281.809 1081.89 283.527 1083.16 283.805 1085C284.083 1086.84 282.817 1088.56 280.976 1088.84Z" fill="#E6FFE9"/>
<path d="M1291.49 1626.03C1487.3 1563.43 1607.44 1613.96 1569 1667.17C1530.57 1720.38 1277.05 1671.88 1218.89 1703.62C1160.74 1735.36 1291.49 1626.03 1291.49 1626.03Z" fill="#94D49E"/>
<path d="M1321.09 1591.88C1381.38 1516.36 1465.43 1528.82 1462.43 1554.56C1459.44 1580.3 1298.32 1618.58 1298.32 1618.58L1321.09 1591.88Z" fill="#53C177"/>
<path d="M1205.28 1660.75C1205.67 1660.81 1206.08 1660.8 1206.5 1660.71C1208.55 1660.26 1413.67 1616.14 1527.1 1646.49C1528.9 1646.96 1530.75 1645.9 1531.23 1644.1C1531.71 1642.3 1530.64 1640.45 1528.85 1639.97C1413.82 1609.22 1207.13 1653.67 1205.06 1654.12C1203.24 1654.52 1202.09 1656.32 1202.48 1658.14C1202.79 1659.54 1203.94 1660.55 1205.28 1660.75Z" fill="#E6FFE9"/>
<path d="M1366.84 1462.38H1157.71V1721.59H1366.84V1462.38Z" fill="#003545"/>
<path d="M2013.6 1507H511.553C476.895 1507 448.799 1478.91 448.799 1444.25V534.158C448.799 499.5 476.895 471.404 511.553 471.404H2013.6C2048.26 471.404 2076.36 499.5 2076.36 534.158V1444.25C2076.36 1478.91 2048.26 1507 2013.6 1507Z" fill="#054659"/>
<path d="M2007.38 1441.33H517.775C503.53 1441.33 491.983 1429.79 491.983 1415.54V541.816C491.983 527.571 503.531 516.024 517.775 516.024H2007.38C2021.62 516.024 2033.17 527.572 2033.17 541.816V1415.54C2033.17 1429.79 2021.62 1441.33 2007.38 1441.33Z" fill="white"/>
<path d="M1709.41 1743.2H815.135C815.135 1706.94 844.535 1677.54 880.802 1677.54H1643.74C1680.01 1677.54 1709.41 1706.94 1709.41 1743.2Z" fill="#054659"/>
<path d="M1989.73 558.538H535.423V1398.82H1989.73V558.538Z" fill="#E5F4FB"/>
<path d="M1989.73 558.538H535.423V699.24H1989.73V558.538Z" fill="#81CAEB"/>
<path d="M1912.36 616.152H612.799V641.624H1912.36V616.152Z" fill="white"/>
<path d="M1953.16 855.432H1779.47V873.662H1953.16V855.432Z" fill="#F2FBFF"/>
<path d="M1953.16 893.277H1779.47V911.507H1953.16V893.277Z" fill="#F2FBFF"/>
<path d="M1871.78 931.122H1779.47V949.352H1871.78V931.122Z" fill="#F2FBFF"/>
<path d="M1742.19 829.327H1596.06V975.458H1742.19V829.327Z" fill="#F2FBFF"/>
<path d="M1953.16 1104.7H1779.47V1122.93H1953.16V1104.7Z" fill="#F2FBFF"/>
<path d="M1953.16 1142.54H1779.47V1160.77H1953.16V1142.54Z" fill="#F2FBFF"/>
<path d="M1871.78 1180.39H1779.47V1198.62H1871.78V1180.39Z" fill="#F2FBFF"/>
<path d="M1742.19 1078.59H1596.06V1224.72H1742.19V1078.59Z" fill="#F2FBFF"/>
<path d="M929.092 855.432H755.397V873.662H929.092V855.432Z" fill="#F2FBFF"/>
<path d="M929.092 893.277H755.397V911.507H929.092V893.277Z" fill="#F2FBFF"/>
<path d="M847.713 931.122H755.397V949.352H847.713V931.122Z" fill="#F2FBFF"/>
<path d="M718.125 829.327H571.994V975.458H718.125V829.327Z" fill="#F2FBFF"/>
<path d="M929.092 1104.7H755.397V1122.93H929.092V1104.7Z" fill="#F2FBFF"/>
<path d="M929.092 1142.54H755.397V1160.77H929.092V1142.54Z" fill="#F2FBFF"/>
<path d="M847.713 1180.39H755.397V1198.62H847.713V1180.39Z" fill="#F2FBFF"/>
<path d="M718.125 1078.59H571.994V1224.72H718.125V1078.59Z" fill="#F2FBFF"/>
<path d="M105.202 1168.13C115.767 1199.53 100.053 1217.34 100.053 1217.34L209.381 1353.95C209.381 1353.95 253.294 1343.9 268.779 1374.49C279.562 1395.76 276.568 1414.59 273.752 1424.08C273.068 1426.4 269.88 1426.57 268.927 1424.36C264.762 1414.82 254.921 1396.93 237.117 1389.5C217.768 1381.42 194.024 1403.07 199.273 1426.01C202.665 1440.83 218.678 1451.33 227.533 1456.11C229.664 1457.26 229.219 1460.38 226.872 1460.89C215.485 1463.4 192.052 1465.1 177.947 1442.4C158.8 1411.59 177.155 1383.87 177.155 1383.87L140.162 1336.12L67.9998 1243.04C67.9998 1243.04 51.5378 1255.86 26.5058 1240.29C14.6298 1232.91 7.99682 1221.74 4.33682 1210.92C1.57882 1202.89 0.452817 1195.07 0.00781694 1189.12C-0.186183 1186.46 3.28182 1185.4 4.73682 1187.63C19.6478 1210.37 45.2758 1215.38 64.7978 1189.89C80.6198 1169.23 61.9878 1149.45 50.5338 1140.15C48.4858 1138.49 49.9208 1135.21 52.5278 1135.6C68.0358 1137.94 97.5118 1145.31 105.202 1168.13Z" fill="#ABDEF0"/>
<path d="M196.098 1372.4C195.907 1372.86 195.597 1373.28 195.177 1373.6C193.891 1374.59 192.047 1374.34 191.061 1373.06L80.5461 1229.11C79.5601 1227.83 79.8011 1225.98 81.0871 1224.99C82.3731 1224.01 84.2171 1224.25 85.2031 1225.53L195.718 1369.48C196.382 1370.35 196.49 1371.47 196.098 1372.4Z" fill="#89CAE0"/>
<path d="M72.8978 1207.03C77.0158 1207.29 80.1408 1210.85 79.8768 1214.97C79.6128 1219.08 76.0608 1222.21 71.9418 1221.94C67.8238 1221.68 64.6988 1218.13 64.9628 1214.01C65.2268 1209.89 68.7798 1206.77 72.8978 1207.03Z" fill="#89CAE0"/>
<path d="M201.128 1376.37C205.246 1376.64 208.371 1380.19 208.107 1384.31C207.843 1388.43 204.291 1391.55 200.172 1391.29C196.053 1391.02 192.929 1387.47 193.193 1383.35C193.457 1379.23 197.01 1376.11 201.128 1376.37Z" fill="#89CAE0"/>
<path d="M2435.58 887.323C2427.23 891.415 2416.72 894.218 2416.72 894.218C2416.72 894.218 2415.65 892.455 2413.9 890.016C2411.53 886.703 2407.89 882.12 2404 879.032C2402.84 878.11 2401.68 877.318 2400.5 876.731C2397.82 875.383 2399.22 872.191 2402.3 868.533C2408.42 861.222 2421.18 852.05 2421.18 852.05C2421.18 852.05 2422.27 854.023 2424.69 857.086C2426.92 859.94 2430.33 863.732 2435.1 867.735C2437.21 869.521 2439.6 871.341 2442.26 873.141C2449.73 878.181 2443.67 883.358 2435.58 887.323Z" fill="#89CAE0"/>
<path d="M2424.69 857.086C2420.89 861.945 2415.21 868.085 2409.72 873.537C2407.76 875.491 2405.83 877.348 2404 879.032C2398.82 883.833 2394.61 887.199 2393.56 887.043C2390.4 886.544 2376.74 875.846 2376.29 869.27C2376.12 866.643 2380.1 860.3 2385.34 853.596C2393.17 843.523 2403.8 832.625 2407.42 832.127C2413.44 831.291 2429.3 847.57 2429.19 849.42C2429.1 850.885 2427.35 853.665 2424.69 857.086Z" fill="#ABDEF0"/>
<path d="M2412.06 897.449C2408.9 906.856 2397.88 923.505 2383.7 929.645C2369.51 935.784 2401.1 953.709 2401.25 948.585C2401.39 943.461 2422.63 917.257 2430.98 914.336C2439.33 911.415 2412.06 897.449 2412.06 897.449Z" fill="#89CAE0"/>
<path d="M2466.41 972.826C2462.87 973.327 2463.47 957.208 2446.52 933.943C2436.56 920.279 2412.26 903.895 2409.55 898.95C2408.83 897.626 2410.71 894.234 2413.9 890.016C2416.09 887.133 2418.89 883.859 2421.89 880.614C2426.31 875.847 2431.15 871.129 2435.1 867.735C2439.22 864.218 2442.38 862.14 2443.1 862.929C2454.59 875.459 2462.6 887.306 2468 898.25C2490.07 942.812 2469.26 972.425 2466.41 972.826Z" fill="#ABDEF0"/>
<path d="M2377.59 920.96C2384.4 921.799 2407.52 944.436 2409.1 954.568C2410.68 964.7 2261.2 1117.25 2252.98 1118.75C2244.75 1120.24 2216.86 1098.19 2219.56 1085.38C2222.27 1072.56 2370.34 920.066 2377.59 920.96Z" fill="#7FBFD4"/>
<path d="M1794.68 1830.81C1899.79 1830.81 1985 1813.65 1985 1792.48C1985 1771.32 1899.79 1754.16 1794.68 1754.16C1689.56 1754.16 1604.36 1771.32 1604.36 1792.48C1604.36 1813.65 1689.56 1830.81 1794.68 1830.81Z" fill="#B8DBF2"/>
<path d="M716.472 1830.81C821.583 1830.81 906.792 1813.65 906.792 1792.48C906.792 1771.32 821.583 1754.16 716.472 1754.16C611.361 1754.16 526.152 1771.32 526.152 1792.48C526.152 1813.65 611.361 1830.81 716.472 1830.81Z" fill="#B8DBF2"/>
<path d="M1212.37 322.375L1206.27 319.444C1220.47 289.905 1265.46 301.221 1305.15 311.205C1321.14 315.226 1336.23 319.02 1347.36 319.585C1355.98 320.022 1363.9 316.657 1370.9 309.584C1387.24 293.056 1393.51 262.269 1393.89 256.348C1389.58 252.67 1364.59 240.749 1341.81 230.859L1344.5 224.652C1399.46 248.511 1400.22 252.611 1400.58 254.581C1401.31 258.521 1395.16 292.293 1377.99 311.886C1369.07 322.066 1358.65 326.93 1347.02 326.343C1335.23 325.746 1319.82 321.872 1303.5 317.766C1266.32 308.414 1224.17 297.808 1212.37 322.375ZM1394.32 256.765C1394.32 256.767 1394.32 256.767 1394.32 256.767V256.765Z" fill="#89CAE0"/>
<path d="M1212.08 121.904C1229.76 108.071 1387.93 190.386 1390.78 200.897C1393.64 211.408 1363.79 285.726 1347.23 289.848C1330.66 293.97 1179.49 222.17 1173.29 211.815C1167.1 201.461 1200.29 131.126 1212.08 121.904Z" fill="#ABDEF0"/>
<path d="M1187.96 305.643C1191.39 304.236 1235.71 324.559 1237.01 330.411C1238.32 336.263 1202.8 395.57 1200.65 397.001C1198.5 398.432 1167.82 387.295 1163.77 379.649C1159.72 372.003 1183.9 307.31 1187.96 305.643Z" fill="#7FBFD4"/>
<path d="M1346.24 192.007C1343.71 197.636 1313.66 189.645 1279.12 174.158C1244.57 158.671 1218.61 141.553 1221.13 135.924C1223.66 130.295 1253.71 138.286 1288.25 153.773C1322.8 169.26 1348.76 186.378 1346.24 192.007Z" fill="#333333"/>
<path d="M1801.15 374.86C1806.04 376.502 1811.47 375.183 1815.04 371.462L1815.87 370.571L1818.22 368.15L1826.97 358.965L1829.28 356.58L1838.07 347.392L1840.37 344.974L1849.13 335.823L1851.44 333.405L1860.22 324.217L1862.5 321.836L1871.29 312.648L1873.6 310.263L1882.39 301.075L1884.66 298.661L1893.48 289.469L1895.76 287.088L1904.55 277.9L1906.86 275.482L1915.64 266.327L1917.92 263.913L1926.71 254.725L1928.99 252.344L1937.77 243.156L1940.08 240.772L1948.87 231.551L1951.14 229.17L1959.96 219.978L1962.24 217.597L1971.03 208.409L1973.34 205.991L1982.12 196.803L1984.4 194.422L1993.19 185.234L1995.5 182.849L2000.96 177.123C2004.85 173.033 2005.73 166.966 2003.19 161.935C2000.69 156.999 1995.41 154.165 1989.94 154.755L1989.57 154.794C1919.95 164.133 1806.33 178.647 1790 178.805C1788.6 178.489 1787.12 178.415 1785.64 178.575C1778.35 179.361 1773.08 185.901 1773.87 193.19L1792.25 363.707C1792.8 368.853 1796.27 373.184 1801.15 374.86ZM1892.32 194.205C1914.94 191.367 1937.58 188.427 1955.67 186.042L1815.57 332.5L1801.8 204.662C1816.95 203.463 1843.63 200.287 1892.32 194.205ZM1798.97 185.882C1798.51 184.965 1797.95 184.124 1797.33 183.323C1797.94 184.091 1798.53 184.928 1798.97 185.882Z" fill="#89CAE0"/>
<path d="M1808.5 361.256C1808.8 360.957 1809.15 360.786 1809.54 360.743C1810.01 360.693 1810.49 360.841 1810.86 361.201L1818.22 368.149L1815.87 370.57L1808.55 363.619C1807.92 362.987 1807.87 361.925 1808.5 361.256Z" fill="#ABDEF0"/>
<path d="M1819.52 349.625C1819.79 349.329 1820.17 349.154 1820.53 349.115C1821.03 349.062 1821.51 349.21 1821.88 349.57L1829.28 356.58L1826.97 358.965L1819.57 351.955C1818.9 351.326 1818.89 350.293 1819.52 349.625Z" fill="#ABDEF0"/>
<path d="M1830.55 337.993C1830.82 337.697 1831.2 337.523 1831.56 337.484C1832.05 337.431 1832.54 337.579 1832.91 337.906L1840.37 344.975L1838.07 347.393L1830.6 340.324C1829.93 339.694 1829.92 338.662 1830.55 337.993Z" fill="#ABDEF0"/>
<path d="M1841.57 326.362C1841.84 326.066 1842.22 325.891 1842.58 325.852C1843.05 325.802 1843.56 325.947 1843.9 326.278L1851.44 333.406L1849.13 335.824L1841.62 328.692C1840.95 328.063 1840.94 327.03 1841.57 326.362Z" fill="#ABDEF0"/>
<path d="M1852.59 314.697C1852.86 314.402 1853.24 314.227 1853.61 314.188C1854.07 314.138 1854.55 314.286 1854.92 314.646L1862.5 321.837L1860.22 324.218L1852.65 317.06C1851.98 316.432 1851.96 315.366 1852.59 314.697Z" fill="#ABDEF0"/>
<path d="M1863.62 303.066C1863.89 302.77 1864.27 302.595 1864.63 302.556C1865.09 302.506 1865.58 302.655 1865.95 303.015L1873.6 310.265L1871.29 312.65L1863.67 305.43C1863 304.8 1862.99 303.734 1863.62 303.066Z" fill="#ABDEF0"/>
<path d="M1874.64 291.435C1874.91 291.139 1875.29 290.965 1875.65 290.925C1876.12 290.875 1876.6 291.023 1876.97 291.383L1884.66 298.662L1882.39 301.076L1874.7 293.797C1874.03 293.169 1874.01 292.103 1874.64 291.435Z" fill="#ABDEF0"/>
<path d="M1885.67 279.803C1885.93 279.507 1886.32 279.333 1886.68 279.293C1887.14 279.243 1887.62 279.391 1888 279.752L1895.76 287.089L1893.48 289.47L1885.72 282.132C1885.05 281.505 1885.04 280.471 1885.67 279.803Z" fill="#ABDEF0"/>
<path d="M1896.69 268.172C1896.96 267.876 1897.34 267.702 1897.7 267.663C1898.17 267.613 1898.65 267.762 1899.02 268.088L1906.85 275.484L1904.55 277.902L1896.74 270.502C1896.07 269.873 1896.06 268.84 1896.69 268.172Z" fill="#ABDEF0"/>
<path d="M1907.71 256.507C1907.98 256.211 1908.37 256.07 1908.73 256.03C1909.19 255.98 1909.67 256.095 1910.04 256.456L1917.92 263.915L1915.64 266.329L1907.77 258.87C1907.1 258.242 1907.08 257.175 1907.71 256.507Z" fill="#ABDEF0"/>
<path d="M1918.74 244.876C1919.01 244.58 1919.35 244.409 1919.75 244.366C1920.21 244.316 1920.7 244.465 1921.07 244.824L1928.98 252.345L1926.71 254.726L1918.79 247.238C1918.12 246.61 1918.11 245.544 1918.74 244.876Z" fill="#ABDEF0"/>
<path d="M1929.73 233.248C1930.03 232.948 1930.38 232.777 1930.77 232.735C1931.24 232.685 1931.72 232.833 1932.09 233.194L1940.08 240.774L1937.77 243.158L1929.82 235.607C1929.15 234.979 1929.1 233.916 1929.73 233.248Z" fill="#ABDEF0"/>
<path d="M1940.75 221.616C1941.06 221.317 1941.4 221.146 1941.8 221.103C1942.26 221.053 1942.74 221.202 1943.12 221.561L1951.14 229.171L1948.86 231.552L1940.84 223.943C1940.17 223.314 1940.13 222.285 1940.75 221.616Z" fill="#ABDEF0"/>
<path d="M1951.78 209.985C1952.08 209.686 1952.43 209.515 1952.82 209.472C1953.29 209.422 1953.77 209.57 1954.14 209.898L1962.24 217.599L1959.96 219.98L1951.86 212.311C1951.19 211.683 1951.15 210.653 1951.78 209.985Z" fill="#ABDEF0"/>
<path d="M1962.8 198.353C1963.1 198.054 1963.45 197.883 1963.85 197.84C1964.31 197.79 1964.79 197.939 1965.16 198.266L1973.34 205.993L1971.03 208.411L1962.89 200.68C1962.22 200.051 1962.17 198.989 1962.8 198.353Z" fill="#ABDEF0"/>
<path d="M1973.82 186.689C1974.13 186.39 1974.47 186.219 1974.87 186.176C1975.33 186.126 1975.82 186.275 1976.19 186.635L1984.4 194.425L1982.12 196.806L1973.91 189.049C1973.24 188.42 1973.2 187.357 1973.82 186.689Z" fill="#ABDEF0"/>
<path d="M1984.85 175.058C1985.15 174.758 1985.5 174.587 1985.9 174.545C1986.36 174.495 1986.84 174.644 1987.21 175.004L1995.5 182.853L1993.19 185.238L1984.94 177.419C1984.27 176.789 1984.22 175.726 1984.85 175.058Z" fill="#ABDEF0"/>
<path d="M633.492 167.867C571.209 140.531 497.632 170.759 468.729 235.425L468.356 236.275C460.4 254.401 456.777 273.293 457.045 291.712L506.223 313.296C500.398 294.803 501.075 273.88 509.63 254.39C509.754 254.107 509.879 253.824 510.028 253.552C528.464 212.666 575.101 193.583 614.598 210.918C654.095 228.253 671.621 275.497 654.009 316.745C653.91 317.039 653.786 317.323 653.662 317.606C645.107 337.097 630.167 351.759 612.612 359.991L661.79 381.575C675.528 369.303 686.98 353.847 694.935 335.721L695.308 334.872C723.335 269.819 695.775 195.203 633.492 167.867Z" fill="#89CAE0"/>
<path d="M450.705 227.514L428.104 279.009L690.729 394.275L713.33 342.78L450.705 227.514Z" fill="#89CAE0"/>
<path d="M649.533 376.194L660.269 351.734C660.585 351.013 661.4 350.695 662.121 351.012C662.842 351.328 663.16 352.143 662.843 352.864L652.107 377.324L649.533 376.194Z" fill="#ABDEF0"/>
<path d="M608.337 358.113L619.072 333.653C619.389 332.932 620.203 332.614 620.924 332.931C621.645 333.247 621.963 334.062 621.646 334.783L610.91 359.243L608.337 358.113Z" fill="#ABDEF0"/>
<path d="M567.141 340.032L577.876 315.572C578.192 314.851 579.007 314.533 579.728 314.85C580.449 315.166 580.767 315.981 580.45 316.702L569.715 341.162L567.141 340.032Z" fill="#ABDEF0"/>
<path d="M525.945 321.951L536.68 297.491C536.996 296.77 537.811 296.452 538.532 296.769C539.253 297.085 539.571 297.9 539.254 298.621L528.519 323.081L525.945 321.951Z" fill="#ABDEF0"/>
<path d="M484.748 303.871L495.483 279.411C495.799 278.69 496.614 278.372 497.335 278.689C498.056 279.005 498.374 279.82 498.057 280.541L487.322 305.001L484.748 303.871Z" fill="#ABDEF0"/>
<path d="M443.552 285.79L454.288 261.33C454.604 260.609 455.419 260.291 456.14 260.608C456.861 260.924 457.179 261.739 456.862 262.46L446.126 286.92L443.552 285.79Z" fill="#ABDEF0"/>
<path d="M670.131 385.235L676.346 371.074C676.662 370.353 677.477 370.035 678.198 370.352C678.919 370.668 679.237 371.483 678.92 372.204L672.705 386.365L670.131 385.235Z" fill="#ABDEF0"/>
<path d="M628.935 367.154L635.15 352.993C635.466 352.272 636.281 351.954 637.002 352.271C637.723 352.587 638.041 353.402 637.724 354.123L631.509 368.284L628.935 367.154Z" fill="#ABDEF0"/>
<path d="M587.739 349.073L593.954 334.912C594.271 334.191 595.085 333.873 595.806 334.19C596.527 334.506 596.845 335.321 596.528 336.042L590.313 350.203L587.739 349.073Z" fill="#ABDEF0"/>
<path d="M546.543 330.992L552.758 316.831C553.074 316.11 553.889 315.792 554.61 316.109C555.331 316.425 555.649 317.24 555.332 317.961L549.117 332.122L546.543 330.992Z" fill="#ABDEF0"/>
<path d="M505.346 312.911L511.561 298.75C511.877 298.029 512.692 297.711 513.413 298.028C514.134 298.344 514.452 299.159 514.135 299.88L507.92 314.041L505.346 312.911Z" fill="#ABDEF0"/>
<path d="M464.15 294.83L470.365 280.669C470.681 279.948 471.496 279.63 472.217 279.947C472.938 280.263 473.256 281.078 472.939 281.799L466.724 295.96L464.15 294.83Z" fill="#ABDEF0"/>
<path d="M1190.55 828.14C1263.37 793.102 1323.15 737.672 1382.57 769.881C1442 802.089 1391.11 900.237 1446.5 944.005C1501.89 987.773 1620.19 1063.12 1559.05 1193.16C1497.9 1323.2 1318.2 1247.15 1268.37 1218.29C1218.55 1189.43 1175.36 1354.74 1037.14 1303.03C898.925 1251.32 999.011 1129.9 998.883 1081.8C998.755 1033.69 909.099 954.737 970.516 901.817C1031.93 848.897 1086.88 878.024 1190.55 828.14Z" fill="#F2FBFF"/>
<path d="M1413.38 1258.74C1413.38 1258.74 1404.9 1306.09 1405.6 1310.33C1406.31 1314.57 1421.86 1313.86 1425.39 1310.33C1428.93 1306.79 1454.37 1258.74 1454.37 1258.74H1413.38Z" fill="#14469C"/>
<path d="M1095.59 1258.74C1095.59 1258.74 1104.07 1306.09 1103.36 1310.33C1102.66 1314.57 1087.11 1313.86 1083.58 1310.33C1080.04 1306.79 1054.6 1258.74 1054.6 1258.74H1095.59Z" fill="#14469C"/>
<path d="M1492.2 1107.39L1486.32 1106.98C1488.14 1080.62 1505.6 1068.27 1521.01 1057.38C1534.85 1047.59 1547.92 1038.34 1548.91 1020.21C1550.77 985.999 1521.75 973.486 1502.54 965.207C1493.69 961.389 1487.84 958.867 1486.47 954.79L1492.05 952.909C1492.64 954.525 1499.72 957.573 1504.88 959.799C1524.32 968.183 1556.87 982.217 1554.79 1020.53C1553.65 1041.5 1538.78 1052.02 1524.41 1062.18C1509.37 1072.82 1493.82 1083.82 1492.2 1107.39Z" fill="#FFA72B"/>
<path d="M1489.42 1171.8L1483.56 1171.19C1486.18 1145.96 1505.23 1127.54 1523.66 1109.72C1540.72 1093.22 1556.84 1077.64 1555.56 1059.33C1553.92 1036.01 1529.63 1021.1 1510.11 1009.13C1497.69 1001.52 1487.88 995.501 1486.38 988.547L1492.14 987.303C1493.11 991.797 1502.86 997.779 1513.19 1004.11C1532.77 1016.12 1559.59 1032.57 1561.43 1058.92C1562.9 1079.96 1545.83 1096.47 1527.75 1113.95C1510.08 1131.03 1491.81 1148.7 1489.42 1171.8Z" fill="#FB503A"/>
<path d="M1495.91 1266.67C1491.36 1272.22 1020.05 1279.86 1010.63 1266.67C1006.84 1261.35 1004.99 1178.8 1004.93 1093.87C1004.88 1003.65 1006.84 910.714 1010.63 904.825C1016.44 895.775 1239.51 894.99 1381.17 898.249C1446.03 899.721 1493.83 902.057 1495.91 904.825C1510.05 923.671 1502.86 1258.19 1495.91 1266.67Z" fill="#81CAEB"/>
<path d="M1356.39 1078.76C1356.37 1080.62 1356.35 1082.49 1356.35 1084.35C1356.35 1084.92 1356.33 1085.51 1356.33 1086.08C1356.31 1087.93 1356.31 1089.77 1356.3 1091.62C1356.1 1113.8 1355.74 1135.77 1355.29 1155.48C1355.23 1157.18 1355.2 1158.85 1355.16 1160.52C1355.16 1160.74 1355.16 1160.97 1355.14 1161.19C1355.1 1162.8 1355.06 1164.39 1355.02 1165.96C1354.06 1202.1 1352.72 1228.52 1351.41 1230.6C1351.31 1230.76 1350.86 1230.92 1350.05 1231.07C1349.01 1231.29 1347.34 1231.51 1345.16 1231.72C1334.47 1232.78 1310.95 1233.84 1281.62 1234.71C1280.48 1234.73 1279.32 1234.77 1278.16 1234.8C1277.42 1234.82 1276.67 1234.84 1275.91 1234.86C1274.86 1234.88 1273.82 1234.92 1272.76 1234.94C1251.68 1235.51 1228.16 1235.94 1204.49 1236.2C1204.31 1236.22 1204.13 1236.22 1203.96 1236.22C1202.27 1236.24 1200.56 1236.26 1198.87 1236.28C1198.74 1236.26 1198.6 1236.28 1198.46 1236.28C1174.33 1236.51 1150.31 1236.53 1128.81 1236.28H1128.4C1126.69 1236.26 1125 1236.24 1123.33 1236.2H1122.76C1092.43 1235.75 1067.9 1234.71 1056.61 1232.84C1054.72 1232.51 1053.19 1232.17 1052.09 1231.82C1050.93 1231.45 1050.21 1231.04 1049.97 1230.6C1048.52 1227.99 1047.54 1202.14 1046.99 1166.84C1046.95 1165.04 1046.93 1163.21 1046.91 1161.36V1161.35C1046.89 1160.99 1046.89 1160.68 1046.89 1160.32C1046.85 1158.46 1046.83 1156.59 1046.81 1154.69C1046.58 1135.22 1046.44 1113.6 1046.44 1091.77V1084.25C1046.44 1082.41 1046.44 1080.56 1046.46 1078.72C1046.48 1056.83 1046.64 1035.14 1046.91 1015.66C1046.93 1013.76 1046.95 1011.89 1046.97 1010.05C1046.99 1009.75 1046.99 1009.48 1046.99 1009.18C1047.01 1007.34 1047.05 1005.51 1047.09 1003.71C1047.66 968.862 1048.64 943.361 1049.97 940.671C1050.23 940.161 1051.15 939.69 1052.68 939.238C1053.86 938.904 1055.39 938.571 1057.26 938.256C1068.78 936.371 1092.83 935.174 1122.47 934.546C1122.84 934.546 1123.24 934.526 1123.61 934.526C1125.1 934.487 1126.61 934.467 1128.14 934.428C1128.44 934.428 1128.73 934.428 1129.03 934.408C1150.5 934.035 1174.53 933.917 1198.6 934.055H1198.76C1200.54 934.055 1202.33 934.075 1204.12 934.075H1204.33C1228.19 934.232 1251.88 934.625 1273.08 935.194C1273.93 935.214 1274.77 935.253 1275.59 935.272C1276.56 935.292 1277.52 935.311 1278.46 935.35C1279.42 935.37 1280.36 935.409 1281.31 935.429C1310.52 936.312 1334.02 937.549 1344.89 939.002C1346.91 939.277 1348.5 939.571 1349.6 939.846C1350.64 940.121 1351.25 940.396 1351.41 940.67C1353.9 944.989 1355.33 969.921 1356 1003.51C1356.04 1005.31 1356.06 1007.14 1356.1 1008.99C1356.1 1009.4 1356.12 1009.81 1356.12 1010.24C1356.16 1012.09 1356.18 1013.97 1356.2 1015.88C1356.47 1035.33 1356.51 1056.95 1356.39 1078.76Z" fill="#3B6BBF"/>
<path d="M1201.44 1206.31C1268.32 1206.31 1322.53 1152.1 1322.53 1085.23C1322.53 1018.35 1268.32 964.143 1201.44 964.143C1134.57 964.143 1080.36 1018.35 1080.36 1085.23C1080.36 1152.1 1134.57 1206.31 1201.44 1206.31Z" fill="#FEFEF1"/>
<path d="M1284.01 1109.58C1247.4 1134.53 1218.64 1106.12 1218.99 1093.4C1219.07 1090.44 1223.96 1087.75 1230.05 1083.74C1237.35 1078.95 1246.36 1072.26 1250.8 1060.87C1258.92 1040.04 1249.38 1017.78 1274.47 1020.61C1282.87 1021.55 1291.33 1028.66 1297.34 1038.77C1309.3 1058.87 1311.54 1090.81 1284.01 1109.58Z" fill="#F5B3A2"/>
<path d="M1205.08 1194.64C1203.19 1196.07 1200.95 1197.15 1198.48 1197.88C1174.53 1205.04 1127.34 1180.9 1136.98 1136.59C1146.4 1093.28 1186.82 1094.15 1195.32 1103.63C1197.6 1106.16 1194.97 1112.84 1193.18 1121.59L1193.16 1121.63C1191.53 1129.58 1190.57 1139.26 1194.57 1149.11C1203 1169.83 1225.24 1179.43 1205.08 1194.64Z" fill="#F5B3A2"/>
<path d="M1188.88 1071.75C1185.15 1072.61 1179.85 1065.6 1171.6 1059.13C1165.81 1054.57 1158.55 1050.29 1149.38 1049.21C1127.16 1046.6 1108.04 1061.46 1104.43 1036.47C1103.19 1027.91 1108.2 1017.64 1116.81 1009.14H1116.83C1133.4 992.85 1163.3 983.152 1188.1 1004.75C1221.51 1033.86 1201.29 1068.88 1188.88 1071.75Z" fill="#F5B3A2"/>
<path d="M1218.64 1102.44C1228.15 1092.93 1228.15 1077.52 1218.64 1068.01C1209.13 1058.5 1193.72 1058.5 1184.21 1068.01C1174.7 1077.52 1174.7 1092.93 1184.21 1102.44C1193.72 1111.95 1209.13 1111.95 1218.64 1102.44Z" fill="#EA917A"/>
<path d="M1128.14 934.429L1125.83 936.746L1090.78 971.788L1088.02 974.576L1052.97 1009.6L1050.19 1012.39L1046.91 1015.66C1046.93 1013.76 1046.95 1011.89 1046.97 1010.05L1047.42 1009.6L1050.19 1006.83L1085.23 971.787L1088 969.019L1122.47 934.547C1122.84 934.547 1123.23 934.527 1123.61 934.527C1125.1 934.488 1126.61 934.469 1128.14 934.429Z" fill="#81CAEB"/>
<path d="M1204.11 934.076L1128.59 1009.6L1125.82 1012.38L1104.25 1033.94L1090.78 1047.41L1087.99 1050.19L1084.52 1053.67L1052.97 1085.24L1050.2 1088L1046.44 1091.77V1086.2L1047.42 1085.24L1050.19 1082.45L1085.23 1047.43L1086.97 1045.7L1088.02 1044.64L1105.17 1027.46L1123.04 1009.6L1125.53 1007.1L1125.82 1006.83L1136.37 996.287L1160.87 971.787L1161.89 970.766L1198.68 933.977L1198.76 934.055C1200.54 934.056 1202.33 934.076 1204.11 934.076Z" fill="#81CAEB"/>
<path d="M1278.46 935.352L1277.06 936.746L1242.51 971.297L1239.25 974.556L1204.21 1009.6L1201.44 1012.37L1168.05 1045.76L1166.4 1047.41L1163.63 1050.2L1161.22 1052.61L1128.59 1085.24L1125.82 1088.01L1090.78 1123.05L1088.01 1125.82L1087.5 1126.33L1052.97 1160.86L1050.18 1163.62L1046.98 1166.84C1046.95 1165.04 1046.93 1163.21 1046.91 1161.37V1161.35L1047.42 1160.86L1050.18 1158.07L1086.09 1122.16L1087.99 1120.26L1123.03 1085.24L1125.82 1082.45L1157.23 1051.02L1160.84 1047.41L1163.63 1044.64L1195.71 1012.56L1198.67 1009.6L1201.44 1006.83L1273.08 935.196C1273.92 935.216 1274.76 935.255 1275.59 935.274C1276.55 935.293 1277.52 935.313 1278.46 935.352Z" fill="#81CAEB"/>
<path d="M1349.6 939.847L1317.66 971.787L1314.89 974.575L1279.85 1009.6L1163.63 1125.81L1128.59 1160.86L1125.82 1163.62L1090.78 1198.67L1088.01 1201.45L1056.6 1232.84C1054.72 1232.51 1053.19 1232.18 1052.09 1231.82L1085.22 1198.67L1088.01 1195.9L1123.05 1160.86L1125.82 1158.09L1160.86 1123.05L1163.63 1120.28L1198.67 1085.24L1201.44 1082.45L1236.48 1047.41L1239.25 1044.64L1274.29 1009.6L1277.06 1006.83L1312.1 971.786L1314.89 969.018L1344.89 939.002C1346.91 939.278 1348.5 939.573 1349.6 939.847Z" fill="#81CAEB"/>
<path d="M1356.1 1008.99L1355.47 1009.6L1352.7 1012.38L1316.8 1048.29L1314.89 1050.19L1305.04 1060.05L1279.85 1085.24L1277.06 1088L1246.46 1118.61L1201.44 1163.62L1180.14 1184.92L1166.4 1198.66L1164.5 1200.57L1163.63 1201.43L1128.81 1236.28L1128.59 1236.47L1128.4 1236.28C1126.69 1236.26 1125 1236.24 1123.33 1236.2L1125.82 1233.71L1166.13 1193.4L1178.42 1181.11L1198.68 1160.85L1239.25 1120.28L1242.1 1117.43L1274.29 1085.23L1277.06 1082.45L1349.91 1009.6L1352.7 1006.83L1356 1003.51C1356.04 1005.32 1356.06 1007.14 1356.1 1008.99Z" fill="#81CAEB"/>
<path d="M1356.39 1078.76C1356.37 1080.62 1356.35 1082.49 1356.35 1084.35L1355.47 1085.24L1352.68 1088L1317.66 1123.03L1315.93 1124.75L1314.87 1125.81L1279.83 1160.86L1277.06 1163.62L1242.02 1198.67L1240.96 1199.73L1239.25 1201.43L1204.49 1236.2L1204.21 1236.48L1203.96 1236.22C1202.27 1236.24 1200.56 1236.26 1198.87 1236.28L1232.99 1202.16L1236.49 1198.67L1239.25 1195.9L1274.3 1160.86L1277.06 1158.09L1312.11 1123.05L1314.89 1120.26L1318.37 1116.78L1356.39 1078.76Z" fill="#81CAEB"/>
<path d="M1355.47 1160.85L1317.66 1198.66L1314.89 1201.45L1281.62 1234.71C1280.48 1234.73 1279.32 1234.77 1278.16 1234.81C1277.42 1234.83 1276.67 1234.84 1275.91 1234.86L1314.87 1195.9L1349.92 1160.85L1352.7 1158.07L1355.29 1155.48C1355.24 1157.18 1355.2 1158.85 1355.16 1160.52L1355.47 1160.85Z" fill="#81CAEB"/>
<path d="M1356.2 1015.88L1352.7 1012.38L1349.91 1009.6L1314.89 974.575L1275.59 935.273C1276.55 935.293 1277.51 935.312 1278.46 935.351C1279.42 935.371 1280.36 935.41 1281.3 935.43L1356.12 1010.24C1356.16 1012.09 1356.18 1013.97 1356.2 1015.88Z" fill="#81CAEB"/>
<path d="M1356.33 1086.08C1356.31 1087.92 1356.31 1089.77 1356.29 1091.62L1349.91 1085.24L1318.37 1053.67L1312.11 1047.41L1277.06 1012.38L1274.3 1009.6L1239.25 974.555L1236.49 971.787L1233.01 968.312L1198.75 934.056C1200.54 934.056 1202.33 934.076 1204.11 934.076L1204.21 933.978L1204.31 934.076H1204.33L1239.25 969.019L1241 970.766L1277.06 1006.83L1279.85 1009.6L1314.87 1044.64L1315.93 1045.7L1317.66 1047.43L1352.7 1082.45L1355.47 1085.24L1356.33 1086.08Z" fill="#81CAEB"/>
<path d="M1355.47 1160.85L1355.14 1161.19C1355.1 1162.8 1355.06 1164.39 1355.02 1165.96L1352.7 1163.62L1349.91 1160.85L1312.1 1123.04L1292.02 1102.96L1277.06 1088L1268.13 1079.07L1250.54 1061.48L1239.25 1050.19L1236.48 1047.4L1123.61 934.526C1125.1 934.487 1126.61 934.467 1128.14 934.428C1128.44 934.428 1128.73 934.428 1129.03 934.408L1164.52 969.901L1166.4 971.786L1201.44 1006.83L1239.26 1044.64L1242.04 1047.41L1252 1057.36L1271.51 1076.89L1277.07 1082.45L1279.85 1085.24L1294.68 1100.06L1314.9 1120.26L1355.16 1160.52L1355.47 1160.85Z" fill="#81CAEB"/>
<path d="M1350.05 1231.08C1349.01 1231.29 1347.34 1231.51 1345.16 1231.72L1314.89 1201.45L1312.1 1198.66L1277.06 1163.62L1274.29 1160.85L1239.25 1125.81L1236.48 1123.04L1201.44 1088L1198.67 1085.23L1163.63 1050.19L1160.84 1047.4L1125.82 1012.38L1123.03 1009.59L1088.01 974.573L1052.68 939.237C1053.85 938.903 1055.39 938.57 1057.25 938.255L1087.99 969.017L1090.78 971.785L1125.82 1006.83L1128.59 1009.59L1163.63 1044.64L1201.44 1082.45L1204.21 1085.23L1239.25 1120.28L1242.02 1123.04L1314.87 1195.9L1317.66 1198.66L1350.05 1231.08Z" fill="#81CAEB"/>
<path d="M1278.16 1234.81C1277.42 1234.83 1276.67 1234.84 1275.9 1234.86C1274.86 1234.88 1273.82 1234.92 1272.76 1234.94L1201.44 1163.62L1198.67 1160.86L1180.08 1142.26L1125.82 1088L1123.03 1085.24L1050.18 1012.38L1047.42 1009.6L1046.98 1009.18C1047 1007.34 1047.04 1005.51 1047.08 1003.71L1050.18 1006.83L1052.97 1009.6L1087.5 1044.13L1088.01 1044.64L1090.78 1047.41L1125.82 1082.45L1128.59 1085.24L1163.63 1120.28L1166.4 1123.05L1181.71 1138.36L1196.36 1153L1201.44 1158.09L1204.21 1160.85L1239.25 1195.9L1242.53 1199.17L1277.06 1233.71L1278.16 1234.81Z" fill="#81CAEB"/>
<path d="M1203.96 1236.22C1202.27 1236.24 1200.56 1236.26 1198.87 1236.28L1198.68 1236.47L1198.46 1236.28L1163.64 1201.43L1161.93 1199.72L1160.87 1198.66L1125.82 1163.62L1050.21 1088L1047.42 1085.23L1046.44 1084.25C1046.44 1082.41 1046.44 1080.56 1046.46 1078.72L1203.96 1236.22Z" fill="#81CAEB"/>
<path d="M1128.4 1236.28C1126.69 1236.26 1125 1236.24 1123.33 1236.2L1123.04 1236.47L1122.76 1236.2L1088.02 1201.45L1085.23 1198.66L1050.19 1163.62L1047.42 1160.85L1046.89 1160.32C1046.85 1158.46 1046.83 1156.59 1046.81 1154.69L1050.19 1158.07L1052.97 1160.85L1088.02 1195.9L1090.78 1198.66L1125.83 1233.71L1128.4 1236.28Z" fill="#81CAEB"/>
<path d="M1392.14 939.003C1393.68 937.19 1453.27 938.63 1455.04 941.104C1456.81 943.578 1455.39 966.546 1455.04 968.313C1454.69 970.08 1392.85 969.727 1392.14 968.313C1391.43 966.899 1390.02 941.497 1392.14 939.003Z" fill="#FEFEF1"/>
<path d="M1400.15 996.43C1405.19 996.43 1409.28 992.343 1409.28 987.302C1409.28 982.26 1405.19 978.174 1400.15 978.174C1395.11 978.174 1391.02 982.26 1391.02 987.302C1391.02 992.343 1395.11 996.43 1400.15 996.43Z" fill="#FB503A"/>
<path d="M1133.27 1770.7L1239.06 1755.26C1242.45 1754.76 1245.6 1757.11 1246.09 1760.49L1248.99 1780.31C1249.48 1783.7 1247.14 1786.84 1243.75 1787.34L1137.96 1802.78C1135.7 1803.11 1133.56 1802.18 1132.23 1800.53L1132.22 1800.51C1131.55 1799.69 1131.09 1798.67 1130.93 1797.55L1128.03 1777.73C1127.54 1774.34 1129.88 1771.2 1133.27 1770.7Z" fill="#EA917A"/>
<path d="M1132.15 1752.07L1142.21 1820.96C1142.59 1823.55 1140.79 1825.96 1138.2 1826.34L1112.94 1830.03C1110.35 1830.41 1107.94 1828.61 1107.56 1826.02L1097.5 1757.13C1097.12 1754.54 1098.92 1752.13 1101.51 1751.75L1126.77 1748.06C1129.36 1747.68 1131.77 1749.48 1132.15 1752.07Z" fill="#F5B3A2"/>
<path d="M1179.26 1798.5C1179.38 1799.32 1179.06 1800.19 1178.32 1800.76C1177.21 1801.62 1175.58 1801.49 1174.68 1800.45L1146.79 1768.25C1145.89 1767.21 1146.06 1765.67 1147.18 1764.8C1148.29 1763.94 1149.92 1764.08 1150.82 1765.11L1178.71 1797.31C1179.02 1797.67 1179.2 1798.08 1179.26 1798.5Z" fill="#F5B3A2"/>
<path d="M1202.89 1795.05C1203.01 1795.87 1202.68 1796.74 1201.95 1797.31C1200.83 1798.17 1199.2 1798.04 1198.3 1797L1170.41 1764.8C1169.51 1763.76 1169.69 1762.22 1170.8 1761.35C1171.92 1760.49 1173.55 1760.63 1174.44 1761.66L1202.34 1793.86C1202.64 1794.22 1202.82 1794.63 1202.89 1795.05Z" fill="#F5B3A2"/>
<path d="M1226.51 1791.6C1226.63 1792.42 1226.3 1793.29 1225.57 1793.86C1224.46 1794.73 1222.82 1794.59 1221.93 1793.55L1194.03 1761.35C1193.14 1760.31 1193.31 1758.77 1194.42 1757.91C1195.54 1757.04 1197.17 1757.18 1198.07 1758.22L1225.96 1790.41C1226.27 1790.77 1226.45 1791.18 1226.51 1791.6Z" fill="#F5B3A2"/>
<path d="M1250.13 1788.15C1250.25 1788.97 1249.93 1789.84 1249.19 1790.41C1248.08 1791.28 1246.45 1791.14 1245.55 1790.1L1217.66 1757.9C1216.76 1756.86 1216.93 1755.32 1218.05 1754.46C1219.16 1753.59 1220.79 1753.73 1221.69 1754.77L1249.58 1786.96C1249.89 1787.32 1250.07 1787.73 1250.13 1788.15Z" fill="#F5B3A2"/>
<path d="M1220.4 1827.9V1849.5C1220.4 1849.5 1237.37 1845.86 1236.71 1838.7C1236.04 1831.53 1220.4 1827.9 1220.4 1827.9Z" fill="#E0795E"/>
<path d="M1320.18 1838.7L1306.75 1824.21L1304.13 1821.39L1302.75 1819.9H1291.72C1294.5 1822.09 1296.15 1824.88 1296.15 1827.9C1296.15 1829.87 1295.45 1831.74 1294.18 1833.42C1293.98 1833.68 1293.78 1833.92 1293.56 1834.17C1291.95 1836 1289.64 1837.54 1286.88 1838.7C1289.65 1839.84 1291.95 1841.41 1293.56 1843.22C1293.78 1843.47 1293.99 1843.71 1294.18 1843.97C1295.45 1845.65 1296.15 1847.52 1296.15 1849.49C1296.15 1852.51 1294.5 1855.3 1291.71 1857.49C1287.89 1860.53 1281.96 1862.47 1275.29 1862.47C1268.64 1862.47 1262.71 1860.53 1258.88 1857.49C1256.1 1855.3 1254.43 1852.51 1254.43 1849.49C1254.43 1847.52 1255.15 1845.65 1256.41 1843.97C1256.6 1843.71 1256.8 1843.47 1257.02 1843.22C1258.64 1841.41 1260.93 1839.84 1263.7 1838.7C1260.93 1837.54 1258.64 1835.98 1257.04 1834.16C1256.8 1833.91 1256.6 1833.67 1256.41 1833.42C1255.15 1831.74 1254.43 1829.87 1254.43 1827.9C1254.43 1824.88 1256.1 1822.09 1258.87 1819.9H1247.85L1246.47 1821.39L1243.84 1824.21L1230.42 1838.7L1220.4 1849.49L1247.85 1879.09H1302.74L1330.18 1849.49L1320.18 1838.7Z" fill="#E0795E"/>
<path d="M1330.19 1827.9V1849.5C1330.19 1849.5 1313.04 1841.74 1313.04 1837.53C1313.04 1833.31 1330.19 1827.9 1330.19 1827.9Z" fill="#E0795E"/>
<path d="M1275.43 1865.26C1288.11 1865.26 1298.39 1861.93 1298.39 1857.83C1298.39 1853.72 1288.11 1850.4 1275.43 1850.4C1262.74 1850.4 1252.46 1853.72 1252.46 1857.83C1252.46 1861.93 1262.74 1865.26 1275.43 1865.26Z" fill="#00509F"/>
<path d="M1298.39 1827.89C1298.39 1830.91 1296.56 1833.68 1293.49 1835.87C1289.26 1832.83 1282.69 1830.88 1275.31 1830.88C1267.91 1830.88 1261.34 1832.83 1257.11 1835.87C1254.04 1833.68 1252.2 1830.91 1252.2 1827.89C1252.2 1820.72 1262.55 1814.9 1275.31 1814.9C1288.05 1814.9 1298.39 1820.72 1298.39 1827.89Z" fill="#EA917A"/>
<path d="M1298.39 1843.86C1298.39 1851.04 1288.05 1856.86 1275.31 1856.86C1262.55 1856.86 1252.2 1851.04 1252.2 1843.86C1252.2 1840.85 1254.04 1838.07 1257.11 1835.87C1261.34 1838.93 1267.91 1840.88 1275.3 1840.88C1282.69 1840.88 1289.26 1838.93 1293.49 1835.87C1296.56 1838.07 1298.39 1840.85 1298.39 1843.86Z" fill="#21619E"/>
<path d="M1302.75 1798.3H1247.85L1220.4 1827.9L1230.42 1838.7L1243.85 1853.18L1246.47 1856L1247.85 1857.5H1302.75L1304.13 1856L1306.75 1853.18L1320.18 1838.7L1330.19 1827.9L1302.75 1798.3ZM1296.15 1827.9C1296.15 1829.87 1295.45 1831.74 1294.18 1833.42C1293.98 1833.68 1293.78 1833.93 1293.56 1834.17C1291.95 1836 1289.64 1837.54 1286.88 1838.7C1283.57 1840.08 1279.58 1840.88 1275.29 1840.88C1271 1840.88 1267.02 1840.08 1263.71 1838.7C1260.93 1837.54 1258.64 1835.99 1257.04 1834.16C1256.8 1833.91 1256.61 1833.67 1256.41 1833.42C1255.15 1831.74 1254.43 1829.87 1254.43 1827.9C1254.43 1824.88 1256.1 1822.09 1258.87 1819.9C1262.68 1816.85 1268.62 1814.9 1275.29 1814.9C1281.96 1814.9 1287.9 1816.85 1291.72 1819.9C1294.5 1822.09 1296.15 1824.88 1296.15 1827.9Z" fill="#F5B3A2"/>
<path d="M1306.75 1824.21C1303.97 1814.98 1290.92 1807.96 1275.29 1807.96C1259.67 1807.96 1246.63 1814.98 1243.85 1824.21C1243.48 1825.41 1243.29 1826.64 1243.29 1827.9C1243.29 1831.88 1245.18 1835.59 1248.42 1838.7C1248.68 1838.97 1248.95 1839.21 1249.23 1839.45C1251.23 1841.19 1253.65 1842.72 1256.41 1843.97C1261.71 1846.39 1268.23 1847.83 1275.29 1847.83C1282.36 1847.83 1288.88 1846.4 1294.18 1843.97C1296.94 1842.71 1299.37 1841.19 1301.37 1839.45C1301.65 1839.21 1301.92 1838.97 1302.18 1838.7C1305.42 1835.59 1307.31 1831.88 1307.31 1827.9C1307.31 1826.64 1307.12 1825.41 1306.75 1824.21ZM1301.37 1837.94C1301.11 1838.2 1300.84 1838.45 1300.56 1838.7C1298.64 1840.43 1296.27 1841.96 1293.56 1843.22C1288.46 1845.59 1282.14 1846.99 1275.29 1846.99C1268.45 1846.99 1262.13 1845.59 1257.02 1843.22C1254.31 1841.96 1251.96 1840.43 1250.03 1838.7C1249.75 1838.46 1249.49 1838.2 1249.23 1837.94C1246.32 1835.02 1244.64 1831.58 1244.64 1827.9C1244.64 1825.62 1245.29 1823.42 1246.47 1821.39C1250.75 1814.05 1262.07 1808.8 1275.29 1808.8C1288.53 1808.8 1299.85 1814.05 1304.13 1821.39C1305.31 1823.42 1305.97 1825.62 1305.97 1827.9C1305.96 1831.58 1304.27 1835.02 1301.37 1837.94Z" fill="#EA917A"/>
<path d="M1302.75 1857.5H1247.85V1879.09H1302.75V1857.5Z" fill="#EA917A"/>
<path d="M1878.32 1087.22C1907.58 1163.28 2029.38 1148.39 2021.94 1215.94C2014.49 1283.49 1917.68 1280.3 1897.47 1239.34C1877.26 1198.39 1832.08 1170.21 1826.21 1145.47C1820.34 1120.73 1782.41 1075.62 1782.41 1075.62C1782.41 1075.62 1781.52 1053.71 1808.11 1056.9C1834.71 1060.09 1878.32 1087.22 1878.32 1087.22Z" fill="#40312A"/>
<path d="M1794.47 1139.45C1803.78 1143.79 1812.55 1140.54 1814.59 1139.66C1814.89 1139.54 1815.04 1139.45 1815.04 1139.45C1815.04 1139.45 1814.56 1145.3 1811.84 1151.77C1809.75 1156.68 1806.35 1161.97 1800.85 1165.34C1788.08 1173.14 1801.21 1189.1 1821.06 1188.39C1840.92 1187.68 1862.91 1163.92 1862.91 1163.92C1862.91 1163.92 1851.56 1154.7 1848.72 1142.29C1845.89 1129.88 1846.95 1115.34 1846.95 1115.34C1846.95 1115.34 1859.72 1112.86 1862.91 1104.34C1866.1 1095.83 1862.55 1087.32 1856.88 1088.03C1851.2 1088.74 1852.98 1095.12 1846.59 1095.12C1841.28 1095.12 1838.41 1084.75 1837.61 1081.32C1836.81 1081.8 1833.95 1082.06 1825.32 1080.94C1809.01 1078.81 1804.4 1064.98 1804.4 1064.98C1804.4 1064.98 1802.62 1070.66 1795.53 1074.91C1788.44 1079.17 1782.41 1075.62 1782.41 1075.62C1777.8 1119.95 1783.83 1134.49 1794.47 1139.45Z" fill="#FEC6AB"/>
<path d="M1811.84 1151.77C1835.1 1148.2 1835.78 1125.44 1835.78 1125.44C1835.78 1125.44 1829.93 1134.49 1815.04 1139.45C1815.04 1139.45 1814.56 1145.3 1811.84 1151.77Z" fill="#FD9B73"/>
<path d="M1799.43 1084.31C1793.76 1094.24 1791.28 1106.12 1791.81 1107.36C1792.34 1108.6 1800.14 1109.13 1801.56 1107.36C1802.98 1105.59 1799.43 1084.31 1799.43 1084.31Z" fill="#FD9B73"/>
<path d="M1718.1 1794.31L1819.16 1794.15C1819.16 1794.15 1820.49 1789.25 1820.89 1782.06C1821.41 1773.52 1820.62 1761.76 1814.84 1751.07L1768.09 1751.15C1768.09 1751.15 1746.76 1752.25 1727.1 1767.7C1723.09 1770.84 1720.34 1773.83 1718.52 1776.55C1711.35 1787.23 1718.1 1794.31 1718.1 1794.31Z" fill="#FB503A"/>
<path d="M1718.1 1794.31L1819.16 1794.15C1819.16 1794.15 1820.49 1789.25 1820.89 1782.06C1795.12 1780.21 1746.29 1776.95 1718.52 1776.55C1711.35 1787.23 1718.1 1794.31 1718.1 1794.31Z" fill="#DE331E"/>
<path d="M2075.1 1706.97L2114.07 1613.73C2114.07 1613.73 2110.06 1610.61 2103.59 1607.46C2095.92 1603.67 2084.77 1599.85 2072.68 1601.04L2054.65 1644.17C2054.65 1644.17 2047.41 1664.27 2054.05 1688.38C2055.39 1693.29 2057.09 1696.98 2058.89 1699.72C2065.96 1710.46 2075.1 1706.97 2075.1 1706.97Z" fill="#FB503A"/>
<path d="M2075.1 1706.97L2114.07 1613.73C2114.07 1613.73 2110.06 1610.61 2103.59 1607.46C2091.91 1630.5 2070.01 1674.26 2058.89 1699.72C2065.96 1710.46 2075.1 1706.97 2075.1 1706.97Z" fill="#DE331E"/>
<path d="M1663.61 1239.34C1660.42 1231.72 1650.49 1224.8 1650.49 1224.8C1650.49 1224.8 1659.18 1213.99 1649.42 1207.43C1639.67 1200.87 1608.82 1224.27 1618.75 1246.08C1628.68 1267.89 1654.92 1260.62 1654.92 1260.62L1663.61 1239.34Z" fill="#FEC6AB"/>
<path d="M1955.98 1291.47C1952.76 1297.17 1946.02 1302.79 1937.51 1308.08C1922.82 1299.39 1908.61 1289.61 1896.58 1276.96C1902.26 1273.59 1906.28 1271.08 1907.04 1270.19C1910.24 1266.47 1884.26 1232.96 1884.26 1232.96L1778.32 1264.34C1778.32 1264.34 1777.61 1265.44 1776.26 1267.21C1771.88 1272.94 1760.77 1285.97 1745.32 1292.89C1725.1 1301.93 1655.45 1275.51 1647.48 1263.28C1644.22 1258.28 1658.65 1235.09 1663.96 1234.02C1669.28 1232.96 1719.81 1251.31 1730.45 1247.06C1741.09 1242.8 1748.01 1189.34 1768.22 1170.73C1777.53 1162.19 1787.1 1158.29 1794.73 1156.57C1799.63 1155.45 1803.77 1155.24 1806.46 1155.3C1808.5 1155.33 1809.74 1155.51 1809.97 1155.54C1810 1155.54 1810 1155.54 1810 1155.54C1814.76 1179.24 1855.13 1155.54 1855.13 1155.54C1855.13 1155.54 1855.13 1155.54 1855.16 1155.54C1855.48 1155.6 1858.23 1155.95 1862.43 1156.69C1867.86 1157.69 1875.72 1159.38 1883.73 1161.89L1883.82 1161.92C1892.54 1164.67 1901.4 1168.42 1907.58 1173.38C1924.07 1186.68 1969.81 1267 1955.98 1291.47Z" fill="white"/>
<path d="M2054.91 1642.11C2038.96 1644.66 1891.09 1566.94 1879.39 1549.03C1867.68 1531.15 1846.94 1433.99 1846.94 1433.99C1846.94 1433.99 1824.6 1747.96 1816.62 1753.08C1808.64 1758.19 1772.47 1759.22 1766.62 1749.5C1760.77 1739.78 1761.95 1606.83 1766.62 1514.46C1770.58 1435.85 1790.91 1303.76 1790.91 1303.76C1790.91 1303.76 1782.05 1284.14 1776.25 1262.89C1773.48 1252.64 1771.41 1242 1771.41 1233.02C1771.41 1210.29 1788.61 1170.05 1794.72 1156.51C1799.63 1155.45 1803.77 1155.24 1806.46 1155.3L1804.8 1162.04L1800.16 1180.54V1180.57L1792.69 1210.53L1842.15 1213.6L1858.44 1167.83L1860.65 1161.62L1862.43 1156.63C1867.86 1157.6 1875.72 1159.47 1883.73 1161.89C1882.61 1164.9 1871.26 1195.7 1873.54 1210.26C1875.93 1225.6 1884.26 1232.96 1884.26 1232.96L1870.88 1299.51C1870.88 1299.51 1885.24 1322.11 1899.42 1352.25C1904.53 1363.04 1909.59 1374.8 1913.96 1386.83C1915.26 1390.43 1916.53 1394.04 1917.69 1397.67C1933.64 1447.29 1936.83 1500.48 1941.09 1505.59C1945.34 1510.7 2073 1589.96 2075.66 1598.14C2078.32 1606.33 2070.87 1639.54 2054.91 1642.11Z" fill="#1A6185"/>
<path d="M1913.96 1386.83C1881.07 1414.84 1856.16 1364.16 1856.16 1364.16C1856.16 1364.16 1884.68 1360.97 1899.42 1352.25C1904.53 1363.04 1909.59 1374.8 1913.96 1386.83Z" fill="#0B4063"/>
<path d="M1790.56 1235.89C1790.56 1235.89 1842.71 1238.81 1842.96 1240.94C1843.22 1243.07 1842.42 1274.45 1812.9 1273.65C1783.38 1272.85 1787.9 1237.22 1790.56 1235.89Z" fill="#0B4063"/>
<path d="M1680.2 1032.41C1711.83 1096.4 1683.43 1138.99 1683.43 1138.99L1956.38 1399.08C1956.38 1399.08 2047.24 1364.93 2089.15 1425.77C2118.33 1468.08 2117.38 1509.16 2114.11 1530.23C2113.32 1535.39 2106.56 1536.66 2103.88 1532.21C2092.23 1513.05 2066.05 1477.7 2025.88 1466.97C1982.23 1455.31 1937.79 1508.41 1955.63 1555.88C1967.16 1586.54 2004.38 1604.34 2024.68 1611.99C2029.56 1613.81 2029.51 1620.61 2024.65 1622.39C2001.05 1631.02 1951.51 1641.43 1914.83 1597.05C1865.03 1536.79 1896.22 1472.29 1896.22 1472.29L1803.42 1381.02L1622.41 1203.12C1622.41 1203.12 1590.97 1235.26 1533.01 1209.24C1505.52 1196.92 1488.13 1174.98 1477.18 1152.93C1468.97 1136.59 1464.31 1120.21 1461.64 1107.65C1460.46 1102.02 1467.56 1098.75 1471.31 1103.09C1509.72 1147.34 1565.9 1150.62 1600.21 1090.56C1628.03 1041.86 1582.52 1005.01 1555.37 988.458C1550.52 985.525 1552.64 978.099 1558.32 978.175C1592.11 978.685 1657.18 985.914 1680.2 1032.41Z" fill="#F5B3A2"/>
<path d="M1933.35 1442.34C1933.08 1443.37 1932.53 1444.34 1931.73 1445.15C1929.27 1447.63 1925.26 1447.65 1922.78 1445.19L1645.18 1169.76C1642.7 1167.3 1642.68 1163.3 1645.14 1160.81C1647.6 1158.33 1651.61 1158.32 1654.09 1160.77L1931.69 1436.2C1933.36 1437.86 1933.92 1440.22 1933.35 1442.34Z" fill="#EA917A"/>
<path d="M1635.78 1151.5C1641.61 1144.78 1640.89 1134.61 1634.17 1128.78C1627.45 1122.95 1617.28 1123.67 1611.46 1130.39C1605.63 1137.1 1606.35 1147.27 1613.06 1153.1C1619.78 1158.93 1629.95 1158.21 1635.78 1151.5Z" fill="#EA917A"/>
<path d="M1945.24 1449.35C1954.11 1448.73 1961.81 1455.41 1962.44 1464.28C1963.06 1473.15 1956.38 1480.85 1947.51 1481.48C1938.64 1482.1 1930.94 1475.42 1930.31 1466.55C1929.69 1457.68 1936.37 1449.98 1945.24 1449.35Z" fill="#EA917A"/>
<path d="M1844.63 1314.34C1826.9 1315.23 1796.23 1327.82 1796.58 1331.89C1796.94 1335.97 1814.49 1334.2 1814.49 1334.2C1814.49 1334.2 1779.92 1356.54 1786.3 1369.31C1792.68 1382.07 1853.85 1348.92 1857.58 1336.33C1861.3 1323.74 1844.63 1314.34 1844.63 1314.34Z" fill="#FEC6AB"/>
<path d="M1896.58 1276.95C1878.82 1287.48 1844.83 1306.57 1843.22 1312.21C1841.09 1319.66 1852.79 1338.28 1858.11 1338.81C1862.19 1339.22 1909.47 1325.53 1937.51 1308.08C1922.84 1299.39 1908.6 1289.59 1896.58 1276.95Z" fill="white"/>
<path d="M1878.77 1088.21C1878.77 1088.21 1751.39 1083.1 1750.98 1065.02C1750.6 1047.44 1782.99 1052.47 1784.77 1052.76C1784.83 1052.79 1784.86 1052.78 1784.86 1052.78C1784.86 1052.78 1787.93 1020.79 1829.92 1019.23C1871.94 1017.67 1884.14 1060.06 1878.77 1088.21Z" fill="#FB503A"/>
<path d="M1878.77 1088.21C1878.77 1088.21 1751.39 1083.1 1750.98 1065.02C1750.6 1047.44 1782.99 1052.47 1784.77 1052.76C1784.83 1052.79 1784.86 1052.78 1784.86 1052.78C1778.49 1072.08 1878.77 1088.21 1878.77 1088.21Z" fill="#DE331E"/>
<path d="M1361.02 1529.35C1361.02 1529.35 1344.12 1486.46 1353.44 1479.6C1362.75 1472.74 1471.82 1475.22 1477.7 1483.55C1483.57 1491.89 1472.04 1536.74 1472.04 1536.74L1451.7 1533.79C1451.7 1533.79 1461.5 1498.25 1458.57 1496.29C1455.63 1494.33 1374.76 1493.57 1372.55 1495.29C1370.34 1497 1377.37 1527.34 1377.37 1527.34L1361.02 1529.35Z" fill="#DE331E"/>
<path d="M1547.32 1591.41L1282.63 1582.02C1282.63 1582.02 1287.21 1572.84 1293.29 1561.83C1301.53 1546.88 1312.5 1528.56 1318.43 1525.17C1324.84 1521.51 1376.81 1520.52 1427.73 1522.21C1458.48 1523.22 1488.86 1525.21 1508.61 1528.17C1522.08 1530.19 1547.32 1591.41 1547.32 1591.41Z" fill="#FB503A"/>
<path d="M1282.61 1618.79C1282.61 1618.79 1308.06 1766.83 1314.43 1772.71C1320.8 1778.59 1512 1778.16 1518.37 1772.77C1524.74 1767.38 1547.31 1609.06 1547.31 1609.06L1282.61 1618.79Z" fill="#FB503A"/>
<path d="M1455.5 1584.28C1455.5 1584.28 1445.46 1522.88 1449.37 1523.08C1453.28 1523.29 1471.18 1582.57 1471.18 1582.57L1455.5 1584.28Z" fill="#DE331E"/>
<path d="M1374.45 1584.26C1374.45 1584.26 1384.5 1521.23 1380.59 1521.44C1376.68 1521.65 1358.76 1582.48 1358.76 1582.48L1374.45 1584.26Z" fill="#DE331E"/>
<path d="M1274.83 1580.55C1281.93 1578.92 1553.25 1575.73 1555.7 1580.63C1558.15 1585.54 1557.15 1627.2 1555.68 1630.14C1554.21 1633.08 1276.77 1635.94 1274.81 1630.06C1272.85 1624.17 1271.37 1581.34 1274.83 1580.55Z" fill="#DE331E"/>
<path d="M1472.75 1752.62C1472.75 1752.62 1482.34 1654.46 1485.65 1652.26C1488.96 1650.06 1518.37 1648.96 1520.94 1652.27C1523.51 1655.58 1494.81 1750.79 1492.97 1752.62C1491.13 1754.46 1474.22 1755.19 1472.75 1752.62Z" fill="#DE331E"/>
<path d="M1368.88 1752.59C1368.88 1752.59 1359.35 1654.43 1356.04 1652.22C1352.73 1650.01 1323.32 1648.9 1320.75 1652.21C1318.17 1655.52 1346.82 1750.74 1348.66 1752.58C1350.49 1754.42 1367.4 1755.16 1368.88 1752.59Z" fill="#DE331E"/>
<path d="M1408.5 1753.01C1406.52 1751.31 1401.66 1672.37 1405.09 1668.94C1406.81 1667.23 1433.77 1668.15 1437.2 1670.91C1440.18 1673.31 1430.83 1751.27 1427.86 1753.01C1424.67 1754.88 1410.21 1754.48 1408.5 1753.01Z" fill="#DE331E"/>
<path d="M1388.88 1571.21C1390.76 1568.29 1438.63 1568.04 1440.84 1571.23C1443.04 1574.41 1442.53 1640.1 1440.82 1641.57C1439.1 1643.04 1392.04 1642.78 1389.84 1641.55C1387.63 1640.32 1386.67 1574.64 1388.88 1571.21Z" fill="#F8EA42"/>
<path d="M1398.1 1579.32C1398.42 1578.06 1430.82 1578.11 1431.68 1579.33C1432.54 1580.56 1431.92 1588.16 1431.68 1588.65C1431.43 1589.14 1398.47 1587.66 1398.1 1587.17C1397.73 1586.68 1397.73 1580.8 1398.1 1579.32Z" fill="#FFA72B"/>
<path d="M1398.1 1601.51C1398.41 1600.24 1430.81 1600.29 1431.67 1601.52C1432.53 1602.74 1431.91 1610.34 1431.67 1610.83C1431.42 1611.32 1398.46 1609.84 1398.09 1609.35C1397.73 1608.86 1397.73 1602.98 1398.1 1601.51Z" fill="#FFA72B"/>
<path d="M1398.09 1623.69C1398.41 1622.42 1430.81 1622.47 1431.67 1623.7C1432.52 1624.92 1431.91 1632.52 1431.66 1633.01C1431.42 1633.5 1398.45 1632.02 1398.09 1631.53C1397.72 1631.04 1397.72 1625.16 1398.09 1623.69Z" fill="#FFA72B"/>
<path d="M1427.74 1522.21C1419.53 1541.76 1348.87 1565.05 1293.29 1561.83C1301.53 1546.88 1312.5 1528.56 1318.43 1525.17C1324.84 1521.51 1376.81 1520.52 1427.74 1522.21Z" fill="#333333"/>
<path d="M684.834 1151.15C656.508 1148.06 639.681 1125.54 649.777 1094.87C659.873 1064.21 746.938 1052.43 751.924 1063.65C756.91 1074.87 754.292 1085.24 750.273 1090.01C746.254 1094.78 684.834 1151.15 684.834 1151.15Z" fill="#40312A"/>
<path d="M737.559 1157.32C727.743 1161.9 718.489 1158.47 716.338 1157.54C716.027 1157.41 715.871 1157.32 715.871 1157.32C715.871 1157.32 716.37 1163.49 719.237 1170.31C721.449 1175.49 725.033 1181.07 730.829 1184.62C744.291 1192.84 730.455 1209.67 709.514 1208.92C688.574 1208.18 665.39 1183.12 665.39 1183.12C665.39 1183.12 677.356 1173.4 680.348 1160.31C683.339 1147.22 682.217 1131.89 682.217 1131.89C682.217 1131.89 668.755 1129.27 665.39 1120.3C662.024 1111.33 665.764 1102.35 671.747 1103.1C677.73 1103.85 675.86 1110.58 682.591 1110.58C688.2 1110.58 691.223 1099.64 692.064 1096.03C692.905 1096.52 695.928 1096.8 705.027 1095.62C722.228 1093.38 727.09 1078.79 727.09 1078.79C727.09 1078.79 728.959 1084.78 736.438 1089.26C743.917 1093.75 750.274 1090.01 750.274 1090.01C755.135 1136.75 748.778 1152.08 737.559 1157.32Z" fill="#FEC6AB"/>
<path d="M719.237 1170.31C694.713 1166.54 693.996 1142.55 693.996 1142.55C693.996 1142.55 700.166 1152.08 715.871 1157.32C715.871 1157.32 716.37 1163.49 719.237 1170.31Z" fill="#FD9B73"/>
<path d="M732.324 1099.17C738.307 1109.64 740.925 1122.17 740.364 1123.48C739.803 1124.79 731.576 1125.35 730.081 1123.48C728.585 1121.61 732.324 1099.17 732.324 1099.17Z" fill="#FD9B73"/>
<path d="M605.185 1463.01C605.185 1463.01 613.038 1496.11 610.233 1500.59C607.428 1505.08 600.417 1500.59 600.417 1500.59C600.417 1500.59 594.247 1533.97 576.298 1534.25C558.349 1534.53 574.335 1459.93 574.335 1459.93L605.185 1463.01Z" fill="#FEC6AB"/>
<path d="M905.754 1236.95C905.754 1236.95 922.942 1207.6 928.07 1206.29C933.198 1204.98 935.166 1213.07 935.166 1213.07C935.166 1213.07 962.685 1193.21 975.855 1205.41C989.025 1217.6 925.925 1260.49 925.925 1260.49L905.754 1236.95Z" fill="#FEC6AB"/>
<path d="M927.707 1259.74C927.707 1267.59 872.177 1346.91 831.792 1343.54C809.2 1341.67 789.6 1323.63 776.667 1308.11V1308.08C766.539 1295.86 760.557 1285.21 760.557 1285.21L624.817 1307.08C624.817 1307.08 609.672 1360.37 609.112 1397.39C608.551 1434.41 607.429 1459.09 605.186 1463.01C602.943 1466.94 579.945 1469.74 572.092 1463.01C564.24 1456.28 544.577 1397.39 554.112 1330.64C563.647 1263.89 590.041 1208.92 626.5 1194.34C627.466 1193.96 628.4 1193.59 629.304 1193.22C645.415 1186.83 655.293 1183.34 661.213 1181.41C667.851 1179.26 669.596 1179.07 669.596 1179.07C716.4 1208.52 730.828 1184.62 730.828 1184.62C730.828 1184.62 734.193 1184.43 739.615 1185.02C747.063 1185.86 758.405 1188.2 770.153 1194.65C777.539 1198.7 785.08 1204.37 791.966 1212.29C817.768 1242.02 829.547 1276.23 837.4 1277.91C845.253 1279.6 897.601 1235.26 906.575 1236.94C915.551 1238.62 927.707 1251.88 927.707 1259.74Z" fill="#F8EA42"/>
<path d="M575.151 1794.31L682.337 1794.14C682.337 1794.14 683.739 1788.94 684.165 1781.32C684.715 1772.26 683.881 1759.79 677.751 1748.45L628.17 1748.53C628.17 1748.53 605.544 1749.7 584.696 1766.09C580.439 1769.42 577.53 1772.59 575.591 1775.48C567.994 1786.8 575.151 1794.31 575.151 1794.31Z" fill="#1A6185"/>
<path d="M575.151 1794.31L682.337 1794.14C682.337 1794.14 683.739 1788.94 684.165 1781.32C656.833 1779.36 605.052 1775.9 575.59 1775.48C567.994 1786.8 575.151 1794.31 575.151 1794.31Z" fill="#0B4063"/>
<path d="M843.725 1794.31L736.539 1794.14C736.539 1794.14 735.137 1788.94 734.711 1781.32C734.161 1772.26 734.995 1759.79 741.125 1748.45L790.707 1748.53C790.707 1748.53 813.333 1749.7 834.181 1766.09C838.438 1769.42 841.347 1772.59 843.286 1775.48C850.883 1786.8 843.725 1794.31 843.725 1794.31Z" fill="#1A6185"/>
<path d="M843.725 1794.31L736.539 1794.14C736.539 1794.14 735.137 1788.94 734.711 1781.32C762.043 1779.36 813.824 1775.9 843.286 1775.48C850.883 1786.8 843.725 1794.31 843.725 1794.31Z" fill="#0B4063"/>
<path d="M798.769 1748.45L737.872 1754.45L714.002 1493.86L680.646 1753.87L621.127 1748.85C621.127 1748.85 619.178 1564.23 631.206 1471.33C633.543 1453.23 636.41 1436.87 639.962 1423.56C640.834 1420.29 641.863 1417.24 643.016 1414.46C665.577 1359.93 738.931 1398.17 764.328 1413.5C769.844 1416.83 773.084 1419.08 773.084 1419.08L775.951 1468.97L798.769 1748.45Z" fill="#FB503A"/>
<path d="M775.951 1468.97C765.512 1464.51 754.543 1448.96 752.891 1429.17C752.891 1429.17 757.628 1419.86 764.327 1413.5C769.843 1416.83 773.083 1419.08 773.083 1419.08L775.951 1468.97Z" fill="#DE331E"/>
<path d="M673.616 1428.05C670.656 1450.14 646.693 1477.41 631.206 1471.33C633.543 1453.23 636.41 1436.87 639.962 1423.56C640.834 1420.29 641.863 1417.24 643.016 1414.46C658.814 1417.55 673.616 1428.05 673.616 1428.05Z" fill="#DE331E"/>
<path d="M777.602 1374.02C777.477 1380.4 777.259 1386.42 776.917 1391.87C776.231 1403.93 774.985 1413.47 773.084 1419.08C761.118 1454.23 648.937 1434.78 639.962 1423.56C637.501 1420.48 635.225 1410.29 633.262 1397.14C632.514 1392.09 631.797 1386.57 631.112 1380.87C629.273 1365.26 627.777 1348.09 626.718 1334.25C626.219 1328.05 625.845 1322.51 625.534 1318.08C625.066 1311.29 624.817 1307.08 624.817 1307.08C624.817 1307.08 632.109 1289.13 634.913 1249.87C636.565 1226.62 632.732 1206.12 629.304 1193.22C645.415 1186.83 655.293 1183.34 661.213 1181.41C667.259 1232.11 701.629 1255.73 725.188 1246.75C748.746 1237.78 739.616 1185.02 739.616 1185.02C747.064 1185.86 758.406 1188.2 770.154 1194.65C770.154 1194.65 774.579 1251.12 776.667 1308.08V1308.11C776.729 1309.76 776.792 1311.41 776.823 1313.03C777.041 1318.8 777.228 1324.53 777.352 1330.2C777.727 1345.72 777.851 1360.71 777.602 1374.02Z" fill="#FB503A"/>
<path d="M649.917 1093.27C649.917 1093.27 785.01 1087.85 785.441 1068.67C785.852 1050.03 751.499 1055.37 749.606 1055.67C749.542 1055.7 749.511 1055.7 749.511 1055.7C749.511 1055.7 746.257 1021.77 701.72 1020.12C657.152 1018.46 644.221 1063.42 649.917 1093.27Z" fill="#FB503A"/>
<path d="M649.917 1093.27C649.917 1093.27 785.01 1087.85 785.441 1068.67C785.852 1050.03 751.499 1055.37 749.606 1055.67C749.542 1055.7 749.511 1055.7 749.511 1055.7C756.265 1076.17 649.917 1093.27 649.917 1093.27Z" fill="#DE331E"/>
<path d="M686.129 1285.41C686.129 1285.41 751.569 1280.61 752.133 1283.15C752.697 1285.69 755.518 1332.79 720.541 1333.08C685.565 1333.36 680.206 1288.51 686.129 1285.41Z" fill="#DE331E"/>
<path d="M882.614 1457.79C882.614 1457.79 854.411 1797.14 988.746 1794.29C1117.77 1791.56 1008.02 1455.71 1008.02 1455.71L882.614 1457.79Z" fill="#FFA72B"/>
<path d="M945.875 1485.97C980.508 1485.39 1008.37 1471.87 1008.1 1455.76C1007.83 1439.66 979.539 1427.07 944.907 1427.64C910.274 1428.22 882.416 1441.74 882.683 1457.84C882.951 1473.95 911.243 1486.54 945.875 1485.97Z" fill="#F5801A"/>
<path d="M928.871 1446.17C928.871 1446.17 923.126 1075.2 941.189 1073.94C951.032 1073.26 968.087 1433.74 964.436 1446.95C958.892 1466.99 935.074 1464.14 928.871 1446.17Z" fill="white"/>
<path d="M1003.22 1751.06C1010.31 1750.6 1013.33 1708.25 1009.96 1656.47C1006.59 1604.69 998.115 1563.09 991.027 1563.55C983.939 1564.01 980.923 1606.36 984.29 1658.14C987.658 1709.92 996.134 1751.52 1003.22 1751.06Z" fill="#333333"/>
<path d="M952.909 1130.06C951.464 1131.86 950.123 1133.43 948.973 1134.71C946.732 1137.27 945.21 1138.77 945.21 1138.77L930.452 1138.86C901.983 1116.95 889.775 1104.34 890.295 1080.43C890.815 1056.51 900.585 998.364 905.638 994.947C907.15 993.946 911.559 993.48 917.163 993.525C930.376 993.601 950.278 996.445 955.08 1001.28C961.949 1008.17 970.494 1087.73 968.528 1099.93C966.751 1110.96 958.962 1122.48 952.909 1130.06Z" fill="white"/>
</svg>
