<svg width="545" height="500" viewBox="0 0 545 500" fill="none" xmlns="http://www.w3.org/2000/svg">
<path d="M509.867 188.807C471.008 25.5168 290.013 -6.61416 139.96 77.9607C-10.094 162.536 -13.0809 484.338 239.231 493.909C491.542 503.479 535.478 296.426 509.867 188.807Z" fill="#E5F4FB"/>
<path d="M155.646 500C127.556 500 101.489 489.65 77.1611 458.614C65.3573 443.556 57.6989 427.849 53.7467 410.594C50.2183 395.189 49.7472 378.882 52.3068 360.74C57.0553 327.082 71.2676 293.253 86.3142 257.437C91.5473 244.98 96.9592 232.099 101.87 219.362C110.841 196.096 117.386 170.397 123.716 145.545C140.335 80.293 156.033 18.6604 212.184 4.4561C278.729 -12.3794 302.948 20.9513 333.61 63.1479C349.756 85.3678 368.056 110.552 395.45 132.717C450.154 176.98 483.899 215.544 501.648 254.082C523.338 301.181 521.378 349.051 495.655 400.426C481.5 428.697 463.242 445.806 438.198 454.268C415.909 461.8 391.008 461.548 364.646 461.284C338.597 461.021 311.663 460.752 284.555 467.85C269.053 471.91 254.104 476.724 239.647 481.38C209.755 491.005 181.821 500 155.646 500ZM212.339 5.26684L212.495 6.0781C157.179 20.0713 141.598 81.2451 125.103 146.011C118.76 170.915 112.201 196.668 103.191 220.035C98.2707 232.797 92.8542 245.69 87.6156 258.159C57.8926 328.909 29.8187 395.735 78.2346 457.501C124.632 516.692 177.75 499.586 239.256 479.778C253.73 475.117 268.697 470.298 284.233 466.229C311.506 459.088 338.528 459.358 364.659 459.622C417.879 460.156 463.848 460.618 494.402 399.596C519.858 348.756 521.809 301.412 500.37 254.859C482.732 216.561 449.129 178.181 394.618 134.075C367.068 111.784 348.704 86.5103 332.5 64.2119C302.153 22.4484 278.183 -10.5405 212.495 6.07759L212.339 5.26684Z" fill="#B8DBF2"/>
<path d="M243.902 138.51C281.86 117.516 313.021 84.3048 343.995 103.603C374.97 122.901 348.444 181.708 377.318 207.932C406.192 234.156 467.856 279.299 435.983 357.216C404.11 435.133 310.438 389.57 284.466 372.276C258.493 354.982 235.983 454.032 163.936 423.05C91.8882 392.067 144.059 319.314 143.992 290.492C143.925 261.671 97.1916 214.363 129.206 182.655C161.22 150.946 189.862 168.399 243.902 138.51Z" fill="#F2FBFF"/>
<path d="M453.978 210.33C444.684 151.645 457.831 111.268 473.169 124.32C488.507 137.372 456.495 217.956 456.495 217.956L453.978 210.33Z" fill="#53C177"/>
<path d="M453.978 258.235C461.483 175.992 504.767 118.795 533.062 143.529C561.357 168.263 423.668 346.904 423.668 346.904L453.978 258.235Z" fill="#94D49E"/>
<path d="M395.139 372.689C470.248 370.769 546.939 324.594 541.826 292.69C536.714 260.787 419.322 326.655 414.147 339.706C408.972 352.757 395.139 372.689 395.139 372.689Z" fill="#94D49E"/>
<path d="M450.474 280.502C450.319 280.502 450.162 280.461 450.015 280.375C449.515 280.083 449.316 279.381 449.571 278.807C449.939 277.975 486.662 195.298 511.632 164.945C512.017 164.476 512.659 164.457 513.066 164.899C513.474 165.342 513.491 166.079 513.106 166.547C488.337 196.656 451.746 279.035 451.379 279.864C451.2 280.269 450.843 280.502 450.474 280.502Z" fill="#E6FFE9"/>
<path d="M488.105 204.576C487.732 204.576 487.373 204.339 487.196 203.929C486.947 203.352 487.151 202.653 487.653 202.365C488.355 201.964 504.944 192.528 514.519 192.995C515.079 193.022 515.515 193.565 515.491 194.208C515.468 194.851 514.992 195.345 514.436 195.325C505.389 194.903 488.723 204.358 488.556 204.454C488.411 204.537 488.257 204.576 488.105 204.576Z" fill="#E6FFE9"/>
<path d="M399.986 355.491C399.606 355.491 399.242 355.244 399.069 354.823C398.829 354.241 399.045 353.546 399.551 353.271C400.405 352.805 485.357 306.707 518.57 301.889C519.124 301.811 519.633 302.261 519.703 302.899C519.773 303.538 519.379 304.122 518.823 304.202C485.93 308.974 401.27 354.914 400.42 355.378C400.279 355.454 400.131 355.491 399.986 355.491Z" fill="#E6FFE9"/>
<path d="M506.525 323.858C506.358 323.858 506.19 323.811 506.034 323.712C499.118 319.321 482.511 315.699 482.344 315.663C481.794 315.544 481.431 314.935 481.534 314.302C481.638 313.669 482.167 313.251 482.719 313.371C483.413 313.521 499.814 317.099 507.016 321.67C507.506 321.982 507.684 322.691 507.413 323.255C507.229 323.64 506.882 323.858 506.525 323.858Z" fill="#E6FFE9"/>
<path d="M492.565 334.297C492.426 334.297 492.286 334.264 492.151 334.195C482.416 329.195 465.419 322.973 465.249 322.911C464.715 322.715 464.419 322.06 464.589 321.446C464.759 320.833 465.329 320.494 465.863 320.688C466.035 320.75 483.14 327.013 492.979 332.066C493.49 332.328 493.72 333.018 493.491 333.606C493.323 334.039 492.953 334.297 492.565 334.297Z" fill="#E6FFE9"/>
<path d="M453.977 221.375C453.438 221.375 452.989 220.887 452.964 220.263C451.876 193.159 464.447 137.973 464.574 137.419C464.716 136.796 465.269 136.423 465.814 136.588C466.355 136.753 466.678 137.391 466.535 138.013C466.409 138.564 453.916 193.407 454.99 220.155C455.016 220.798 454.583 221.344 454.024 221.374C454.009 221.374 453.993 221.375 453.977 221.375Z" fill="#E6FFE9"/>
<path d="M91.315 294.332C54.888 239.815 34.0609 206.725 13.7039 222.222C-6.653 237.719 70.2312 359.665 104.688 342.996C139.146 326.328 91.315 294.332 91.315 294.332Z" fill="#94D49E"/>
<path d="M122.556 377.614C99.5966 370.433 85.3516 405.797 65.9701 397.994C46.5886 390.192 52.8901 356 115.636 361.027C178.381 366.053 122.556 377.614 122.556 377.614Z" fill="#94D49E"/>
<path d="M121.318 216.765C130.775 188.777 124.404 152.645 108.193 160.739C91.9814 168.832 98.7987 220.677 98.7987 220.677C98.7987 220.677 91.1041 109.487 62.6792 124.937C34.2543 140.388 66.7185 301.057 103.567 302.102C140.415 303.146 121.318 216.765 121.318 216.765Z" fill="#53C177"/>
<path d="M112.958 262.651C112.904 262.66 112.848 262.663 112.792 262.658C112.384 262.624 112.077 262.215 112.106 261.746C112.149 261.074 116.314 194.277 110.842 171.489C110.733 171.035 110.965 170.566 111.36 170.44C111.755 170.313 112.163 170.581 112.272 171.035C117.812 194.108 113.761 259.114 113.586 261.87C113.56 262.275 113.292 262.593 112.958 262.651Z" fill="#FFD194"/>
<path d="M69.0384 385.291C68.8117 385.331 68.5724 385.249 68.3991 385.047C68.1114 384.712 68.1149 384.172 68.4064 383.842C79.0612 371.766 92.3583 368.208 101.64 367.35C111.674 366.422 119.085 368.31 119.396 368.391C119.795 368.495 120.045 368.951 119.955 369.41C119.865 369.869 119.466 370.157 119.069 370.053C118.773 369.977 89.2335 362.632 69.4475 385.055C69.3316 385.187 69.188 385.265 69.0384 385.291Z" fill="#E6FFE9"/>
<path d="M103.852 294.649C103.459 294.717 103.087 294.416 103.013 293.963C102.857 293.008 87.1829 197.854 68.9582 143.023C68.8121 142.583 69.0035 142.091 69.3862 141.923C69.7671 141.753 70.1971 141.975 70.3433 142.415C88.6159 197.389 104.314 292.692 104.471 293.648C104.546 294.111 104.282 294.556 103.879 294.643C103.87 294.645 103.861 294.647 103.852 294.649Z" fill="#E6FFE9"/>
<path d="M109.304 336.097C109.06 336.14 108.802 336.041 108.63 335.809C108.051 335.034 50.4696 257.949 24.6168 234.15C24.2972 233.856 24.2457 233.319 24.5015 232.952C24.7582 232.585 25.2247 232.526 25.5436 232.82C51.5041 256.718 109.176 333.923 109.755 334.7C110.022 335.057 109.986 335.596 109.675 335.902C109.566 336.01 109.437 336.074 109.304 336.097Z" fill="#E6FFE9"/>
<path d="M81.5842 185.329C81.4095 185.359 81.2248 185.318 81.0655 185.198L62.4437 171.089C62.1019 170.83 62.0075 170.301 62.2327 169.908C62.4573 169.516 62.9176 169.407 63.2596 169.666L81.8815 183.775C82.2233 184.034 82.3176 184.563 82.0924 184.955C81.9723 185.165 81.7849 185.294 81.5842 185.329Z" fill="#E6FFE9"/>
<path d="M85.6967 202.552C85.522 202.582 85.3373 202.542 85.1781 202.421L64.5033 186.757C64.1616 186.498 64.067 185.969 64.2924 185.576C64.5172 185.183 64.9773 185.075 65.3193 185.334L85.994 200.998C86.3358 201.257 86.4304 201.786 86.2049 202.179C86.0846 202.389 85.8972 202.518 85.6967 202.552Z" fill="#E6FFE9"/>
<path d="M89.293 218.673C89.123 218.703 88.9435 218.665 88.7871 218.552L66.5806 202.46C66.2342 202.209 66.1304 201.683 66.3485 201.284C66.5672 200.886 67.0253 200.767 67.371 201.018L89.5776 217.11C89.924 217.361 90.0278 217.887 89.8096 218.285C89.69 218.503 89.4984 218.638 89.293 218.673Z" fill="#E6FFE9"/>
<path d="M48.6558 259.549L31.2449 262.574C30.84 262.644 30.4621 262.324 30.401 261.859C30.3399 261.394 30.6183 260.959 31.0232 260.889L48.4341 257.864C48.839 257.794 49.2169 258.114 49.278 258.579C49.3391 259.045 49.0607 259.479 48.6558 259.549Z" fill="#E6FFE9"/>
<path d="M61.796 275.263L42.2654 278.656C41.8605 278.726 41.4826 278.406 41.4215 277.941C41.3604 277.475 41.6388 277.041 42.0437 276.971L61.5743 273.578C61.9792 273.507 62.3571 273.827 62.4182 274.293C62.4794 274.758 62.2009 275.192 61.796 275.263Z" fill="#E6FFE9"/>
<path d="M284.039 411.066C327.105 395.241 353.527 408.017 345.074 421.468C336.622 434.919 280.864 422.659 268.074 430.683C255.283 438.706 284.039 411.066 284.039 411.066Z" fill="#94D49E"/>
<path d="M290.551 402.434C303.81 383.342 322.296 386.493 321.637 392.999C320.978 399.505 285.542 409.185 285.542 409.185L290.551 402.434Z" fill="#53C177"/>
<path d="M265.08 419.845C265.166 419.86 265.257 419.857 265.347 419.835C265.8 419.721 310.91 408.567 335.859 416.239C336.255 416.359 336.661 416.09 336.767 415.635C336.873 415.18 336.637 414.713 336.242 414.592C310.945 406.818 265.487 418.055 265.031 418.169C264.631 418.269 264.377 418.724 264.465 419.184C264.532 419.54 264.784 419.795 265.08 419.845Z" fill="#E6FFE9"/>
<path d="M300.612 369.697H254.617V435.224H300.612V369.697Z" fill="#003545"/>
<path d="M442.857 380.977H112.508C104.885 380.977 98.7061 373.874 98.7061 365.112V135.037C98.7061 126.276 104.885 119.173 112.508 119.173H442.857C450.48 119.173 456.659 126.276 456.659 135.037V365.112C456.659 373.874 450.48 380.977 442.857 380.977Z" fill="#054659"/>
<path d="M441.488 364.375H113.876C110.743 364.375 108.203 361.456 108.203 357.855V136.973C108.203 133.372 110.743 130.453 113.876 130.453H441.488C444.621 130.453 447.16 133.372 447.16 136.973V357.855C447.16 361.456 444.621 364.375 441.488 364.375Z" fill="white"/>
<path d="M375.955 440.689H179.274C179.274 431.521 185.74 424.088 193.717 424.088H361.512C369.489 424.088 375.955 431.521 375.955 440.689Z" fill="#054659"/>
<path d="M437.608 141.201H117.758V353.628H437.608V141.201Z" fill="#E5F4FB"/>
<path d="M437.608 141.201H117.758V176.771H437.608V141.201Z" fill="#81CAEB"/>
<path d="M420.589 155.766H134.774V162.205H420.589V155.766Z" fill="white"/>
<path d="M429.565 216.256H391.364V220.865H429.565V216.256Z" fill="#F2FBFF"/>
<path d="M429.565 225.824H391.364V230.432H429.565V225.824Z" fill="#F2FBFF"/>
<path d="M411.668 235.391H391.364V240H411.668V235.391Z" fill="#F2FBFF"/>
<path d="M383.164 209.657H351.025V246.599H383.164V209.657Z" fill="#F2FBFF"/>
<path d="M429.565 279.272H391.364V283.88H429.565V279.272Z" fill="#F2FBFF"/>
<path d="M429.565 288.839H391.364V293.447H429.565V288.839Z" fill="#F2FBFF"/>
<path d="M411.668 298.406H391.364V303.015H411.668V298.406Z" fill="#F2FBFF"/>
<path d="M383.164 272.672H351.025V309.615H383.164V272.672Z" fill="#F2FBFF"/>
<path d="M204.337 216.256H166.136V220.865H204.337V216.256Z" fill="#F2FBFF"/>
<path d="M204.337 225.824H166.136V230.432H204.337V225.824Z" fill="#F2FBFF"/>
<path d="M186.439 235.391H166.136V240H186.439V235.391Z" fill="#F2FBFF"/>
<path d="M157.94 209.657H125.801V246.6H157.94V209.657Z" fill="#F2FBFF"/>
<path d="M204.337 279.272H166.136V283.88H204.337V279.272Z" fill="#F2FBFF"/>
<path d="M204.337 288.839H166.136V293.448H204.337V288.839Z" fill="#F2FBFF"/>
<path d="M186.439 298.406H166.136V303.015H186.439V298.406Z" fill="#F2FBFF"/>
<path d="M157.94 272.672H125.801V309.615H157.94V272.672Z" fill="#F2FBFF"/>
<path d="M23.1373 295.307C25.4609 303.245 22.0048 307.749 22.0048 307.749L46.0496 342.284C46.0496 342.284 55.7075 339.744 59.1131 347.477C61.4847 352.855 60.8262 357.615 60.2069 360.013C60.0564 360.601 59.3553 360.642 59.1457 360.083C58.2297 357.672 56.0653 353.15 52.1496 351.27C47.8942 349.228 42.6721 354.702 43.8265 360.501C44.5725 364.247 48.0943 366.902 50.0418 368.111C50.5105 368.4 50.4126 369.19 49.8964 369.32C47.3921 369.952 42.2384 370.383 39.1362 364.646C34.9252 356.856 38.9621 349.848 38.9621 349.848L30.8261 337.777L14.9554 314.245C14.9554 314.245 11.3348 317.487 5.82948 313.549C3.21757 311.684 1.75876 308.86 0.953806 306.124C0.347232 304.095 0.0995891 302.118 0.0017192 300.615C-0.0409477 299.943 0.721777 299.673 1.04178 300.237C4.32119 305.987 9.95761 307.252 14.2511 300.81C17.7309 295.585 13.6331 290.585 11.114 288.234C10.6636 287.816 10.9792 286.986 11.5526 287.084C14.9633 287.675 21.446 289.54 23.1373 295.307Z" fill="#ABDEF0"/>
<path d="M43.1281 346.95C43.0861 347.065 43.0179 347.17 42.9255 347.252C42.6427 347.502 42.2371 347.44 42.0203 347.115L17.7145 310.725C17.4976 310.4 17.5506 309.934 17.8335 309.684C18.1163 309.434 18.5218 309.495 18.7387 309.82L43.0445 346.21C43.1905 346.43 43.2143 346.712 43.1281 346.95Z" fill="#89CAE0"/>
<path d="M16.0318 305.142C16.9375 305.209 17.6248 306.107 17.5667 307.149C17.5086 308.19 16.7274 308.98 15.8215 308.913C14.9159 308.846 14.2286 307.948 14.2866 306.907C14.3447 305.866 15.1261 305.076 16.0318 305.142Z" fill="#89CAE0"/>
<path d="M44.2339 347.953C45.1396 348.02 45.8269 348.918 45.7688 349.959C45.7108 351 44.9296 351.79 44.0237 351.723C43.1178 351.657 42.4307 350.758 42.4888 349.717C42.5468 348.676 43.3283 347.886 44.2339 347.953Z" fill="#89CAE0"/>
<path d="M535.663 224.319C533.827 225.353 531.515 226.062 531.515 226.062C531.515 226.062 531.279 225.616 530.894 225C530.372 224.162 529.572 223.004 528.717 222.223C528.462 221.99 528.207 221.79 527.947 221.641C527.357 221.3 527.666 220.493 528.343 219.569C529.688 217.72 532.496 215.402 532.496 215.402C532.496 215.402 532.734 215.901 533.267 216.675C533.758 217.396 534.507 218.355 535.557 219.367C536.021 219.818 536.546 220.279 537.132 220.734C538.773 222.008 537.442 223.317 535.663 224.319Z" fill="#89CAE0"/>
<path d="M533.268 216.675C532.432 217.903 531.182 219.455 529.975 220.834C529.544 221.328 529.12 221.797 528.718 222.223C527.578 223.437 526.652 224.287 526.421 224.248C525.726 224.122 522.722 221.417 522.624 219.755C522.586 219.091 523.462 217.487 524.613 215.792C526.335 213.246 528.674 210.491 529.47 210.365C530.794 210.154 534.283 214.269 534.257 214.737C534.238 215.107 533.854 215.81 533.268 216.675Z" fill="#ABDEF0"/>
<path d="M530.489 226.879C529.794 229.257 527.371 233.466 524.252 235.018C521.132 236.57 528.08 241.101 528.112 239.806C528.144 238.511 532.815 231.886 534.651 231.148C536.487 230.409 530.489 226.879 530.489 226.879Z" fill="#89CAE0"/>
<path d="M542.444 245.934C541.665 246.061 541.796 241.986 538.069 236.105C535.878 232.65 530.534 228.508 529.939 227.258C529.78 226.923 530.193 226.066 530.896 225C531.376 224.271 531.992 223.443 532.652 222.623C533.624 221.418 534.688 220.225 535.559 219.367C536.464 218.478 537.159 217.952 537.317 218.152C539.843 221.32 541.605 224.314 542.794 227.081C547.647 238.347 543.07 245.833 542.444 245.934Z" fill="#ABDEF0"/>
<path d="M522.909 232.822C524.405 233.035 529.491 238.757 529.838 241.319C530.185 243.88 497.311 282.447 495.502 282.824C493.693 283.201 487.557 277.626 488.153 274.387C488.749 271.148 521.314 232.596 522.909 232.822Z" fill="#7FBFD4"/>
<path d="M394.707 462.835C417.824 462.835 436.565 458.498 436.565 453.147C436.565 447.797 417.824 443.459 394.707 443.459C371.59 443.459 352.85 447.797 352.85 453.147C352.85 458.498 371.59 462.835 394.707 462.835Z" fill="#B8DBF2"/>
<path d="M157.575 462.835C180.693 462.835 199.433 458.498 199.433 453.147C199.433 447.797 180.693 443.459 157.575 443.459C134.458 443.459 115.718 447.797 115.718 453.147C115.718 458.498 134.458 462.835 157.575 462.835Z" fill="#B8DBF2"/>
<path d="M266.638 81.4976L265.297 80.7567C268.419 73.2891 278.314 76.1498 287.044 78.6738C290.56 79.6903 293.88 80.6495 296.327 80.7923C298.224 80.9028 299.965 80.0521 301.504 78.264C305.099 74.0857 306.478 66.3026 306.561 64.8057C305.613 63.8759 300.117 60.8622 295.105 58.362L295.698 56.7928C307.786 62.8245 307.952 63.861 308.031 64.359C308.191 65.3551 306.841 73.8928 303.064 78.846C301.101 81.4195 298.809 82.6492 296.252 82.5008C293.659 82.3498 290.27 81.3705 286.682 80.3325C278.504 77.9682 269.234 75.287 266.638 81.4976ZM306.656 64.9112C306.656 64.9117 306.656 64.9116 306.656 64.9116V64.9112Z" fill="#89CAE0"/>
<path d="M266.576 30.8177C270.466 27.3207 305.252 48.1302 305.88 50.7875C306.507 53.4447 299.943 72.2326 296.3 73.2747C292.658 74.3167 259.41 56.1654 258.047 53.5476C256.684 50.9301 263.983 33.1491 266.576 30.8177Z" fill="#ABDEF0"/>
<path d="M261.272 77.2677C262.026 76.912 271.772 82.0498 272.06 83.5292C272.347 85.0086 264.534 100.002 264.062 100.363C263.589 100.725 256.842 97.9097 255.951 95.9767C255.059 94.0438 260.379 77.6891 261.272 77.2677Z" fill="#7FBFD4"/>
<path d="M296.081 48.5401C295.526 49.9631 288.917 47.9429 281.319 44.0278C273.722 40.1126 268.012 35.7851 268.568 34.3621C269.123 32.939 275.732 34.9592 283.329 38.8744C290.927 42.7895 296.636 47.117 296.081 48.5401Z" fill="#333333"/>
<path d="M396.132 94.766C397.206 95.1811 398.4 94.8476 399.185 93.9069L399.369 93.6817L399.884 93.0697L401.809 90.7477L402.318 90.1447L404.25 87.8219L404.758 87.2107L406.684 84.8973L407.191 84.286L409.124 81.9632L409.625 81.3613L411.557 79.0385L412.066 78.4356L413.998 76.1128L414.498 75.5026L416.438 73.1788L416.939 72.5769L418.872 70.2541L419.379 69.6428L421.312 67.3284L421.813 66.7181L423.745 64.3953L424.246 63.7934L426.179 61.4707L426.687 60.868L428.619 58.5369L429.12 57.9349L431.059 55.6112L431.561 55.0092L433.493 52.6865L434.001 52.0752L435.933 49.7524L436.434 49.1505L438.367 46.8277L438.875 46.2248L440.075 44.7772C440.932 43.7433 441.126 42.2095 440.566 40.9377C440.016 39.6898 438.856 38.9734 437.651 39.1225L437.572 39.1324C422.258 41.4933 397.271 45.1625 393.679 45.2025C393.371 45.1226 393.047 45.1039 392.72 45.1443C391.117 45.343 389.959 46.9964 390.131 48.839L394.173 91.9464C394.295 93.2474 395.058 94.3423 396.132 94.766ZM416.183 49.0956C421.157 48.3782 426.136 47.6349 430.115 47.032L399.303 84.0572L396.273 51.7392C399.606 51.4361 405.474 50.6332 416.183 49.0956ZM395.652 46.9916C395.55 46.7597 395.427 46.5471 395.29 46.3446C395.426 46.5388 395.556 46.7504 395.652 46.9916Z" fill="#89CAE0"/>
<path d="M397.747 91.3268C397.813 91.2512 397.89 91.208 397.977 91.1971C398.079 91.1844 398.185 91.2219 398.267 91.3129L399.884 93.0694L399.369 93.6814L397.759 91.9242C397.619 91.7644 397.609 91.4959 397.747 91.3268Z" fill="#ABDEF0"/>
<path d="M400.171 88.3866C400.23 88.3118 400.314 88.2675 400.393 88.2576C400.502 88.2442 400.609 88.2817 400.69 88.3727L402.317 90.1448L401.808 90.7478L400.182 88.9756C400.035 88.8166 400.033 88.5555 400.171 88.3866Z" fill="#ABDEF0"/>
<path d="M402.597 85.4459C402.656 85.3711 402.739 85.3271 402.819 85.3172C402.928 85.3038 403.034 85.3413 403.116 85.4239L404.758 87.211L404.25 87.8223L402.608 86.0352C402.461 85.8759 402.458 85.615 402.597 85.4459Z" fill="#ABDEF0"/>
<path d="M405.02 82.5055C405.08 82.4307 405.163 82.3864 405.243 82.3766C405.345 82.3639 405.458 82.4006 405.532 82.4843L407.191 84.2863L406.683 84.8975L405.032 83.0946C404.885 82.9355 404.882 82.6744 405.02 82.5055Z" fill="#ABDEF0"/>
<path d="M407.444 79.5566C407.503 79.482 407.587 79.4378 407.667 79.4279C407.768 79.4153 407.875 79.4527 407.956 79.5437L409.624 81.3616L409.122 81.9636L407.456 80.154C407.309 79.9952 407.306 79.7257 407.444 79.5566Z" fill="#ABDEF0"/>
<path d="M409.869 76.6162C409.928 76.5413 410.012 76.4971 410.091 76.4872C410.193 76.4746 410.299 76.5123 410.381 76.6033L412.065 78.4361L411.556 79.0391L409.881 77.2138C409.734 77.0545 409.73 76.785 409.869 76.6162Z" fill="#ABDEF0"/>
<path d="M412.293 73.6758C412.352 73.6009 412.436 73.5569 412.516 73.5468C412.618 73.5342 412.724 73.5716 412.806 73.6626L414.497 75.5028L413.997 76.113L412.305 74.2729C412.158 74.1141 412.155 73.8446 412.293 73.6758Z" fill="#ABDEF0"/>
<path d="M414.719 70.7353C414.778 70.6605 414.862 70.6165 414.941 70.6064C415.043 70.5937 415.149 70.6312 415.231 70.7224L416.939 72.5773L416.437 73.1792L414.73 71.3241C414.583 71.1656 414.58 70.9042 414.719 70.7353Z" fill="#ABDEF0"/>
<path d="M417.143 67.7949C417.201 67.7201 417.285 67.6761 417.365 67.6662C417.467 67.6536 417.573 67.6912 417.654 67.7737L419.378 69.6434L418.87 70.2547L417.154 68.3839C417.007 68.2249 417.004 67.9638 417.143 67.7949Z" fill="#ABDEF0"/>
<path d="M419.568 64.8459C419.627 64.7711 419.712 64.7355 419.791 64.7253C419.893 64.7127 419.998 64.7418 420.08 64.833L421.813 66.7187L421.312 67.329L419.58 65.4433C419.433 65.2845 419.43 65.0148 419.568 64.8459Z" fill="#ABDEF0"/>
<path d="M421.992 61.9056C422.051 61.8308 422.127 61.7875 422.215 61.7767C422.316 61.764 422.422 61.8017 422.504 61.8925L424.245 63.7938L423.744 64.3957L422.004 62.5027C421.857 62.344 421.853 62.0745 421.992 61.9056Z" fill="#ABDEF0"/>
<path d="M424.409 58.9659C424.475 58.8901 424.552 58.8469 424.639 58.8362C424.741 58.8236 424.847 58.861 424.929 58.9523L426.686 60.8685L426.178 61.4712L424.428 59.5623C424.281 59.4035 424.271 59.1348 424.409 58.9659Z" fill="#ABDEF0"/>
<path d="M426.833 56.0253C426.9 55.9497 426.976 55.9064 427.063 55.8956C427.165 55.8829 427.271 55.9206 427.353 56.0114L429.118 57.9352L428.617 58.5371L426.852 56.6135C426.705 56.4545 426.695 56.1944 426.833 56.0253Z" fill="#ABDEF0"/>
<path d="M429.259 53.0849C429.326 53.0093 429.402 52.966 429.489 52.9552C429.591 52.9425 429.697 52.9799 429.778 53.0629L431.561 55.0097L431.059 55.6116L429.278 53.6729C429.131 53.5141 429.121 53.2537 429.259 53.0849Z" fill="#ABDEF0"/>
<path d="M431.683 50.1444C431.749 50.0688 431.826 50.0256 431.913 50.0147C432.015 50.0021 432.121 50.0397 432.202 50.1224L434 52.0758L433.492 52.6871L431.702 50.7327C431.555 50.5737 431.544 50.3052 431.683 50.1444Z" fill="#ABDEF0"/>
<path d="M434.107 47.1955C434.174 47.12 434.25 47.0767 434.338 47.0659C434.439 47.0532 434.545 47.0909 434.627 47.1819L436.433 49.1512L435.932 49.7531L434.127 47.7922C433.98 47.6331 433.969 47.3644 434.107 47.1955Z" fill="#ABDEF0"/>
<path d="M436.531 44.2554C436.597 44.1795 436.674 44.1363 436.761 44.1257C436.863 44.113 436.969 44.1507 437.051 44.2417L438.873 46.226L438.365 46.8289L436.55 44.8522C436.404 44.693 436.393 44.4242 436.531 44.2554Z" fill="#ABDEF0"/>
<path d="M139.325 42.4374C125.627 35.5267 109.445 43.1685 103.088 59.5163L103.006 59.7312C101.257 64.3135 100.46 69.0895 100.519 73.7459L111.335 79.2024C110.053 74.5273 110.202 69.2379 112.084 64.3107C112.111 64.2392 112.139 64.1676 112.171 64.0989C116.226 53.7627 126.483 48.9385 135.17 53.3208C143.856 57.7032 147.711 69.6467 143.837 80.0743C143.816 80.1487 143.788 80.2205 143.761 80.292C141.88 85.2194 138.594 88.926 134.733 91.0071L145.549 96.4636C148.57 93.3612 151.089 89.4539 152.838 84.8715L152.92 84.6569C159.084 68.2113 153.023 49.348 139.325 42.4374Z" fill="#89CAE0"/>
<path d="M99.124 57.5164L94.1533 70.5345L151.913 99.6742L156.884 86.6561L99.124 57.5164Z" fill="#89CAE0"/>
<path d="M142.853 95.1033L145.214 88.9197C145.283 88.7374 145.462 88.657 145.621 88.7372C145.78 88.817 145.85 89.0231 145.78 89.2054L143.419 95.3889L142.853 95.1033Z" fill="#ABDEF0"/>
<path d="M133.792 90.5324L136.153 84.3488C136.223 84.1665 136.402 84.0861 136.56 84.1662C136.719 84.2461 136.789 84.4522 136.719 84.6344L134.358 90.818L133.792 90.5324Z" fill="#ABDEF0"/>
<path d="M124.731 85.9614L127.092 79.7779C127.162 79.5956 127.341 79.5152 127.5 79.5953C127.658 79.6752 127.728 79.8812 127.659 80.0635L125.298 86.2471L124.731 85.9614Z" fill="#ABDEF0"/>
<path d="M115.672 81.3904L118.033 75.2068C118.102 75.0245 118.282 74.9441 118.44 75.0243C118.599 75.1042 118.669 75.3102 118.599 75.4925L116.238 81.6761L115.672 81.3904Z" fill="#ABDEF0"/>
<path d="M106.611 76.8197L108.972 70.6361C109.042 70.4538 109.221 70.3735 109.38 70.4536C109.538 70.5335 109.608 70.7395 109.538 70.9218L107.177 77.1054L106.611 76.8197Z" fill="#ABDEF0"/>
<path d="M97.5508 72.2488L99.912 66.0652C99.9815 65.8829 100.161 65.8025 100.319 65.8827C100.478 65.9626 100.548 66.1686 100.478 66.3509L98.1169 72.5345L97.5508 72.2488Z" fill="#ABDEF0"/>
<path d="M147.383 97.3889L148.75 93.809C148.819 93.6267 148.998 93.5463 149.157 93.6264C149.316 93.7063 149.386 93.9124 149.316 94.0946L147.949 97.6746L147.383 97.3889Z" fill="#ABDEF0"/>
<path d="M138.322 92.8179L139.689 89.2379C139.759 89.0556 139.938 88.9753 140.096 89.0554C140.255 89.1353 140.325 89.3413 140.255 89.5236L138.888 93.1036L138.322 92.8179Z" fill="#ABDEF0"/>
<path d="M129.262 88.247L130.629 84.667C130.698 84.4847 130.877 84.4043 131.036 84.4845C131.194 84.5644 131.264 84.7704 131.195 84.9527L129.828 88.5326L129.262 88.247Z" fill="#ABDEF0"/>
<path d="M120.202 83.676L121.569 80.0961C121.639 79.9138 121.818 79.8334 121.976 79.9136C122.135 79.9934 122.205 80.1995 122.135 80.3817L120.768 83.9617L120.202 83.676Z" fill="#ABDEF0"/>
<path d="M111.142 79.1051L112.508 75.5252C112.578 75.3429 112.757 75.2625 112.916 75.3426C113.074 75.4225 113.144 75.6286 113.075 75.8108L111.708 79.3908L111.142 79.1051Z" fill="#ABDEF0"/>
<path d="M102.081 74.5342L103.448 70.9542C103.517 70.772 103.697 70.6916 103.855 70.7717C104.014 70.8516 104.084 71.0576 104.014 71.2399L102.647 74.8199L102.081 74.5342Z" fill="#ABDEF0"/>
<path d="M261.841 209.357C277.856 200.499 291.004 186.486 304.073 194.629C317.142 202.771 305.95 227.584 318.133 238.648C330.315 249.713 356.333 268.76 342.885 301.635C329.437 334.51 289.914 315.286 278.956 307.989C267.998 300.692 258.5 342.484 228.101 329.412C197.703 316.339 219.715 285.643 219.687 273.482C219.659 261.322 199.94 241.361 213.448 227.983C226.955 214.605 239.04 221.968 261.841 209.357Z" fill="#F2FBFF"/>
<path d="M310.847 318.214C310.847 318.214 308.982 330.184 309.137 331.256C309.293 332.328 312.712 332.149 313.489 331.256C314.266 330.362 319.862 318.214 319.862 318.214H310.847Z" fill="#14469C"/>
<path d="M240.955 318.214C240.955 318.214 242.821 330.184 242.665 331.256C242.51 332.328 239.09 332.149 238.313 331.256C237.536 330.362 231.94 318.214 231.94 318.214H240.955Z" fill="#14469C"/>
<path d="M328.181 279.952L326.889 279.849C327.29 273.186 331.13 270.064 334.518 267.309C337.562 264.834 340.436 262.497 340.654 257.912C341.063 249.264 334.681 246.101 330.457 244.008C328.51 243.043 327.223 242.405 326.921 241.375L328.149 240.899C328.28 241.308 329.835 242.078 330.97 242.641C335.247 244.76 342.406 248.308 341.947 257.993C341.696 263.296 338.427 265.954 335.266 268.524C331.959 271.213 328.539 273.994 328.181 279.952Z" fill="#FFA72B"/>
<path d="M327.571 296.236L326.282 296.082C326.858 289.703 331.049 285.045 335.101 280.541C338.854 276.371 342.398 272.431 342.117 267.803C341.758 261.906 336.415 258.139 332.121 255.113C329.39 253.187 327.233 251.666 326.902 249.908L328.169 249.594C328.382 250.73 330.527 252.242 332.799 253.844C337.105 256.88 343.003 261.038 343.409 267.7C343.733 273.019 339.977 277.193 336.001 281.612C332.116 285.93 328.098 290.396 327.571 296.236Z" fill="#FB503A"/>
<path d="M328.999 320.218C327.998 321.623 224.342 323.553 222.27 320.218C221.437 318.874 221.031 298.005 221.018 276.535C221.005 253.726 221.437 230.232 222.27 228.743C223.548 226.455 272.608 226.257 303.763 227.081C318.028 227.453 328.541 228.044 328.999 228.743C332.108 233.508 330.528 318.075 328.999 320.218Z" fill="#81CAEB"/>
<path d="M298.314 272.714C298.309 273.186 298.305 273.657 298.305 274.129C298.305 274.273 298.301 274.421 298.301 274.566C298.296 275.032 298.296 275.499 298.292 275.965C298.249 281.573 298.171 287.126 298.072 292.109C298.059 292.541 298.05 292.963 298.042 293.385C298.042 293.439 298.042 293.499 298.037 293.553C298.029 293.96 298.02 294.362 298.011 294.759C297.8 303.896 297.506 310.575 297.217 311.102C297.196 311.141 297.096 311.181 296.919 311.221C296.69 311.275 296.323 311.33 295.844 311.384C293.491 311.652 288.319 311.92 281.868 312.139C281.618 312.144 281.363 312.154 281.108 312.164C280.944 312.169 280.78 312.173 280.612 312.179C280.383 312.184 280.154 312.193 279.921 312.199C275.284 312.342 270.112 312.452 264.905 312.516C264.866 312.521 264.827 312.521 264.788 312.521C264.417 312.526 264.041 312.531 263.67 312.536C263.64 312.531 263.609 312.536 263.579 312.536C258.273 312.596 252.988 312.6 248.261 312.536H248.17C247.795 312.531 247.423 312.526 247.056 312.516H246.931C240.261 312.402 234.864 312.139 232.381 311.667C231.967 311.583 231.63 311.499 231.388 311.409C231.133 311.315 230.973 311.211 230.922 311.102C230.602 310.441 230.386 303.906 230.266 294.982C230.257 294.526 230.253 294.064 230.248 293.598V293.593C230.244 293.503 230.244 293.424 230.244 293.335C230.235 292.863 230.231 292.392 230.227 291.91C230.175 286.987 230.145 281.523 230.145 276.005V274.104C230.145 273.637 230.145 273.171 230.149 272.704C230.153 267.171 230.188 261.687 230.248 256.764C230.253 256.282 230.257 255.811 230.261 255.344C230.266 255.27 230.266 255.2 230.266 255.126C230.27 254.659 230.278 254.198 230.287 253.741C230.412 244.932 230.628 238.485 230.922 237.805C230.978 237.676 231.181 237.557 231.518 237.443C231.777 237.359 232.113 237.274 232.524 237.195C235.058 236.718 240.347 236.416 246.866 236.257C246.948 236.257 247.035 236.252 247.117 236.252C247.445 236.242 247.778 236.237 248.114 236.227C248.179 236.227 248.244 236.227 248.309 236.222C253.032 236.128 258.317 236.098 263.61 236.133H263.645C264.037 236.133 264.43 236.138 264.823 236.138H264.871C270.117 236.178 275.328 236.277 279.991 236.421C280.176 236.426 280.362 236.436 280.543 236.44C280.755 236.445 280.966 236.45 281.174 236.46C281.385 236.465 281.592 236.475 281.8 236.48C288.224 236.703 293.392 237.016 295.784 237.383C296.229 237.453 296.578 237.527 296.82 237.597C297.049 237.666 297.183 237.736 297.217 237.805C297.766 238.897 298.081 245.2 298.228 253.691C298.236 254.148 298.241 254.609 298.249 255.076C298.249 255.18 298.254 255.284 298.254 255.393C298.262 255.86 298.267 256.336 298.271 256.817C298.331 261.737 298.339 267.2 298.314 272.714Z" fill="#3B6BBF"/>
<path d="M264.237 304.961C278.945 304.961 290.867 291.256 290.867 274.35C290.867 257.444 278.945 243.739 264.237 243.739C249.529 243.739 237.606 257.444 237.606 274.35C237.606 291.256 249.529 304.961 264.237 304.961Z" fill="#FEFEF1"/>
<path d="M282.395 280.506C274.343 286.814 268.018 279.632 268.095 276.417C268.113 275.667 269.188 274.987 270.526 273.975C272.132 272.764 274.114 271.071 275.09 268.193C276.877 262.927 274.779 257.3 280.297 258.014C282.144 258.253 284.005 260.049 285.326 262.605C287.956 267.687 288.448 275.761 282.395 280.506Z" fill="#F5B3A2"/>
<path d="M265.035 302.01C264.621 302.372 264.129 302.645 263.585 302.828C258.317 304.64 247.938 298.536 250.058 287.334C252.13 276.386 261.02 276.605 262.89 279.002C263.39 279.642 262.812 281.329 262.419 283.543L262.415 283.553C262.056 285.563 261.845 288.009 262.725 290.501C264.578 295.737 269.469 298.163 265.035 302.01Z" fill="#F5B3A2"/>
<path d="M261.473 270.942C260.653 271.161 259.487 269.389 257.674 267.751C256.4 266.6 254.803 265.518 252.786 265.245C247.899 264.585 243.694 268.342 242.899 262.024C242.627 259.86 243.728 257.265 245.624 255.116H245.628C249.272 250.996 255.848 248.545 261.301 254.004C268.649 261.364 264.202 270.218 261.473 270.942Z" fill="#F5B3A2"/>
<path d="M268.017 278.702C270.108 276.298 270.108 272.401 268.017 269.997C265.926 267.594 262.536 267.594 260.444 269.997C258.353 272.401 258.353 276.298 260.444 278.702C262.536 281.105 265.926 281.105 268.017 278.702Z" fill="#EA917A"/>
<path d="M248.114 236.227L247.605 236.813L239.898 245.672L239.289 246.377L231.582 255.23L230.969 255.935L230.248 256.764C230.252 256.283 230.257 255.811 230.261 255.344L230.36 255.23L230.969 254.53L238.676 245.672L239.285 244.972L246.866 236.257C246.948 236.257 247.035 236.252 247.117 236.252C247.445 236.242 247.777 236.238 248.114 236.227Z" fill="#81CAEB"/>
<path d="M264.824 236.138L248.214 255.23L247.606 255.935L242.861 261.384L239.899 264.789L239.286 265.493L238.521 266.372L231.583 274.352L230.974 275.052L230.146 276.005V274.595L230.361 274.352L230.97 273.647L238.677 264.794L239.061 264.357L239.29 264.089L243.064 259.746L246.993 255.23L247.541 254.6L247.606 254.53L249.924 251.865L255.313 245.672L255.537 245.413L263.628 236.113L263.646 236.133C264.038 236.133 264.431 236.138 264.824 236.138Z" fill="#81CAEB"/>
<path d="M281.174 236.461L280.867 236.813L273.268 245.548L272.552 246.372L264.845 255.231L264.236 255.93L256.892 264.372L256.529 264.789L255.92 265.494L255.389 266.104L248.213 274.353L247.605 275.052L239.898 283.911L239.289 284.611L239.177 284.74L231.582 293.469L230.969 294.169L230.265 294.983C230.257 294.526 230.252 294.065 230.248 293.598V293.594L230.36 293.469L230.969 292.765L238.866 283.688L239.284 283.206L246.991 274.353L247.604 273.648L254.513 265.702L255.307 264.789L255.92 264.089L262.975 255.98L263.627 255.231L264.236 254.531L279.99 236.421C280.176 236.426 280.361 236.436 280.543 236.441C280.755 236.446 280.967 236.451 281.174 236.461Z" fill="#81CAEB"/>
<path d="M296.82 237.597L289.796 245.672L289.187 246.376L281.48 255.23L255.92 284.61L248.213 293.469L247.604 294.169L239.898 303.028L239.289 303.732L232.381 311.668C231.966 311.583 231.629 311.499 231.388 311.41L238.676 303.028L239.289 302.328L246.996 293.469L247.604 292.769L255.311 283.91L255.92 283.211L263.627 274.352L264.236 273.647L271.943 264.788L272.551 264.089L280.258 255.23L280.867 254.53L288.574 245.671L289.187 244.972L295.784 237.383C296.229 237.453 296.578 237.528 296.82 237.597Z" fill="#81CAEB"/>
<path d="M298.25 255.076L298.111 255.23L297.503 255.935L289.606 265.012L289.187 265.493L287.02 267.985L281.48 274.352L280.867 275.052L274.136 282.789L264.236 294.169L259.552 299.553L256.529 303.027L256.111 303.509L255.921 303.727L248.261 312.536L248.214 312.586L248.171 312.536C247.795 312.531 247.424 312.526 247.057 312.516L247.605 311.886L256.469 301.697L259.172 298.59L263.627 293.469L272.552 283.211L273.178 282.491L280.258 274.352L280.867 273.647L296.889 255.23L297.503 254.53L298.228 253.691C298.237 254.148 298.241 254.61 298.25 255.076Z" fill="#81CAEB"/>
<path d="M298.315 272.714C298.31 273.186 298.306 273.657 298.306 274.129L298.112 274.352L297.499 275.052L289.796 283.906L289.416 284.342L289.183 284.61L281.476 293.469L280.868 294.169L273.161 303.028L272.928 303.296L272.552 303.727L264.906 312.517L264.845 312.586L264.789 312.522C264.418 312.527 264.042 312.532 263.671 312.537L271.175 303.911L271.943 303.028L272.552 302.328L280.259 293.469L280.868 292.77L288.574 283.911L289.188 283.206L289.952 282.328L298.315 272.714Z" fill="#81CAEB"/>
<path d="M298.111 293.469L289.796 303.027L289.187 303.732L281.869 312.139C281.618 312.144 281.364 312.154 281.109 312.164C280.945 312.169 280.781 312.174 280.612 312.179L289.183 302.328L296.889 293.469L297.503 292.764L298.072 292.109C298.06 292.541 298.051 292.963 298.042 293.384L298.111 293.469Z" fill="#81CAEB"/>
<path d="M298.271 256.818L297.502 255.935L296.889 255.23L289.187 246.377L280.543 236.441C280.755 236.446 280.966 236.451 281.173 236.461C281.385 236.466 281.592 236.475 281.799 236.48L298.253 255.394C298.262 255.86 298.267 256.337 298.271 256.818Z" fill="#81CAEB"/>
<path d="M298.301 274.565C298.297 275.032 298.297 275.499 298.293 275.965L296.889 274.352L289.951 266.372L288.574 264.789L280.867 255.935L280.258 255.23L272.552 246.371L271.943 245.672L271.179 244.793L263.645 236.133C264.037 236.133 264.43 236.138 264.823 236.138L264.845 236.113L264.866 236.138H264.871L272.552 244.972L272.936 245.414L280.867 254.53L281.48 255.23L289.183 264.089L289.416 264.357L289.796 264.794L297.503 273.648L298.112 274.352L298.301 274.565Z" fill="#81CAEB"/>
<path d="M298.112 293.469L298.038 293.553C298.03 293.96 298.021 294.362 298.012 294.759L297.503 294.169L296.89 293.469L288.574 283.91L284.157 278.833L280.867 275.052L278.903 272.794L275.034 268.347L272.552 265.493L271.943 264.788L247.117 236.252C247.445 236.242 247.778 236.237 248.115 236.227C248.179 236.227 248.244 236.227 248.309 236.222L256.115 245.195L256.53 245.671L264.236 254.53L272.552 264.089L273.165 264.789L275.354 267.305L279.646 272.243L280.868 273.647L281.481 274.352L284.741 278.099L289.188 283.206L298.043 293.385L298.112 293.469Z" fill="#81CAEB"/>
<path d="M296.92 311.221C296.691 311.276 296.324 311.33 295.845 311.385L289.187 303.732L288.574 303.027L280.867 294.169L280.259 293.469L272.552 284.61L271.943 283.91L264.236 275.052L263.627 274.352L255.92 265.493L255.307 264.788L247.605 255.934L246.992 255.23L239.289 246.376L231.518 237.443C231.777 237.358 232.113 237.274 232.524 237.195L239.285 244.971L239.898 245.671L247.605 254.53L248.214 255.23L255.92 264.088L264.236 273.647L264.845 274.352L272.552 283.211L273.16 283.91L289.183 302.327L289.796 303.027L296.92 311.221Z" fill="#81CAEB"/>
<path d="M281.11 312.164C280.946 312.169 280.782 312.174 280.614 312.179C280.385 312.184 280.156 312.194 279.923 312.199L264.237 294.169L263.628 293.469L259.54 288.769L247.606 275.052L246.993 274.352L230.97 255.935L230.362 255.23L230.267 255.126C230.271 254.66 230.28 254.198 230.288 253.741L230.97 254.53L231.584 255.23L239.178 263.96L239.29 264.089L239.899 264.788L247.606 273.647L248.215 274.352L255.921 283.211L256.53 283.911L259.898 287.782L263.119 291.484L264.237 292.769L264.846 293.469L272.553 302.328L273.274 303.156L280.868 311.886L281.11 312.164Z" fill="#81CAEB"/>
<path d="M264.789 312.521C264.418 312.526 264.043 312.531 263.671 312.536L263.628 312.586L263.581 312.536L255.921 303.727L255.546 303.295L255.313 303.027L247.606 294.169L230.975 275.052L230.361 274.352L230.146 274.104C230.146 273.637 230.146 273.171 230.15 272.704L264.789 312.521Z" fill="#81CAEB"/>
<path d="M248.171 312.536C247.796 312.531 247.424 312.526 247.057 312.516L246.993 312.586L246.932 312.516L239.29 303.732L238.677 303.027L230.97 294.168L230.361 293.469L230.245 293.335C230.236 292.863 230.232 292.392 230.228 291.91L230.97 292.764L231.583 293.469L239.29 302.327L239.899 303.027L247.606 311.886L248.171 312.536Z" fill="#81CAEB"/>
<path d="M306.176 237.384C306.515 236.925 319.621 237.289 320.009 237.915C320.398 238.54 320.087 244.347 320.009 244.793C319.932 245.24 306.331 245.151 306.176 244.793C306.02 244.436 305.71 238.014 306.176 237.384Z" fill="#FEFEF1"/>
<path d="M307.937 251.901C309.046 251.901 309.945 250.868 309.945 249.594C309.945 248.319 309.046 247.286 307.937 247.286C306.829 247.286 305.93 248.319 305.93 249.594C305.93 250.868 306.829 251.901 307.937 251.901Z" fill="#FB503A"/>
<path d="M249.243 447.641L272.51 443.736C273.255 443.611 273.947 444.204 274.056 445.06L274.692 450.069C274.801 450.926 274.285 451.721 273.54 451.846L250.273 455.751C249.776 455.835 249.305 455.599 249.013 455.181L249.012 455.178C248.865 454.97 248.763 454.712 248.727 454.427L248.091 449.418C247.982 448.562 248.498 447.766 249.243 447.641Z" fill="#EA917A"/>
<path d="M248.996 442.931L251.208 460.346C251.291 461.001 250.896 461.611 250.326 461.706L244.771 462.638C244.201 462.734 243.671 462.28 243.587 461.624L241.375 444.21C241.292 443.554 241.687 442.945 242.258 442.849L247.812 441.917C248.382 441.821 248.912 442.275 248.996 442.931Z" fill="#F5B3A2"/>
<path d="M259.358 454.669C259.385 454.876 259.313 455.095 259.152 455.239C258.907 455.458 258.548 455.423 258.35 455.161L252.216 447.021C252.019 446.759 252.057 446.369 252.302 446.15C252.547 445.931 252.906 445.966 253.103 446.228L259.237 454.368C259.305 454.457 259.345 454.562 259.358 454.669Z" fill="#F5B3A2"/>
<path d="M264.555 453.797C264.581 454.004 264.509 454.223 264.348 454.367C264.103 454.586 263.744 454.551 263.547 454.289L257.412 446.149C257.215 445.887 257.253 445.497 257.498 445.278C257.743 445.059 258.102 445.094 258.299 445.356L264.434 453.496C264.501 453.585 264.541 453.689 264.555 453.797Z" fill="#F5B3A2"/>
<path d="M269.749 452.925C269.775 453.132 269.704 453.351 269.542 453.495C269.297 453.714 268.939 453.679 268.741 453.417L262.607 445.277C262.409 445.015 262.448 444.625 262.693 444.406C262.938 444.187 263.296 444.222 263.494 444.484L269.628 452.624C269.695 452.713 269.735 452.818 269.749 452.925Z" fill="#F5B3A2"/>
<path d="M274.945 452.053C274.972 452.26 274.9 452.479 274.739 452.623C274.494 452.842 274.135 452.807 273.937 452.545L267.803 444.405C267.606 444.143 267.644 443.753 267.889 443.534C268.134 443.315 268.493 443.35 268.69 443.612L274.824 451.752C274.892 451.841 274.932 451.946 274.945 452.053Z" fill="#F5B3A2"/>
<path d="M268.404 462.1V467.56C268.404 467.56 272.138 466.641 271.991 464.83C271.845 463.02 268.404 462.1 268.404 462.1Z" fill="#E0795E"/>
<path d="M290.349 464.83L287.397 461.168L286.819 460.455L286.515 460.077H284.092C284.702 460.632 285.065 461.336 285.065 462.1C285.065 462.598 284.91 463.072 284.631 463.496C284.588 463.562 284.544 463.624 284.496 463.686C284.14 464.147 283.634 464.537 283.026 464.83C283.636 465.12 284.141 465.515 284.496 465.974C284.544 466.036 284.591 466.098 284.631 466.164C284.91 466.588 285.065 467.061 285.065 467.56C285.065 468.323 284.702 469.028 284.089 469.582C283.248 470.349 281.944 470.841 280.478 470.841C279.014 470.841 277.71 470.349 276.869 469.582C276.256 469.028 275.89 468.323 275.89 467.56C275.89 467.061 276.048 466.588 276.324 466.164C276.368 466.098 276.411 466.036 276.46 465.974C276.815 465.515 277.319 465.12 277.929 464.83C277.319 464.537 276.815 464.144 276.462 463.683C276.411 463.62 276.368 463.558 276.324 463.496C276.048 463.072 275.89 462.598 275.89 462.1C275.89 461.336 276.256 460.632 276.866 460.077H274.442L274.139 460.454L273.561 461.168L270.608 464.83L268.404 467.56L274.442 475.042H286.515L292.55 467.56L290.349 464.83Z" fill="#E0795E"/>
<path d="M292.551 462.1V467.56C292.551 467.56 288.779 465.6 288.779 464.534C288.779 463.468 292.551 462.1 292.551 462.1Z" fill="#E0795E"/>
<path d="M280.508 471.546C283.298 471.546 285.559 470.705 285.559 469.667C285.559 468.629 283.298 467.788 280.508 467.788C277.718 467.788 275.457 468.629 275.457 469.667C275.457 470.705 277.718 471.546 280.508 471.546Z" fill="#00509F"/>
<path d="M285.559 462.097C285.559 462.861 285.155 463.562 284.48 464.116C283.55 463.347 282.105 462.854 280.481 462.854C278.854 462.854 277.409 463.347 276.479 464.116C275.804 463.562 275.4 462.861 275.4 462.097C275.4 460.286 277.675 458.815 280.481 458.815C283.284 458.815 285.559 460.286 285.559 462.097Z" fill="#EA917A"/>
<path d="M285.559 466.136C285.559 467.95 283.285 469.421 280.481 469.421C277.675 469.421 275.4 467.95 275.4 466.136C275.4 465.376 275.804 464.671 276.479 464.117C277.409 464.89 278.854 465.382 280.481 465.382C282.105 465.382 283.55 464.89 284.48 464.117C285.155 464.671 285.559 465.376 285.559 466.136Z" fill="#21619E"/>
<path d="M286.515 454.618H274.442L268.404 462.1L270.608 464.83L273.561 468.492L274.139 469.206L274.442 469.582H286.515L286.819 469.206L287.397 468.492L290.349 464.83L292.551 462.1L286.515 454.618ZM285.065 462.1C285.065 462.599 284.91 463.073 284.631 463.496C284.587 463.562 284.544 463.624 284.495 463.687C284.14 464.148 283.633 464.537 283.026 464.83C282.297 465.179 281.421 465.382 280.477 465.382C279.534 465.382 278.658 465.179 277.929 464.83C277.319 464.537 276.814 464.145 276.462 463.683C276.41 463.621 276.367 463.559 276.324 463.496C276.047 463.072 275.89 462.599 275.89 462.1C275.89 461.337 276.256 460.632 276.866 460.078C277.703 459.308 279.01 458.815 280.477 458.815C281.944 458.815 283.251 459.308 284.091 460.078C284.701 460.632 285.065 461.337 285.065 462.1Z" fill="#F5B3A2"/>
<path d="M287.397 461.168C286.784 458.834 283.916 457.061 280.478 457.061C277.043 457.061 274.174 458.834 273.562 461.168C273.48 461.471 273.439 461.782 273.439 462.1C273.439 463.107 273.854 464.045 274.567 464.83C274.624 464.899 274.684 464.961 274.746 465.02C275.185 465.46 275.717 465.846 276.324 466.164C277.49 466.775 278.924 467.14 280.478 467.14C282.032 467.14 283.466 466.778 284.631 466.164C285.239 465.846 285.773 465.46 286.212 465.02C286.274 464.961 286.334 464.899 286.391 464.83C287.104 464.045 287.519 463.107 287.519 462.1C287.519 461.782 287.478 461.471 287.397 461.168ZM286.212 464.64C286.155 464.705 286.095 464.768 286.036 464.83C285.613 465.27 285.092 465.656 284.496 465.974C283.374 466.572 281.983 466.927 280.478 466.927C278.973 466.927 277.582 466.572 276.46 465.974C275.864 465.656 275.346 465.27 274.923 464.83C274.86 464.771 274.803 464.705 274.747 464.64C274.107 463.901 273.735 463.032 273.735 462.1C273.735 461.523 273.879 460.969 274.139 460.455C275.08 458.6 277.569 457.273 280.478 457.273C283.39 457.273 285.879 458.6 286.82 460.455C287.08 460.969 287.224 461.523 287.224 462.1C287.223 463.032 286.852 463.902 286.212 464.64Z" fill="#EA917A"/>
<path d="M286.515 469.583H274.442V475.043H286.515V469.583Z" fill="#EA917A"/>
<path d="M413.104 274.853C419.538 294.082 446.327 290.317 444.69 307.394C443.052 324.472 421.761 323.665 417.316 313.311C412.87 302.957 402.934 295.834 401.643 289.579C400.353 283.324 392.011 271.921 392.011 271.921C392.011 271.921 391.813 266.381 397.662 267.188C403.511 267.995 413.104 274.853 413.104 274.853Z" fill="#40312A"/>
<path d="M394.661 288.058C396.708 289.156 398.638 288.334 399.087 288.11C399.152 288.08 399.185 288.058 399.185 288.058C399.185 288.058 399.081 289.537 398.483 291.173C398.021 292.413 397.274 293.751 396.065 294.602C393.257 296.574 396.143 300.608 400.51 300.429C404.878 300.25 409.713 294.243 409.713 294.243C409.713 294.243 407.217 291.913 406.593 288.775C405.969 285.638 406.203 281.962 406.203 281.962C406.203 281.962 409.011 281.335 409.713 279.183C410.415 277.032 409.635 274.88 408.387 275.059C407.139 275.238 407.529 276.852 406.125 276.852C404.956 276.852 404.325 274.23 404.15 273.363C403.974 273.483 403.344 273.55 401.446 273.266C397.859 272.728 396.845 269.232 396.845 269.232C396.845 269.232 396.455 270.666 394.895 271.742C393.335 272.818 392.009 271.921 392.009 271.921C390.996 283.127 392.321 286.803 394.661 288.058Z" fill="#FEC6AB"/>
<path d="M398.483 291.173C403.598 290.269 403.748 284.517 403.748 284.517C403.748 284.517 402.461 286.803 399.185 288.058C399.185 288.058 399.081 289.537 398.483 291.173Z" fill="#FD9B73"/>
<path d="M395.753 274.118C394.505 276.628 393.959 279.631 394.076 279.945C394.193 280.259 395.909 280.393 396.221 279.945C396.533 279.497 395.753 274.118 395.753 274.118Z" fill="#FD9B73"/>
<path d="M377.866 453.61L400.093 453.569C400.093 453.569 400.383 452.329 400.472 450.513C400.586 448.354 400.413 445.381 399.142 442.679L388.86 442.698C388.86 442.698 384.168 442.975 379.845 446.883C378.963 447.676 378.359 448.432 377.957 449.12C376.382 451.82 377.866 453.61 377.866 453.61Z" fill="#FB503A"/>
<path d="M377.866 453.61L400.093 453.569C400.093 453.569 400.383 452.329 400.472 450.513C394.804 450.045 384.066 449.221 377.957 449.12C376.382 451.819 377.866 453.61 377.866 453.61Z" fill="#DE331E"/>
<path d="M456.381 431.53L464.952 407.957C464.952 407.957 464.069 407.169 462.647 406.372C460.96 405.416 458.508 404.448 455.848 404.749L451.884 415.654C451.884 415.654 450.29 420.734 451.751 426.829C452.046 428.071 452.419 429.003 452.815 429.696C454.371 432.41 456.381 431.53 456.381 431.53Z" fill="#FB503A"/>
<path d="M456.382 431.53L464.952 407.957C464.952 407.957 464.07 407.169 462.648 406.372C460.079 412.198 455.261 423.26 452.815 429.695C454.371 432.411 456.382 431.53 456.382 431.53Z" fill="#DE331E"/>
<path d="M365.881 313.311C365.179 311.384 362.995 309.635 362.995 309.635C362.995 309.635 364.906 306.901 362.761 305.243C360.617 303.584 353.832 309.501 356.015 315.014C358.199 320.527 363.97 318.69 363.97 318.69L365.881 313.311Z" fill="#FEC6AB"/>
<path d="M430.182 326.489C429.474 327.931 427.992 329.35 426.12 330.687C422.89 328.491 419.764 326.018 417.119 322.821C418.367 321.969 419.251 321.334 419.42 321.11C420.122 320.169 414.409 311.697 414.409 311.697L391.11 319.631C391.11 319.631 390.954 319.907 390.655 320.356C389.693 321.805 387.25 325.099 383.851 326.847C379.405 329.133 364.087 322.455 362.332 319.362C361.617 318.1 364.789 312.235 365.959 311.966C367.129 311.697 378.242 316.337 380.582 315.261C382.921 314.185 384.442 300.671 388.888 295.965C390.935 293.806 393.041 292.819 394.717 292.386C395.796 292.102 396.706 292.05 397.298 292.065C397.746 292.072 398.019 292.117 398.071 292.124C398.077 292.124 398.077 292.124 398.077 292.124C399.124 298.116 408.001 292.124 408.001 292.124C408.001 292.124 408.001 292.124 408.008 292.124C408.08 292.139 408.684 292.229 409.607 292.416C410.803 292.67 412.532 293.095 414.293 293.731L414.312 293.738C416.23 294.433 418.179 295.382 419.538 296.636C423.163 299.999 433.224 320.304 430.182 326.489Z" fill="white"/>
<path d="M451.942 415.133C448.433 415.776 415.911 396.128 413.338 391.601C410.764 387.082 406.202 362.519 406.202 362.519C406.202 362.519 401.289 441.892 399.534 443.185C397.779 444.477 389.824 444.738 388.537 442.281C387.251 439.823 387.51 406.213 388.537 382.861C389.408 362.989 393.88 329.596 393.88 329.596C393.88 329.596 391.93 324.636 390.656 319.265C390.045 316.672 389.59 313.983 389.59 311.712C389.59 305.967 393.373 295.793 394.718 292.371C395.797 292.102 396.707 292.05 397.298 292.065L396.934 293.768L395.914 298.445V298.452L394.27 306.027L405.149 306.804L408.73 295.232L409.218 293.663L409.608 292.401C410.803 292.647 412.532 293.118 414.293 293.73C414.046 294.492 411.551 302.277 412.051 305.96C412.578 309.837 414.41 311.697 414.41 311.697L411.466 328.521C411.466 328.521 414.625 334.235 417.745 341.855C418.869 344.582 419.98 347.555 420.942 350.596C421.228 351.507 421.508 352.418 421.761 353.337C425.27 365.88 425.972 379.327 426.908 380.619C427.844 381.912 455.92 401.948 456.505 404.017C457.09 406.087 455.452 414.483 451.942 415.133Z" fill="#1A6185"/>
<path d="M420.942 350.596C413.708 357.678 408.229 344.866 408.229 344.866C408.229 344.866 414.501 344.059 417.744 341.855C418.868 344.582 419.98 347.555 420.942 350.596Z" fill="#0B4063"/>
<path d="M393.802 312.437C393.802 312.437 405.271 313.176 405.327 313.714C405.383 314.252 405.208 322.186 398.715 321.984C392.223 321.782 393.217 312.773 393.802 312.437Z" fill="#0B4063"/>
<path d="M369.529 260.997C376.487 277.175 370.24 287.94 370.24 287.94L430.27 353.694C430.27 353.694 450.254 345.06 459.472 360.441C465.888 371.138 465.679 381.522 464.96 386.848C464.787 388.152 463.3 388.474 462.712 387.349C460.149 382.506 454.39 373.568 445.556 370.856C435.956 367.908 426.181 381.333 430.105 393.333C432.641 401.083 440.828 405.584 445.291 407.517C446.365 407.979 446.355 409.698 445.285 410.148C440.096 412.33 429.199 414.962 421.132 403.742C410.181 388.508 417.039 372.2 417.039 372.2L396.629 349.128L356.821 304.153C356.821 304.153 349.905 312.28 337.159 305.7C331.112 302.586 327.287 297.04 324.88 291.466C323.075 287.335 322.048 283.195 321.462 280.018C321.201 278.596 322.762 277.768 323.588 278.866C332.037 290.054 344.391 290.883 351.938 275.698C358.055 263.386 348.047 254.071 342.076 249.886C341.01 249.145 341.475 247.267 342.724 247.287C350.155 247.416 364.467 249.243 369.529 260.997Z" fill="#F5B3A2"/>
<path d="M425.207 364.628C425.146 364.889 425.027 365.135 424.85 365.34C424.309 365.968 423.427 365.972 422.882 365.35L361.828 295.72C361.283 295.098 361.279 294.086 361.82 293.458C362.362 292.831 363.243 292.827 363.788 293.449L424.842 363.078C425.209 363.497 425.331 364.093 425.207 364.628Z" fill="#EA917A"/>
<path d="M359.759 291.104C361.041 289.406 360.883 286.835 359.406 285.361C357.929 283.887 355.692 284.069 354.41 285.767C353.128 287.465 353.286 290.036 354.763 291.509C356.24 292.983 358.477 292.801 359.759 291.104Z" fill="#EA917A"/>
<path d="M427.82 366.403C429.771 366.244 431.464 367.934 431.602 370.176C431.74 372.419 430.27 374.365 428.319 374.524C426.368 374.682 424.675 372.993 424.537 370.75C424.399 368.508 425.869 366.561 427.82 366.403Z" fill="#EA917A"/>
<path d="M405.694 332.271C401.795 332.495 395.049 335.678 395.127 336.708C395.205 337.739 399.065 337.291 399.065 337.291C399.065 337.291 391.461 342.939 392.865 346.166C394.269 349.393 407.722 341.011 408.541 337.829C409.36 334.647 405.694 332.271 405.694 332.271Z" fill="#FEC6AB"/>
<path d="M417.118 322.819C413.214 325.481 405.737 330.306 405.382 331.733C404.914 333.616 407.488 338.322 408.658 338.456C409.556 338.559 419.954 335.098 426.121 330.688C422.893 328.49 419.763 326.015 417.118 322.819Z" fill="white"/>
<path d="M413.201 275.104C413.201 275.104 385.187 273.812 385.097 269.24C385.012 264.796 392.136 266.069 392.528 266.142C392.541 266.149 392.548 266.148 392.548 266.148C392.548 266.148 393.223 258.061 402.458 257.666C411.7 257.271 414.382 267.989 413.201 275.104Z" fill="#FB503A"/>
<path d="M413.201 275.104C413.201 275.104 385.187 273.812 385.097 269.24C385.012 264.796 392.136 266.069 392.528 266.142C392.541 266.149 392.548 266.148 392.548 266.148C391.148 271.027 413.201 275.104 413.201 275.104Z" fill="#DE331E"/>
<path d="M299.332 386.626C299.332 386.626 295.615 375.782 297.664 374.048C299.713 372.314 323.699 372.942 324.992 375.049C326.285 377.155 323.749 388.493 323.749 388.493L319.275 387.748C319.275 387.748 321.431 378.765 320.785 378.269C320.14 377.773 302.353 377.581 301.867 378.015C301.382 378.448 302.927 386.118 302.927 386.118L299.332 386.626Z" fill="#DE331E"/>
<path d="M340.305 402.316L282.091 399.942C282.091 399.942 283.1 397.621 284.437 394.836C286.248 391.057 288.661 386.427 289.964 385.57C291.375 384.644 302.804 384.395 314.005 384.822C320.767 385.077 327.449 385.581 331.792 386.328C334.755 386.837 340.305 402.316 340.305 402.316Z" fill="#FB503A"/>
<path d="M282.09 409.236C282.09 409.236 287.686 446.661 289.087 448.148C290.488 449.636 332.538 449.526 333.94 448.164C335.342 446.801 340.305 406.777 340.305 406.777L282.09 409.236Z" fill="#FB503A"/>
<path d="M320.112 400.513C320.112 400.513 317.905 384.989 318.765 385.042C319.625 385.095 323.562 400.08 323.562 400.08L320.112 400.513Z" fill="#DE331E"/>
<path d="M302.287 400.506C302.287 400.506 304.498 384.572 303.638 384.626C302.778 384.679 298.837 400.059 298.837 400.059L302.287 400.506Z" fill="#DE331E"/>
<path d="M280.376 399.569C281.938 399.158 341.61 398.351 342.148 399.591C342.687 400.83 342.469 411.363 342.145 412.107C341.822 412.85 280.804 413.573 280.373 412.085C279.942 410.598 279.616 399.769 280.376 399.569Z" fill="#DE331E"/>
<path d="M323.907 443.069C323.907 443.069 326.016 418.255 326.744 417.698C327.471 417.141 333.94 416.864 334.506 417.701C335.071 418.537 328.758 442.606 328.354 443.071C327.95 443.535 324.23 443.72 323.907 443.069Z" fill="#DE331E"/>
<path d="M301.063 443.061C301.063 443.061 298.967 418.246 298.239 417.688C297.512 417.13 291.044 416.849 290.477 417.686C289.911 418.522 296.211 442.595 296.616 443.06C297.02 443.525 300.739 443.712 301.063 443.061Z" fill="#DE331E"/>
<path d="M309.775 443.168C309.34 442.739 308.271 422.783 309.026 421.916C309.404 421.482 315.333 421.716 316.087 422.414C316.743 423.021 314.686 442.729 314.034 443.169C313.333 443.642 310.153 443.54 309.775 443.168Z" fill="#DE331E"/>
<path d="M305.46 397.208C305.872 396.471 316.402 396.407 316.887 397.212C317.372 398.018 317.26 414.623 316.882 414.995C316.505 415.366 306.156 415.301 305.671 414.991C305.186 414.681 304.974 398.076 305.46 397.208Z" fill="#F8EA42"/>
<path d="M307.488 399.26C307.557 398.94 314.684 398.952 314.872 399.262C315.061 399.572 314.926 401.493 314.872 401.617C314.818 401.74 307.568 401.366 307.487 401.242C307.406 401.119 307.407 399.632 307.488 399.26Z" fill="#FFA72B"/>
<path d="M307.487 404.867C307.556 404.548 314.683 404.56 314.871 404.87C315.06 405.18 314.925 407.1 314.871 407.224C314.817 407.348 307.567 406.974 307.486 406.85C307.405 406.726 307.406 405.239 307.487 404.867Z" fill="#FFA72B"/>
<path d="M307.486 410.475C307.555 410.155 314.682 410.167 314.87 410.477C315.059 410.787 314.924 412.708 314.87 412.831C314.816 412.955 307.566 412.581 307.485 412.457C307.404 412.333 307.405 410.846 307.486 410.475Z" fill="#FFA72B"/>
<path d="M314.005 384.822C312.2 389.762 296.659 395.651 284.437 394.836C286.248 391.057 288.661 386.427 289.964 385.57C291.375 384.644 302.804 384.395 314.005 384.822Z" fill="#333333"/>
<path d="M150.617 291.015C144.387 290.235 140.686 284.54 142.907 276.788C145.127 269.036 164.276 266.059 165.372 268.895C166.469 271.731 165.893 274.354 165.009 275.559C164.125 276.764 150.617 291.015 150.617 291.015Z" fill="#40312A"/>
<path d="M162.214 292.575C160.055 293.733 158.02 292.867 157.547 292.63C157.478 292.599 157.444 292.575 157.444 292.575C157.444 292.575 157.554 294.135 158.184 295.86C158.671 297.168 159.459 298.578 160.734 299.476C163.695 301.556 160.652 305.81 156.046 305.621C151.441 305.432 146.342 299.098 146.342 299.098C146.342 299.098 148.973 296.64 149.632 293.332C150.289 290.023 150.043 286.147 150.043 286.147C150.043 286.147 147.082 285.485 146.342 283.217C145.601 280.948 146.424 278.679 147.74 278.868C149.056 279.057 148.644 280.759 150.125 280.759C151.358 280.759 152.023 277.994 152.208 277.08C152.393 277.206 153.058 277.277 155.059 276.977C158.842 276.41 159.912 272.723 159.912 272.723C159.912 272.723 160.323 274.236 161.968 275.37C163.612 276.505 165.011 275.559 165.011 275.559C166.08 287.376 164.681 291.252 162.214 292.575Z" fill="#FEC6AB"/>
<path d="M158.183 295.86C152.79 294.907 152.632 288.841 152.632 288.841C152.632 288.841 153.989 291.251 157.443 292.575C157.443 292.575 157.553 294.135 158.183 295.86Z" fill="#FD9B73"/>
<path d="M161.062 277.875C162.378 280.522 162.954 283.689 162.83 284.02C162.707 284.35 160.898 284.492 160.569 284.02C160.24 283.547 161.062 277.875 161.062 277.875Z" fill="#FD9B73"/>
<path d="M133.099 369.856C133.099 369.856 134.826 378.222 134.209 379.356C133.592 380.491 132.05 379.356 132.05 379.356C132.05 379.356 130.693 387.794 126.746 387.864C122.798 387.935 126.314 369.076 126.314 369.076L133.099 369.856Z" fill="#FEC6AB"/>
<path d="M199.204 312.705C199.204 312.705 202.984 305.285 204.112 304.955C205.24 304.625 205.673 306.67 205.673 306.67C205.673 306.67 211.725 301.648 214.622 304.732C217.518 307.815 203.64 318.657 203.64 318.657L199.204 312.705Z" fill="#FEC6AB"/>
<path d="M204.032 318.467C204.032 320.452 191.819 340.503 182.937 339.652C177.969 339.18 173.658 334.619 170.813 330.695V330.688C168.586 327.6 167.27 324.905 167.27 324.905L137.417 330.435C137.417 330.435 134.086 343.906 133.963 353.265C133.839 362.624 133.593 368.863 133.099 369.855C132.606 370.848 127.548 371.557 125.821 369.855C124.094 368.154 119.769 353.265 121.866 336.391C123.964 319.517 129.768 305.62 137.787 301.934C137.999 301.839 138.205 301.744 138.404 301.65C141.947 300.035 144.119 299.153 145.421 298.664C146.881 298.121 147.265 298.073 147.265 298.073C157.559 305.518 160.732 299.476 160.732 299.476C160.732 299.476 161.472 299.429 162.665 299.578C164.303 299.791 166.797 300.382 169.381 302.012C171.005 303.037 172.664 304.47 174.178 306.471C179.853 313.987 182.444 322.636 184.171 323.062C185.898 323.487 197.411 312.278 199.384 312.704C201.359 313.129 204.032 316.481 204.032 318.467Z" fill="#F8EA42"/>
<path d="M126.493 453.61L150.067 453.567C150.067 453.567 150.375 452.251 150.469 450.325C150.59 448.035 150.406 444.882 149.058 442.016L138.154 442.036C138.154 442.036 133.177 442.331 128.592 446.475C127.656 447.317 127.016 448.118 126.59 448.847C124.919 451.711 126.493 453.61 126.493 453.61Z" fill="#1A6185"/>
<path d="M126.493 453.61L150.067 453.567C150.067 453.567 150.375 452.251 150.469 450.325C144.458 449.829 133.069 448.955 126.59 448.848C124.919 451.711 126.493 453.61 126.493 453.61Z" fill="#0B4063"/>
<path d="M185.563 453.61L161.989 453.567C161.989 453.567 161.681 452.251 161.587 450.325C161.466 448.035 161.649 444.882 162.997 442.016L173.902 442.036C173.902 442.036 178.878 442.331 183.463 446.475C184.4 447.317 185.04 448.118 185.466 448.847C187.137 451.711 185.563 453.61 185.563 453.61Z" fill="#1A6185"/>
<path d="M185.562 453.61L161.988 453.567C161.988 453.567 161.68 452.251 161.586 450.325C167.597 449.829 178.985 448.955 185.465 448.848C187.136 451.711 185.562 453.61 185.562 453.61Z" fill="#0B4063"/>
<path d="M175.673 442.016L162.28 443.532L157.03 377.655L149.694 443.386L136.604 442.116C136.604 442.116 136.175 395.443 138.82 371.959C139.334 367.382 139.965 363.246 140.746 359.883C140.938 359.055 141.164 358.283 141.418 357.582C146.38 343.796 162.513 353.462 168.098 357.338C169.311 358.181 170.024 358.748 170.024 358.748L170.655 371.361L175.673 442.016Z" fill="#FB503A"/>
<path d="M170.656 371.36C168.36 370.234 165.947 366.303 165.584 361.301C165.584 361.301 166.626 358.945 168.099 357.338C169.312 358.181 170.025 358.748 170.025 358.748L170.656 371.36Z" fill="#DE331E"/>
<path d="M148.149 361.017C147.498 366.602 142.227 373.495 138.821 371.959C139.335 367.382 139.966 363.246 140.747 359.883C140.939 359.055 141.165 358.283 141.419 357.582C144.893 358.362 148.149 361.017 148.149 361.017Z" fill="#DE331E"/>
<path d="M171.019 347.357C170.992 348.972 170.944 350.493 170.869 351.871C170.718 354.92 170.444 357.33 170.026 358.748C167.394 367.634 142.722 362.719 140.748 359.883C140.207 359.103 139.706 356.527 139.274 353.202C139.11 351.926 138.952 350.532 138.801 349.09C138.397 345.143 138.068 340.803 137.835 337.305C137.725 335.737 137.643 334.335 137.575 333.216C137.472 331.499 137.417 330.436 137.417 330.436C137.417 330.436 139.021 325.898 139.637 315.972C140.001 310.095 139.158 304.912 138.404 301.65C141.947 300.035 144.12 299.153 145.422 298.665C146.751 311.482 154.31 317.453 159.492 315.184C164.673 312.915 162.665 299.579 162.665 299.579C164.303 299.791 166.798 300.382 169.381 302.013C169.381 302.013 170.354 316.287 170.814 330.688V330.696C170.827 331.113 170.841 331.531 170.848 331.94C170.896 333.398 170.937 334.847 170.964 336.281C171.047 340.204 171.074 343.993 171.019 347.357Z" fill="#FB503A"/>
<path d="M142.938 276.383C142.938 276.383 172.649 275.013 172.744 270.165C172.834 265.451 165.279 266.801 164.863 266.879C164.849 266.886 164.842 266.886 164.842 266.886C164.842 266.886 164.126 258.308 154.331 257.889C144.529 257.47 141.685 268.837 142.938 276.383Z" fill="#FB503A"/>
<path d="M142.938 276.383C142.938 276.383 172.65 275.013 172.745 270.165C172.835 265.451 165.28 266.801 164.863 266.879C164.849 266.886 164.842 266.886 164.842 266.886C166.328 272.06 142.938 276.383 142.938 276.383Z" fill="#DE331E"/>
<path d="M150.902 324.956C150.902 324.956 165.294 323.743 165.418 324.385C165.542 325.027 166.163 336.936 158.47 337.007C150.778 337.078 149.599 325.74 150.902 324.956Z" fill="#DE331E"/>
<path d="M194.116 368.536C194.116 368.536 187.913 454.324 217.458 453.605C245.835 452.914 221.698 368.01 221.698 368.01L194.116 368.536Z" fill="#FFA72B"/>
<path d="M208.028 375.658C215.645 375.513 221.772 372.094 221.713 368.022C221.654 363.951 215.432 360.768 207.815 360.913C200.198 361.058 194.071 364.477 194.13 368.549C194.189 372.62 200.411 375.803 208.028 375.658Z" fill="#F5801A"/>
<path d="M204.287 365.597C204.287 365.597 203.023 271.815 206.996 271.497C209.161 271.324 212.912 362.456 212.109 365.794C210.889 370.861 205.651 370.141 204.287 365.597Z" fill="white"/>
<path d="M220.64 442.676C222.199 442.559 222.863 431.853 222.122 418.763C221.381 405.673 219.517 395.155 217.958 395.272C216.399 395.389 215.736 406.095 216.477 419.185C217.217 432.275 219.082 442.792 220.64 442.676Z" fill="#333333"/>
<path d="M209.575 285.684C209.257 286.138 208.962 286.535 208.709 286.858C208.217 287.507 207.882 287.887 207.882 287.887L204.636 287.909C198.375 282.369 195.69 279.182 195.804 273.136C195.919 267.091 198.067 252.39 199.179 251.526C199.511 251.273 200.481 251.156 201.713 251.167C204.619 251.186 208.996 251.905 210.053 253.127C211.563 254.869 213.443 274.983 213.01 278.068C212.619 280.856 210.906 283.768 209.575 285.684Z" fill="white"/>
</svg>
