<svg width="1024" height="512" viewBox="0 0 1024 512" fill="none" xmlns="http://www.w3.org/2000/svg">
<g clip-path="url(#clip0_262_13814)">
<mask id="mask0_262_13814" style="mask-type:luminance" maskUnits="userSpaceOnUse" x="0" y="0" width="1024" height="512">
<path d="M1024 0H0V512H1024V0Z" fill="white"/>
</mask>
<g mask="url(#mask0_262_13814)">
<path d="M1024 0H0V512H1024V0Z" fill="#EECCC0"/>
</g>
<mask id="mask1_262_13814" style="mask-type:luminance" maskUnits="userSpaceOnUse" x="0" y="0" width="1024" height="512">
<path d="M1024 0H0V512H1024V0Z" fill="white"/>
</mask>
<g mask="url(#mask1_262_13814)">
<path d="M532.199 213.738C536.279 213.738 539.87 212.637 542.971 210.433C546.153 208.23 547.745 204.925 547.745 200.518C547.745 196.03 546.031 192.603 542.603 190.236C539.258 187.87 534.443 185.829 528.159 184.116C521.957 182.32 517.428 180.77 514.572 179.464C511.798 178.159 509.145 176.445 506.616 174.323C501.556 170.08 499.026 163.511 499.026 154.616C499.026 147.353 501.597 141.11 506.738 135.887C511.961 130.665 519.06 128.053 528.037 128.053C532.362 128.053 536.85 128.706 541.502 130.012C546.235 131.236 549.173 131.848 550.315 131.848C551.458 131.848 552.478 131.032 553.375 129.4H554.722L555.579 154.126H553.62C549.703 147.026 545.582 141.355 541.257 137.111C537.013 132.786 532.362 130.624 527.303 130.624C522.325 130.624 518.448 131.807 515.674 134.174C512.899 136.459 511.512 139.56 511.512 143.477C511.512 147.312 513.144 150.291 516.408 152.412C519.754 154.452 523.834 156.125 528.649 157.431C533.464 158.737 536.605 159.634 538.074 160.124C539.625 160.614 541.502 161.307 543.705 162.205C545.99 163.021 547.826 163.919 549.213 164.898C550.682 165.795 552.192 166.979 553.742 168.448C555.375 169.835 556.639 171.385 557.537 173.099C559.74 177.016 560.842 181.668 560.842 187.053C560.842 195.867 558.068 202.966 552.518 208.352C547.051 213.657 539.829 216.309 530.852 216.309C526.201 216.309 520.856 215.697 514.817 214.473C508.86 213.249 505.555 212.637 504.902 212.637C503.76 212.637 502.658 213.861 501.597 216.309H499.883L498.659 187.176H500.74C504.331 194.276 508.901 200.477 514.45 205.782C520.081 211.086 525.997 213.738 532.199 213.738ZM611.716 182.157C611.716 173.752 611.308 168.121 610.492 165.265C609.675 162.327 608.084 160.858 605.718 160.858C603.351 160.858 601.229 162.409 599.352 165.51C597.476 168.529 596.537 172.609 596.537 177.751V200.151C596.537 203.66 597.231 206.639 598.618 209.087C600.005 211.535 602.045 212.759 604.738 212.759C607.431 212.759 609.267 210.964 610.247 207.373C611.226 203.782 611.716 197.499 611.716 188.522V182.157ZM596.292 156.819V166.489C599.475 159.226 605.106 155.595 613.184 155.595C620.203 155.595 625.629 158.125 629.465 163.184C633.382 168.244 635.34 175.914 635.34 186.197C635.34 196.479 633.218 204.068 628.975 208.964C624.813 213.861 618.53 216.309 610.124 216.309C606.207 216.309 603.27 215.819 601.311 214.84C599.352 213.861 597.761 212.351 596.537 210.311V242.014H612.328V244.218H567.037V242.014H573.769V159.022H567.282V156.819H596.292ZM671.192 216.309C660.665 216.309 652.749 213.616 647.445 208.23C642.222 202.762 639.611 195.214 639.611 185.585C639.611 175.874 642.549 168.448 648.424 163.307C654.381 158.165 661.93 155.595 671.07 155.595C689.594 155.595 698.489 164.898 697.754 183.504H663.236V188.278C663.236 196.275 664.256 202.314 666.296 206.394C668.336 210.474 671.886 212.514 676.945 212.514C686.411 212.514 692.613 207.455 695.551 197.336L697.754 197.703C696.204 203.578 693.389 208.148 689.308 211.413C685.31 214.677 679.271 216.309 671.192 216.309ZM663.358 181.056H675.966V175.058C675.966 168.448 675.558 163.959 674.742 161.593C674.007 159.145 672.457 157.921 670.09 157.921C667.805 157.921 666.092 159.226 664.949 161.838C663.888 164.367 663.358 168.774 663.358 175.058V181.056ZM736.389 157.798C732.799 157.798 730.228 159.757 728.677 163.674C727.127 167.591 726.352 174.078 726.352 183.136V189.502C726.352 197.581 727.249 203.374 729.045 206.883C730.84 210.392 734.145 212.147 738.96 212.147C743.774 212.147 747.61 210.515 750.466 207.251C753.322 203.986 755.158 200.273 755.974 196.112L758.178 196.356C756.627 203.374 753.771 208.434 749.609 211.535C745.366 214.717 739.531 216.309 732.105 216.309C722.639 216.309 715.376 213.779 710.316 208.72C705.257 203.578 702.727 196.112 702.727 186.319C702.727 176.445 705.583 168.856 711.296 163.551C717.09 158.247 725.128 155.595 735.41 155.595C742.673 155.595 748.222 157.023 752.057 159.879C755.893 162.654 757.81 166.163 757.81 170.406C757.81 174.65 756.872 177.751 754.995 179.709C753.2 181.668 750.67 182.647 747.406 182.647C744.223 182.647 741.653 181.79 739.694 180.076C737.736 178.363 736.756 175.833 736.756 172.487C736.756 171.018 736.96 169.549 737.368 168.08H741.408C741.979 166.448 742.265 164.979 742.265 163.674C742.265 159.757 740.306 157.798 736.389 157.798ZM779.28 148.373C774.955 148.373 771.854 147.271 769.977 145.068C768.182 142.865 767.285 140.131 767.285 136.867C767.285 133.602 768.264 130.909 770.222 128.788C772.262 126.666 775.323 125.605 779.403 125.605C783.483 125.605 786.584 126.584 788.706 128.543C790.827 130.42 791.888 133.154 791.888 136.744C791.888 140.253 790.868 143.069 788.828 145.19C786.788 147.312 783.605 148.373 779.28 148.373ZM760.797 156.819H790.787V212.881H797.641V215.085H761.287V212.881H768.019V159.022H760.797V156.819ZM829.514 186.319H833.064V176.894C833.064 169.141 832.615 163.959 831.717 161.348C830.901 158.655 829.269 157.309 826.821 157.309C825.352 157.309 824.006 157.717 822.782 158.533C821.639 159.267 821.068 160.328 821.068 161.715C821.068 163.021 821.313 164.367 821.803 165.755H824.863C825.516 167.468 825.842 169.549 825.842 171.997C825.842 174.364 824.822 176.445 822.782 178.24C820.742 179.954 818.171 180.811 815.07 180.811C808.052 180.811 804.543 177.424 804.543 170.651C804.543 160.614 813.071 155.595 830.126 155.595C839.837 155.595 846.529 157.268 850.201 160.614C853.955 163.878 855.832 169.916 855.832 178.73V203.578C855.832 207.822 857.015 209.944 859.381 209.944C862.156 209.944 863.788 205.741 864.278 197.336L866.114 197.458C865.787 204.639 864.441 209.576 862.074 212.269C859.708 214.962 855.832 216.309 850.446 216.309C840.653 216.309 835.022 213.289 833.554 207.251C832.493 210.352 830.901 212.637 828.78 214.105C826.658 215.574 823.557 216.309 819.477 216.309C807.399 216.309 801.361 211.372 801.361 201.498C801.361 195.704 803.645 191.746 808.215 189.624C812.867 187.421 819.966 186.319 829.514 186.319ZM824.618 201.375C824.618 205.619 824.822 208.352 825.23 209.576C825.72 210.8 826.576 211.413 827.8 211.413C829.106 211.413 830.289 210.392 831.35 208.352C832.493 206.231 833.064 203.334 833.064 199.661V188.278H832.207C827.148 188.278 824.618 191.991 824.618 199.417V201.375ZM866.827 123.279H896.817V212.881H903.672V215.085H867.317V212.881H874.049V125.483H866.827V123.279Z" fill="#090909"/>
<path d="M704.326 256.32C704.326 262.904 703.137 268.595 700.759 273.392C698.381 278.188 695.119 281.887 690.973 284.489C686.827 287.09 682.092 288.391 676.767 288.391C671.442 288.391 666.707 287.09 662.56 284.489C658.414 281.887 655.152 278.188 652.774 273.392C650.397 268.595 649.208 262.904 649.208 256.32C649.208 249.735 650.397 244.044 652.774 239.247C655.152 234.451 658.414 230.752 662.56 228.151C666.707 225.549 671.442 224.248 676.767 224.248C682.092 224.248 686.827 225.549 690.973 228.151C695.119 230.752 698.381 234.451 700.759 239.247C703.137 244.044 704.326 249.735 704.326 256.32ZM697.01 256.32C697.01 250.913 696.105 246.351 694.296 242.631C692.508 238.912 690.079 236.097 687.01 234.187C683.962 232.276 680.547 231.321 676.767 231.321C672.987 231.321 669.562 232.276 666.493 234.187C663.445 236.097 661.016 238.912 659.207 242.631C657.418 246.351 656.524 250.913 656.524 256.32C656.524 261.726 657.418 266.288 659.207 270.008C661.016 273.727 663.445 276.542 666.493 278.452C669.562 280.363 672.987 281.318 676.767 281.318C680.547 281.318 683.962 280.363 687.01 278.452C690.079 276.542 692.508 273.727 694.296 270.008C696.105 266.288 697.01 261.726 697.01 256.32ZM717.039 287.537V225.102H754.476V231.809H724.599V252.905H751.671V259.612H724.599V287.537H717.039ZM767.424 287.537V225.102H804.861V231.809H774.985V252.905H802.056V259.612H774.985V287.537H767.424ZM817.81 287.537V225.102H855.491V231.809H825.371V252.905H853.54V259.612H825.371V280.83H855.978V287.537H817.81ZM869.118 287.537V225.102H890.214C895.092 225.102 899.096 225.935 902.226 227.602C905.356 229.248 907.672 231.514 909.176 234.4C910.68 237.286 911.432 240.568 911.432 244.247C911.432 247.926 910.68 251.188 909.176 254.033C907.672 256.878 905.366 259.114 902.256 260.74C899.147 262.346 895.173 263.148 890.336 263.148H873.264V256.32H890.092C893.425 256.32 896.108 255.832 898.14 254.856C900.193 253.881 901.677 252.499 902.591 250.71C903.526 248.901 903.994 246.747 903.994 244.247C903.994 241.747 903.526 239.562 902.591 237.693C901.657 235.823 900.163 234.38 898.11 233.364C896.057 232.327 893.344 231.809 889.97 231.809H876.678V287.537H869.118ZM898.506 259.49L913.871 287.537H905.091L889.97 259.49H898.506Z" fill="#090909"/>
</g>
<mask id="mask2_262_13814" style="mask-type:luminance" maskUnits="userSpaceOnUse" x="0" y="0" width="1024" height="512">
<path d="M1024 0H0V512H1024V0Z" fill="white"/>
</mask>
<g mask="url(#mask2_262_13814)">
<path d="M853.259 25.6299C798.419 25.6299 739.733 20.7969 678.591 11.2349C566.228 -6.3371 483.44 -34.1761 482.617 -34.4551L482.938 -35.4021C483.76 -35.1231 566.482 -7.3071 678.764 10.2499C782.37 26.4519 933.043 36.9799 1062.49 -4.8651L1062.8 -3.9141C1005.55 14.5919 939.42 24.5019 866.249 25.5389C861.944 25.5999 857.612 25.6299 853.259 25.6299Z" fill="white"/>
<path d="M884.185 36.836C877.501 36.836 870.766 36.768 863.973 36.63C805.21 35.443 742.307 29.143 677.012 17.905C565.842 -1.22804 485.213 -28.424 484.412 -28.697L484.734 -29.644C485.535 -29.372 566.103 -2.19704 677.2 16.923C779.719 34.566 929.932 48.761 1063.37 16.192L1063.61 17.164C1010.06 30.233 949.786 36.836 884.185 36.836Z" fill="white"/>
<path d="M922.044 49.395C902.384 49.395 882.263 48.838 861.698 47.722C802.697 44.519 740.029 36.732 675.434 24.576C565.455 3.88001 486.987 -22.673 486.207 -22.94L486.529 -23.886C487.308 -23.62 565.722 2.91302 675.636 23.596C777.065 42.682 926.822 60.545 1064.25 37.253L1064.42 38.239C1020.6 45.665 972.899 49.395 922.044 49.395Z" fill="white"/>
<path d="M970.149 63.7918C859.577 63.7918 751.916 47.2168 673.856 31.2458C565.068 8.98783 488.76 -16.9222 488.002 -17.1822L488.325 -18.1282C489.083 -17.8692 565.342 8.02382 674.072 30.2688C774.411 50.7968 923.705 72.3268 1065.13 58.3148L1065.23 59.3098C1033.72 62.4328 1001.81 63.7918 970.149 63.7918Z" fill="white"/>
<path d="M1029.83 80.9589C896.176 80.9589 763.362 58.0799 672.278 37.9159C564.681 14.0959 490.533 -11.1711 489.797 -11.4241L490.121 -12.3701C490.857 -12.1181 564.962 13.1349 672.508 36.9429C771.757 58.9139 920.588 84.1099 1066 79.3809L1066.04 80.3799C1053.98 80.7729 1041.9 80.9589 1029.83 80.9589Z" fill="white"/>
<path d="M1066.85 101.448C917.356 96.8929 768.908 68.0119 670.7 44.5849C564.294 19.2039 492.307 -5.42006 491.592 -5.66706L491.917 -6.61206C492.631 -6.36606 564.582 18.2439 670.944 43.6159C769.103 67.0309 917.475 95.8969 1066.88 100.449L1066.85 101.448Z" fill="white"/>
<path d="M1067.67 122.514C914.198 108.672 766.229 76.123 669.121 51.255C563.907 24.311 494.08 0.329996 493.387 0.0909961L493.713 -0.854004C494.406 -0.615004 564.202 23.355 669.38 50.29C766.448 75.147 914.358 107.683 1067.76 121.519L1067.67 122.514Z" fill="white"/>
</g>
<mask id="mask3_262_13814" style="mask-type:luminance" maskUnits="userSpaceOnUse" x="0" y="0" width="1024" height="512">
<path d="M1024 0H0V512H1024V0Z" fill="white"/>
</mask>
<g mask="url(#mask3_262_13814)">
<path d="M-4.78908 562.257C-4.78908 562.257 -48.6651 359.142 132.547 350.985C270.958 344.755 300.279 430.729 411.146 416.744C655.854 385.877 785.139 420.492 827.081 467.647L-4.78908 562.257Z" fill="#D57047"/>
</g>
<mask id="mask4_262_13814" style="mask-type:luminance" maskUnits="userSpaceOnUse" x="0" y="0" width="1024" height="512">
<path d="M1024 0H0V512H1024V0Z" fill="white"/>
</mask>
<g mask="url(#mask4_262_13814)">
<path d="M-2.05908 519.526C-2.05908 519.526 398.297 395.433 796.668 411.606C936.24 417.272 1009.29 476.721 1009.29 476.721V623.417H-2.05908V519.526Z" fill="white"/>
</g>
<mask id="mask5_262_13814" style="mask-type:luminance" maskUnits="userSpaceOnUse" x="0" y="0" width="1024" height="512">
<path d="M1024 0H0V512H1024V0Z" fill="white"/>
</mask>
<g mask="url(#mask5_262_13814)">
<path d="M1085.54 468.657C1085.54 468.657 828.548 401.69 642.622 487.198C456.696 572.706 399.076 623.417 399.076 623.417H1085.54L1085.54 468.657Z" fill="#090909"/>
</g>
<mask id="mask6_262_13814" style="mask-type:luminance" maskUnits="userSpaceOnUse" x="0" y="0" width="1024" height="512">
<path d="M1024 0H0V512H1024V0Z" fill="white"/>
</mask>
<g mask="url(#mask6_262_13814)">
<path d="M941.263 330.007H710.72V391.849H941.263V330.007Z" fill="#090909"/>
<path d="M740.687 353.573C740.544 352.365 739.964 351.428 738.947 350.761C737.931 350.094 736.684 349.76 735.206 349.76C734.126 349.76 733.181 349.935 732.371 350.284C731.569 350.634 730.941 351.114 730.488 351.726C730.044 352.338 729.821 353.033 729.821 353.811C729.821 354.462 729.976 355.022 730.286 355.491C730.604 355.951 731.009 356.337 731.501 356.646C731.994 356.948 732.51 357.198 733.05 357.397C733.59 357.588 734.086 357.742 734.539 357.862L737.017 358.529C737.653 358.696 738.359 358.926 739.138 359.22C739.924 359.514 740.675 359.915 741.389 360.423C742.112 360.923 742.708 361.567 743.177 362.353C743.645 363.139 743.879 364.104 743.879 365.248C743.879 366.567 743.534 367.758 742.843 368.822C742.16 369.886 741.159 370.732 739.841 371.36C738.53 371.987 736.938 372.301 735.063 372.301C733.316 372.301 731.803 372.019 730.524 371.455C729.253 370.891 728.253 370.105 727.522 369.096C726.799 368.087 726.39 366.916 726.295 365.582H729.345C729.424 366.503 729.734 367.265 730.274 367.869C730.822 368.465 731.513 368.91 732.347 369.203C733.189 369.489 734.094 369.632 735.063 369.632C736.191 369.632 737.204 369.45 738.101 369.084C738.999 368.711 739.71 368.195 740.234 367.535C740.758 366.868 741.02 366.09 741.02 365.2C741.02 364.39 740.794 363.731 740.341 363.223C739.888 362.714 739.293 362.301 738.554 361.984C737.815 361.666 737.017 361.388 736.159 361.15L733.157 360.292C731.251 359.744 729.742 358.962 728.63 357.945C727.518 356.928 726.962 355.598 726.962 353.954C726.962 352.588 727.331 351.396 728.07 350.38C728.817 349.355 729.817 348.561 731.072 347.997C732.335 347.425 733.745 347.139 735.302 347.139C736.874 347.139 738.272 347.421 739.495 347.985C740.718 348.541 741.687 349.304 742.402 350.273C743.125 351.242 743.506 352.342 743.546 353.573H740.687ZM748.737 371.872V347.473H751.692V358.338H764.702V347.473H767.656V371.872H764.702V360.959H751.692V371.872H748.737ZM794.158 359.672C794.158 362.246 793.693 364.47 792.764 366.344C791.835 368.219 790.56 369.664 788.94 370.681C787.32 371.697 785.469 372.206 783.388 372.206C781.307 372.206 779.457 371.697 777.836 370.681C776.216 369.664 774.941 368.219 774.012 366.344C773.083 364.47 772.618 362.246 772.618 359.672C772.618 357.099 773.083 354.875 774.012 353.001C774.941 351.126 776.216 349.681 777.836 348.664C779.457 347.648 781.307 347.139 783.388 347.139C785.469 347.139 787.32 347.648 788.94 348.664C790.56 349.681 791.835 351.126 792.764 353.001C793.693 354.875 794.158 357.099 794.158 359.672ZM791.299 359.672C791.299 357.56 790.945 355.777 790.239 354.323C789.54 352.87 788.59 351.77 787.391 351.023C786.2 350.277 784.865 349.903 783.388 349.903C781.911 349.903 780.573 350.277 779.373 351.023C778.182 351.77 777.233 352.87 776.526 354.323C775.827 355.777 775.477 357.56 775.477 359.672C775.477 361.785 775.827 363.568 776.526 365.022C777.233 366.475 778.182 367.575 779.373 368.322C780.573 369.068 781.911 369.442 783.388 369.442C784.865 369.442 786.2 369.068 787.391 368.322C788.59 367.575 789.54 366.475 790.239 365.022C790.945 363.568 791.299 361.785 791.299 359.672ZM799.126 371.872V347.473H807.37C809.285 347.473 810.849 347.818 812.064 348.509C813.288 349.192 814.193 350.118 814.781 351.285C815.368 352.453 815.662 353.755 815.662 355.193C815.662 356.631 815.368 357.937 814.781 359.113C814.201 360.288 813.303 361.225 812.088 361.924C810.873 362.615 809.316 362.961 807.418 362.961H801.509V360.34H807.323C808.633 360.34 809.686 360.113 810.48 359.661C811.274 359.208 811.85 358.596 812.207 357.826C812.573 357.047 812.755 356.17 812.755 355.193C812.755 354.216 812.573 353.342 812.207 352.572C811.85 351.802 811.27 351.198 810.468 350.761C809.666 350.316 808.601 350.094 807.275 350.094H802.081V371.872H799.126ZM849.205 347.473V371.872H846.346L833.05 352.715H832.812V371.872H829.857V347.473H832.717L846.06 366.678H846.298V347.473H849.205ZM875.704 359.672C875.704 362.246 875.24 364.47 874.31 366.344C873.381 368.219 872.106 369.664 870.486 370.681C868.866 371.697 867.015 372.206 864.934 372.206C862.853 372.206 861.003 371.697 859.382 370.681C857.762 369.664 856.487 368.219 855.558 366.344C854.629 364.47 854.164 362.246 854.164 359.672C854.164 357.099 854.629 354.875 855.558 353.001C856.487 351.126 857.762 349.681 859.382 348.664C861.003 347.648 862.853 347.139 864.934 347.139C867.015 347.139 868.866 347.648 870.486 348.664C872.106 349.681 873.381 351.126 874.31 353.001C875.24 354.875 875.704 357.099 875.704 359.672ZM872.845 359.672C872.845 357.56 872.492 355.777 871.785 354.323C871.086 352.87 870.137 351.77 868.937 351.023C867.746 350.277 866.412 349.903 864.934 349.903C863.457 349.903 862.119 350.277 860.919 351.023C859.728 351.77 858.779 352.87 858.072 354.323C857.373 355.777 857.024 357.56 857.024 359.672C857.024 361.785 857.373 363.568 858.072 365.022C858.779 366.475 859.728 367.575 860.919 368.322C862.119 369.068 863.457 369.442 864.934 369.442C866.412 369.442 867.746 369.068 868.937 368.322C870.137 367.575 871.086 366.475 871.785 365.022C872.492 363.568 872.845 361.785 872.845 359.672ZM885.104 371.872L878.432 347.473H881.435L886.534 367.345H886.772L891.966 347.473H895.302L900.497 367.345H900.735L905.834 347.473H908.836L902.164 371.872H899.115L893.73 352.429H893.539L888.154 371.872H885.104Z" fill="white"/>
</g>
<mask id="mask7_262_13814" style="mask-type:luminance" maskUnits="userSpaceOnUse" x="0" y="0" width="1024" height="512">
<path d="M1024 0H0V512H1024V0Z" fill="white"/>
</mask>
<g mask="url(#mask7_262_13814)">
<path d="M277.451 415.813C373.278 415.813 450.961 338.13 450.961 242.303C450.961 146.476 373.278 68.7932 277.451 68.7932C181.624 68.7932 103.941 146.476 103.941 242.303C103.941 338.13 181.624 415.813 277.451 415.813Z" fill="white"/>
<path d="M448.922 243.921C449.081 262.063 446.296 280.166 440.527 297.374C434.964 313.966 426.707 329.618 416.263 343.653C405.701 357.846 392.924 370.348 378.608 380.733C363.838 391.448 347.422 399.864 330.136 405.698C312.072 411.794 293.072 415.013 274.019 415.422C254.678 415.838 235.297 413.414 216.67 408.186C198.818 403.176 181.694 395.574 166.013 385.679C150.727 376.034 136.803 364.203 124.924 350.573C113.272 337.203 103.59 322.105 96.4599 305.86C89.2449 289.422 84.6759 271.849 83.0559 253.968C81.4049 235.745 82.7679 217.248 87.2019 199.492C91.4359 182.539 98.4359 166.311 107.772 151.544C117.194 136.641 128.957 123.266 142.434 111.905C156.241 100.267 171.809 90.7731 188.436 83.7371C205.807 76.3861 224.305 71.8061 243.075 70.0121C262.525 68.1541 282.258 69.2411 301.391 73.1951C319.71 76.9801 337.462 83.4191 353.932 92.2911C369.822 100.85 384.501 111.661 397.32 124.37C410.019 136.961 420.868 151.422 429.264 167.217C437.638 182.972 443.533 200.028 446.55 217.618C448.041 226.308 448.818 235.107 448.922 243.921C448.927 244.304 451.829 243.907 451.82 243.145C451.601 224.623 448.315 206.205 442.052 188.769C435.945 171.767 427.085 155.793 416.047 141.5C404.937 127.113 391.657 114.424 376.851 103.884C361.649 93.0621 344.858 84.5021 327.191 78.5021C308.906 72.2921 289.742 68.8271 270.445 68.1561C251.008 67.4801 231.473 69.6321 212.67 74.6071C194.87 79.3171 177.724 86.5581 162.021 96.1821C146.822 105.497 133.002 117.018 121.205 130.387C109.38 143.788 99.6519 159.031 92.6189 175.467C85.5039 192.096 81.1939 209.897 79.9009 227.938C78.5749 246.449 80.3869 265.167 85.2409 283.079C89.9949 300.619 97.6449 317.333 107.663 332.487C117.604 347.525 129.847 361.022 143.74 372.5C158.088 384.353 174.195 394.054 191.351 401.263C208.944 408.656 227.618 413.439 246.594 415.449C266.053 417.51 285.816 416.738 305.043 413.086C323.374 409.604 341.194 403.503 357.767 394.924C373.767 386.642 388.57 376.004 401.427 363.376C414.114 350.914 424.911 336.531 433.164 320.772C441.451 304.949 447.124 287.796 449.876 270.146C451.268 261.216 451.898 252.182 451.819 243.145C451.817 242.765 448.916 243.157 448.922 243.921Z" fill="#090909"/>
<path d="M434.293 224.758C436.676 243.178 436.363 261.91 433.208 280.219C430.169 297.852 424.509 315.029 416.478 331.018C408.571 346.76 398.368 361.366 386.22 374.129C374.168 386.791 360.236 397.648 344.94 406.117C329.145 414.862 311.943 420.972 294.166 424.128C276.245 427.309 257.81 427.503 239.829 424.68C222.612 421.976 205.869 416.538 190.318 408.676C174.852 400.857 160.598 390.677 148.13 378.643C135.372 366.329 124.507 352.086 115.953 336.557C107.173 320.619 100.854 303.358 97.175 285.54C93.386 267.191 92.36 248.269 94.203 229.622C95.976 211.683 100.418 194.027 107.353 177.387C114.115 161.161 123.235 145.922 134.38 132.326C145.502 118.758 158.665 106.825 173.34 97.2012C188.276 87.4052 204.741 79.9962 222.021 75.4572C239.769 70.7962 258.318 69.1282 276.613 70.5572C294.07 71.9202 311.284 76.0842 327.45 82.8062C343.435 89.4532 358.376 98.5612 371.662 109.656C385.197 120.959 396.994 134.302 406.594 149.092C416.389 164.183 423.872 180.744 428.792 198.047C431.28 206.802 433.1 215.736 434.293 224.758C434.356 225.237 437.281 224.664 437.191 223.982C434.722 205.297 429.484 187.014 421.491 169.937C413.861 153.634 403.774 138.509 391.644 125.209C379.736 112.152 365.865 100.891 350.596 91.9892C335.42 83.1402 318.879 76.6432 301.72 72.8652C284.026 68.9692 265.721 68.0082 247.709 69.9222C229.558 71.8502 211.71 76.6382 195.053 84.1072C178.881 91.3582 163.86 101.123 150.637 112.921C137.432 124.704 126.019 138.489 116.845 153.62C107.441 169.13 100.385 186.049 95.964 203.64C91.444 221.628 89.67 240.277 90.694 258.795C91.746 277.805 95.693 296.66 102.466 314.458C108.96 331.523 118.048 347.588 129.372 361.913C140.293 375.728 153.262 387.92 167.779 397.893C182.237 407.825 198.192 415.523 214.981 420.609C232.196 425.823 250.246 428.219 268.225 427.702C286.552 427.175 304.8 423.719 322.048 417.501C338.761 411.476 354.504 402.859 368.6 392.047C382.627 381.287 394.989 368.372 405.216 353.957C415.66 339.237 423.868 322.949 429.525 305.811C435.277 288.384 438.387 270.094 438.737 251.746C438.914 242.467 438.379 233.186 437.188 223.983C437.129 223.505 434.204 224.074 434.293 224.758Z" fill="#090909"/>
<path d="M154.481 248.45L153.812 243.514L191.044 238.472L191.712 243.408L154.481 248.45ZM261.276 247.775L265.225 247.24L269.446 278.408L210.354 286.41L209.018 276.538C208.228 270.709 208.459 265.699 209.711 261.508C211.044 257.21 213.064 253.394 215.772 250.059C218.48 246.725 221.468 243.687 224.735 240.947C227.895 238.125 231.002 235.263 234.056 232.36C237.191 229.351 239.645 225.907 241.418 222.028C243.177 218.056 243.675 213.249 242.912 207.608C241.167 194.727 236.017 188.866 227.461 190.025C222.196 190.738 218.794 193.544 217.256 198.444C215.811 203.331 216.132 209.942 218.218 218.276L200.989 218.312C199.455 213.349 199.283 208.538 200.47 203.877C201.752 199.203 204.559 195.185 208.891 191.822C213.304 188.352 219.318 186.101 226.934 185.07C234.362 184.064 240.497 184.478 245.341 186.311C250.173 188.051 253.89 190.755 256.493 194.423C259.177 197.985 260.825 202.023 261.436 206.536C262.187 212.083 261.677 216.796 259.904 220.674C258.131 224.552 255.571 227.915 252.222 230.762C248.861 233.515 245.18 236.024 241.178 238.289C237.164 240.461 233.309 242.754 229.615 245.169C225.113 247.981 221.418 251.449 218.53 255.574C215.629 259.605 214.216 264.728 214.291 270.941L252.792 265.727C255.049 265.421 256.641 265.158 257.568 264.937C258.483 264.621 259.05 264.209 259.268 263.701C259.568 263.086 259.782 262.195 259.912 261.029L261.276 247.775ZM321.533 161.201L325.482 160.666L329.13 187.603L284.141 193.695L286.276 221.124C288.572 218.994 291.302 217.236 294.466 215.85C297.71 214.357 301.213 213.356 304.974 212.847C311.367 211.981 317.08 212.452 322.112 214.26C327.238 216.056 331.417 218.984 334.647 223.047C337.878 227.109 339.908 232.196 340.735 238.307C341.486 243.854 341.105 249.172 339.592 254.26C338.067 259.254 335.056 263.539 330.562 267.116C326.162 270.679 320.013 272.996 312.115 274.066C304.97 275.033 298.723 274.156 293.376 271.433C288.016 268.616 284.089 263.308 281.597 255.507L291.247 251.472C293.155 258.49 295.682 263.366 298.829 266.099C302.07 268.82 305.853 269.887 310.177 269.302C315.631 268.563 319.353 266.001 321.344 261.614C323.322 257.133 323.675 250.192 322.401 240.79C321.739 235.901 320.69 231.687 319.253 228.147C317.898 224.501 315.905 221.803 313.274 220.053C310.631 218.209 307.194 217.573 302.963 218.146C300.142 218.528 297.21 219.5 294.166 221.061C291.122 222.622 288.159 225.129 285.275 228.584L281.604 226.927L277.924 179.601L313.887 174.731C317.177 174.285 319.126 173.83 319.734 173.365C320.435 172.887 320.859 171.776 321.006 170.033L321.533 161.201Z" fill="#090909"/>
<path d="M365.451 168.047L365.737 170.159C365.964 171.839 365.791 173.458 365.215 175.016C364.64 176.573 363.665 177.908 362.289 179.019C360.953 180.079 359.217 180.753 357.083 181.042C354.994 181.325 353.142 181.136 351.526 180.477C349.95 179.765 348.678 178.735 347.709 177.386C346.74 176.038 346.142 174.523 345.914 172.843L345.629 170.731C345.401 169.051 345.578 167.455 346.159 165.943C346.734 164.385 347.69 163.076 349.027 162.017C350.402 160.905 352.134 160.208 354.223 159.925C356.312 159.643 358.145 159.857 359.721 160.568C361.337 161.228 362.629 162.232 363.597 163.581C364.606 164.878 365.223 166.367 365.451 168.047ZM378.315 157.01L380.447 157.9L361.019 206.522L358.887 205.631L378.315 157.01ZM359.727 167.782C359.456 165.784 358.855 164.246 357.923 163.17C357.03 162.043 355.88 161.574 354.472 161.765C353.065 161.955 352.058 162.716 351.452 164.047C350.885 165.326 350.737 166.964 351.008 168.962L351.57 173.118C351.847 175.161 352.429 176.724 353.315 177.806C354.247 178.883 355.417 179.325 356.825 179.135C358.233 178.944 359.22 178.209 359.786 176.93C360.399 175.645 360.566 173.98 360.29 171.937L359.727 167.782ZM394.024 190.537L394.31 192.649C394.537 194.329 394.363 195.948 393.788 197.506C393.213 199.064 392.237 200.398 390.862 201.509C389.525 202.569 387.79 203.243 385.656 203.532C383.567 203.815 381.715 203.627 380.099 202.967C378.523 202.255 377.251 201.225 376.282 199.877C375.313 198.528 374.715 197.014 374.487 195.333L374.201 193.222C373.974 191.541 374.151 189.945 374.732 188.433C375.307 186.875 376.263 185.566 377.599 184.507C378.975 183.396 380.707 182.699 382.796 182.416C384.885 182.133 386.718 182.347 388.294 183.059C389.909 183.718 391.201 184.723 392.17 186.071C393.178 187.368 393.796 188.857 394.024 190.537ZM388.3 190.272C388.029 188.274 387.428 186.737 386.496 185.661C385.603 184.533 384.453 184.064 383.045 184.255C381.637 184.446 380.631 185.206 380.025 186.537C379.458 187.816 379.31 189.455 379.58 191.453L380.143 195.608C380.42 197.651 381.002 199.214 381.888 200.297C382.82 201.373 383.99 201.816 385.397 201.625C386.805 201.434 387.792 200.7 388.359 199.42C388.971 198.135 389.139 196.471 388.862 194.427L388.3 190.272Z" fill="#090909"/>
<path d="M231.885 339.562C231.009 339.681 230.271 339.491 229.673 338.993C229.074 338.495 228.685 337.667 228.504 336.509C227.857 337.972 227.097 339.04 226.223 339.714C225.346 340.363 224.422 340.754 223.45 340.886C222.052 341.075 220.845 340.804 219.829 340.073C218.834 339.315 218.084 338.234 217.58 336.83C217.077 335.427 216.87 333.814 216.961 331.992L216.998 331.191C217.081 329.49 217.445 327.993 218.091 326.699C218.736 325.405 219.585 324.373 220.639 323.603C221.69 322.809 222.855 322.326 224.135 322.153C225.106 322.021 225.985 322.095 226.771 322.375C227.577 322.627 228.274 323.052 228.862 323.648L229.151 315.899C229.181 315.051 229.163 314.558 229.096 314.423C229.03 314.287 228.815 314.219 228.453 314.22L226.51 314.302L226.522 313.323L232.209 312.553L231.353 334.024C231.282 335.819 231.321 336.997 231.469 337.556C231.617 338.115 231.88 338.369 232.26 338.317C232.615 338.269 232.967 338.016 233.315 337.559C233.684 337.075 233.955 336.314 234.128 335.277L235.514 335.886C235.14 337.046 234.643 337.922 234.023 338.513C233.404 339.103 232.691 339.453 231.885 339.562ZM220.108 332.507C220.026 334.931 220.322 336.761 220.996 337.997C221.694 339.229 222.611 339.769 223.749 339.615C224.222 339.55 224.726 339.349 225.259 339.012C225.79 338.65 226.325 338.059 226.865 337.238C227.429 336.414 227.96 335.256 228.458 333.765L228.787 325.504C228.209 324.617 227.57 324.004 226.873 323.664C226.175 323.324 225.388 323.213 224.512 323.332C223.066 323.528 221.994 324.252 221.295 325.505C220.596 326.758 220.215 328.402 220.153 330.437L220.108 332.507ZM241.338 316.095C240.177 316.252 239.519 315.762 239.365 314.625C239.285 314.032 239.407 313.509 239.732 313.055C240.077 312.574 240.569 312.29 241.209 312.203C241.754 312.129 242.201 312.226 242.551 312.492C242.921 312.731 243.142 313.112 243.212 313.633C243.293 314.226 243.16 314.762 242.815 315.243C242.494 315.721 242.001 316.005 241.338 316.095ZM236.823 321.774L236.87 320.79L242.522 320.025L242.05 332.576C241.979 334.371 242.018 335.548 242.166 336.107C242.314 336.666 242.578 336.92 242.957 336.869C243.312 336.821 243.664 336.568 244.012 336.11C244.381 335.626 244.652 334.866 244.825 333.829L246.211 334.437C245.837 335.598 245.328 336.475 244.685 337.069C244.065 337.66 243.364 338.008 242.582 338.114C241.492 338.261 240.617 337.946 239.957 337.166C239.32 336.384 239.035 335.083 239.102 333.264L239.464 323.37C239.497 322.546 239.48 322.065 239.413 321.929C239.344 321.77 239.128 321.691 238.766 321.691L236.823 321.774ZM254.293 336.709C253.251 336.85 252.26 336.839 251.321 336.677C250.382 336.515 249.585 336.152 248.929 335.589C248.295 335 247.869 334.176 247.654 333.12L249.619 332.13C249.804 333.673 250.314 334.678 251.149 335.144C251.985 335.61 252.971 335.766 254.108 335.612C255.435 335.432 256.475 335.002 257.227 334.321C258 333.613 258.314 332.726 258.17 331.66C258.074 330.949 257.753 330.365 257.209 329.908C256.685 329.424 255.83 329.081 254.644 328.879L252.492 328.483C251.306 328.282 250.34 327.834 249.595 327.138C248.873 326.44 248.438 325.545 248.29 324.455C248.172 323.579 248.269 322.697 248.584 321.81C248.922 320.919 249.527 320.138 250.402 319.464C251.272 318.767 252.49 318.313 254.054 318.101C255.594 317.892 256.851 318 257.825 318.423C258.823 318.843 259.522 319.46 259.922 320.274C260.345 321.086 260.457 322 260.257 323.016L257.419 323.979C257.79 322.264 257.668 321.002 257.051 320.192C256.435 319.383 255.428 319.073 254.03 319.262C252.892 319.416 252.02 319.836 251.413 320.522C250.803 321.183 250.566 322.012 250.7 323.007C250.813 323.836 251.128 324.469 251.645 324.906C252.183 325.316 252.885 325.595 253.749 325.743L255.902 326.139C257.186 326.352 258.237 326.812 259.057 327.522C259.901 328.228 260.405 329.185 260.568 330.394C260.69 331.294 260.559 332.193 260.173 333.089C259.812 333.983 259.145 334.761 258.173 335.423C257.221 336.059 255.928 336.487 254.293 336.709ZM272.299 316.788C271.114 316.949 270.095 317.618 269.241 318.795C268.384 319.949 267.921 321.701 267.853 324.05L267.787 326.231C267.718 328.75 268.051 330.587 268.786 331.742C269.542 332.87 270.608 333.341 271.982 333.155C272.527 333.081 273.093 332.896 273.68 332.6C274.291 332.3 274.834 331.852 275.308 331.257C275.803 330.635 276.154 329.84 276.36 328.87L278.121 329.573C277.487 331.131 276.604 332.276 275.473 333.008C274.362 333.714 273.179 334.151 271.923 334.322C270.383 334.53 269.05 334.312 267.925 333.668C266.8 333.024 265.942 332.031 265.35 330.687C264.778 329.317 264.532 327.673 264.61 325.756L264.646 324.955C264.736 323.302 265.102 321.817 265.744 320.499C266.383 319.158 267.26 318.062 268.375 317.211C269.49 316.36 270.795 315.834 272.287 315.632C273.685 315.442 274.875 315.583 275.855 316.054C276.836 316.524 277.548 317.236 277.991 318.189C278.433 319.143 278.535 320.251 278.296 321.514L275.494 322.473C275.853 320.494 275.737 319.013 275.146 318.032C274.575 317.023 273.626 316.609 272.299 316.788ZM297.237 321.772L297.201 322.574C297.101 325.217 296.39 327.365 295.069 329.015C293.745 330.642 291.899 331.616 289.529 331.937C287.87 332.162 286.452 331.932 285.273 331.247C284.115 330.535 283.24 329.507 282.648 328.164C282.052 326.797 281.793 325.239 281.87 323.491L281.902 322.655C282.026 320.008 282.738 317.872 284.038 316.248C285.335 314.601 287.157 313.618 289.503 313.301C291.185 313.073 292.617 313.313 293.799 314.022C294.978 314.707 295.865 315.733 296.46 317.1C297.055 318.467 297.314 320.025 297.237 321.772ZM294.056 321.262C294.155 318.787 293.801 316.977 292.994 315.832C292.188 314.686 291.05 314.213 289.581 314.412C288.278 314.588 287.223 315.262 286.416 316.433C285.63 317.577 285.194 319.349 285.109 321.75L285.047 323.966C284.948 326.441 285.303 328.263 286.113 329.432C286.92 330.577 288.046 331.052 289.491 330.857C290.818 330.677 291.873 330.003 292.656 328.835C293.463 327.664 293.897 325.88 293.958 323.483L294.056 321.262ZM317.254 328.002C316.306 328.13 315.516 327.911 314.885 327.345C314.277 326.776 313.918 325.823 313.81 324.487C312.987 326.07 312.062 327.257 311.034 328.048C310.007 328.838 308.913 329.312 307.752 329.47C306.094 329.694 304.82 329.287 303.931 328.25C303.063 327.185 302.662 325.647 302.727 323.635L303.081 314.755C303.114 313.931 303.098 313.45 303.031 313.314C302.961 313.155 302.745 313.076 302.383 313.076L300.405 313.163L300.452 312.18L306.139 311.41L305.673 323.2C305.608 325.042 305.809 326.342 306.273 327.1C306.738 327.857 307.385 328.18 308.214 328.068C308.783 327.991 309.378 327.753 310 327.355C310.645 326.954 311.282 326.313 311.911 325.432C312.563 324.547 313.198 323.351 313.814 321.844L314.278 310.307L317.193 309.913L316.721 322.464C316.65 324.259 316.689 325.436 316.837 325.995C316.985 326.554 317.249 326.808 317.628 326.757C317.984 326.709 318.335 326.456 318.684 325.998C319.052 325.514 319.323 324.754 319.497 323.717L320.882 324.325C320.508 325.486 320 326.363 319.356 326.957C318.737 327.548 318.036 327.896 317.254 328.002ZM342.829 321.353C342.455 322.514 341.947 323.391 341.303 323.985C340.683 324.576 339.959 324.927 339.129 325.04C338.039 325.187 337.182 324.917 336.558 324.229C335.934 323.542 335.667 322.371 335.757 320.718L336.236 313.559C336.347 311.711 336.147 310.41 335.635 309.659C335.123 308.908 334.405 308.595 333.481 308.72C332.912 308.797 332.293 309.038 331.624 309.442C330.979 309.844 330.318 310.488 329.642 311.376C328.986 312.237 328.34 313.434 327.703 314.968L327.269 326.465L324.355 326.859L324.921 311.798C324.954 310.973 324.938 310.493 324.871 310.357C324.801 310.197 324.585 310.118 324.223 310.119L322.28 310.201L322.328 309.217L327.873 308.466L327.743 312.321C328.587 310.71 329.534 309.508 330.585 308.715C331.659 307.918 332.777 307.44 333.938 307.283C335.691 307.046 337.026 307.456 337.941 308.515C338.88 309.57 339.282 311.108 339.145 313.129L338.651 320.435C338.577 321.676 338.589 322.567 338.687 323.109C338.781 323.627 339.053 323.855 339.504 323.794C339.907 323.74 340.282 323.484 340.63 323.027C340.999 322.542 341.27 321.782 341.443 320.745L342.829 321.353ZM355.398 318.964C354.964 320.567 354.359 321.71 353.583 322.395C352.83 323.076 351.98 323.48 351.032 323.609C349.231 323.852 347.944 323.436 347.171 322.358C346.398 321.28 346.042 319.808 346.103 317.942L346.428 308.849C346.464 308.048 346.449 307.58 346.382 307.444C346.312 307.284 346.085 307.207 345.699 307.211L343.756 307.293L343.803 306.309L346.54 305.939L346.727 301.172L349.666 300.158L349.455 305.544L355.248 304.759L355.189 305.926L349.395 306.71L348.936 318.282C348.855 320.006 349.011 321.156 349.403 321.73C349.818 322.301 350.345 322.543 350.985 322.457C351.625 322.37 352.148 322.046 352.554 321.484C352.981 320.895 353.318 319.909 353.565 318.524L355.398 318.964Z" fill="#090909"/>
</g>
</g>
<defs>
<clipPath id="clip0_262_13814">
<rect width="1024" height="512" fill="white"/>
</clipPath>
</defs>
</svg>
