<svg width="27" height="27" viewBox="0 0 27 27" fill="none" xmlns="http://www.w3.org/2000/svg">
<circle cx="13.5" cy="13.5" r="13.5" fill="#0289E1"/>
<path fill-rule="evenodd" clip-rule="evenodd" d="M6.50005 13.0002C6.50005 13.1991 6.57907 13.3898 6.71972 13.5305C6.86037 13.6711 7.05114 13.7502 7.25005 13.7502H16.94L14.22 16.4702C14.0876 16.6123 14.0154 16.8004 14.0189 16.9947C14.0223 17.189 14.101 17.3744 14.2384 17.5118C14.3758 17.6492 14.5612 17.7279 14.7555 17.7313C14.9498 17.7348 15.1379 17.6626 15.28 17.5302L19.28 13.5302C19.4205 13.3895 19.4994 13.1989 19.4994 13.0002C19.4994 12.8014 19.4205 12.6108 19.28 12.4702L15.28 8.47015C15.2114 8.39647 15.1286 8.33736 15.0366 8.29637C14.9446 8.25538 14.8453 8.23334 14.7446 8.23156C14.6439 8.22979 14.5438 8.24831 14.4505 8.28603C14.3571 8.32375 14.2722 8.3799 14.201 8.45112C14.1298 8.52233 14.0736 8.60717 14.0359 8.70056C13.9982 8.79394 13.9797 8.89397 13.9815 8.99468C13.9832 9.09538 14.0053 9.19469 14.0463 9.28669C14.0873 9.37869 14.1464 9.46149 14.22 9.53015L16.94 12.2502H7.25005C7.05114 12.2502 6.86037 12.3292 6.71972 12.4698C6.57907 12.6105 6.50005 12.8012 6.50005 13.0002Z" fill="white"/>
</svg>
